<svg width="56" height="60" viewBox="0 0 56 60" fill="none" xmlns="http://www.w3.org/2000/svg">
<g clip-path="url(#clip0_343_3545)">
<path d="M17.1262 4.5859H17.0928C17.0629 4.59857 17.036 4.61735 17.0137 4.64104C16.9915 4.66473 16.9744 4.69281 16.9636 4.72347C16.9511 4.75317 16.9447 4.78506 16.9447 4.81727C16.9447 4.84949 16.9511 4.88138 16.9636 4.91108C17.0011 5.03198 17.0428 5.15288 17.0887 5.26127H17.0553C17.0161 5.2686 16.9794 5.28586 16.9488 5.31141C16.9181 5.33695 16.8945 5.36993 16.8802 5.40718C16.8164 5.61081 16.7732 5.8203 16.751 6.03253C16.7176 6.27433 16.6968 6.50363 16.676 6.72875C16.6426 7.1123 16.6218 7.48334 16.5967 7.85438V8.09201C16.5384 8.98834 16.4967 9.89718 16.4633 10.7852C16.4258 11.8149 16.405 12.6737 16.405 13.4908C16.405 13.9578 16.405 14.383 16.4341 14.7874C16.4633 15.1918 16.4883 15.6212 16.5259 16.0131C16.5467 16.2716 16.5759 16.5342 16.6009 16.7927C16.6843 17.6265 16.7718 18.4978 16.7885 19.3524C16.7902 19.8511 16.7623 20.3495 16.7051 20.8449L16.3674 20.7574L16.1923 20.7115L14.7582 20.3572C13.9244 20.1612 13.2074 19.9945 12.5445 19.8569L12.3277 19.7943C11.9733 19.6985 11.5898 19.6067 11.1521 19.5192L10.7893 19.4441C10.5475 19.3983 10.2974 19.3483 10.0556 19.2899C9.81381 19.2315 9.68457 19.1898 9.49697 19.1398C8.78862 18.9008 8.05072 18.7605 7.30408 18.7229C7.27224 18.7189 7.24003 18.7189 7.2082 18.7229H7.18735L7.0873 18.7354L6.99558 18.7062C6.60202 18.5861 6.19896 18.4996 5.79074 18.4478C5.7617 18.4437 5.73223 18.4437 5.70319 18.4478C5.66445 18.4561 5.62813 18.4732 5.59704 18.4977C5.56596 18.5223 5.54094 18.5537 5.52393 18.5895C5.38172 18.549 5.24244 18.4988 5.10703 18.4394C5.09715 18.4352 5.08651 18.433 5.07576 18.433C5.06501 18.433 5.05437 18.4352 5.04449 18.4394C5.02676 18.4444 5.01041 18.4534 4.99668 18.4657C4.98295 18.478 4.97222 18.4932 4.96528 18.5103C4.95893 18.5292 4.95893 18.5497 4.96528 18.5687L4.54839 18.4936L3.78129 18.3435C3.4311 18.281 3.0809 18.2185 2.73071 18.1434H2.7057C2.37635 18.0767 2.03449 18.01 1.70097 17.9225C1.64746 17.9103 1.5919 17.9103 1.53838 17.9225H1.49252C1.42885 17.9519 1.37835 18.0039 1.35078 18.0684C1.32174 18.0642 1.29226 18.0642 1.26323 18.0684H1.22988L1.19653 18.0392C1.16816 18.018 1.13586 18.0027 1.1015 17.9941C1.06714 17.9855 1.03142 17.9838 0.996415 17.9892C0.925492 18.0005 0.861809 18.0391 0.818966 18.0968C0.776123 18.1544 0.757517 18.2265 0.767121 18.2977C0.851796 18.6656 0.979116 19.0224 1.1465 19.3608C1.32532 19.7314 1.53156 20.0881 1.76351 20.428C2.18041 21.0284 2.65984 21.5995 3.12259 22.1456L3.28102 22.3333C3.53115 22.6292 3.77296 22.9169 4.00225 23.2129C4.23154 23.5089 4.49002 23.8716 4.72348 24.1926L4.79852 24.2968C5.35717 25.0723 5.91581 25.8644 6.4411 26.6106L6.62454 26.8691C7.31242 27.8488 8.02115 28.8619 8.75072 29.8333C9.22598 30.4711 9.58451 30.9505 9.95972 31.3925L10.164 31.6384C9.80964 32.1137 9.48863 32.6306 9.1968 33.1142L9.03421 33.3852C8.84244 33.7021 8.65483 34.0147 8.45889 34.3274C8.18791 34.7443 7.89608 35.1612 7.62509 35.5781L7.12065 36.3118C6.70375 36.9122 6.28685 37.5292 5.86995 38.1504C5.31965 38.9842 4.77351 39.8805 4.23988 40.7852C3.96473 41.2729 3.6729 41.7816 3.33521 42.4152C3.18513 42.6904 3.03505 42.9655 2.88913 43.249L2.62232 43.7577C2.55978 43.8827 2.50142 44.0036 2.43471 44.1245C2.42219 44.1527 2.41572 44.1833 2.41572 44.2142C2.41572 44.245 2.42219 44.2756 2.43471 44.3038C2.44796 44.3416 2.46886 44.3763 2.49612 44.4058C2.52338 44.4352 2.5564 44.4586 2.59313 44.4747C2.64464 44.4913 2.70005 44.4913 2.75156 44.4747H2.80158C2.86446 44.4422 2.91443 44.3893 2.94333 44.3246L2.98085 44.2496L3.01003 44.2037H3.07674C3.1631 44.2082 3.24969 44.204 3.33521 44.1912H3.38524C3.44014 44.178 3.49331 44.1584 3.54366 44.1329C3.61325 44.1023 3.67789 44.0616 3.73543 44.012L4.03143 43.9494L4.58591 43.816L5.14872 43.6868L5.45305 43.6201C5.86995 43.5325 6.28685 43.4491 6.70375 43.3866C6.9789 43.3449 7.25405 43.3157 7.53754 43.2866L7.98363 43.2324C8.79658 43.1323 9.65122 43.0114 10.5142 42.878C10.9339 42.8113 11.3508 42.7404 11.7649 42.6654L12.3069 42.5695L13.0114 42.4403C13.5992 42.3402 14.1996 42.261 14.7791 42.1818L15.7588 42.0484C16.3299 41.965 17.0095 41.8608 17.6682 41.7107L18.1351 41.5981C18.035 41.9733 17.9433 42.3652 17.8516 42.7863C17.6932 43.4992 17.5473 44.2663 17.3722 45.2877C17.2888 45.7754 17.2096 46.2632 17.1304 46.7468L16.9553 47.7807C16.8886 48.1921 16.8177 48.609 16.7427 49.0314C16.7051 49.2149 16.6718 49.3983 16.6343 49.5817C16.5967 49.7652 16.5509 49.9986 16.5134 50.2321C16.405 50.8324 16.3216 51.4494 16.2382 52.0498C16.209 52.2707 16.1757 52.4958 16.1465 52.721C16.0339 53.5006 15.9005 54.3385 15.6921 55.1848V55.1431C15.6045 55.4683 15.5253 55.7393 15.4378 55.9769C15.4184 56.0284 15.4197 56.0854 15.4415 56.136C15.4632 56.1865 15.5038 56.2266 15.5545 56.2479C15.5949 56.2626 15.6392 56.2626 15.6796 56.2479C15.7121 56.2418 15.7426 56.2274 15.7681 56.2063C15.7936 56.1851 15.8134 56.1579 15.8255 56.127C15.8472 56.1185 15.8671 56.1058 15.8838 56.0895L16.109 55.8811L16.3633 55.6393L16.8802 55.1348C17.1679 54.8513 17.4681 54.5428 17.8599 54.1384C18.5145 53.4505 19.1648 52.7501 19.7902 52.0539C20.4155 51.3577 20.9783 50.699 21.6287 49.9277L21.7996 49.7235C22.0456 49.4358 22.2874 49.144 22.5375 48.8563L23.0128 48.3185L23.4839 47.7807L23.6507 47.5848C24.0217 47.1679 24.3927 46.751 24.7513 46.3091C24.9514 46.0673 25.1682 45.8255 25.3516 45.5837L25.3766 45.5545L25.3975 45.5253L25.51 45.8838C25.6601 46.3341 25.8185 46.7885 26.002 47.2679C26.2563 47.9391 26.5273 48.6145 26.7941 49.269C26.89 49.515 26.99 49.7568 27.0859 49.9986L27.1401 50.1362C27.4444 50.8908 27.7571 51.6704 28.0239 52.45L28.149 52.8127C28.3699 53.4505 28.5951 54.1092 28.8494 54.7471C29.0757 55.3417 29.3346 55.9235 29.6248 56.4897C29.9061 57.0473 30.2427 57.5753 30.6295 58.0656C30.6456 58.0831 30.6638 58.0985 30.6837 58.1115C30.6797 58.1377 30.681 58.1645 30.6874 58.1903C30.6938 58.216 30.7053 58.2403 30.7212 58.2615C30.7398 58.2883 30.7639 58.3108 30.792 58.3274C30.8201 58.3439 30.8514 58.3542 30.8838 58.3574C30.9085 58.3636 30.9342 58.3636 30.9589 58.3574C31.0038 58.3464 31.0444 58.3223 31.0755 58.2881C31.1067 58.254 31.1271 58.2114 31.134 58.1657C31.184 57.903 31.2424 57.6362 31.2966 57.3735L31.3633 57.0525C31.3763 57.0487 31.388 57.0411 31.3969 57.0307C31.4058 57.0204 31.4115 57.0077 31.4133 56.9942C31.5175 56.2604 31.6801 55.5309 31.8302 54.9097C31.8844 54.6679 31.9428 54.4261 31.997 54.1843L32.072 53.8758L32.147 53.5548C32.2012 53.3171 32.2596 53.0753 32.3096 52.8377C32.3763 52.5292 32.4555 52.1623 32.5181 51.7788C32.5181 51.6662 32.5556 51.5536 32.5723 51.4411L32.6056 51.2576C32.639 51.07 32.6682 50.8783 32.6932 50.6907C32.6952 50.6532 32.6952 50.6156 32.6932 50.5781C32.7432 50.3363 32.7891 50.0945 32.8349 49.8527C33.01 48.923 33.1643 48.0058 33.3144 47.0678C33.4644 46.1298 33.6187 45.1251 33.7313 44.2121C33.7938 43.7285 33.8521 43.2407 33.9063 42.7529C33.9258 42.5945 33.9425 42.4361 33.9564 42.2777C34.6518 42.7276 35.3824 43.1207 36.1409 43.4533C36.6495 43.6868 37.1581 43.8994 37.6376 44.0995L38.2838 44.3705L38.3755 44.408C38.6275 44.5148 38.8738 44.6344 39.1134 44.7665L39.0634 44.7332C39.5803 45.0209 40.0764 45.3544 40.5559 45.6796C41.0914 46.0586 41.6481 46.4065 42.2235 46.7218C42.8131 47.0175 43.4217 47.2737 44.0453 47.4889L44.2246 47.5514C44.4759 47.6346 44.7223 47.732 44.9625 47.8433L45.2418 47.985L45.4002 48.0684C45.5326 48.1392 45.6724 48.1952 45.8171 48.2351L45.9172 48.3852C45.9448 48.4213 45.9827 48.4481 46.0258 48.4623C46.069 48.4764 46.1154 48.4772 46.159 48.4644C46.1947 48.4587 46.228 48.4428 46.2549 48.4186C46.3034 48.3787 46.3341 48.3212 46.3404 48.2587C46.3466 48.1962 46.3279 48.1338 46.2882 48.0851C46.2424 48.0184 46.2007 47.9516 46.159 47.8808C45.8546 47.348 45.5965 46.7901 45.3877 46.2132C45.321 46.0381 45.2501 45.8588 45.1751 45.6796C45.0709 45.4252 44.9541 45.1751 44.8416 44.9291L44.6415 44.5122C44.4956 44.1829 44.3413 43.8577 44.187 43.5325L44.0578 43.2574C43.8535 42.8405 43.6409 42.4236 43.445 42.0067L43.1698 41.2729L42.8697 40.7101C42.4944 39.9889 42.0359 39.1343 41.5481 38.2879C41.4036 38.035 41.2535 37.7807 41.0978 37.525L41.1395 37.6042C40.9478 37.2791 40.7226 36.933 40.5058 36.6037L40.41 36.4619L40.2515 36.2243L40.3307 36.2035C40.7893 36.0826 41.2521 35.9491 41.7482 35.7866C42.582 35.5322 43.4658 35.2321 44.4497 34.8694C46.3924 34.1481 48.2935 33.3269 49.7318 32.689L50.2613 32.4514L50.7198 32.2429L51.7621 31.7802L52.3708 31.5092C52.8335 31.3007 53.3171 31.0923 53.7924 30.8838C53.8477 30.8583 53.8911 30.8125 53.9136 30.7558C53.9361 30.6992 53.936 30.6361 53.9133 30.5795C53.8935 30.539 53.8633 30.5044 53.8257 30.4794L53.8007 30.4419C53.6646 30.2871 53.4841 30.178 53.2838 30.1292C53.1128 30.0751 52.9377 30.0334 52.7626 29.9958H52.6959C52.5625 29.9625 52.425 29.9375 52.279 29.9083C52.0372 29.8583 51.7871 29.8082 51.5411 29.7457H51.5662H51.6162C49.886 29.3038 48.2185 28.7493 46.9553 28.3116L46.1923 28.0406C45.7754 27.8905 45.3335 27.7363 44.8999 27.5945L44.3622 27.4236C43.9161 27.286 43.4575 27.1443 43.0156 26.9817C42.5859 26.8272 42.1679 26.6419 41.7649 26.4272C41.5955 26.3454 41.4313 26.2535 41.2729 26.152L41.3855 26.0311C41.6898 25.7018 42.015 25.3391 42.3777 24.9264C42.9989 24.2176 43.6284 23.4714 44.2704 22.6543C44.9125 21.8371 45.4753 21.1076 46.0631 20.303L46.2507 20.0403C46.48 19.7318 46.7093 19.4191 46.9302 19.1065L47.2721 18.6145L47.7765 17.8933L48.2727 17.1887C48.5353 16.8094 48.8021 16.4258 49.0689 16.0506L49.3733 15.6337C49.711 15.1543 50.0611 14.6623 50.4197 14.1871C50.4375 14.1643 50.4504 14.1381 50.4576 14.1101C50.4648 14.0822 50.4661 14.053 50.4614 14.0245C50.4577 13.9948 50.448 13.9663 50.433 13.9405C50.4179 13.9147 50.3978 13.8922 50.3738 13.8744C50.3482 13.8559 50.3191 13.843 50.2882 13.8366C50.2573 13.8301 50.2254 13.8302 50.1946 13.8369C50.1488 13.8497 50.1072 13.8741 50.0737 13.9077C49.9835 13.8995 49.8928 13.8995 49.8027 13.9077C49.736 13.9077 49.6734 13.9328 49.6109 13.9453L49.5025 13.9703C49.2815 14.0203 49.0856 14.0828 48.8563 14.1454H48.8188L48.0058 14.3872L47.5889 14.5122C47.172 14.6331 46.7551 14.7582 46.3382 14.8916C45.9213 15.025 45.5545 15.1543 45.1543 15.3085C44.629 15.4961 44.112 15.6921 43.5909 15.888C42.5695 16.2674 41.5064 16.6676 40.4516 16.9844L40.164 17.0678C39.8513 17.1554 39.5386 17.2346 39.2343 17.3055C38.3096 17.5208 37.3653 17.6409 36.4161 17.664H36.4744C36.1201 17.664 35.7699 17.664 35.4322 17.6223V17.5931V17.4472C35.4322 17.0803 35.4655 16.7176 35.4781 16.2882V15.813C35.4781 15.2126 35.5114 14.5915 35.5573 13.9786C35.6031 13.3658 35.6406 12.8446 35.6823 12.2735C35.7574 11.2896 35.8324 10.2682 35.895 9.26349C36.045 7.50418 36.1534 5.41969 36.1242 3.3352V3.06839V2.75154V2.80157C36.1242 2.20541 36.1242 1.60507 36.0909 1.00891C36.0851 0.965751 36.0645 0.925956 36.0325 0.896346C36.0102 0.871894 35.9821 0.85338 35.9508 0.842465C35.9195 0.83155 35.886 0.828577 35.8533 0.833811C35.8214 0.838757 35.7913 0.851662 35.7657 0.871332H35.7407C35.7106 0.876587 35.6829 0.89117 35.6615 0.913022C35.3735 1.20848 35.1165 1.53256 34.8944 1.88023L34.8277 1.97611C34.5692 2.34298 34.3149 2.71402 34.0648 3.08923C33.8938 3.34771 33.7271 3.61035 33.5645 3.873L33.3477 4.20652C33.1518 4.51502 32.9558 4.82353 32.7557 5.13203L32.6348 5.31547C32.318 5.80324 32.0011 6.29101 31.6884 6.77878C31.0506 7.75432 30.3919 8.76739 29.754 9.77211C28.2657 12.1151 27.1276 14.0537 26.1812 15.8588L25.8686 15.517C25.7018 15.3419 25.535 15.1668 25.3766 14.9875C24.7596 14.2871 24.1676 13.5701 23.6256 12.903C23.0837 12.236 22.4792 11.4647 21.958 10.756C21.6829 10.3933 21.4119 10.0306 21.1243 9.66372L20.97 9.45944C20.7866 9.20513 20.5906 8.94665 20.3905 8.69651C20.082 8.3213 19.7443 7.9586 19.4191 7.60841C18.9 7.07441 18.4207 6.50312 17.985 5.89912C17.8099 5.59479 17.6473 5.30713 17.4972 5.01947C17.4597 4.91941 17.4222 4.81936 17.393 4.7193C17.3804 4.68886 17.3617 4.66133 17.338 4.63839C17.3144 4.61545 17.2863 4.59758 17.2554 4.5859C17.2079 4.57139 17.1571 4.57139 17.1095 4.5859H17.1262Z" fill="#7195C9"/>
<path d="M18.5855 9.25507C18.548 9.26398 18.5151 9.28625 18.4928 9.31772C18.4705 9.34918 18.4605 9.38768 18.4646 9.426C18.5146 9.88459 18.548 10.3432 18.5772 10.7392C18.6064 11.1353 18.6397 11.6147 18.6605 12.0525C18.6605 12.2359 18.6814 12.4235 18.6939 12.6069C18.6939 12.8571 18.7231 13.1114 18.7356 13.3615L18.7981 14.6706C18.8343 15.5405 18.869 16.4118 18.9023 17.2845L18.9899 19.8943L19.0191 20.7281C19.0191 21.4619 19.0649 22.1914 19.09 22.921C19.09 23.3754 19.1275 23.8257 19.1483 24.2759V24.4385L18.623 24.3384L18.0936 24.2426C17.5474 24.1425 16.993 24.0341 16.426 23.9174C15.3504 23.6923 14.2748 23.4421 13.2242 23.167C12.6822 23.0252 12.1027 22.8585 11.5107 22.6792L10.9438 22.5124C10.6311 22.4124 10.3017 22.3082 9.97656 22.2206C9.42625 22.0664 8.85927 21.9329 8.30897 21.8037C7.86705 21.6995 7.41263 21.5911 6.96655 21.4785C6.52047 21.366 6.18695 21.2534 5.85761 21.1367C5.48706 21.0103 5.12735 20.8542 4.78201 20.6697H4.72364H4.67778H4.60274C4.572 20.6767 4.5434 20.691 4.51936 20.7114C4.49765 20.7279 4.47945 20.7486 4.46585 20.7722C4.45224 20.7958 4.44351 20.822 4.44015 20.849C4.43487 20.8778 4.43626 20.9074 4.44421 20.9356C4.45216 20.9638 4.46646 20.9898 4.48601 21.0116C5.08217 21.5994 5.63248 22.2123 6.24115 22.896C6.91236 23.6464 7.44599 24.2634 7.92959 24.8429C8.47573 25.5058 9.0302 26.1645 9.59718 26.819C10.1642 27.4735 10.7353 28.1489 11.294 28.7617C11.6275 29.1328 11.9985 29.5247 12.4613 30.0124C12.8073 30.3668 13.1658 30.7337 13.5452 31.063L13.0324 31.8718C12.6461 32.4916 12.257 33.11 11.8651 33.727C10.9688 35.1486 10.1975 36.3201 9.49296 37.4165C8.8551 38.3921 8.21725 39.3468 7.59607 40.2556L7.49601 40.4057C7.35427 40.6142 7.20419 40.8226 7.0541 41.0394C7.02062 41.0616 6.99344 41.0921 6.97518 41.1279C6.95692 41.1636 6.94821 41.2035 6.94988 41.2437C6.95099 41.2732 6.95823 41.3021 6.97115 41.3287C6.98407 41.3553 7.00238 41.3788 7.02492 41.3979C7.04564 41.4184 7.0705 41.4342 7.09782 41.4442C7.12514 41.4543 7.1543 41.4584 7.18334 41.4563C8.28448 41.3721 9.37816 41.2091 10.456 40.9685L11.4816 40.7726C12.1945 40.6433 12.9157 40.5349 13.6161 40.4349C14.1719 40.3515 14.7278 40.2723 15.2837 40.1973L15.8465 40.1181C17.1889 39.9263 18.7648 39.7012 20.2781 39.3968C20.5866 39.3385 20.8951 39.2759 21.2036 39.2092C21.2036 39.4052 21.1578 39.6011 21.1286 39.8012V39.8596V39.8012C20.8988 41.1436 20.5968 42.4727 20.2239 43.7826L20.1405 44.0911C19.9946 44.6331 19.8404 45.1959 19.7236 45.7587L19.6486 46.063C19.5902 46.309 19.5277 46.555 19.4652 46.7968C19.3734 47.1553 19.2776 47.5097 19.1817 47.864C19.1191 48.0933 19.0566 48.3226 18.9899 48.5519L18.8648 49.0105L18.7814 49.3065L18.7022 49.6067L18.6314 49.8651L18.5438 50.1987C18.5287 50.2385 18.528 50.2823 18.5417 50.3226C18.5554 50.3629 18.5827 50.3972 18.6189 50.4196C18.6384 50.4322 18.6604 50.4405 18.6834 50.4441C18.7063 50.4477 18.7298 50.4465 18.7523 50.4405C18.7997 50.427 18.8409 50.3975 18.869 50.3571C18.9941 50.1695 19.14 49.9694 19.3151 49.7526C19.6861 49.294 20.0988 48.8604 20.4949 48.4393L20.6492 48.2726L20.72 48.2017C20.9243 47.9808 21.1369 47.7848 21.3287 47.543L21.7206 47.0928L22.0124 46.7551C22.5627 46.1339 23.1255 45.5044 23.68 44.9124C24.0969 44.4955 24.4804 44.0369 24.8723 43.595C25.2642 43.1531 25.7061 42.6486 26.0772 42.2109L26.123 42.1567L26.1731 42.1025L26.2147 42.2234L26.2648 42.3443C26.5649 43.0989 26.8484 43.841 27.061 44.4288L27.4112 45.3543C27.8281 46.409 28.2117 47.4972 28.6369 48.5602C28.6995 48.7145 28.7662 48.8687 28.8287 49.0272C28.8912 49.1856 28.9871 49.3982 29.058 49.59C29.1289 49.7818 29.2247 50.0069 29.304 50.2362C29.3498 50.3571 29.3915 50.4738 29.4374 50.5905C29.5875 51.0074 29.7125 51.3034 29.8543 51.5911C29.9973 51.9121 30.1573 52.2252 30.3337 52.5291C30.347 52.5529 30.3663 52.5728 30.3897 52.5867C30.4131 52.6006 30.4399 52.6081 30.4671 52.6083C30.4849 52.6202 30.5047 52.6286 30.5255 52.6333C30.5557 52.6395 30.5869 52.6395 30.6172 52.6333C30.6541 52.6247 30.688 52.6062 30.7152 52.5797C30.7424 52.5533 30.7618 52.5199 30.7714 52.4833C30.884 52.0664 30.9799 51.6495 31.0549 51.1825C31.13 50.7156 31.18 50.3487 31.2425 49.8151C31.2884 49.3982 31.3301 48.9396 31.3718 48.5019C31.4135 48.0641 31.4552 47.6014 31.5052 47.1511C31.6469 45.9671 31.8304 44.7706 32.0096 43.6117L32.1222 42.8946C32.2889 41.7898 32.464 40.6142 32.5933 39.4302H32.6183L33.5855 39.9096C34.1858 40.2056 34.8445 40.5475 35.4365 40.856L36.0744 41.1936L37.3459 41.8607L38.3006 42.3526C38.6258 42.5152 38.9385 42.6903 39.2011 42.8404C39.568 43.0488 39.9349 43.2573 40.2892 43.4866L40.9688 43.9035C41.6525 44.3204 42.2195 44.6164 42.7698 44.8749C42.8063 44.8872 42.8458 44.8872 42.8823 44.8749H42.9115H42.9574H42.9991C43.0293 44.8544 43.0508 44.8234 43.0593 44.7879C43.0678 44.7524 43.0626 44.715 43.0449 44.6831C42.8823 44.4163 42.7197 44.1244 42.5155 43.7409L42.2445 43.2156L42.0152 42.7987C41.8568 42.4944 41.6817 42.165 41.5024 41.8482C41.3231 41.5313 41.1605 41.2687 40.9354 40.9185C40.5324 40.2931 40.1308 39.6678 39.7306 39.0425L39.3137 38.3796L39.1344 38.1003L39.0594 37.9377C38.9051 37.6959 38.7509 37.4499 38.6008 37.2039C38.4507 36.958 38.2881 36.6745 38.1297 36.4035C37.9713 36.1325 37.7461 35.7406 37.546 35.4154C37.4001 35.182 37.2667 34.9735 37.1291 34.7818L38.0922 34.4732C38.7592 34.2606 39.4929 34.0564 40.3309 33.7854L42.1986 33.2267C43.0699 32.9724 43.9454 32.7139 44.8167 32.4471C45.4963 32.2387 46.1216 32.0302 46.7345 31.8385C47.0597 31.7356 47.3848 31.6272 47.71 31.5133L48.227 31.3298L48.6814 31.1714C48.7272 31.1569 48.7659 31.1257 48.7899 31.084C48.8138 31.0423 48.8212 30.9932 48.8106 30.9463C48.8128 30.9055 48.8006 30.8653 48.7762 30.8326C48.7519 30.7999 48.7169 30.7767 48.6772 30.767C47.9476 30.667 47.2306 30.5294 46.6261 30.4043C45.909 30.2584 45.1961 30.0916 44.5958 29.9499C43.8412 29.7706 43.0908 29.5789 42.3404 29.3913L40.5602 28.9327C39.618 28.7034 38.8468 28.5158 38.1255 28.3824C37.7712 28.3073 37.4168 28.2406 37.0624 28.1781L37.3626 27.7612C37.7795 27.1567 38.1964 26.548 38.6592 25.956C39.4221 24.9388 40.2767 23.8715 41.4357 22.5166C42.0138 21.8357 42.5974 21.1575 43.1867 20.4821L43.8287 19.7401L45.0252 18.3435C45.2837 18.0391 45.5421 17.7348 45.7964 17.4263L46.2133 16.9093C46.2236 16.8981 46.2314 16.8849 46.2365 16.8706C46.2415 16.8563 46.2435 16.8411 46.2425 16.8259C46.2545 16.8182 46.2645 16.8077 46.2718 16.7954C46.279 16.7831 46.2833 16.7693 46.2842 16.7551C46.2877 16.7376 46.2872 16.7195 46.2829 16.7022C46.2786 16.6849 46.2705 16.6688 46.2592 16.655C46.2367 16.6324 46.2074 16.6177 46.1758 16.6133H46.1425C46.123 16.6182 46.1046 16.6266 46.0883 16.6383H46.0424C45.9976 16.6478 45.9577 16.6729 45.9299 16.7092L45.884 16.7634C45.6464 16.9177 45.4046 17.0636 45.1628 17.2095C44.921 17.3554 44.5624 17.5597 44.2623 17.7306C44.0371 17.8557 43.812 17.9808 43.5827 18.1017L43.3451 18.2267C43.0394 18.3935 42.7309 18.5561 42.4196 18.7145C41.2898 19.2898 40.0474 19.8735 38.6216 20.4988C37.4251 21.0199 36.212 21.5244 35.2864 21.8996L34.6027 22.1831L33.6147 22.6L33.4563 22.6625L33.2937 22.7292C33.3229 22.1706 33.352 21.6119 33.3896 21.0616C33.4312 20.3904 33.4854 19.6859 33.5522 18.9063C33.6355 17.914 33.7259 16.9218 33.8231 15.9296C33.8648 15.4835 33.9065 15.0416 33.944 14.5955C34.0858 13.0989 34.1775 11.9399 34.2484 10.8435C34.2901 10.2181 34.3192 9.59276 34.3443 8.99242C34.3693 8.39209 34.3734 7.79592 34.3818 7.21227V7.0872C34.3841 7.06363 34.3841 7.03989 34.3818 7.01633C34.4065 6.97593 34.4143 6.92739 34.4033 6.8813C34.3924 6.83521 34.3637 6.79533 34.3234 6.77036C34.2815 6.74702 34.2321 6.74104 34.1858 6.75368C34.1629 6.75756 34.1411 6.76674 34.1223 6.78049C34.1035 6.79424 34.0881 6.81218 34.0774 6.83289C33.9399 7.10387 33.7773 7.42072 33.6272 7.73339C33.4771 8.04606 33.3229 8.4171 33.2103 8.67975C33.0269 9.09665 32.8559 9.51355 32.6892 9.93044C32.6016 10.1472 32.5141 10.3473 32.4224 10.5808L32.3473 10.7726L32.0346 11.523C31.9137 11.7981 31.7928 12.0691 31.6678 12.3568L31.6011 12.5069C31.4176 12.9238 31.2384 13.3115 31.0591 13.7159L30.7047 14.508L30.5213 14.9249C30.1044 15.8838 29.6625 16.8426 29.2247 17.7973V17.764C28.8871 18.4935 28.5369 19.2398 28.1825 19.9819C28.0116 20.3446 27.8365 20.7073 27.6614 21.0658C27.0152 20.282 26.3398 19.4941 25.6811 18.7395L25.2976 18.2934C24.4971 17.3637 23.5508 16.259 22.6336 15.125C22.0666 14.4204 21.5246 13.7159 21.0285 13.0405C20.5324 12.3651 20.1947 11.8565 19.8696 11.3229C19.4527 10.6642 19.115 10.0722 18.8315 9.50521C18.8227 9.48666 18.81 9.47029 18.7941 9.45731C18.7782 9.44432 18.7597 9.43505 18.7398 9.43017C18.7388 9.40828 18.7331 9.38686 18.723 9.36742C18.713 9.34797 18.6987 9.33097 18.6814 9.3176C18.6481 9.29222 18.6064 9.28031 18.5647 9.28425L18.5855 9.25507Z" fill="#FAD82F"/>
<path d="M40.7181 16.3369H40.6723H40.6973H40.7181ZM54.9552 30.1905C54.6675 30.1154 54.3882 30.0195 54.1214 29.932L53.2876 29.6694L51.5908 29.1482L48.1931 28.1227C47.0633 27.7766 45.9377 27.4181 44.8162 27.0387C43.7948 26.6927 42.7776 26.33 41.7771 25.9298C43.3446 24.3039 44.8454 22.5946 46.2629 20.8603C47.6803 19.126 49.0728 17.2208 50.3693 15.3197C50.7028 14.8278 51.0405 14.3358 51.3574 13.8314C51.39 13.7765 51.4096 13.7149 51.4146 13.6513C51.4197 13.5877 51.4101 13.5238 51.3866 13.4645C51.3496 13.3888 51.2887 13.3274 51.2134 13.2897C51.1381 13.252 51.0524 13.2402 50.9697 13.2561C50.5528 13.2977 50.0983 13.3394 49.6689 13.4061C49.3521 13.4562 49.0353 13.5187 48.7226 13.5896L48.3765 13.673C47.4985 13.8964 46.6329 14.1664 45.7834 14.4817C44.1159 15.0862 42.4483 15.7908 40.7265 16.3369H40.689H40.6431C39.3619 16.7563 38.0323 17.0099 36.6867 17.0915C36.4241 17.0915 36.1656 17.0915 35.903 17.0915C35.903 16.8706 35.9405 16.6496 35.953 16.4245C35.953 16.1243 35.9905 15.82 36.0114 15.5156C36.0489 14.932 36.0947 14.3483 36.1406 13.7647C36.1865 13.181 36.224 12.5974 36.2615 12.0137C36.299 11.43 36.3199 10.9047 36.3449 10.3461C36.3907 9.41225 36.4866 8.4784 36.5783 7.54871C36.6742 6.55649 36.7659 5.56428 36.816 4.57206C36.8577 3.81109 36.8577 3.04842 36.816 2.28745C36.7877 1.60937 36.6828 0.936672 36.5033 0.28217C36.4917 0.220681 36.4644 0.163234 36.4241 0.11541C36.3823 0.0701239 36.329 0.0369923 36.2698 0.0195235C36.2031 0.00040947 36.1323 0.00040947 36.0656 0.0195235C36.0169 0.0311503 35.9723 0.0556268 35.9363 0.0903963C35.6028 0.457267 35.2818 0.824138 34.9775 1.21185C34.6731 1.59957 34.398 1.99979 34.1228 2.41252C33.5558 3.24632 33.0389 4.13848 32.5344 5.02231C32.03 5.90613 31.5422 6.76911 31.0211 7.62792C30.7418 8.08234 30.4499 8.53259 30.1623 8.98284C29.8746 9.43309 29.5369 9.94588 29.2284 10.4295C28.1987 12.0137 27.1731 13.6021 26.2143 15.228C26.0809 15.0571 25.9474 14.8903 25.7974 14.7235C25.6056 14.4817 25.4096 14.2399 25.2179 13.994C24.8288 13.5104 24.4411 13.0226 24.0547 12.5307C23.2765 11.5523 22.5011 10.5684 21.7284 9.57901C20.9613 8.59096 20.2026 7.5904 19.4563 6.58985C19.0895 6.08679 18.7254 5.58512 18.3641 5.08484C17.9972 4.58456 17.647 4.08012 17.2843 3.57984C17.2375 3.52741 17.1781 3.48769 17.1118 3.46437C17.0454 3.44104 16.9743 3.43487 16.9049 3.44643C16.8225 3.46717 16.7483 3.51264 16.6924 3.57672C16.6365 3.64081 16.6016 3.72045 16.5923 3.80496C16.5172 4.4053 16.4338 5.00146 16.3671 5.6018C16.3004 6.20213 16.2546 6.8108 16.2129 7.41947C16.1295 8.64099 16.0878 9.86667 16.0753 11.0882C16.0461 13.5437 16.1295 15.9992 16.2004 18.4548C16.2004 19.0676 16.2337 19.6846 16.2462 20.2975C15.1206 19.9931 13.9908 19.718 12.861 19.4345C11.6103 19.1176 10.3596 18.8008 9.10894 18.5173C6.63404 17.9027 4.10285 17.5423 1.55475 17.4417C1.13785 17.4417 0.741798 17.4417 0.337407 17.4417H0.299886C0.242732 17.4585 0.189839 17.4874 0.144771 17.5263C0.0997025 17.5653 0.0635053 17.6134 0.0386174 17.6675C0.0137296 17.7217 0.000729058 17.7805 0.000491594 17.8401C0.000254131 17.8996 0.0127852 17.9586 0.0372408 18.0129C0.249859 18.5548 0.487491 19.0885 0.750136 19.6096C1.01278 20.1307 1.31712 20.6518 1.62979 21.1563C2.27912 22.2033 2.98761 23.2124 3.7518 24.1788C5.28599 26.1132 6.96608 27.9309 8.56697 29.7986C9.06725 30.3823 9.55919 30.9784 10.0303 31.5913C9.44577 32.2529 8.90144 32.949 8.40021 33.6757C7.82906 34.5095 7.29543 35.3433 6.73262 36.2105C6.46581 36.6274 6.19482 37.0443 5.89883 37.4612C5.60283 37.8781 5.34018 38.3534 5.04002 38.8078C4.4369 39.7111 3.8463 40.6255 3.2682 41.551C2.9722 42.0262 2.68037 42.5015 2.39688 42.9809C2.11339 43.4604 1.81739 43.9565 1.56309 44.4609C1.53376 44.5308 1.52603 44.6078 1.54089 44.6821C1.55575 44.7564 1.59252 44.8246 1.64647 44.8778C1.67603 44.9178 1.71891 44.9459 1.76737 44.957C1.82241 44.9811 1.88258 44.9911 1.94246 44.9862C2.03312 44.9771 2.11747 44.9357 2.1801 44.8695C2.98888 44.6152 3.81017 44.4067 4.63562 44.2149C6.56169 43.798 8.51694 43.4979 10.4722 43.2269C12.4274 42.9559 14.3994 42.7016 16.3546 42.3597C16.8132 42.2805 17.276 42.193 17.7346 42.0929C17.697 42.2597 17.6553 42.4265 17.6178 42.5974V42.5599C17.08 44.9654 16.5005 47.3625 15.9502 49.768C15.6723 50.9937 15.4069 52.2236 15.154 53.4576C15.0331 54.0538 14.9205 54.6499 14.8079 55.2461L14.6453 56.1841C14.5911 56.4968 14.537 56.8095 14.5036 57.1263C14.4909 57.2065 14.5018 57.2887 14.5352 57.3628C14.5685 57.4368 14.6227 57.4995 14.6912 57.5432C14.7714 57.5966 14.8667 57.6226 14.9629 57.6174C15.0591 57.6121 15.151 57.5759 15.2248 57.514C15.4374 57.3514 15.6417 57.1847 15.846 57.0096C16.0503 56.8345 16.2879 56.5927 16.4964 56.3926C16.9424 55.9465 17.3593 55.4712 17.7471 54.9876C18.5183 54.0746 19.2396 53.1157 20.04 52.2277C20.9864 51.1855 21.9661 50.1808 22.9374 49.1719C23.8171 48.2589 24.6842 47.3334 25.5264 46.3828L25.5639 46.5663C25.6348 46.8581 25.7098 47.1499 25.7849 47.4417C25.9474 48.0546 26.11 48.6674 26.2893 49.2803C26.652 50.531 27.0606 51.7441 27.4983 52.9615C27.936 54.1788 28.3946 55.3128 28.9074 56.4634C29.1576 57.0179 29.416 57.5682 29.687 58.131C29.8246 58.402 29.9622 58.6688 30.1039 58.9315C30.2649 59.2419 30.4416 59.5438 30.6334 59.8361C30.6956 59.9086 30.7756 59.9636 30.8655 59.9957C30.9554 60.0279 31.0521 60.0361 31.1462 60.0196C31.2654 59.9979 31.3744 59.9383 31.457 59.8496C31.5396 59.761 31.5914 59.6481 31.6047 59.5276C31.6024 59.5124 31.6024 59.497 31.6047 59.4818C31.7423 58.9106 31.9091 58.3436 32.055 57.7725C32.2009 57.2013 32.3635 56.5802 32.5011 55.984C32.779 54.7444 33.0347 53.5021 33.2682 52.2569C33.7143 49.7847 34.0353 47.2917 34.2604 44.7944C34.3062 44.2817 34.3438 43.7689 34.3813 43.2602C34.9608 43.5312 35.5444 43.8064 36.1156 44.094C37.8582 44.9987 39.5466 45.9993 41.2809 46.9206C42.1731 47.3917 43.0778 47.8461 44.0033 48.2422C44.4577 48.4381 44.9163 48.6174 45.3791 48.7883C45.6125 48.8717 45.846 48.9509 46.0836 49.026C46.3557 49.1202 46.6344 49.1941 46.9174 49.2469C46.9978 49.2562 47.0792 49.2432 47.1527 49.2094C47.2262 49.1756 47.289 49.1222 47.3343 49.0551C47.3776 48.9918 47.4048 48.9188 47.4135 48.8425C47.4184 48.7625 47.4041 48.6825 47.3718 48.6091C47.2217 48.3714 47.0967 48.1171 46.9549 47.8711C46.8132 47.6252 46.6673 47.325 46.538 47.0373C46.2712 46.5037 46.0127 45.9701 45.7501 45.4323C45.2248 44.3484 44.712 43.2603 44.1742 42.1847C43.206 40.1806 42.0912 38.2507 40.839 36.4106C41.3351 36.3022 41.8313 36.1771 42.319 36.0479C42.8985 35.8937 43.478 35.7227 44.0533 35.5476C45.2373 35.1863 46.4116 34.7875 47.5761 34.3511C49.8458 33.5042 52.0658 32.5299 54.2256 31.4328C54.5127 31.2941 54.7911 31.1382 55.0594 30.9659C55.1208 30.9138 55.1668 30.8461 55.1928 30.77C55.222 30.6957 55.2292 30.6147 55.2137 30.5365C55.2034 30.4617 55.1743 30.3906 55.1291 30.3301C55.0839 30.2696 55.0241 30.2215 54.9552 30.1905ZM53.3251 30.7991C52.9082 31.0034 52.458 31.216 52.0244 31.4037C51.1406 31.8206 50.2484 32.1833 49.3521 32.5501C47.5302 33.288 45.6792 33.9592 43.8074 34.5471C43.2654 34.718 42.7192 34.8806 42.1731 35.039C41.4646 35.1864 40.7679 35.3857 40.0886 35.6352C40.0229 35.6576 39.9679 35.7037 39.9344 35.7644C39.924 35.8055 39.924 35.8484 39.9344 35.8895C39.935 35.9717 39.9535 36.0528 39.9886 36.1271C40.1159 36.3257 40.2551 36.5164 40.4055 36.6983C40.5972 36.9734 40.7807 37.2486 40.9599 37.5321C42.0741 39.3281 43.0711 41.1941 43.9449 43.1185C44.4077 44.094 44.8538 45.0821 45.304 46.066C45.5208 46.5412 45.7209 47.0165 45.9585 47.4918L46.1837 47.9962L46.1086 47.967C45.7292 47.8253 45.354 47.6752 44.983 47.5126C44.2993 47.2208 43.6323 46.8956 42.9694 46.5579C41.5728 45.8367 40.2137 45.0529 38.8379 44.29C38.1292 43.8981 37.4149 43.5159 36.6951 43.1435C36.1823 42.885 35.6612 42.6307 35.1317 42.4014C34.8524 42.2764 34.2437 41.9595 33.9852 42.2847C33.8869 42.5 33.8303 42.732 33.8185 42.9684C33.7684 43.2186 33.7268 43.4729 33.7017 43.7272C33.6434 44.2983 33.585 44.8653 33.5183 45.4323C33.4099 46.3787 33.289 47.3208 33.1473 48.2589C32.868 50.1599 32.5261 52.0568 32.1092 53.9329V53.9996C32.1092 53.9996 32.1092 53.9745 32.1092 53.962C31.9091 54.8598 31.6881 55.7519 31.4463 56.6385C31.3254 57.0846 31.1962 57.5265 31.0628 57.9726C31.0628 57.9726 31.0628 58.006 31.0628 58.0226C30.9961 57.8809 30.9294 57.7391 30.8585 57.6057C30.6 57.0499 30.3499 56.494 30.1081 55.9381C29.6078 54.7833 29.1534 53.6077 28.724 52.4237C28.2946 51.2397 27.9152 50.0891 27.5317 48.9134C27.3441 48.3339 27.1481 47.7544 26.9605 47.1749C26.8688 46.8873 26.7771 46.6038 26.6812 46.3161C26.5853 46.0285 26.4686 45.7116 26.356 45.4073C26.0475 44.5735 25.0511 45.8784 24.8302 46.1243C23.4294 47.6752 21.9452 49.1427 20.5069 50.656C19.8274 51.3689 19.1687 52.0943 18.5392 52.8489C17.9097 53.6035 17.3385 54.3289 16.6965 55.046L16.6423 55.1085L16.6923 55.0501C16.4005 55.3712 16.1003 55.688 15.7793 55.9882L15.6751 56.0882C15.7001 55.9423 15.7251 55.7964 15.7543 55.6713C15.8585 55.1252 15.9627 54.5791 16.0753 54.0329C16.3004 52.9198 16.5422 51.8067 16.7924 50.6977C16.7929 50.7074 16.7929 50.7172 16.7924 50.7269C17.1259 49.2594 17.4608 47.7905 17.7971 46.3203C17.968 45.5574 18.1389 44.7944 18.3015 44.0273C18.4641 43.2603 18.6225 42.5265 18.7643 41.7719C18.7764 41.6745 18.7538 41.576 18.7004 41.4936C18.6471 41.4112 18.5663 41.3504 18.4725 41.3217C18.4469 41.3003 18.4189 41.2821 18.3891 41.2675L18.2932 41.2383C18.2275 41.222 18.1588 41.222 18.0931 41.2383C17.7512 41.3175 17.4094 41.4009 17.0675 41.4759C15.1456 41.9137 13.1945 42.2222 11.2309 42.5265C9.26736 42.8308 7.31211 43.1393 5.39438 43.5729L5.21094 43.6146C4.67731 43.7397 4.14369 43.8647 3.61422 44.0107C3.28071 44.0982 2.95136 44.1983 2.62201 44.2983C2.77626 44.0482 2.92634 43.7939 3.07643 43.5396L3.7518 42.3306C4.45497 41.1855 5.17342 40.0473 5.90716 38.9162C6.26153 38.3742 6.61589 37.8364 6.96192 37.2944C7.30794 36.7525 7.64146 36.1896 7.97915 35.6268C8.39604 34.9431 8.81294 34.2594 9.2757 33.5965C9.73845 32.9337 10.1679 32.3458 10.6556 31.7747C10.7023 31.7251 10.739 31.6671 10.764 31.6038C10.8182 31.4037 10.5723 31.0826 10.468 30.9159C10.2778 30.6468 10.0717 30.3893 9.85102 30.1446C9.43412 29.636 9.01027 29.1316 8.57948 28.6313C7.72067 27.6349 6.84518 26.651 5.99054 25.6463C4.75219 24.2451 3.61006 22.7617 2.57198 21.2063C1.963 20.2818 1.43705 19.3053 1.00028 18.288C2.13376 18.3005 3.26552 18.3798 4.38965 18.5257C5.75291 18.7008 7.10366 18.9426 8.4419 19.2594C9.77181 19.5596 11.0934 19.8931 12.4108 20.2349C13.157 20.4309 13.8991 20.6518 14.6453 20.8144C14.9997 20.902 16.9591 21.4815 16.9466 20.8144C16.9008 18.3714 16.8174 15.9284 16.7965 13.4853C16.7562 11.0234 16.855 8.56118 17.0925 6.11041C17.1301 5.74771 17.1717 5.38918 17.2218 5.02648C17.2198 4.98759 17.2198 4.94863 17.2218 4.90974L17.7304 5.62681C18.0931 6.13543 18.46 6.6357 18.8268 7.14015C19.5689 8.14905 20.3235 9.14821 21.0906 10.1377C21.8577 11.1271 22.6317 12.1124 23.4127 13.0935C23.8018 13.5798 24.1923 14.0648 24.5842 14.5484L25.172 15.2738C25.368 15.5115 25.5597 15.7533 25.764 15.9867C25.9683 16.2202 26.4394 16.0868 26.6228 15.8242C26.8688 15.474 27.0147 15.0696 27.2357 14.7069C27.5608 14.1774 27.886 13.6563 28.2195 13.131C28.8699 12.1138 29.5328 11.1007 30.1956 10.0876C30.7793 9.19546 31.3629 8.29913 31.9133 7.37778C32.4636 6.45644 32.9221 5.62681 33.4349 4.75132C34.1684 3.44226 35.0181 2.20185 35.9738 1.04509C36.0662 1.57435 36.1233 2.10916 36.1448 2.64598C36.1487 4.59766 36.0234 6.54746 35.7696 8.48257C35.7237 8.94532 35.6778 9.40808 35.6445 9.87084C35.6111 10.3336 35.5903 10.8881 35.5611 11.3967C35.4944 12.564 35.3943 13.7313 35.3026 14.8986C35.2693 15.2697 35.2401 15.6449 35.2151 16.0159C35.2151 16.2827 35.1776 16.5496 35.1859 16.8122C35.1942 17.0748 35.1109 17.3583 35.2484 17.5751C35.3185 17.663 35.4123 17.729 35.5187 17.7652C35.6251 17.8014 35.7396 17.8063 35.8488 17.7794C36.1281 17.7461 36.4157 17.7544 36.6826 17.7461C37.3244 17.7204 37.9638 17.6507 38.5961 17.5376C39.5702 17.3486 40.53 17.0923 41.4686 16.7705C43.3613 16.1452 45.1914 15.3447 47.0925 14.7402C48.1294 14.3984 49.1977 14.161 50.2818 14.0315L49.8649 14.6568C49.5647 15.0737 49.2604 15.524 48.956 15.9534C48.3557 16.7872 47.7429 17.621 47.1175 18.4548C45.8501 20.1057 44.5216 21.7066 43.132 23.2575C42.3276 24.0458 41.5847 24.8946 40.9099 25.7964C40.881 25.8517 40.866 25.9132 40.866 25.9756C40.866 26.0381 40.881 26.0996 40.9099 26.1549C41.0183 26.38 41.381 26.4426 41.5895 26.5259L42.5692 26.9178C43.2112 27.168 43.8546 27.4098 44.4994 27.6432C45.6125 28.0601 46.734 28.4145 47.8596 28.7814C48.9852 29.1482 50.1067 29.5068 51.2323 29.8695C51.7951 30.0529 52.3538 30.2363 52.8999 30.4281L53.5961 30.6657L53.3251 30.7991ZM32.1009 53.9329C32.1009 53.9329 32.1009 53.9329 32.1009 53.9662V53.9329Z" fill="#161616"/>
<path d="M33.4563 24.7429C33.3222 24.5225 33.1533 24.3254 32.956 24.1592C32.7592 23.9851 32.5353 23.8443 32.2931 23.7423C32.0524 23.6488 31.7968 23.5994 31.5385 23.5964C31.366 23.5936 31.1938 23.6118 31.0257 23.6506C30.944 23.6684 30.8633 23.6907 30.7839 23.7173C30.3698 23.8674 30.0049 24.1284 29.7292 24.4719C29.2973 25.0218 29.0756 25.7077 29.1038 26.4063C29.1142 26.7543 29.1966 27.0964 29.3456 27.411C29.4639 27.6582 29.6248 27.8826 29.8209 28.0739C29.79 28.1076 29.7697 28.1497 29.7625 28.1948C29.7555 28.2543 29.7719 28.3141 29.8084 28.3616C29.8968 28.4638 29.996 28.5561 30.1044 28.6367C30.2153 28.7156 30.3324 28.7853 30.4546 28.8452C30.5643 28.8976 30.6788 28.9395 30.7965 28.9702C30.9015 28.9984 31.009 29.0166 31.1175 29.0244C31.2326 29.0351 31.3484 29.0351 31.4635 29.0244C31.5211 29.0188 31.5782 29.009 31.6344 28.9953L31.8304 28.9452C31.9245 28.9122 32.0164 28.8732 32.1055 28.8285C32.222 28.7686 32.3347 28.7018 32.4432 28.6284C32.6375 28.4878 32.814 28.324 32.9685 28.1406C33.1271 27.9504 33.2667 27.7451 33.3854 27.5278C33.5006 27.3257 33.5903 27.11 33.6522 26.8857C33.6856 26.769 33.7189 26.6523 33.7439 26.5356C33.7637 26.4196 33.7776 26.3027 33.7856 26.1854C33.8026 25.9526 33.79 25.7187 33.7481 25.4891C33.6945 25.2255 33.5957 24.973 33.4563 24.7429ZM26.3148 27.8279C26.1209 27.4934 25.8746 27.1922 25.5852 26.9358C25.3048 26.6743 24.9855 26.4577 24.6389 26.2938C24.3113 26.1361 23.9555 26.0454 23.5925 26.0269C23.4078 26.02 23.2231 26.0354 23.0421 26.0728H23.0213C22.8436 26.1126 22.6724 26.1771 22.5127 26.2646C22.1463 26.4565 21.8393 26.7448 21.6247 27.0984C21.5171 27.2704 21.4317 27.4553 21.3704 27.6487C21.3145 27.8405 21.2782 28.0374 21.262 28.2365C21.234 28.6478 21.2835 29.0608 21.4079 29.4538C21.5254 29.843 21.7102 30.2084 21.954 30.5336C22.1949 30.8585 22.4982 31.1321 22.8462 31.3382C23.1032 31.4881 23.386 31.5885 23.68 31.6342C23.8339 31.6495 23.9889 31.6495 24.1428 31.6342C24.3656 31.6186 24.5849 31.5694 24.7931 31.4883C25.1453 31.3564 25.4581 31.1368 25.702 30.8505C25.7336 30.8567 25.7662 30.8567 25.7978 30.8505C25.8298 30.8435 25.8598 30.8292 25.8854 30.8088C26.0365 30.6933 26.1762 30.5634 26.3023 30.4211C26.3536 30.3612 26.3997 30.2971 26.4399 30.2293C26.4951 30.1434 26.5425 30.0527 26.5816 29.9583C26.6151 29.8712 26.6429 29.7821 26.665 29.6915C26.6856 29.608 26.6996 29.5229 26.7067 29.4372C26.7314 29.2574 26.7314 29.075 26.7067 28.8952C26.6812 28.7086 26.635 28.5255 26.5691 28.3491C26.4981 28.169 26.4131 27.9947 26.3148 27.8279Z" fill="#FEFEFE"/>
<path d="M25.2389 26.0645C24.9915 25.8992 24.7181 25.7766 24.4301 25.7018C24.1343 25.6213 23.8263 25.5958 23.5213 25.6267C23.3669 25.6412 23.2137 25.6663 23.0627 25.7018C22.6903 25.7795 22.3373 25.9312 22.0246 26.1478C21.6423 26.4131 21.3362 26.7739 21.1366 27.1942C20.9489 27.6128 20.8496 28.0655 20.8448 28.5241C20.8447 28.7576 20.8657 28.9906 20.9073 29.2204C20.9423 29.432 20.9967 29.6399 21.0699 29.8415C21.2267 30.2821 21.4689 30.6873 21.7828 31.0339C21.937 31.2049 22.1104 31.3574 22.2998 31.4883C22.491 31.6207 22.6966 31.7312 22.9126 31.8176C23.5076 32.0114 24.1465 32.0253 24.7494 31.8577C25.3523 31.6901 25.8923 31.3485 26.302 30.8755C26.4884 30.6239 26.6295 30.3417 26.7189 30.0417C26.8116 29.7645 26.8622 29.475 26.869 29.1828C26.8704 28.8793 26.834 28.5768 26.7606 28.2823C26.6859 27.9818 26.5768 27.6908 26.4354 27.4152C26.1604 26.8688 25.7481 26.4033 25.2389 26.0645ZM26.0727 28.8827C26.0998 29.1181 26.0998 29.3559 26.0727 29.5914C26.0436 29.7777 25.9962 29.9606 25.931 30.1375C25.864 30.284 25.783 30.4236 25.6892 30.5544C25.5839 30.6861 25.4652 30.8062 25.3348 30.913C25.2135 31.0021 25.0836 31.0789 24.9471 31.1423C24.3838 31.4222 23.7344 31.4744 23.1336 31.2882C22.9539 31.2098 22.7833 31.1119 22.625 30.9964C22.4574 30.865 22.305 30.7154 22.1705 30.5503C22.0159 30.3437 21.8858 30.1198 21.7828 29.8832C21.5638 29.3814 21.4845 28.8297 21.5535 28.2865C21.5866 28.0772 21.641 27.8718 21.7161 27.6737C21.7867 27.5165 21.8733 27.367 21.9746 27.2276C22.0759 27.0978 22.192 26.9803 22.3206 26.8774C22.4506 26.7787 22.5903 26.6935 22.7375 26.6231C22.939 26.5442 23.1488 26.4883 23.3629 26.4563C23.5513 26.4355 23.7414 26.4355 23.9298 26.4563C24.0919 26.4847 24.251 26.5279 24.4051 26.5856C24.5775 26.663 24.7422 26.7565 24.897 26.8649C25.0923 27.0121 25.2712 27.1798 25.4307 27.3652C25.5966 27.589 25.7365 27.8309 25.8476 28.0864C25.9498 28.3424 26.0212 28.6098 26.0602 28.8827H26.0727ZM24.4968 27.8363C24.3023 27.703 24.0695 27.6371 23.834 27.6487C23.747 27.6499 23.6605 27.6597 23.5755 27.6778C23.4381 27.7121 23.3062 27.7654 23.1836 27.8363C23.0195 27.9382 22.8857 28.0821 22.7959 28.2532C22.705 28.4105 22.6482 28.5852 22.6291 28.766C22.6145 29.0117 22.6529 29.2576 22.7417 29.4872C22.8299 29.7302 22.9725 29.9498 23.1586 30.1292C23.3406 30.2998 23.5766 30.4016 23.8256 30.4169C24.6177 30.4711 25.0763 29.7415 25.0763 29.0286C25.0733 28.791 25.0162 28.5572 24.9096 28.3449C24.8127 28.1424 24.6665 27.9675 24.4843 27.8363H24.4968ZM34.0396 24.7054C33.7627 24.1555 33.3475 23.6871 32.8348 23.3463C32.5795 23.1788 32.2975 23.0562 32.001 22.9836C31.7104 22.9139 31.4099 22.8956 31.113 22.9294C30.9602 22.9459 30.8085 22.971 30.6586 23.0044C30.2808 23.0789 29.9212 23.2262 29.5997 23.438C29.2186 23.7035 28.9139 24.0643 28.7158 24.4844C28.5214 24.9012 28.4176 25.3545 28.4115 25.8143C28.408 26.0477 28.4275 26.2809 28.4699 26.5105C28.5068 26.7217 28.5612 26.9295 28.6325 27.1317C28.7951 27.5807 29.0428 27.994 29.362 28.3491C29.521 28.5038 29.6941 28.6433 29.879 28.766C30.499 29.1951 31.2599 29.3703 32.0051 29.2555C32.7503 29.1407 33.4232 28.7447 33.8854 28.1489C34.2574 27.6646 34.4595 27.0712 34.4607 26.4605C34.4638 26.1558 34.4288 25.8519 34.3565 25.5558C34.2791 25.2608 34.1687 24.9755 34.0271 24.7054H34.0396ZM33.6686 26.1728C33.6957 26.4083 33.6957 26.6461 33.6686 26.8816C33.6285 27.2315 33.4978 27.5649 33.2892 27.8488C33.1825 27.9805 33.0624 28.1006 32.9307 28.2073C32.8118 28.2979 32.6832 28.3748 32.5471 28.4366C31.9823 28.7163 31.3317 28.7686 30.7295 28.5825C30.5507 28.5039 30.3803 28.4075 30.2208 28.2949C30.0545 28.1619 29.9035 28.0109 29.7706 27.8446C29.614 27.6401 29.4824 27.4175 29.3787 27.1817C29.1587 26.6787 29.0808 26.125 29.1536 25.5809C29.1852 25.3712 29.2397 25.1657 29.3162 24.968C29.3852 24.8109 29.4704 24.6614 29.5705 24.5219C29.6729 24.3931 29.7889 24.2757 29.9165 24.1717C30.047 24.0738 30.1866 23.9886 30.3334 23.9174C30.5353 23.8396 30.7449 23.7836 30.9587 23.7507C31.1472 23.7298 31.3373 23.7298 31.5257 23.7507C31.6893 23.7761 31.85 23.818 32.0052 23.8757C32.1767 23.9539 32.3401 24.0489 32.4929 24.1592C32.6806 24.3065 32.8512 24.4743 33.0016 24.6595C33.1679 24.883 33.3078 25.125 33.4184 25.3807C33.5252 25.6357 33.6048 25.9012 33.6561 26.1728H33.6686ZM32.101 25.1264C31.904 24.9953 31.6706 24.9297 31.434 24.9388C31.3485 24.9401 31.2633 24.9498 31.1797 24.968C31.0407 25.0015 30.9073 25.0548 30.7836 25.1264C30.6206 25.2296 30.487 25.3732 30.3959 25.5433C30.3086 25.707 30.2574 25.8876 30.2459 26.0728C30.232 26.3254 30.2728 26.5779 30.3657 26.8132C30.4585 27.0485 30.6011 27.261 30.7836 27.436C30.9659 27.607 31.2014 27.7101 31.4507 27.7279C32.2386 27.7779 32.7014 27.0525 32.7014 26.3354C32.6983 26.0918 32.6353 25.8527 32.5179 25.6392C32.424 25.4361 32.2807 25.2598 32.101 25.1264ZM20.1778 24.2551C20.2743 24.2551 20.367 24.217 20.4357 24.1491C20.5044 24.0812 20.5435 23.989 20.5446 23.8924C20.5384 23.8272 20.5384 23.7616 20.5446 23.6965C20.5533 23.6537 20.5658 23.6119 20.5822 23.5714C20.6061 23.5137 20.6369 23.4591 20.6739 23.4088C20.7336 23.3408 20.7976 23.2767 20.8656 23.217C20.9708 23.142 21.0824 23.0764 21.1992 23.0211C21.2916 22.9878 21.3864 22.9614 21.4827 22.9419H21.6786C21.7492 22.9555 21.8188 22.9736 21.887 22.9961C22 23.0519 22.1087 23.116 22.2122 23.1879C22.3063 23.2408 22.4151 23.2614 22.522 23.2464C22.6289 23.2315 22.7279 23.1817 22.8037 23.1049C22.8795 23.0282 22.928 22.9286 22.9417 22.8215C22.9553 22.7144 22.9334 22.6058 22.8793 22.5125C22.7813 22.34 22.6451 22.1924 22.481 22.0811C22.3169 21.9698 22.1293 21.8977 21.9329 21.8705C21.8284 21.8518 21.7222 21.8434 21.6161 21.8454C21.508 21.8522 21.4007 21.8676 21.295 21.8913H21.2492C21.0718 21.9339 20.9018 22.0027 20.7447 22.0956C20.5904 22.1861 20.45 22.2984 20.3278 22.4291C20.1445 22.6228 20.0034 22.8526 19.9137 23.1038C19.824 23.355 19.7876 23.6222 19.8067 23.8882C19.8131 23.9849 19.8529 24.0762 19.9193 24.1467C19.982 24.2114 20.0669 24.2501 20.1569 24.2551H20.1778ZM28.1405 20.9533C28.2327 20.9533 28.3211 20.917 28.3867 20.8522C28.4522 20.7874 28.4896 20.6994 28.4907 20.6073C28.4844 20.5505 28.4844 20.4931 28.4907 20.4363C28.4985 20.3983 28.5082 20.3608 28.5199 20.3238C28.5452 20.2751 28.573 20.2278 28.6033 20.182C28.6688 20.1047 28.7398 20.0322 28.8159 19.9652C28.8954 19.9102 28.979 19.8614 29.066 19.8193C29.1836 19.7739 29.305 19.739 29.4287 19.7151C29.5272 19.7068 29.6262 19.7068 29.7247 19.7151C29.8057 19.7304 29.8852 19.7527 29.9624 19.7818C30.0423 19.8183 30.119 19.8615 30.1917 19.911C30.2405 19.9523 30.2865 19.9969 30.3292 20.0444C30.4092 20.1208 30.5119 20.169 30.6217 20.1818C30.7315 20.1946 30.8425 20.1713 30.9379 20.1153C31.0326 20.0597 31.1064 19.9744 31.1478 19.8727C31.1892 19.771 31.1961 19.6585 31.1672 19.5525C31.0996 19.3273 30.9729 19.1244 30.8003 18.9647C30.6266 18.8114 30.4174 18.704 30.1917 18.652C29.9616 18.6083 29.7254 18.6083 29.4954 18.652H29.387C29.2283 18.6925 29.0734 18.7469 28.9243 18.8146C28.7462 18.8983 28.5807 19.0064 28.4323 19.1356C28.2853 19.2531 28.1586 19.394 28.0571 19.5525C27.8566 19.8611 27.7656 20.2282 27.7987 20.5947C27.8046 20.6874 27.8413 20.7754 27.9029 20.8449C27.9602 20.9054 28.0369 20.9438 28.1197 20.9533H28.1405Z" fill="#161616"/>
</g>
<defs>
<clipPath id="clip0_343_3545">
<rect width="55.2599" height="60" fill="white"/>
</clipPath>
</defs>
</svg>
