<svg width="60" height="56" viewBox="0 0 60 56" fill="none" xmlns="http://www.w3.org/2000/svg">
<g clip-path="url(#clip0_343_3506)">
<path d="M14.7995 14.1524C14.8154 14.1185 14.8246 14.0819 14.8268 14.0445C14.9657 13.9051 15.0956 13.7571 15.2157 13.6014L15.2857 13.5128C15.5035 13.243 15.7019 13.008 15.8925 12.7845C16.0831 12.561 16.2814 12.3337 16.4798 12.1294C16.6782 11.9252 16.8688 11.7133 17.1099 11.4936L17.8023 10.8116C18.3118 10.3068 18.8408 9.78277 19.3581 9.27028L19.3192 9.30496C20.4813 8.16713 21.7797 7.17458 23.1854 6.34947C23.8402 5.99344 24.5364 5.71782 25.2585 5.52871C25.3042 5.512 25.346 5.48632 25.3814 5.45322C25.4168 5.42011 25.4451 5.38025 25.4646 5.33604C25.4851 5.28852 25.4957 5.23742 25.4958 5.18577C25.4962 5.13979 25.4883 5.09412 25.4724 5.0509C25.4334 4.96257 25.3647 4.89038 25.278 4.84668L25.278 4.75805L25.278 4.71181C25.2533 4.5937 25.2155 4.47867 25.1652 4.36886C25.1147 4.25203 25.0562 4.13873 24.9901 4.02977C24.8748 3.83292 24.7448 3.64488 24.6012 3.46719C24.465 3.29764 24.3133 3.1281 24.1111 2.91616C23.9506 2.75965 23.7818 2.61173 23.6055 2.47303C23.4287 2.33454 23.2443 2.20589 23.0531 2.0877C22.8631 1.97334 22.6671 1.86916 22.4658 1.77558C22.2799 1.68988 22.089 1.61524 21.894 1.55209C21.875 1.52255 21.8492 1.49778 21.8189 1.47973C21.7885 1.46168 21.7543 1.45084 21.719 1.44805C21.6451 1.44805 21.5751 1.44805 21.5012 1.44805L21.1589 1.36713C21.1246 1.36196 21.0895 1.36777 21.0587 1.38371C21.028 1.39965 21.0031 1.42488 20.9878 1.45576C20.8024 1.46747 20.6179 1.49064 20.4355 1.52512C19.9971 1.60633 19.5692 1.73556 19.1597 1.91045C18.7439 2.09392 18.3445 2.31176 17.9656 2.56166C17.8256 2.65414 17.6856 2.74276 17.5455 2.83139L17.425 2.9046L17.1644 3.07415C17.0734 3.13668 16.9875 3.20626 16.9077 3.28223C16.8708 3.31893 16.8464 3.36605 16.8376 3.41709C16.6704 3.50957 16.4993 3.60976 16.3359 3.7138C15.7068 4.10637 15.1087 4.54562 14.5467 5.02778L14.0333 5.4632L13.6638 5.77147C13.341 6.04506 13.0376 6.36103 12.7692 6.63847C12.5083 6.91346 12.2666 7.2057 12.0457 7.51317C11.9174 7.68657 11.8007 7.87153 11.684 8.05648C11.5868 8.2133 11.4985 8.3754 11.4195 8.54201C11.2848 8.83747 11.1818 9.14614 11.1123 9.46295C11.084 9.59009 11.0632 9.71875 11.05 9.84828L11.05 10.014C10.9995 10.0381 10.9545 10.0722 10.9178 10.1142C10.8635 10.1811 10.8322 10.2634 10.8283 10.3492L10.8283 10.3993L10.9022 10.7037C10.9326 10.807 10.9716 10.9075 11.0189 11.0043C11.1177 11.2208 11.2307 11.4306 11.3573 11.6324C11.6007 12.014 11.8807 12.3715 12.1935 12.6997C12.8095 13.3721 13.5486 13.9226 14.3717 14.322C14.408 14.3373 14.447 14.3453 14.4864 14.3453C14.5259 14.3453 14.5649 14.3373 14.6012 14.322C14.6446 14.3095 14.6848 14.2879 14.719 14.2586C14.7532 14.2293 14.7807 14.1931 14.7995 14.1524ZM49.0002 39.7192C49.327 39.7192 49.6537 39.7192 49.9765 39.7192C50.3655 39.7192 50.7933 39.7192 51.2017 39.7192C52.7576 39.7192 54.1656 39.7192 55.5269 39.6652C55.6406 39.653 55.7451 39.5978 55.8186 39.5111C55.8814 39.432 55.9156 39.3343 55.9159 39.2337L55.9159 39.1874C55.9089 39.1167 55.8834 39.0489 55.842 38.9909C55.9824 38.8016 56.1122 38.6047 56.2309 38.4014L56.2542 38.3628C56.4176 38.0969 56.5732 37.8234 56.7326 37.5536L56.8104 37.4188C56.9388 37.1991 57.071 36.9718 57.1994 36.7444C57.3327 36.4768 57.4496 36.2014 57.5495 35.9198C57.5713 35.8631 57.5831 35.8032 57.5845 35.7426C57.5849 35.695 57.5756 35.6478 57.5572 35.6038C57.524 35.5202 57.4638 35.4498 57.3861 35.4035L57.3861 35.3804C57.3862 35.3265 57.377 35.2731 57.3589 35.2224C57.2854 35.0017 57.1957 34.7866 57.0905 34.5789C56.9855 34.3592 56.8727 34.1434 56.7793 33.9623C56.5343 33.4961 56.262 33.0414 56.0247 32.6522L55.8108 32.3054C55.4219 31.6581 55.0135 30.9914 54.644 30.321C54.0861 29.331 53.605 28.3005 53.2048 27.2383C53.1867 27.1863 53.1575 27.1388 53.1193 27.0989C53.081 27.059 53.0346 27.0277 52.9831 27.0071C52.8747 26.9632 52.7532 26.9632 52.6447 27.0071C52.6255 27.0137 52.6072 27.0228 52.5903 27.0341C52.5943 27.0124 52.5943 26.9902 52.5903 26.9686C52.5903 26.9239 52.5824 26.8796 52.567 26.8376C52.5492 26.7937 52.5229 26.7538 52.4895 26.7201C52.4562 26.6863 52.4164 26.6595 52.3725 26.641C52.3281 26.6228 52.2805 26.6134 52.2324 26.6134C52.1844 26.6134 52.1368 26.6228 52.0924 26.641C51.6529 26.8106 51.2017 26.9724 50.7622 27.1304C50.525 27.219 50.2838 27.3038 50.0465 27.3924C49.7052 27.5142 49.3715 27.6557 49.0469 27.8163C48.8836 27.9011 48.7202 27.9935 48.5607 28.0937C48.3848 28.1927 48.2292 28.3234 48.1018 28.4791C48.0456 28.5509 48.0143 28.6387 48.0123 28.7295C48.0116 28.7771 48.0208 28.8244 48.0395 28.8682L48.0395 28.9068L48.0629 28.9723C48.4013 29.7121 48.7591 30.4365 49.1208 31.1186C49.4203 31.6812 49.7704 32.3324 50.1593 32.9566C49.6731 33.1724 49.1753 33.3651 48.6657 33.5577C48.234 33.7196 47.8489 33.8699 47.4639 34.0471C47.2545 34.1418 47.0529 34.2526 46.861 34.3785C46.7612 34.4474 46.6687 34.5262 46.5849 34.6135L46.472 34.733L46.437 34.733C46.3548 34.7685 46.2875 34.8311 46.2465 34.9102C46.23 34.9534 46.2208 34.999 46.2192 35.0451C46.2201 35.0897 46.2279 35.1339 46.2426 35.1761L46.332 35.496C46.4172 35.8523 46.477 36.2141 46.511 36.5787C46.5391 36.872 46.552 37.1665 46.5498 37.4611L46.5498 37.7578L46.5498 38.1201L46.5498 38.3513L46.5498 38.3898L46.5498 38.6981C46.549 38.8269 46.5568 38.9556 46.5732 39.0834L46.5926 39.1566C46.5813 39.1811 46.5734 39.207 46.5693 39.2337L46.5693 39.2876C46.5676 39.3783 46.5983 39.4667 46.6559 39.5372C46.7136 39.6076 46.7944 39.6557 46.8843 39.6729C47.2033 39.7115 47.53 39.7192 47.8451 39.7269L47.8878 39.7269C48.2496 39.723 48.6074 39.7192 49.0002 39.7192Z" fill="#FEFEFE"/>
<path d="M51.9096 26.221C51.9091 26.1842 51.9025 26.1478 51.8901 26.1131C51.8832 26.0879 51.8713 26.0644 51.8551 26.0438L51.8551 26.0014C51.8432 25.8973 51.7951 25.8006 51.719 25.7278C50.9272 24.9435 50.0462 24.253 49.0936 23.6701C48.6657 23.3965 48.2029 23.123 47.6739 22.8301C47.1449 22.5373 46.6626 22.2868 46.2075 22.0594C45.3129 21.6279 44.4106 21.231 43.3293 20.7686L42.8898 20.5798C42.0846 20.2368 41.2523 19.8823 40.4277 19.5509C39.1402 19.0384 38.0745 18.657 37.071 18.3487C36.0197 18.011 34.9389 17.771 33.8427 17.632L33.4771 16.9576L33.4187 16.8498C33.1465 16.3565 32.8703 15.8787 32.6058 15.4279C32.1118 14.5956 31.5517 13.717 30.8438 12.6728C30.136 11.6285 29.5525 10.8116 28.938 10.0178C28.2184 9.08147 27.5416 8.25301 26.8688 7.47078C26.5537 7.11242 26.2386 6.76177 25.8575 6.34947L25.8575 6.31479C25.8551 6.27652 25.8444 6.23919 25.8263 6.20531C25.8082 6.17142 25.7831 6.14174 25.7525 6.11826C25.7244 6.09396 25.6917 6.07561 25.6562 6.06434C25.6208 6.05307 25.5834 6.04913 25.5463 6.05276C23.6638 6.23772 22.0457 7.38986 21.0228 8.23759C20.2721 8.84641 19.5759 9.51689 19.0508 10.0294L18.4323 10.6459L18.1834 10.8887L17.6972 11.3703L17.2344 11.8212C16.8454 12.2065 16.4953 12.5572 16.1336 12.9348C15.9547 13.1236 15.7758 13.3201 15.6046 13.5089C15.4043 13.7272 15.2246 13.9632 15.0679 14.2141C15.0397 14.262 15.0249 14.3166 15.0251 14.3721C15.0246 14.4274 15.0362 14.4822 15.059 14.5328C15.0818 14.5833 15.1153 14.6284 15.1573 14.6649C15.2348 14.731 15.3354 14.7642 15.4374 14.7574C15.664 15.1186 15.9245 15.4579 16.2153 15.7708C16.3592 15.9327 16.5187 16.1061 16.7015 16.291C15.9114 16.3314 15.1284 16.4607 14.3678 16.6764C13.3686 16.9671 12.4007 17.3543 11.4778 17.8324C9.64636 18.7754 7.95418 19.9631 6.44868 21.362C4.90521 22.7737 3.61151 24.4318 2.62136 26.2673C1.62709 28.1075 0.968715 30.1073 0.676593 32.1744C0.551291 33.0578 0.488909 33.9488 0.489901 34.8409C0.491809 36.0853 0.605044 37.3271 0.828288 38.5516C1.01766 39.6394 1.29071 40.7111 1.64508 41.7576C2.00878 42.8096 2.46159 43.8292 2.99866 44.8056C3.46477 45.6707 4.00892 46.4922 4.62448 47.2601C4.95383 47.6696 5.30434 48.0619 5.67464 48.4354C5.93154 48.7004 6.20293 48.9512 6.48756 49.1868C6.63536 49.3718 6.79095 49.5721 6.95042 49.734C7.33937 50.1655 7.72832 50.5624 8.11728 50.9323C8.51697 51.3111 8.94758 51.6565 9.40471 51.965C9.89445 52.3075 10.4064 52.6177 10.9372 52.8937C11.9702 53.4021 13.0533 53.8037 14.1694 54.0921C15.2664 54.369 16.3835 54.561 17.5105 54.6662C18.6657 54.7858 19.8263 54.845 20.9878 54.8435C21.6568 54.8435 22.2168 54.8435 22.7458 54.8011C23.2748 54.7587 23.9127 54.7009 24.5272 54.6084C25.7072 54.4303 26.8685 54.1466 27.9967 53.7607C29.1164 53.3746 30.1962 52.883 31.2211 52.2926C32.2431 51.7068 33.2034 51.0214 34.0877 50.2465C35.0108 49.4532 35.8441 48.563 36.5731 47.5915C38.0118 45.6189 39.0271 43.375 39.5564 40.9985C39.8669 39.6445 40.0222 38.2601 40.0193 36.8716L40.0193 36.7598C40.7622 37.0566 41.4856 37.3687 42.1663 37.6923C42.5864 37.8927 43.0103 38.1085 43.4304 38.332L44.041 38.6595L44.0877 38.6865C44.1888 38.7366 44.29 38.7905 44.3911 38.8445C44.5114 38.9133 44.6431 38.9603 44.7801 38.9832C44.8275 38.9916 44.8762 38.9894 44.9226 38.9767C44.9691 38.9641 45.0121 38.9413 45.0484 38.91C45.1574 39.0179 45.2701 39.1258 45.3829 39.2298C45.4122 39.2565 45.4465 39.2771 45.4839 39.2903C45.5214 39.3036 45.5611 39.3092 45.6008 39.3069C45.6867 39.3022 45.7675 39.265 45.8264 39.2029C45.8734 39.1464 45.8995 39.0757 45.9003 39.0025C45.9002 38.9382 45.8813 38.8752 45.8458 38.8214C45.8458 38.5748 45.8458 38.3436 45.8225 38.1316C45.8838 38.0879 45.9333 38.0299 45.9665 37.9626C45.9998 37.8954 46.0157 37.8211 46.013 37.7463L46.013 37.7116L45.9625 37.0951C45.9275 36.7444 45.8964 36.3861 45.8847 36.0277C45.8829 35.9636 45.8658 35.9008 45.8347 35.8445C45.8036 35.7882 45.7594 35.7401 45.7058 35.704C45.7058 35.3495 45.6824 34.9912 45.6591 34.6367C46.0092 34.498 46.367 34.3631 46.7521 34.209C47.7828 33.8005 48.7668 33.3458 49.5097 32.999C49.5925 32.9662 49.6603 32.9045 49.7003 32.8256C49.725 32.7792 49.7383 32.7277 49.7392 32.6753C49.7388 32.6373 49.7322 32.5996 49.7198 32.5636L49.6887 32.5019C49.6884 32.4619 49.6791 32.4224 49.6614 32.3863C49.4929 32.037 49.3046 31.6974 49.0974 31.3691C48.9535 31.1263 48.8057 30.8874 48.6579 30.6485L48.4673 30.3441C48.0162 29.6042 47.6894 29.0301 47.3938 28.4752L47.6233 28.3365C48.0901 28.0591 48.4829 27.8394 48.8602 27.6506C49.7646 27.1858 50.7147 26.8139 51.6957 26.5408C51.7629 26.5186 51.8212 26.4754 51.8618 26.4179C51.9024 26.3603 51.9232 26.2913 51.9213 26.221L51.9096 26.221ZM15.0718 38.0507L15.0718 37.8002C15.0982 37.3854 15.1753 36.9752 15.3012 36.5787C15.4411 36.1912 15.6265 35.8213 15.8536 35.4767C16.124 35.0914 16.4386 34.7384 16.7909 34.4247C17.2776 34.0152 17.8101 33.6623 18.3779 33.3728C19.2349 32.9594 20.1403 32.6527 21.0733 32.4595C22.0955 32.2454 23.1415 32.1638 24.185 32.2168C24.5195 32.2168 24.8501 32.2746 25.1729 32.3247C25.2856 32.6491 25.3792 32.9798 25.453 33.315C25.6076 34.0617 25.6845 34.8223 25.6824 35.5846C25.6824 35.8004 25.6824 36.0239 25.6824 36.2474C25.6254 37.104 25.4621 37.9504 25.1962 38.7674C24.9874 39.3719 24.7053 39.9489 24.3561 40.486C24.0645 40.9094 23.7238 41.2973 23.3409 41.642C23.0044 41.9285 22.6365 42.1766 22.2441 42.3818C21.897 42.5477 21.5333 42.6768 21.1589 42.7672C20.7729 42.8253 20.3817 42.8421 19.9921 42.8173C19.7431 42.8173 19.4514 42.7826 19.1636 42.7479C19.0968 42.7348 19.0281 42.7348 18.9613 42.748C18.8946 42.7613 18.8311 42.7874 18.7746 42.825L18.7396 42.8481C18.3505 42.6864 17.9769 42.4904 17.6233 42.2624C17.1432 41.9529 16.7008 41.5896 16.3048 41.1796C16.002 40.8387 15.7409 40.4636 15.5268 40.0621C15.359 39.7373 15.2285 39.3948 15.1379 39.041C15.0746 38.7147 15.0433 38.383 15.0445 38.0507L15.0718 38.0507Z" fill="#0DA1C5"/>
<path d="M51.9136 26.2828C51.9138 26.2371 51.9038 26.1921 51.8843 26.1508C51.8648 26.1094 51.8363 26.0729 51.8008 26.0439C50.6074 25.0753 49.3595 24.1748 48.0629 23.3465C46.763 22.5189 45.422 21.7562 44.045 21.0615C41.3926 19.7324 38.6202 18.6526 35.7642 17.8363C35.0797 17.6359 34.3873 17.451 33.7066 17.2853C33.5336 16.8222 33.3282 16.3715 33.0921 15.9366C32.8626 15.4858 32.5942 15.0041 32.2481 14.4184C31.7424 13.5514 31.1551 12.6536 30.455 11.671C29.8171 10.7693 29.1364 9.89845 28.4363 9.08155C27.7362 8.26465 26.9272 7.3938 26.1026 6.60001C25.9704 6.47285 25.842 6.34184 25.7136 6.21468C25.6844 6.18571 25.6489 6.16372 25.6098 6.15036C25.5707 6.13701 25.5291 6.13265 25.488 6.13762C25.4619 6.07044 25.4101 6.01619 25.3438 5.98661C25.2776 5.95704 25.2022 5.95453 25.1341 5.97963C24.4655 6.18289 23.815 6.44066 23.1893 6.75029C22.8237 6.92754 22.532 7.07782 22.2442 7.23966C21.9206 7.41436 21.6123 7.61543 21.3224 7.84078C21.2923 7.86504 21.2661 7.89361 21.2446 7.92555C21.1923 7.91247 21.1374 7.91461 21.0863 7.93169C21.0353 7.94878 20.9903 7.9801 20.9567 8.02189C20.9147 8.07013 20.8913 8.13156 20.8906 8.19528C20.8912 8.23778 20.9008 8.27966 20.9189 8.31819C20.937 8.35671 20.9632 8.391 20.9956 8.41878C21.2057 8.59988 21.4157 8.80411 21.6335 9.0276C21.8513 9.2511 22.1275 9.57863 22.3492 9.85992C22.5709 10.1412 22.8043 10.488 22.9988 10.7886C23.4383 11.4745 23.8505 12.1565 24.2278 12.8154L24.5624 13.4127C24.8696 13.9599 25.1263 14.4107 25.4025 14.8654C25.5464 15.1043 25.702 15.3509 25.842 15.5705L25.8653 15.6091L25.9976 15.8133L26.1376 16.0406L26.1804 16.1139C24.8268 16.0021 23.5783 15.9482 22.3686 15.9482C21.4779 15.9482 20.6028 15.9828 19.7627 16.0522C19.5966 15.7412 19.4081 15.4424 19.1987 15.1582C18.9497 14.8114 18.6891 14.4839 18.4869 14.2373C18.2341 13.9252 17.9696 13.6285 17.709 13.351L17.4406 13.0543L17.4172 13.0312C17.2578 12.8539 17.0905 12.6728 16.935 12.4917C16.9083 12.4537 16.8741 12.4215 16.8345 12.3969C16.7949 12.3723 16.7507 12.3559 16.7046 12.3487C16.6584 12.3415 16.6113 12.3437 16.566 12.355C16.5207 12.3663 16.4782 12.3866 16.441 12.4147C16.4153 12.431 16.3929 12.4519 16.3749 12.4763C16.3348 12.4765 16.2952 12.4844 16.2582 12.4994C16.1674 12.5357 16.0939 12.6045 16.052 12.6921L15.9042 12.9503C15.8187 13.0774 15.7292 13.2007 15.6281 13.3356L15.5931 13.3819L15.5114 13.4936C15.3674 13.6939 15.2375 13.9038 15.1224 14.1217C15.1061 14.1547 15.0944 14.1897 15.0874 14.2257C15.0463 14.2889 15.0246 14.3625 15.0252 14.4377C15.024 14.5117 15.0487 14.5839 15.0952 14.6419C15.3052 14.8962 15.5114 15.1698 15.6942 15.4126L15.8459 15.6168C15.9703 15.7786 16.0948 15.9443 16.2348 16.1023C16.3441 16.2383 16.4624 16.3671 16.5888 16.4876C15.5259 16.7004 14.4785 16.9836 13.4538 17.3354C12.1913 17.7658 10.9714 18.3102 9.80931 18.9615C8.75599 19.5628 7.76916 20.2719 6.86495 21.0769C5.95929 21.8939 5.13718 22.7974 4.41063 23.7742C4.06446 24.2366 3.7183 24.753 3.34879 25.3541C2.96382 25.9764 2.6145 26.6196 2.3025 27.2808C1.66682 28.6292 1.21179 30.0541 0.948951 31.5194C0.765437 32.5368 0.674311 33.5685 0.676676 34.6021C0.676676 34.9874 0.676688 35.4074 0.711695 35.8197C0.817637 37.3101 1.06505 38.7873 1.45069 40.2318C1.61473 40.8776 1.81339 41.5143 2.0458 42.1392C2.27229 42.7461 2.53198 43.3404 2.82371 43.9194C3.41066 45.0843 4.11988 46.1847 4.93962 47.2024C5.75599 48.222 6.67619 49.1556 7.68564 49.9884C8.70595 50.8206 9.81294 51.5427 10.9879 52.1424C12.3294 52.8322 13.7315 53.3997 15.1769 53.8378C16.6119 54.2805 18.0905 54.5699 19.5876 54.701C20.1322 54.7472 20.6884 54.7703 21.2368 54.7703L21.2368 54.8166C21.2359 54.8804 21.2565 54.9427 21.2951 54.9938C21.3169 55.0265 21.3455 55.0541 21.3791 55.0748C21.4127 55.0954 21.4504 55.1085 21.4896 55.1133C21.8008 55.1133 22.1625 55.1518 22.5242 55.1518C22.8859 55.1518 23.166 55.1518 23.5277 55.121C24.2103 55.0746 24.8888 54.9806 25.5581 54.8397C26.9471 54.5513 28.2979 54.1053 29.5837 53.5103C30.7665 52.9588 31.8898 52.2901 32.9365 51.5143C33.5261 51.1528 34.0831 50.7416 34.6013 50.2851C35.0774 49.8706 35.5172 49.4168 35.9159 48.9287C36.3316 48.4037 36.7049 47.8471 37.0322 47.2641C37.7602 46.032 38.3859 44.7433 38.9031 43.4107C39.5759 41.6761 39.929 39.8358 39.9455 37.9776C39.9455 37.6423 39.9455 37.2994 39.9066 36.9603C39.8964 36.8978 39.8709 36.8387 39.8322 36.7883C39.7935 36.7379 39.7429 36.6977 39.6849 36.6713C39.6864 36.6283 39.6781 36.5855 39.6606 36.5461C39.6431 36.5068 39.6168 36.4718 39.5838 36.444C39.4614 36.3475 39.3314 36.2612 39.1948 36.1858C40.8928 36.8666 42.5545 37.6331 44.1734 38.4824C44.6207 38.7174 45.0797 38.9756 45.5347 39.253C45.5934 39.3219 45.6746 39.3683 45.7642 39.384C45.8598 39.3937 45.9557 39.3679 46.0332 39.3117C46.1108 39.2555 46.1646 39.1728 46.1843 39.0796C46.2108 38.9242 46.2264 38.7671 46.231 38.6095L46.231 38.02C46.222 37.6758 46.1948 37.3324 46.1493 36.9911C46.0668 36.3696 45.9221 35.7578 45.7175 35.1647C45.7464 35.1416 45.768 35.1108 45.7798 35.076C45.7984 35.0403 45.8077 35.0006 45.807 34.9604C45.8145 34.9248 45.8145 34.8881 45.807 34.8525C45.778 34.7839 45.7238 34.7288 45.6553 34.6984C43.5808 33.4696 41.4115 32.4054 39.1676 31.5156C38.1291 31.0955 37.0283 30.6755 35.7992 30.2324C34.7802 29.8471 33.8544 29.5388 32.9054 29.246C30.7924 28.559 28.6319 28.0246 26.441 27.6468C25.3523 27.4629 24.2535 27.3432 23.1504 27.2885C22.0737 27.2293 20.9939 27.2589 19.9221 27.3771C18.9207 27.4912 17.9355 27.7174 16.9855 28.0514C16.1033 28.373 15.2676 28.8084 14.5001 29.3461C12.9951 30.3768 11.8141 31.8072 11.0929 33.473C10.6476 34.5502 10.4216 35.7039 10.4278 36.8678C10.4271 37.5878 10.5106 38.3055 10.6767 39.0064C10.8918 39.9481 11.2373 40.8558 11.7035 41.7037C11.9352 42.1325 12.1951 42.5457 12.4814 42.9406C12.7734 43.3339 13.0918 43.7072 13.4344 44.0581C14.101 44.7484 14.86 45.3448 15.6903 45.8306C16.5266 46.3198 17.4308 46.6846 18.3741 46.9134C19.377 47.1599 20.4206 47.1979 21.439 47.0252C21.9397 46.9333 22.4307 46.7953 22.9054 46.6129C23.3792 46.4258 23.8359 46.1989 24.2706 45.9347C25.1356 45.4036 25.9211 44.7551 26.6044 44.008C27.2991 43.2567 27.8974 42.4232 28.3858 41.5265C29.2403 39.9226 29.6813 38.1342 29.6693 36.3206C29.6693 36.0625 29.6693 35.7889 29.6421 35.5114C29.581 34.737 29.4269 33.9725 29.1831 33.2341C29.1442 33.107 29.0975 32.976 29.0509 32.8488C29.3776 32.8951 29.7121 32.949 30.0233 32.9991C30.49 33.0762 30.984 33.1532 31.4896 33.2226C31.509 33.2816 31.5408 33.3359 31.5831 33.3818C31.6253 33.4276 31.677 33.464 31.7346 33.4885L31.9252 33.5501C32.3142 33.6773 32.8704 33.8507 33.376 34.0241C33.8817 34.1975 34.3795 34.3786 34.9941 34.6098L35.1069 34.6483L35.2197 34.6907C35.1963 34.7032 35.1783 34.7238 35.1691 34.7485C35.1632 34.7765 35.1632 34.8053 35.1691 34.8333C35.1693 34.8731 35.1815 34.912 35.2041 34.945C35.2062 34.9741 35.2128 35.0027 35.2236 35.0298L35.2236 35.0144L35.3753 35.5114C35.4064 35.627 35.4453 35.7388 35.4803 35.8505L35.5386 36.0162C35.6397 36.3476 35.7292 36.6443 35.7992 36.9256C35.8977 37.3293 35.9718 37.7385 36.0209 38.151C36.0626 38.5195 36.0834 38.8899 36.0832 39.2607L36.0832 39.4572C36.0591 40.0852 35.9928 40.7108 35.8848 41.33C35.7894 41.9353 35.6596 42.5348 35.4958 43.1256C35.1678 44.193 34.7038 45.2147 34.1151 46.1659C33.5107 47.1197 32.7881 47.9948 31.9641 48.7707C31.1493 49.5276 30.2456 50.1848 29.2726 50.7282C28.3265 51.2321 27.3221 51.6203 26.2815 51.8842C25.0274 52.173 23.7413 52.3025 22.4542 52.2695C21.6629 52.2447 20.8742 52.1674 20.0933 52.0383C19.3192 51.9065 18.5542 51.7276 17.8023 51.5027L17.7673 51.5027C16.0695 51.0029 14.4424 50.2921 12.9248 49.3872L12.9054 49.3872C11.6837 48.6248 10.5592 47.7192 9.55651 46.6899C8.58436 45.6703 7.74542 44.5336 7.05943 43.3067C6.47315 42.2241 6.02126 41.0752 5.71364 39.885C5.41559 38.648 5.26674 37.3804 5.27022 36.1087L5.27022 35.812C5.29106 35.0198 5.36119 34.2297 5.48025 33.4461C5.58656 32.6744 5.74642 31.9109 5.95868 31.1611L5.95868 31.1264C6.3485 29.8887 6.89062 28.7032 7.57283 27.5967L7.57283 27.5736C8.28997 26.4456 9.14575 25.4101 10.1205 24.491C10.601 24.0473 11.1061 23.6305 11.6335 23.2425C12.1821 22.8316 12.7592 22.4595 13.3605 22.1289C14.5069 21.5268 15.7247 21.0685 16.9855 20.7648L16.8883 20.7648C18.7632 20.3439 20.6844 20.1601 22.6059 20.2176L22.707 20.2176C24.2667 20.2756 25.8202 20.4456 27.355 20.7263C29.0143 21.0121 30.6558 21.3916 32.2714 21.863L32.2714 21.8437L32.2714 21.863L32.3064 21.863C33.5316 22.2291 34.7568 22.6529 35.9509 23.1192C37.145 23.5854 38.2846 24.0902 39.5604 24.7222C40.0699 24.9726 40.5795 25.2231 41.0851 25.4928L41.1668 25.5352L41.2407 25.5699C41.793 25.8473 42.4814 26.1903 43.1427 26.5101C44.469 27.1536 45.6553 27.6661 46.7638 28.0514C46.9544 28.1208 47.1528 28.1902 47.3434 28.2557C47.3951 28.2782 47.4536 28.2799 47.5066 28.2605C47.5595 28.2411 47.6028 28.202 47.6273 28.1516C47.6397 28.1237 47.6463 28.0935 47.6468 28.063C47.6475 28.0152 47.6309 27.9687 47.6001 27.932C47.6429 27.9219 47.6846 27.9077 47.7246 27.8896C47.8529 27.8356 47.9774 27.774 48.1135 27.7162C48.2496 27.6584 48.4441 27.5505 48.6075 27.4696L48.658 27.4426L48.9342 27.3C49.4557 27.0301 50.0046 26.8157 50.5717 26.6604C50.8739 26.5824 51.1852 26.5448 51.4974 26.5486C51.5562 26.5644 51.6183 26.563 51.6763 26.5446C51.7343 26.5261 51.7856 26.4914 51.8241 26.4446C51.8704 26.391 51.8953 26.3225 51.8941 26.2519L51.9136 26.2828ZM24.0723 31.7429C24.3912 31.7429 24.6985 31.7776 24.9902 31.8123L25.0213 31.8624C25.2042 32.0971 25.3681 32.3457 25.5114 32.606C25.7501 33.048 25.9317 33.5179 26.052 34.0048C26.1902 34.5804 26.2581 35.1703 26.2543 35.7619L26.2543 35.8852C26.2326 36.6185 26.1176 37.3461 25.912 38.0508C25.711 38.718 25.4233 39.3566 25.0563 39.9505C24.7399 40.4506 24.3637 40.9112 23.9361 41.3222C23.5544 41.6688 23.1343 41.9713 22.6837 42.2239C22.2077 42.4778 21.7022 42.6732 21.1784 42.8058C20.6688 42.9258 20.1464 42.984 19.6226 42.9792C19.154 42.9622 18.6892 42.8898 18.238 42.7634C17.8292 42.6392 17.4373 42.4658 17.0711 42.247C16.757 42.0484 16.4672 41.8144 16.2076 41.5496C15.9446 41.2649 15.7162 40.9506 15.5269 40.6132C15.3206 40.2288 15.1613 39.8213 15.0524 39.3995C14.945 38.9617 14.8901 38.5129 14.889 38.0623L14.889 38.0161C14.9021 37.5817 14.9701 37.1506 15.0913 36.733C15.2352 36.2764 15.4351 35.839 15.6864 35.4305C15.9076 35.087 16.1588 34.7634 16.4371 34.4634C16.516 34.4689 16.594 34.444 16.6549 34.394C16.7949 34.2784 16.9427 34.1589 17.0905 34.0433C17.2383 33.9277 17.4056 33.816 17.5417 33.7197C17.8493 33.5088 18.1673 33.3133 18.4947 33.134C18.9321 32.9015 19.3827 32.6943 19.8443 32.5136C20.3106 32.3251 20.7887 32.1668 21.2757 32.0396C21.7146 31.9307 22.1602 31.8509 22.6098 31.8007C23.0876 31.7487 23.5684 31.7293 24.0489 31.7429L24.0723 31.7429Z" fill="#FAD82F"/>
<path d="M24.0491 55.4844C26.5093 55.1744 28.8913 54.4209 31.0775 53.261C33.2312 52.1244 35.1445 50.5887 36.7135 48.7372C38.0136 47.2002 39.0253 45.4449 39.7006 43.5545C40.2618 41.9593 40.5433 40.2807 40.533 38.5915C40.533 38.156 40.533 37.6936 40.4902 37.1773C42.1355 37.9903 43.8586 38.9036 45.9006 40.0442L45.9317 40.0788C46.0052 40.1484 46.1023 40.1882 46.2039 40.1906C48.439 40.4023 50.6865 40.4538 52.929 40.3447C53.8625 40.3139 54.8076 40.2677 55.7256 40.2253C57.013 40.1636 58.3471 40.102 59.6618 40.0788C60.1557 40.0788 59.9885 39.5085 59.899 39.2234C59.5498 38.175 59.114 37.1568 58.596 36.1793C58.0671 35.1504 57.5186 34.1178 56.9663 33.0966C55.8656 31.0968 54.6637 29.093 53.3996 27.1394C53.2097 26.7841 52.9568 26.4656 52.6528 26.1992C52.3066 25.941 51.9721 25.6674 51.6299 25.4054C50.9686 24.8852 50.2802 24.3612 49.5995 23.8872C48.561 23.1666 47.4447 22.4769 46.1845 21.7756C43.7552 20.4386 41.2183 19.3031 38.5999 18.3808C37.1024 17.8413 35.5505 17.3635 33.9908 16.9628L33.9675 16.9127C33.5785 16.1921 33.1896 15.4484 32.8006 14.724C32.2522 13.7376 31.7465 12.8898 31.2448 12.123C30.1908 10.4285 28.9742 8.83874 27.6119 7.37574C27.2852 7.03279 26.9468 6.70526 26.6318 6.40855C26.4723 6.25827 26.3089 6.11185 26.1495 5.97313C26.0872 5.91533 26.0211 5.86138 25.955 5.81129L25.955 5.78432C25.9609 5.70093 25.9609 5.61724 25.955 5.53385C25.9384 5.08361 25.8173 4.64321 25.6011 4.24684C25.2925 3.6779 24.8991 3.15829 24.4342 2.70551C23.9739 2.22267 23.4507 1.80281 22.8784 1.45704C22.399 1.13811 21.8521 0.932456 21.2798 0.855925C20.9787 0.839966 20.6768 0.861977 20.3813 0.92143C20.0377 0.983751 19.6996 1.07265 19.37 1.18731C18.6682 1.43684 17.9964 1.76249 17.3669 2.15834C16.6966 2.56709 16.0559 3.0216 15.4493 3.51856C14.8737 3.98481 14.2825 4.51272 13.7068 5.08686C13.0483 5.73306 12.4263 6.41485 11.8438 7.12912C11.5102 7.53772 11.2024 7.96625 10.9219 8.41228C10.764 8.66722 10.6261 8.9339 10.5097 9.20991C10.249 9.8303 10.074 10.3659 10.3463 11.0171C10.5004 11.3489 10.6867 11.6651 10.9025 11.9612C11.2277 12.4429 11.5933 12.8967 11.9954 13.3176C12.3941 13.7436 12.8389 14.1248 13.3218 14.4543C13.554 14.5985 13.7957 14.7272 14.0452 14.8396C14.2796 14.945 14.5248 15.0251 14.7765 15.0785C14.827 15.0947 14.8815 15.0947 14.9321 15.0785C15.2238 15.3945 15.4805 15.695 15.71 15.9995C15.5233 16.038 15.3404 16.0842 15.1576 16.1305C12.8738 16.7196 10.6958 17.6555 8.701 18.9049C6.76347 20.1156 5.05263 21.6501 3.6446 23.4402C2.94283 24.335 2.32815 25.2936 1.80875 26.3032C1.28751 27.3288 0.869311 28.4026 0.560195 29.5092C0.249282 30.6598 0.0551401 31.8384 -0.0193419 33.0273C-0.0387893 33.3625 -0.0504661 33.7093 -0.0504661 34.06C-0.0462776 34.9531 0.0160774 35.8451 0.136225 36.7303C0.289458 37.923 0.520735 39.1046 0.828573 40.2676C1.13047 41.3715 1.50997 42.4531 1.96432 43.5044C2.81951 45.4874 3.98805 47.3227 5.42602 48.9415C6.84173 50.5259 8.51697 51.8624 10.3813 52.895C12.3436 53.9781 14.4682 54.743 16.6746 55.1607C17.8708 55.3927 19.0822 55.5395 20.2996 55.6C21.5504 55.6766 22.8056 55.6379 24.0491 55.4844ZM40.3308 36.3257C38.2867 35.2853 36.1783 34.3741 34.018 33.5976C31.8786 32.8234 29.662 32.277 27.4058 31.9676C26.2906 31.819 25.1666 31.7456 24.0414 31.748C23.1286 31.7429 22.2173 31.8203 21.3187 31.9792C20.5175 32.1269 19.7349 32.3607 18.9849 32.6766C18.2576 32.9822 17.5768 33.3868 16.9624 33.8789C16.3696 34.3569 15.8779 34.9461 15.5155 35.6128C15.1355 36.3379 14.9267 37.139 14.9048 37.9557L14.9048 38.1368C14.906 38.534 14.9464 38.9302 15.0254 39.3197C15.1174 39.755 15.261 40.1779 15.4532 40.5798C15.6403 40.9645 15.8755 41.3244 16.1534 41.651C16.7036 42.3013 17.4116 42.8025 18.2109 43.1075C18.6082 43.2594 19.0242 43.3579 19.4478 43.4004C20.3497 43.4938 21.2606 43.3502 22.0888 42.9842C22.7802 42.6829 23.4083 42.2555 23.9402 41.7242C24.2217 41.4377 24.4817 41.1311 24.7181 40.8071C24.9507 40.4943 25.1612 40.166 25.3482 39.8245C25.5495 39.4514 25.7249 39.0652 25.8733 38.6685C26.0166 38.2998 26.1323 37.9212 26.2195 37.5356C26.3645 36.9282 26.4388 36.3064 26.4412 35.6822C26.4412 35.5011 26.4412 35.32 26.4412 35.1427C26.4037 34.6098 26.2965 34.0839 26.1222 33.5783C26.0328 33.3218 25.9223 33.0731 25.7916 32.8346C25.7528 32.7614 25.71 32.692 25.6672 32.6227C26.2273 32.6612 26.8107 32.719 27.398 32.7922C27.752 32.8423 28.1059 32.8963 28.4443 32.9541L28.5727 33.2315C28.826 33.8318 29.0036 34.4608 29.1017 35.1042C29.1598 35.5191 29.1884 35.9376 29.1872 36.3565C29.1886 36.7428 29.1665 37.1289 29.1211 37.5125C28.9892 38.5214 28.7278 39.5094 28.3432 40.4526C27.9212 41.4631 27.3709 42.4161 26.7057 43.2886C26.1754 43.969 25.5642 44.5836 24.8854 45.119C24.2863 45.5803 23.6334 45.9684 22.9406 46.275C22.35 46.5181 21.7325 46.6914 21.1009 46.7913C20.4741 46.8767 19.839 46.8832 19.2106 46.8106C18.5435 46.7239 17.8901 46.5543 17.2658 46.3058C16.5199 45.9972 15.8167 45.5958 15.1732 45.1113C14.4459 44.5436 13.7927 43.8887 13.2284 43.1615C12.6421 42.4011 12.151 41.573 11.766 40.6954C11.4108 39.8645 11.16 38.9935 11.0192 38.1021C10.9561 37.6475 10.9236 37.1892 10.9219 36.7303C10.9223 36.3697 10.9444 36.0094 10.9881 35.6514C11.0827 34.9308 11.2696 34.2251 11.5443 33.5513C11.8251 32.8892 12.1897 32.2651 12.6294 31.694C13.1218 31.0746 13.6872 30.5157 14.3136 30.0294C15.0023 29.508 15.7535 29.0732 16.5501 28.7347C17.5331 28.3383 18.5609 28.0614 19.6112 27.9101C21.5106 27.6769 23.4327 27.6898 25.3288 27.9486C27.1294 28.1842 28.915 28.5213 30.6769 28.9582C31.6221 29.1817 32.6217 29.4321 33.6524 29.7288C34.6831 30.0255 35.8111 30.4186 36.978 30.8848L37.6586 31.1507C40.2855 32.2522 42.8522 33.4896 45.3482 34.8576C45.371 34.8955 45.3985 34.9304 45.4299 34.9616L45.4688 34.9963C45.5857 35.3953 45.6728 35.8023 45.7294 36.214C45.786 36.6833 45.8146 37.1555 45.815 37.6281L45.815 37.9749C45.815 38.2447 45.7878 38.5337 45.7606 38.892L45.7606 39.0423L45.7606 39.2851C44.0647 38.3063 42.2133 37.2698 40.3308 36.3257ZM34.3837 44.4177C33.9594 45.4314 33.4079 46.3881 32.7423 47.2653C32.1165 48.0675 31.3927 48.7897 30.5875 49.4154C29.768 50.0336 28.876 50.5512 27.9309 50.9567C26.8931 51.3838 25.8063 51.6827 24.6948 51.8469C23.4049 52.0206 22.0981 52.0322 20.8052 51.8815C19.0829 51.6665 17.3962 51.23 15.7877 50.583C14.3109 49.9811 12.9176 49.1951 11.6415 48.244L11.6182 48.244C10.5316 47.4109 9.55311 46.448 8.7049 45.3771C7.94608 44.3945 7.31247 43.3229 6.81845 42.1866C6.33577 41.0351 5.99872 39.8288 5.81497 38.5953C5.71967 37.8915 5.6716 37.1822 5.67106 36.4721C5.67241 35.796 5.71398 35.1205 5.79553 34.4491C5.98713 32.9141 6.37937 31.4103 6.96239 29.9754C7.46258 28.7547 8.11597 27.6011 8.90716 26.5421C9.65202 25.5961 10.5116 24.7446 11.4665 24.0066C12.436 23.283 13.4882 22.6751 14.6014 22.1956L14.6209 22.1956C15.9683 21.6421 17.379 21.2538 18.8216 21.0396L18.876 21.0396C21.1906 20.7367 23.5354 20.7367 25.85 21.0396C27.5068 21.215 29.1512 21.4904 30.7741 21.8642C32.6603 22.3369 34.5089 22.9461 36.3051 23.6868L36.3362 23.6868L36.3634 23.6868C38.2537 24.4575 40.1324 25.3322 41.9527 26.1799C43.0067 26.6732 44.0647 27.1664 45.1304 27.6403C45.6955 27.8351 46.2443 28.0735 46.7718 28.3532C47.1154 28.6354 47.4178 28.9635 47.6703 29.3281C48.0983 29.8988 48.4806 30.5018 48.8138 31.1314L49.0667 31.6054C49.2806 32.01 49.4984 32.4262 49.7473 32.8192C49.5684 32.9155 49.3856 33.008 49.2028 33.0889C48.6295 33.3115 48.0423 33.4968 47.4447 33.6438C47.1374 33.7209 46.8302 33.7941 46.5229 33.8673L46.4023 33.8981C46.1417 33.9598 45.8695 34.0214 45.6244 34.1062C45.5233 34.1371 45.4347 34.1992 45.3716 34.2835C43.6096 33.3394 41.556 32.2489 39.4595 31.2971C37.3347 30.3206 35.1354 29.5114 32.8823 28.8772C31.9488 28.6191 31.0114 28.3917 30.1596 28.1875C29.1989 27.964 28.3237 27.779 27.4836 27.6211C25.6443 27.2574 23.7738 27.0703 21.8982 27.0623C20.0838 27.0434 18.2815 27.3556 16.5812 27.9833C15.7414 28.3055 14.9467 28.7329 14.2164 29.2549C13.4888 29.7751 12.8348 30.3893 12.2716 31.0813C11.8028 31.6615 11.4106 32.2986 11.1047 32.9772C10.8095 33.6255 10.5966 34.3076 10.4707 35.0079C10.3734 35.5471 10.3253 36.0939 10.3268 36.6417C10.3297 37.4954 10.4381 38.3456 10.6497 39.1733C10.8128 39.8616 11.0394 40.5336 11.3264 41.1809C12.2045 43.0862 13.5843 44.7221 15.321 45.9166C16.4323 46.677 17.7064 47.1716 19.0433 47.3616C19.7235 47.4521 20.4129 47.4521 21.0931 47.3616C21.4526 47.3124 21.8086 47.2403 22.1588 47.1458C22.522 47.0401 22.878 46.9114 23.2246 46.7605C23.9647 46.438 24.6611 46.0251 25.2977 45.5313C25.982 44.9996 26.5974 44.3861 27.1296 43.7048C28.2826 42.2467 29.1039 40.559 29.5373 38.7572C29.7251 37.973 29.8216 37.1701 29.8251 36.3642C29.8251 36.0598 29.8251 35.7554 29.7823 35.4626C29.7294 34.9293 29.6225 34.4026 29.4634 33.8904C29.3834 33.6279 29.2873 33.3706 29.1756 33.1197L29.1444 33.0465L29.1444 33.0273C30.9654 33.397 32.7558 33.9019 34.5003 34.5378C34.582 34.6958 34.652 34.8422 34.7143 34.9809C35.0227 35.7227 35.2382 36.4992 35.356 37.2929C35.4314 37.8433 35.4691 38.3982 35.4688 38.9537C35.4687 39.5022 35.4362 40.0504 35.3716 40.5952C35.211 41.9101 34.8789 43.1989 34.3837 44.4292L34.3837 44.4177ZM24.7065 32.5726C24.7531 32.6882 24.8076 32.8038 24.862 32.9155C24.9165 33.0273 24.9437 33.0812 24.9787 33.1698C25.1764 33.6513 25.3148 34.1546 25.391 34.6688C25.4268 34.9693 25.445 35.2717 25.4455 35.5743C25.4444 35.9119 25.4223 36.249 25.3794 36.5839C25.2686 37.3349 25.0662 38.0699 24.7765 38.7726C24.5116 39.3863 24.1748 39.967 23.773 40.5027C23.4448 40.9194 23.0689 41.297 22.6528 41.6279C22.3401 41.8608 22.0023 42.0586 21.6454 42.2174C21.2705 42.3684 20.8788 42.4745 20.4785 42.5334C20.1155 42.5758 19.7486 42.5758 19.3856 42.5334C19.0296 42.4814 18.6811 42.3883 18.3471 42.256C18.0253 42.1146 17.7201 41.9389 17.4369 41.7319C17.1589 41.5104 16.9059 41.2598 16.6823 40.9844C16.4561 40.6868 16.2643 40.3649 16.1106 40.0249C15.9589 39.653 15.8506 39.2651 15.7877 38.8689C15.76 38.631 15.7457 38.3917 15.745 38.1522C15.7441 37.9332 15.7571 37.7145 15.7839 37.4971C15.8412 37.1089 15.9443 36.7286 16.0911 36.3642C16.2504 36.011 16.4487 35.6763 16.6823 35.3662C16.9766 35.0055 17.3105 34.6785 17.6781 34.3913C18.2001 34.0091 18.7653 33.6884 19.3622 33.4357C20.2351 33.0807 21.15 32.8373 22.0849 32.7113C22.8905 32.621 23.7014 32.5849 24.512 32.6034C24.5781 32.5687 24.6442 32.5726 24.7065 32.5726ZM55.7333 32.5417C56.2506 33.5436 56.7446 34.5455 57.2891 35.6591L57.507 36.1099C56.978 36.5257 56.5083 37.0105 56.1106 37.5511C55.9024 37.8464 55.7373 38.1694 55.6205 38.5105C55.5592 38.6906 55.5175 38.8766 55.4961 39.0654C55.4904 39.145 55.4904 39.2248 55.4961 39.3043L55.4961 39.4854C54.5509 39.5163 53.7497 39.5432 52.9367 39.5663C51.7154 39.5972 50.6264 39.6049 49.6073 39.5895C48.5882 39.5741 47.5614 39.524 46.519 39.443C46.519 39.3544 46.5462 39.2658 46.5579 39.1887C46.5773 38.9684 46.5851 38.7471 46.5812 38.526C46.5657 37.3321 46.4051 36.1444 46.1028 34.9886C46.4092 34.9457 46.713 34.8866 47.013 34.8114C47.4092 34.7057 47.7989 34.5771 48.1798 34.426C48.9613 34.1237 49.7094 33.7428 50.4124 33.2893C50.462 33.2582 50.5039 33.2164 50.5349 33.167C50.5659 33.1177 50.5852 33.062 50.5914 33.0041C50.6117 32.9552 50.6223 32.9029 50.6225 32.85C50.6214 32.7803 50.6041 32.7117 50.5719 32.6496C50.113 31.8327 49.5995 31.0621 49.1561 30.4147C48.7563 29.8214 48.3171 29.255 47.8415 28.7193C48.0476 28.646 48.2304 28.5613 48.4171 28.4842C48.7127 28.3532 48.9966 28.2068 49.2378 28.0796L49.5801 27.8985C49.969 27.6827 50.4047 27.4592 50.8364 27.2743C51.2403 27.1031 51.6634 26.9802 52.0966 26.9082C52.2133 26.9082 52.3222 26.8851 52.4272 26.8812C52.4504 26.8849 52.474 26.8849 52.4972 26.8812C53.5318 28.4649 54.5276 30.2105 55.7333 32.5417ZM14.1736 14.1807C13.71 13.913 13.2826 13.588 12.9017 13.2135C12.2255 12.5347 11.6375 11.7748 11.1514 10.9516L11.1281 10.9169C11.0445 10.7574 11.0009 10.5803 11.0009 10.4006C11.0009 10.2209 11.0445 10.0438 11.1281 9.88424C11.2216 9.5598 11.3521 9.24695 11.517 8.95174C11.8715 8.35788 12.2776 7.79574 12.7306 7.27169C13.1195 6.79774 13.5707 6.31222 14.0374 5.83441C15.2497 4.56541 16.6254 3.46026 18.1292 2.54753C18.7787 2.16338 19.4738 1.8605 20.1985 1.64585C20.5258 1.55426 20.8624 1.49869 21.202 1.48016C21.3621 1.48432 21.5213 1.5063 21.6765 1.54567C21.988 1.63134 22.2882 1.75291 22.5711 1.90788C23.078 2.1997 23.5481 2.55025 23.9713 2.95212C24.3854 3.34865 24.7474 3.79531 25.0488 4.28152C25.2015 4.53871 25.3229 4.81292 25.4105 5.09842C25.4441 5.22465 25.4662 5.35361 25.4766 5.48376C25.4235 5.46956 25.368 5.46669 25.3136 5.47533C25.2593 5.48396 25.2075 5.50391 25.1615 5.53385C25.113 5.52239 25.0623 5.52239 25.0137 5.53385C24.3094 5.78825 23.6288 6.10284 22.9795 6.47406C22.2347 6.89604 21.5152 7.3605 20.8247 7.8651C19.3879 8.91205 18.0508 10.0871 16.8302 11.3755C16.4412 11.7955 16.0522 12.2271 15.7022 12.6548C15.5077 12.8898 15.3482 13.1018 15.2082 13.3021C15.1226 13.4293 15.0526 13.5295 14.9943 13.6297C14.9359 13.7299 14.8542 13.8763 14.792 14.015C14.7335 14.0257 14.6787 14.0509 14.6326 14.0882C14.5609 14.1441 14.5113 14.2232 14.4925 14.3117C14.3836 14.2847 14.2786 14.2346 14.1736 14.1807ZM19.6578 15.4138C19.6545 15.3756 19.6426 15.3388 19.6228 15.3059C19.4011 14.9937 19.1678 14.6932 18.9927 14.4658C18.8177 14.2385 18.5727 13.9341 18.3471 13.6682C18.1215 13.4023 17.8764 13.1326 17.6547 12.8975C17.433 12.6625 17.1841 12.4428 16.9507 12.2463C17.2113 11.9573 17.4914 11.6606 17.7753 11.3639C18.581 10.5461 19.4329 9.77419 20.3268 9.05193C20.5058 8.91321 20.6808 8.77449 20.8597 8.63962C21.4943 9.20489 22.0738 9.82802 22.5906 10.5008C23.2478 11.368 23.8592 12.2683 24.4225 13.1981L24.8115 13.8339L25.2782 14.6046C25.4455 14.8704 25.5855 15.0862 25.7177 15.2827C25.7761 15.3714 25.8383 15.4638 25.9044 15.5486C24.7726 15.4407 23.6291 15.3752 22.5128 15.3521C21.4665 15.3367 20.5291 15.3637 19.6578 15.4138ZM15.9355 15.117C15.7292 14.8303 15.5072 14.5551 15.2704 14.2924L15.2977 14.2693C15.4457 14.1152 15.5834 13.9517 15.71 13.7799L15.8655 13.5834L16.0484 13.3522L16.4373 12.8629L16.7173 12.5353C17.1887 12.9644 17.6196 13.4352 18.0048 13.9418C18.207 14.2 18.3937 14.4658 18.5843 14.7124L18.7516 14.9475L19.0977 15.4407C19.0005 15.4407 18.9033 15.4407 18.806 15.4677C18.0281 15.5486 17.2269 15.6719 16.449 15.8299C16.2817 15.618 16.1145 15.3637 15.9355 15.117ZM26.5501 15.6141C26.4218 15.3489 26.2777 15.0916 26.1184 14.8435L25.605 14.0304C25.216 13.4409 24.8698 12.9052 24.5198 12.3928C23.7993 11.3048 22.9943 10.2741 22.1121 9.3101C21.8204 9.00183 21.5093 8.70513 21.1903 8.42769C21.8056 7.97256 22.4444 7.54942 23.104 7.15995C23.7453 6.78014 24.4196 6.45775 25.1188 6.19662C25.2393 6.3392 25.3677 6.47791 25.5077 6.61278L25.5466 6.65516L25.7955 6.91719L26.0717 7.2139C26.4334 7.59923 26.7835 7.98456 27.0752 8.30824C27.7403 9.04422 28.3976 9.80718 29.02 10.5778C29.7045 11.4294 30.2996 12.2039 30.8403 12.9515C31.3809 13.699 31.9293 14.5159 32.505 15.4215L32.9367 16.1266C33.0768 16.3617 33.2129 16.5967 33.3451 16.8356C32.4233 16.6083 31.4821 16.4041 30.5408 16.2268C29.1989 15.9571 27.8609 15.749 26.5501 15.6141ZM18.4015 54.5326C16.4969 54.278 14.633 53.7834 12.855 53.0607C11.3562 52.4287 9.9425 51.6146 8.64654 50.6369C7.4147 49.6831 6.30567 48.5831 5.34433 47.3616C4.30675 46.0086 3.44312 44.5331 2.77334 42.9688C1.95489 40.9931 1.39795 38.9208 1.1164 36.8035C1.00492 35.9819 0.941294 35.1547 0.925814 34.3258L0.925814 34.1062C0.927001 33.3601 0.97637 32.6149 1.07362 31.8751C1.27992 30.4352 1.67208 29.0275 2.24048 27.6866C2.81496 26.3698 3.55181 25.1286 4.43419 23.9912C5.40488 22.7643 6.52294 21.6593 7.76363 20.7005L7.72472 20.7275L7.7675 20.7005L7.80252 20.6735C9.23044 19.5988 10.7879 18.7044 12.4388 18.0109C14.285 17.2566 16.2208 16.7387 18.1993 16.4696C19.7593 16.2843 21.3316 16.2199 22.9017 16.2769C24.5933 16.3239 26.2812 16.4603 27.9581 16.6853C30.2848 17.0012 32.5893 17.4607 34.8582 18.061C37.1596 18.668 39.4168 19.4288 41.6143 20.3383L41.5754 20.319C43.2596 21.0246 44.9011 21.8262 46.4918 22.7196C48.0426 23.595 49.5318 24.5734 50.9492 25.6482C51.2059 25.8485 51.4626 26.0528 51.7271 26.257C51.059 26.3731 50.4065 26.5644 49.7823 26.8273C49.37 26.993 48.9461 27.1856 48.4755 27.4207C48.1098 27.6018 47.6975 27.806 47.2425 28.0565C45.5194 27.3359 43.8041 26.5152 42.1433 25.7445L40.6925 25.0625C38.4589 23.988 36.1685 23.0336 33.8313 22.2033C31.6422 21.4641 29.3919 20.9161 27.1063 20.5656C25.0379 20.2242 22.9393 20.0951 20.8441 20.1803C18.7968 20.2464 16.7732 20.6367 14.8504 21.3363C13.8925 21.6952 12.9727 22.147 12.1044 22.685C11.1997 23.2539 10.3587 23.9165 9.59559 24.6617C8.81402 25.4208 8.1248 26.2679 7.54193 27.1856C6.95286 28.1163 6.46399 29.1056 6.08335 30.1373C5.35275 32.095 4.97745 34.1653 4.97481 36.2525L4.97481 36.5877C5.00324 37.6253 5.13351 38.6578 5.36377 39.6704C6.00625 42.5001 7.45473 45.0879 9.53726 47.1266C10.9041 48.4746 12.4798 49.5972 14.2047 50.452C15.972 51.3284 17.8588 51.945 19.8056 52.2823C20.7889 52.4571 21.786 52.5448 22.785 52.5443C23.7425 52.5424 24.6975 52.4469 25.6361 52.2592C27.4281 51.907 29.1248 51.1835 30.6147 50.136C31.3568 49.6156 32.0366 49.0132 32.6411 48.3403C33.2637 47.6516 33.8076 46.8969 34.2631 46.09C34.7484 45.2349 35.1396 44.3306 35.4299 43.3927C35.7746 42.2785 35.9912 41.1294 36.0756 39.9671C36.1028 39.6511 36.1145 39.3313 36.1145 39.0153C36.1148 38.327 36.0563 37.64 35.9395 36.9615C35.8565 36.4831 35.7368 36.0116 35.5816 35.5512C35.5116 35.3393 35.426 35.1196 35.3171 34.8692L35.3171 34.8422C35.7061 35.0002 36.1378 35.1659 36.5812 35.3508L36.6046 35.3508L36.6318 35.3508C37.6392 35.7747 38.6855 36.2486 39.7434 36.7534C39.7434 37.0309 39.7434 37.3083 39.7434 37.5857L39.7434 38.2755C39.7434 38.8612 39.6851 39.3968 39.619 39.9208C39.5158 40.6389 39.3704 41.3505 39.1833 42.0517C38.987 42.7624 38.7454 43.4599 38.4599 44.1402C37.911 45.3965 37.2096 46.5818 36.3712 47.6699C35.4508 48.8315 34.3916 49.8782 33.2168 50.7872C31.9327 51.7618 30.5323 52.5758 29.0472 53.2109C27.4918 53.8626 25.8575 54.3108 24.1853 54.5442C22.2653 54.7924 20.3208 54.7899 18.4015 54.5365L18.4015 54.5326Z" fill="#161616"/>
</g>
<defs>
<clipPath id="clip0_343_3506">
<rect width="54.7826" height="60" fill="white" transform="translate(60 0.854614) rotate(90)"/>
</clipPath>
</defs>
</svg>
