<svg width="70" height="60" viewBox="0 0 70 60" fill="none" xmlns="http://www.w3.org/2000/svg">
<g clip-path="url(#clip0_343_3518)">
<path d="M65.5521 13.7206C65.4928 13.6356 65.4025 13.5772 65.3006 13.558C65.2619 13.5526 65.2228 13.5526 65.1841 13.558C65.1199 13.5599 65.056 13.5677 64.9932 13.5812C64.8842 13.6038 64.7781 13.6381 64.6765 13.6835C64.5554 13.7392 64.4296 13.7997 64.2946 13.874C63.9013 14.1024 63.5302 14.3669 63.1861 14.6642C63.0092 14.8129 62.8601 14.9477 62.7204 15.0778C62.6593 15.1364 62.6018 15.1984 62.5481 15.2638C62.5714 15.208 62.59 15.1429 62.6086 15.0825C62.6481 14.9293 62.6792 14.7742 62.7018 14.6177C62.7018 14.5759 62.7018 14.534 62.7018 14.4969C62.7696 14.2974 62.8256 14.094 62.8694 13.888C62.9075 13.7059 62.9293 13.5208 62.9346 13.3349C62.9396 13.1327 62.9161 12.9309 62.8648 12.7353C62.853 12.6968 62.8332 12.6611 62.8067 12.6307C62.7802 12.6003 62.7477 12.5757 62.7111 12.5587C62.7111 12.5587 62.6878 12.5587 62.6785 12.5587C62.632 12.5068 62.5788 12.4615 62.5201 12.4239C62.4365 12.3872 62.3461 12.3682 62.2547 12.3681C62.1736 12.3714 62.0935 12.3871 62.0172 12.4146C61.986 12.4238 61.9573 12.4399 61.9331 12.4616C61.9089 12.4833 61.8899 12.5101 61.8774 12.5401C61.776 12.5574 61.6784 12.592 61.5887 12.6423C61.5248 12.6751 61.4654 12.7157 61.4117 12.7632C61.3373 12.8266 61.2673 12.8949 61.2021 12.9677C61.0671 13.1336 60.9544 13.3164 60.8668 13.5115C60.7873 13.6873 60.7218 13.8691 60.6712 14.0553C60.62 14.2226 60.5734 14.4085 60.5268 14.6177C60.4414 15.0383 60.3808 15.4635 60.3452 15.8912C60.3126 16.2956 60.2939 16.7232 60.2939 17.1648C60.2939 17.6063 60.2939 17.9688 60.3498 18.35C60.3522 18.3829 60.367 18.4136 60.3912 18.436C60.4154 18.4585 60.4472 18.4709 60.4802 18.4708C60.5091 18.4707 60.537 18.4611 60.5598 18.4434C60.5825 18.4258 60.5988 18.4011 60.606 18.3732C60.6464 18.3739 60.6858 18.3608 60.7178 18.336C60.9599 18.1501 61.2068 17.9642 61.4583 17.7829C61.608 17.6769 61.7635 17.5791 61.924 17.4901C62.2034 17.3274 62.4969 17.1741 62.781 17.0253L63.0045 16.9045C63.3893 16.7114 63.7639 16.4989 64.1269 16.2677C64.4715 16.0454 64.7848 15.7781 65.0584 15.4729C65.189 15.3314 65.3031 15.1754 65.3984 15.0081C65.484 14.8397 65.5497 14.6619 65.594 14.4783C65.632 14.3406 65.6493 14.198 65.6452 14.0553C65.6491 13.9369 65.6166 13.8201 65.5521 13.7206Z" fill="#EC5042"/>
<path d="M38.6886 0.604209C38.2393 0.613126 37.798 0.724412 37.3985 0.929563C37.1253 1.06897 36.865 1.23228 36.6207 1.41759C36.3277 1.63676 36.0463 1.87102 35.7777 2.11943C35.2402 2.6285 34.7347 3.17024 34.2641 3.74155C33.8496 4.23423 33.4304 4.76874 32.9042 5.47523C32.7411 5.69368 32.5781 5.91213 32.4384 6.13523L31.9727 6.79524L31.9121 6.87425L31.8562 6.94862L31.6001 7.27397C31.316 7.64116 31.0179 8.02229 30.7338 8.40342C30.324 8.95187 29.8862 9.55145 29.3599 10.2905L29.1038 10.6484C28.3074 11.7685 27.483 12.9212 26.6354 14.0274V14.0553L26.6121 14.0832C25.6606 15.344 24.6026 16.5211 23.4497 17.6016L22.5183 17.4297L21.5868 17.2531C20.2269 17.0021 18.9787 16.7883 17.7724 16.6442C17.2089 16.5652 16.6267 16.5047 15.9933 16.4536C15.7698 16.4536 15.5509 16.4164 15.332 16.3932L14.2981 16.277L13.646 16.2677C12.4351 16.1376 11.0333 15.9888 9.65004 15.933C9.21224 15.933 8.81171 15.9052 8.42515 15.9052C7.41977 15.8982 6.41539 15.9697 5.42117 16.119C4.21158 16.2514 3.05503 16.6862 2.05857 17.3832C1.61155 17.7237 1.23775 18.1505 0.959433 18.6381C0.67828 19.1715 0.510228 19.7569 0.465755 20.3579C0.454497 20.3958 0.454497 20.4361 0.465755 20.4741C0.465755 20.5345 0.465755 20.5996 0.465755 20.6646C0.424707 21.1994 0.476705 21.7372 0.619447 22.2542C0.758682 22.8015 0.958631 23.3315 1.21559 23.8345C1.47001 24.3401 1.75624 24.8291 2.07254 25.2986C2.70128 26.2282 3.42782 27.1252 4.13574 27.9851C5.06721 29.1145 5.99868 30.1882 6.89755 31.1922C8.08983 32.5075 9.36128 33.8182 10.6747 35.0778C11.3593 35.7425 12.0719 36.3746 12.64 36.9045L12.8589 37.1043L12.9707 37.2112L12.9335 37.3507L12.8962 37.4901C12.7379 38.0711 12.5888 38.68 12.4305 39.3493C12.1557 40.5252 11.9042 41.7569 11.662 43.1187C11.2754 45.3311 10.9448 47.7666 10.6234 50.7924C10.6001 51.0016 10.5815 51.2154 10.5582 51.4246C10.5303 51.7267 10.4977 52.0334 10.4651 52.3541L10.4232 52.712C10.3952 52.9584 10.3673 53.2001 10.344 53.4464C10.2474 54.2171 10.2224 54.9951 10.2695 55.7704C10.3006 56.5496 10.5229 57.3093 10.9168 57.9828C11.1345 58.3214 11.4123 58.6175 11.7365 58.8566C12.0707 59.1004 12.4439 59.2859 12.8403 59.405C13.1575 59.4998 13.4873 59.5453 13.8184 59.5398H13.9534C14.3539 59.5233 14.751 59.4593 15.1364 59.3493C15.5501 59.2262 15.9534 59.0707 16.3426 58.8845C16.7405 58.7021 17.1277 58.4972 17.5023 58.2709C18.807 57.4586 20.0521 56.5547 21.2282 55.5658L21.6567 55.2219L22.0805 54.8872C22.5695 54.5108 23.0818 54.1296 23.5801 53.7625L24.2135 53.2977C25.2056 52.5586 25.9601 51.9684 26.6587 51.392C27.4597 50.7399 28.2217 50.0416 28.9408 49.3005C29.6199 48.6076 30.2226 47.8441 30.7385 47.023L30.799 46.9161C31.0108 47.2973 31.2505 47.6624 31.5163 48.0083C31.8749 48.4731 32.2661 48.9797 32.7132 49.4957C33.1349 49.9841 33.5827 50.4496 34.0545 50.89C34.7717 51.5454 35.5449 52.1543 36.2807 52.7167C37.2914 53.4929 38.3532 54.2458 39.4337 54.9523C40.6105 55.7289 41.8278 56.4426 43.0804 57.0904C44.2589 57.7149 45.4959 58.2224 46.7737 58.6056C47.5289 58.8363 48.3128 58.9599 49.1024 58.9728C49.4148 58.9727 49.7265 58.9447 50.0339 58.8891C50.4904 58.8098 50.926 58.639 51.3146 58.3871C51.7275 58.1065 52.0714 57.7363 52.3206 57.3042C52.627 56.7551 52.8246 56.1523 52.9028 55.5287C53.0326 54.532 53.0326 53.5228 52.9028 52.5261C52.6465 50.5052 52.2418 48.5059 51.6919 46.5442L51.608 46.2142C51.4916 45.7494 51.3798 45.3172 51.2727 44.8617C51.1283 44.2761 50.97 43.6858 50.807 43.1094C50.644 42.5331 50.4484 41.98 50.2667 41.4315C50.0618 40.8134 49.8522 40.1719 49.6613 39.5398C49.4703 38.9077 49.3632 38.4569 49.2561 37.9595L49.638 37.7783L50.0245 37.597C50.7231 37.2623 51.4217 36.937 52.1297 36.607L52.4836 36.4397L53.0472 36.1794L54.9567 35.287L55.5621 34.9988C56.0279 34.7664 56.5402 34.534 57.0385 34.3156C57.5368 34.0971 58.0817 33.8973 58.5894 33.702C59.097 33.5068 59.5581 33.3302 60.0332 33.135C61.0589 32.7415 62.0345 32.2282 62.9394 31.6058C63.3804 31.2905 63.7836 30.9256 64.141 30.5182C64.3373 30.289 64.5178 30.0467 64.6812 29.7931C64.8487 29.5265 64.9877 29.2429 65.0957 28.9472C65.182 28.7008 65.2383 28.4448 65.2634 28.185C65.2895 27.9274 65.2769 27.6673 65.2261 27.4134C65.1813 27.1815 65.1061 26.9565 65.0026 26.7441C64.8883 26.5119 64.7476 26.2936 64.5834 26.0934C64.2399 25.684 63.8326 25.3324 63.3772 25.0523C63.135 24.8942 62.8835 24.7594 62.6227 24.62C62.3619 24.4806 62.0498 24.3272 61.6912 24.1552C60.634 23.6625 59.4417 23.1838 57.9327 22.6539C57.2714 22.4215 56.5914 22.1891 55.9394 21.9753C55.2873 21.7615 54.7424 21.5756 54.1509 21.3711C53.5595 21.1666 52.9633 20.9481 52.4091 20.7343L51.6965 20.4508L50.6393 20.0418C49.6446 19.6575 48.6293 19.3286 47.5981 19.0564C46.7643 18.8306 45.9087 18.6951 45.0458 18.6521L44.976 18.3732C44.8968 18.0525 44.8083 17.7364 44.7245 17.4436C44.6407 17.1508 44.5615 16.844 44.487 16.5466C44.1749 15.3056 43.8489 14.0413 43.5229 12.7864C43.1969 11.5315 42.8662 10.3184 42.5169 9.06807C42.4517 8.83567 42.3865 8.60328 42.326 8.38018C42.2235 8.03313 42.1257 7.68454 42.0325 7.33439C41.958 7.05087 41.9021 6.75341 41.8509 6.46523C41.8136 6.28397 41.781 6.10734 41.7531 5.93072C41.646 5.34973 41.5342 4.75015 41.3991 4.15987C41.2437 3.3587 40.9739 2.58391 40.5981 1.85915C40.4529 1.56778 40.2489 1.30957 39.9988 1.10078C39.7487 0.891999 39.458 0.737167 39.145 0.64604C38.9921 0.611793 38.8359 0.594645 38.6793 0.594913L38.6886 0.604209ZM49.0884 37.016L49.5542 36.8022L49.0884 37.0253V37.016ZM32.8343 48.171L32.7877 48.1106L32.7551 48.0641C32.7831 48.1013 32.8063 48.1385 32.8343 48.171Z" fill="#FAD82F"/>
<path d="M34.8323 33.465H34.809C34.6398 33.4712 34.4729 33.5058 34.3153 33.5673C34.1358 33.6373 33.9629 33.7228 33.7983 33.8229C33.477 34.0298 33.1747 34.2647 32.8948 34.5248C32.2621 35.0897 31.7161 35.7443 31.2741 36.4676C30.839 37.1642 30.5168 37.925 30.3193 38.7218C30.1177 39.5109 30.0656 40.3306 30.1656 41.1387C30.1722 41.2169 30.205 41.2906 30.2588 41.3479C30.2625 41.3547 30.2672 41.361 30.2727 41.3665C30.2944 41.8297 30.4151 42.2829 30.6267 42.6958C30.7088 42.8445 30.8055 42.9846 30.9154 43.1141C31.0347 43.2479 31.1728 43.3637 31.3253 43.458C31.4698 43.5462 31.6268 43.612 31.791 43.6533C31.9322 43.6913 32.0779 43.71 32.2242 43.709C32.2862 43.7138 32.3484 43.7138 32.4104 43.709C32.5971 43.6901 32.7795 43.6415 32.9507 43.565C33.0403 43.5272 33.1275 43.4837 33.2115 43.4348C33.3034 43.3749 33.3906 43.3081 33.4723 43.2349C33.7559 42.9849 33.9829 42.6775 34.1383 42.3333C34.3034 41.9536 34.4344 41.5601 34.5295 41.1573L34.5575 41.0504C34.6367 40.7483 34.7112 40.4462 34.7857 40.1208L34.9254 39.5677C35.0707 38.9634 35.2495 38.3675 35.461 37.7829C35.5262 37.6203 35.5914 37.4576 35.6613 37.3182C35.7684 37.0625 35.8755 36.7976 35.9687 36.5327C36.1163 36.1081 36.1919 35.662 36.1922 35.2126C36.1859 34.9953 36.1515 34.7797 36.0897 34.5712C36.0561 34.4613 36.0141 34.3541 35.964 34.2505C35.9125 34.1461 35.8518 34.0466 35.7824 33.9531C35.6659 33.7983 35.5163 33.6713 35.3446 33.5812C35.1845 33.5051 35.0095 33.4654 34.8323 33.465Z" fill="#EC5042"/>
<path d="M40.7797 24.5689C40.6442 24.1753 40.4085 23.8236 40.0958 23.5482C39.7831 23.2728 39.4041 23.0832 38.9959 22.9979C38.856 22.9738 38.7142 22.9614 38.5721 22.9608C38.3001 22.9603 38.0303 23.0091 37.7757 23.1048C37.4064 23.249 37.0716 23.4691 36.793 23.7509C36.3002 24.2505 35.929 24.8563 35.7079 25.5218C35.3811 26.4556 35.2373 27.4433 35.284 28.4314C35.3045 29.1123 35.4221 29.7868 35.6333 30.4346C35.6012 30.5152 35.6012 30.605 35.6333 30.6856C35.6973 30.8778 35.7865 31.0607 35.8988 31.2294C36.0008 31.3815 36.1248 31.5178 36.2667 31.6338C36.4136 31.7435 36.5793 31.8254 36.7558 31.8755C36.8457 31.8979 36.9379 31.9104 37.0306 31.9126H37.1004H37.2448C37.5812 31.8642 37.9009 31.735 38.1763 31.5362C38.4618 31.3365 38.7215 31.1023 38.9494 30.839C39.1834 30.5753 39.3967 30.294 39.5874 29.9977C39.7381 29.7537 39.8704 29.4989 39.9833 29.2354C40.3106 28.5109 40.5754 27.7599 40.7751 26.9905C40.8794 26.5765 40.9403 26.1528 40.9567 25.7263C40.9658 25.3331 40.9059 24.9414 40.7797 24.5689ZM31.465 24.1599C31.4037 23.849 31.302 23.5474 31.1623 23.2629C31.0504 23.0276 30.8919 22.8173 30.6966 22.6447C30.4857 22.4837 30.2427 22.3696 29.984 22.31C29.8317 22.2717 29.6753 22.2514 29.5183 22.2496C29.4454 22.245 29.3723 22.245 29.2994 22.2496C29.0521 22.2742 28.8092 22.3321 28.5775 22.4216C28.0876 22.614 27.6399 22.8997 27.2595 23.2629C26.829 23.6905 26.4733 24.1869 26.2069 24.7316C25.8275 25.4379 25.5485 26.1935 25.3779 26.9766C25.2079 27.7224 25.2271 28.4989 25.4338 29.2354C25.584 29.6959 25.8212 30.1235 26.1324 30.495C26.3699 30.7832 26.6354 31.0574 26.8915 31.3224L27.1989 31.6431C27.2185 31.6641 27.2423 31.6807 27.2688 31.6919C27.2953 31.7031 27.3238 31.7087 27.3526 31.7081C27.3849 31.7081 27.4168 31.7015 27.4464 31.6887C27.4761 31.6759 27.5028 31.6572 27.5249 31.6338C27.5271 31.623 27.5271 31.612 27.5249 31.6012C27.7083 31.6756 27.9045 31.7135 28.1024 31.7128C28.1691 31.7176 28.236 31.7176 28.3027 31.7128C28.9025 31.608 29.4546 31.3188 29.8815 30.8855C30.2912 30.4429 30.6079 29.923 30.813 29.3563C31.0828 28.6989 31.2826 28.015 31.4091 27.3159C31.5386 26.6125 31.587 25.8968 31.5535 25.1825C31.5429 24.8423 31.5055 24.5035 31.4417 24.1692L31.465 24.1599Z" fill="#FEFEFE"/>
<path d="M34.1057 35.6263C34.0512 35.626 33.9972 35.6365 33.9468 35.6573C33.8964 35.678 33.8507 35.7086 33.8123 35.7472C33.2613 36.4456 32.8631 37.2516 32.6433 38.113C32.5327 38.5432 32.4564 38.9815 32.4151 39.4237C32.3802 39.849 32.3802 40.2765 32.4151 40.7019C32.4095 40.7494 32.414 40.7977 32.4285 40.8434C32.4429 40.8891 32.4668 40.9312 32.4987 40.967C32.5306 41.0028 32.5697 41.0314 32.6135 41.0511C32.6573 41.0707 32.7048 41.0808 32.7528 41.0808C32.8008 41.0808 32.8482 41.0707 32.892 41.0511C32.9358 41.0314 32.9749 41.0028 33.0068 40.967C33.0387 40.9312 33.0627 40.8891 33.0771 40.8434C33.0915 40.7977 33.096 40.7494 33.0904 40.7019C33.0741 40.4134 33.0835 40.1241 33.1184 39.8374C33.1632 39.5316 33.2269 39.2289 33.3093 38.931C33.4005 38.6147 33.5109 38.3043 33.64 38.0014C33.7657 37.7133 33.9008 37.4251 34.0312 37.1369C34.1616 36.8487 34.3246 36.5327 34.469 36.2073C34.5059 36.1438 34.5252 36.0716 34.5249 35.9982C34.5254 35.9444 34.5149 35.8912 34.4941 35.8416C34.4733 35.7921 34.4425 35.7473 34.4038 35.71C34.3188 35.6452 34.2121 35.6152 34.1057 35.6263ZM36.0758 33.5813C35.9436 33.426 35.7861 33.294 35.61 33.1908C35.4251 33.0866 35.2205 33.0217 35.0092 33.0003C34.9488 32.9957 34.8881 32.9957 34.8276 33.0003C34.4906 33.0114 34.1601 33.0955 33.8589 33.2466C33.4577 33.4414 33.0861 33.6918 32.7551 33.9903C32.3994 34.2995 32.0692 34.6368 31.7677 34.9989C31.4611 35.3611 31.1765 35.7414 30.9154 36.1376C30.7115 36.442 30.5294 36.7604 30.3705 37.0904C30.2219 37.4195 30.1049 37.7618 30.0212 38.113C29.9056 38.5713 29.8231 39.0373 29.7744 39.5074C29.717 39.9792 29.7014 40.4551 29.7278 40.9296C29.752 41.4047 29.8429 41.8741 29.9979 42.324C30.1537 42.7419 30.4077 43.1165 30.7385 43.4163C30.9046 43.5655 31.0932 43.6879 31.2973 43.7788C31.4092 43.8298 31.5243 43.8733 31.642 43.9089C31.7761 43.9458 31.9133 43.9706 32.0518 43.9833C32.3396 44.0222 32.6323 44.0048 32.9134 43.9322C33.186 43.8567 33.4398 43.7253 33.6586 43.5464C33.9539 43.2974 34.1989 42.9945 34.3805 42.654C34.5751 42.2998 34.7312 41.9258 34.8462 41.5385C34.9813 41.1155 35.0744 40.6833 35.1676 40.251C35.2281 39.9629 35.2887 39.6747 35.3585 39.3912C35.3728 39.3689 35.3852 39.3456 35.3958 39.3214C35.4377 39.1913 35.4889 39.0612 35.5448 38.931C35.5437 38.9233 35.5437 38.9155 35.5448 38.9078V38.8752C35.8056 38.2617 36.113 37.6714 36.3599 37.0533C36.6379 36.4427 36.7702 35.776 36.7464 35.1058C36.6836 34.5413 36.4497 34.0094 36.0758 33.5813ZM36.1643 35.7658C36.0747 36.2977 35.9182 36.8161 35.6985 37.3089C35.5169 37.7365 35.3166 38.1548 35.1303 38.5778C35.0884 38.6661 35.0465 38.7544 35.0092 38.8427C34.9443 39.01 34.8883 39.1807 34.8416 39.354C34.7484 39.7026 34.6925 40.0605 34.618 40.4091C34.5143 40.886 34.3678 41.3527 34.1802 41.8034C34.0536 42.1159 33.8877 42.4111 33.6866 42.6819C33.5766 42.8249 33.4499 42.9544 33.3093 43.0677C33.2017 43.1473 33.0862 43.2158 32.9647 43.2722C32.846 43.3182 32.7226 43.3509 32.5967 43.3698C32.4421 43.3887 32.2857 43.3887 32.131 43.3698C31.9612 43.342 31.7954 43.2936 31.6373 43.2257C31.5134 43.1712 31.3962 43.1025 31.288 43.0212C31.1727 42.9293 31.068 42.8249 30.976 42.7098C30.8689 42.5645 30.7769 42.4088 30.7012 42.245C30.5843 41.9453 30.5015 41.6335 30.4544 41.3154C30.3821 40.6676 30.3915 40.0134 30.4823 39.3679C30.5337 39.0098 30.6037 38.6545 30.6919 38.3035C30.7579 38.0339 30.8403 37.7684 30.9387 37.5087C31.0633 37.2368 31.2049 36.9729 31.3625 36.7186C31.5675 36.3886 31.7957 36.0632 32.0332 35.7518C32.4548 35.2002 32.9393 34.6995 33.477 34.2599H33.5049L33.5422 34.232H33.5142C33.7543 34.0471 34.0154 33.8911 34.292 33.7672C34.4318 33.7065 34.579 33.6643 34.7298 33.6417C34.9074 33.6106 35.0902 33.6316 35.2561 33.7021C35.3423 33.7384 35.4236 33.7852 35.4983 33.8415C35.5879 33.9209 35.6719 34.0063 35.7498 34.0972C35.8766 34.2727 35.9844 34.4612 36.0711 34.6596C36.1277 34.8102 36.1698 34.9658 36.1969 35.1244C36.214 35.3464 36.203 35.5697 36.1643 35.789V35.7658ZM35.5215 38.931V38.9031V38.931ZM30.5522 30.6995C30.83 30.279 31.0626 29.8303 31.2461 29.3609C31.3486 29.1332 31.3905 28.8729 31.4697 28.6359C31.5968 28.2886 31.6858 27.9286 31.7351 27.5622C31.7817 27.1625 31.8283 26.7628 31.8609 26.363C31.8609 26.0516 31.8981 25.7402 31.8935 25.4334C31.8918 25.0867 31.8669 24.7404 31.819 24.397C31.7771 24.081 31.7054 23.7698 31.6047 23.4674C31.5033 23.1617 31.3557 22.8733 31.1669 22.6122C31.0756 22.4824 30.971 22.3625 30.8549 22.2543C30.724 22.1383 30.5855 22.0312 30.4404 21.9336C30.097 21.7046 29.6937 21.5817 29.2807 21.5803C29.132 21.5797 28.9836 21.5953 28.8383 21.6268C28.5797 21.68 28.3312 21.7742 28.1024 21.9057L28.0558 21.9382L27.9441 21.8452C27.8689 21.7842 27.8003 21.7157 27.7391 21.6407C27.679 21.5562 27.6275 21.4659 27.5854 21.3712C27.5292 21.2359 27.4916 21.0936 27.4737 20.9482C27.461 20.9016 27.4351 20.8596 27.3991 20.8274C27.3743 20.8005 27.344 20.7791 27.3103 20.7647C27.2766 20.7503 27.2402 20.7431 27.2035 20.7437C27.1662 20.7431 27.1291 20.7502 27.0946 20.7646C27.0601 20.779 27.029 20.8003 27.0033 20.8274C26.9769 20.8524 26.9563 20.8828 26.9426 20.9164C26.929 20.9501 26.9226 20.9863 26.9241 21.0226C26.9398 21.1794 26.9679 21.3348 27.0079 21.4874C27.0556 21.6313 27.1181 21.7699 27.1942 21.901C27.2845 22.0523 27.3958 22.19 27.5249 22.31L27.4317 22.3891C27.2155 22.5792 27.0161 22.7876 26.8356 23.0119C26.8016 22.9653 26.7521 22.9323 26.6959 22.9189L26.4817 22.8538C26.4211 22.8213 26.3606 22.7888 26.3047 22.7516C26.2639 22.7164 26.2265 22.6775 26.1929 22.6354C26.1621 22.5932 26.1356 22.5481 26.1137 22.5006C26.098 22.438 26.0871 22.3743 26.0811 22.31C26.0811 22.31 26.0811 22.31 26.0811 22.2729C26.0804 22.2052 26.0537 22.1403 26.0066 22.0916C25.9573 22.0453 25.8926 22.0188 25.825 22.0172C25.7566 22.0172 25.691 22.044 25.6422 22.0918C25.5934 22.1396 25.5654 22.2046 25.5642 22.2729C25.5747 22.5628 25.6757 22.8423 25.8529 23.0723C25.9381 23.1732 26.0406 23.2582 26.1556 23.3233C26.2729 23.3815 26.3986 23.4207 26.5282 23.4395C26.463 23.5371 26.3932 23.6347 26.3326 23.737C26.1705 23.9846 26.0243 24.2423 25.8948 24.5085C25.7551 24.5085 25.6154 24.4853 25.471 24.4713C25.3409 24.4487 25.2131 24.4145 25.0891 24.3691C24.9982 24.3268 24.9109 24.2771 24.8283 24.2203C24.7694 24.1692 24.7148 24.1132 24.6653 24.053C24.6043 23.9934 24.5224 23.96 24.4371 23.9601C24.3955 23.9596 24.3542 23.9677 24.3157 23.9836C24.2773 23.9996 24.2425 24.0232 24.2135 24.053C24.1525 24.1134 24.1174 24.195 24.1157 24.2808C24.1195 24.3646 24.1544 24.4441 24.2135 24.5039C24.318 24.6305 24.4385 24.743 24.5721 24.8385C24.7036 24.9293 24.8481 24.9998 25.0006 25.0477C25.1513 25.0947 25.3084 25.1182 25.4664 25.1174L25.6154 25.0988C25.6154 25.1406 25.5828 25.1778 25.5688 25.2196C25.489 25.4236 25.4252 25.6334 25.3779 25.8471C25.332 26.0495 25.2978 26.2543 25.2754 26.4606C25.2249 26.8941 25.2094 27.3308 25.2288 27.7667C25.2481 28.2572 25.3073 28.7453 25.4058 29.2262C25.4979 29.6891 25.6432 30.1398 25.8389 30.5694C26.0053 30.9574 26.2457 31.3095 26.5469 31.6059C26.6968 31.7444 26.8663 31.8603 27.0498 31.9498C27.2532 32.0445 27.47 32.1072 27.6926 32.1358C28.1732 32.1739 28.6553 32.0841 29.0898 31.8755C29.3749 31.754 29.644 31.5979 29.8908 31.4107C30.1426 31.2047 30.3651 30.9655 30.5522 30.6995ZM26.0392 25.8611C26.1003 25.6434 26.1733 25.4293 26.2581 25.2196C26.5088 24.6315 26.8327 24.0771 27.2222 23.5696C27.4677 23.2533 27.749 22.9663 28.0605 22.7144C28.2402 22.5795 28.4338 22.4642 28.638 22.3705C28.7813 22.3152 28.9294 22.2732 29.0804 22.245C29.1982 22.2357 29.3166 22.2357 29.4344 22.245C29.5548 22.2682 29.6731 22.3008 29.7884 22.3426C29.9373 22.4127 30.0792 22.4967 30.2122 22.5936C30.346 22.7008 30.4692 22.8207 30.5801 22.9515C30.6998 23.1167 30.8013 23.2944 30.8828 23.4813C31.0432 23.8729 31.1513 24.2839 31.2042 24.7037C31.2562 25.1231 31.2827 25.5453 31.2834 25.968C31.2834 26.1694 31.2834 26.3692 31.2834 26.5675H31.1902H31.0458C30.0385 26.7154 29.016 26.731 28.0046 26.614C27.4179 26.5297 26.8438 26.3736 26.2954 26.1492L26.0159 26.0144C26.0066 25.9958 26.0206 25.9261 26.0392 25.8611ZM29.5741 30.9738C29.3645 31.1225 29.1397 31.2487 28.9035 31.3503C28.6872 31.4427 28.4604 31.5082 28.2282 31.5455C28.0734 31.5631 27.9172 31.5631 27.7624 31.5455C27.6409 31.5272 27.5221 31.4944 27.4085 31.4479C27.2963 31.3978 27.1901 31.3354 27.0918 31.2619C26.9601 31.1569 26.8413 31.0368 26.7378 30.9041C26.5874 30.6883 26.4623 30.4559 26.3652 30.2115C26.1545 29.6913 26.012 29.1461 25.9414 28.5894C25.8623 27.9728 25.8482 27.3497 25.8995 26.7302C26.2224 26.8727 26.5555 26.9908 26.8962 27.0835C27.3828 27.2125 27.88 27.2981 28.3818 27.3391C29.3152 27.4182 30.2549 27.3729 31.1763 27.2043C31.0808 27.9998 30.8868 28.7804 30.5987 29.5283C30.4609 29.8588 30.2826 30.1711 30.0678 30.4579C29.9198 30.6379 29.7545 30.8029 29.5741 30.9505V30.9738ZM42.5215 25.0058C42.5042 24.9496 42.4698 24.9002 42.423 24.8644C42.3763 24.8286 42.3196 24.8082 42.2607 24.806C42.2361 24.8015 42.2108 24.8015 42.1862 24.806C42.0023 24.8755 41.812 24.9269 41.618 24.9594C41.4785 24.971 41.3383 24.971 41.1988 24.9594C41.1172 24.9452 41.0363 24.9266 40.9567 24.9036H40.8868C40.8868 24.8571 40.8868 24.8106 40.8868 24.7595C40.8629 24.6476 40.8317 24.5374 40.7937 24.4295C40.7611 24.3179 40.7191 24.2157 40.6772 24.1088C40.8962 24.0579 41.1099 23.9863 41.3153 23.895C41.6218 23.7698 41.9039 23.5921 42.1489 23.3698C42.1908 23.3296 42.2177 23.2765 42.2253 23.2191C42.2329 23.1616 42.2208 23.1033 42.1909 23.0537C42.1681 23.0135 42.1349 22.9801 42.0948 22.9572C42.0546 22.9343 42.0089 22.9227 41.9626 22.9236C41.9168 22.9251 41.872 22.9379 41.8322 22.9608C41.6972 23.0351 41.5714 23.1188 41.4364 23.1931C41.3013 23.2675 41.1756 23.3326 41.0405 23.393C40.8392 23.4768 40.6302 23.5406 40.4164 23.5836L40.3792 23.5231C40.2271 23.275 40.0352 23.0536 39.811 22.8678C39.7038 22.779 39.5901 22.6982 39.471 22.6261C39.3445 22.5544 39.212 22.4938 39.0751 22.4448C38.9703 22.4098 38.8628 22.3833 38.7537 22.3658C38.6351 22.3473 38.5152 22.338 38.3951 22.3379H38.3253C38.0428 22.3521 37.7652 22.4166 37.5056 22.5285C36.9506 22.7936 36.4787 23.2051 36.141 23.7184C35.9609 23.9843 35.805 24.2659 35.6752 24.5596C35.5286 24.8696 35.4041 25.1896 35.3027 25.5171C35.096 26.1878 34.9694 26.8805 34.9254 27.5808C34.8793 28.2778 34.9248 28.9778 35.0605 29.6631C35.1635 30.3214 35.44 30.9405 35.8615 31.4572C36.0822 31.687 36.35 31.8666 36.6466 31.9837C36.9432 32.1008 37.2616 32.1527 37.5801 32.1358C37.9314 32.1119 38.2695 31.993 38.5581 31.7918C38.8805 31.5584 39.1595 31.2706 39.3825 30.9412C39.6205 30.6057 39.8219 30.2458 39.9833 29.8676C40.1687 29.4403 40.3243 29.0008 40.449 28.5522C40.5468 28.2176 40.626 27.8783 40.6958 27.5343C40.8643 27.5574 41.0351 27.5574 41.2035 27.5343C41.4555 27.5045 41.6992 27.4255 41.9207 27.3019C41.9813 27.2667 42.0286 27.2126 42.0555 27.148C42.0825 27.0834 42.0874 27.0117 42.0698 26.944C42.0495 26.8776 42.0091 26.819 41.954 26.7766C41.8989 26.7341 41.8319 26.7098 41.7624 26.707C41.7346 26.7025 41.7063 26.7025 41.6785 26.707C41.5087 26.7733 41.3323 26.8216 41.1523 26.8511C41.0377 26.8627 40.9222 26.8627 40.8076 26.8511C40.8495 26.5582 40.8868 26.2608 40.9054 25.9633C40.9054 25.8053 40.9054 25.6426 40.9054 25.4985C41.4043 25.6188 41.93 25.5509 42.3818 25.308C42.4351 25.2798 42.4776 25.235 42.5028 25.1805C42.5281 25.1259 42.5346 25.0645 42.5215 25.0058ZM39.3312 29.6119C39.155 30.0372 38.9283 30.4398 38.6559 30.8111C38.5207 30.9848 38.3643 31.141 38.1902 31.2759C38.0864 31.3549 37.9739 31.422 37.8549 31.4757C37.7614 31.5113 37.6647 31.5377 37.5661 31.5548C37.4655 31.5664 37.364 31.5664 37.2634 31.5548C37.1243 31.534 36.9883 31.4966 36.8582 31.4432C36.4498 31.2859 36.1012 31.0046 35.8615 30.6391C35.6487 30.2004 35.5117 29.729 35.4563 29.2447C35.3818 28.6179 35.3818 27.9845 35.4563 27.3577C35.7732 27.4858 36.0966 27.5975 36.4251 27.6923C36.8457 27.8099 37.2758 27.8908 37.7105 27.934C38.1319 27.9712 38.5559 27.9712 38.9773 27.934C39.2148 27.934 39.443 27.8783 39.6899 27.8364L39.9274 27.7853C39.7815 28.4101 39.582 29.0212 39.3312 29.6119ZM40.1696 25.8192C40.1696 26.1167 40.1323 26.4188 40.0951 26.7163C40.0951 26.8325 40.0625 26.944 40.0438 27.0556H39.9274L39.6433 27.1021L39.1496 27.1764C38.4972 27.2601 37.8367 27.2601 37.1842 27.1764C36.615 27.0876 36.0585 26.9316 35.5262 26.7116C35.6303 26.1817 35.7863 25.6633 35.9919 25.1639C36.1656 24.7528 36.3859 24.3629 36.6486 24.0019C36.8159 23.7908 37.0048 23.5976 37.2122 23.4255C37.3578 23.3149 37.5138 23.2184 37.6779 23.1374C37.8166 23.0837 37.96 23.0432 38.1064 23.0165C38.2319 23.0072 38.358 23.0072 38.4836 23.0165C38.6076 23.0392 38.7293 23.0734 38.8469 23.1188C38.9683 23.1735 39.0838 23.2405 39.1915 23.3186C39.3199 23.4289 39.4384 23.5502 39.5455 23.6812C39.6874 23.8743 39.8062 24.0833 39.8994 24.304C40.0135 24.5581 40.0964 24.8249 40.1463 25.0988C40.1706 25.3381 40.1784 25.5788 40.1696 25.8192Z" fill="#161616"/>
<path d="M65.6926 27.3205C65.6388 27.1506 65.5703 26.9857 65.4877 26.8278C65.3234 26.4908 65.1134 26.178 64.8636 25.8982C64.6127 25.6137 64.3351 25.3538 64.0346 25.122C63.3402 24.5874 62.589 24.1307 61.7944 23.7602C60.9424 23.3567 60.0704 22.9968 59.1817 22.6818C58.348 22.3797 57.505 22.1102 56.6574 21.8452C55.9774 21.6314 55.2881 21.4223 54.6128 21.1806C53.9375 20.9389 53.4019 20.7158 52.7964 20.5206C52.1211 20.2742 51.4412 20.0558 50.7612 19.8094C49.3966 19.3446 48.0227 18.931 46.6301 18.5731L45.5729 18.3175C45.2469 17.0811 44.9349 15.8448 44.6414 14.5991C44.348 13.3535 44.0453 12.0195 43.7379 10.7274C43.4305 9.43528 43.1092 8.1571 42.7413 6.88822C42.555 6.2561 42.3547 5.62398 42.1405 5.00116C41.9914 4.55961 41.8377 4.11806 41.6747 3.6765C41.4375 2.87458 41.1256 2.09654 40.7433 1.35254C40.5985 1.03303 40.3855 0.748936 40.1192 0.520129C39.8529 0.291322 39.5398 0.123326 39.2017 0.0278875C39.0924 0.0095623 38.9818 0.000235033 38.871 0C38.1016 0.0781448 37.3757 0.393278 36.7938 0.901696C35.9366 1.55046 35.1443 2.28049 34.4279 3.08157C33.0773 4.55496 31.9036 6.17244 30.702 7.75273C30.1804 8.43133 29.6355 9.09133 29.0906 9.75134C28.4106 10.5694 27.726 11.3874 27.06 12.2147C25.7559 13.8322 24.4752 15.4683 23.2363 17.1369L21.9136 16.9091C21.3687 16.8069 20.8285 16.7 20.2882 16.5884C19.1891 16.3653 18.09 16.1236 16.9769 16.0167C16.4133 15.9517 15.8498 15.9145 15.2863 15.8726C14.7227 15.8308 14.1452 15.7936 13.5724 15.7657C12.5151 15.7146 11.4579 15.6821 10.4007 15.6821H10.1306C9.01282 15.6821 7.89817 15.727 6.78662 15.8169C5.92718 15.8601 5.0715 15.9595 4.22508 16.1143C3.81041 16.1988 3.40374 16.3185 3.00952 16.4722C2.62047 16.6276 2.25147 16.8289 1.91039 17.0718C1.20738 17.5856 0.660862 18.2839 0.331549 19.089C0.179658 19.4545 0.0793447 19.8393 0.0334792 20.2324C-0.0131129 20.6183 -0.0131129 21.0084 0.0334792 21.3944C0.135745 22.1973 0.370216 22.9778 0.727422 23.7044C1.09152 24.464 1.52164 25.1903 2.01285 25.875C2.47858 26.5582 2.99555 27.2136 3.51717 27.8596C4.03879 28.5057 4.58835 29.1796 5.12395 29.8396C5.78995 30.6391 6.48855 31.4153 7.21043 32.1636C8.65296 33.6755 10.1932 35.0915 11.8212 36.4025C12.1891 36.6953 12.5571 36.9835 12.9296 37.2624C12.8831 37.4669 12.8365 37.6667 12.7946 37.8713C12.7527 38.0758 12.6921 38.336 12.6455 38.587L12.3661 40.0186C12.1829 40.973 12.0059 41.9289 11.8352 42.8864C11.6675 43.8531 11.5045 44.8245 11.3694 45.796C11.2949 46.2607 11.2251 46.7581 11.1599 47.2461C11.1226 47.525 11.0853 47.8039 11.0434 48.0827C10.9363 48.7055 10.8106 49.3284 10.6895 49.9419C10.5404 50.7274 10.4007 51.5129 10.2843 52.303C10.1648 53.0944 10.0917 53.8922 10.0654 54.6921C10.0363 55.4445 10.0941 56.1978 10.2377 56.937C10.3633 57.6083 10.6369 58.2434 11.0388 58.7962C11.2553 59.0669 11.5131 59.3022 11.8026 59.4934C12.1161 59.7068 12.4692 59.8553 12.8412 59.9303C13.5953 60.0654 14.3722 59.9898 15.086 59.7118C15.8684 59.4159 16.6138 59.0307 17.3075 58.5638C18.1272 58.0339 18.905 57.439 19.7014 56.8812L19.6548 56.9138C20.088 56.6163 20.5164 56.3188 20.9403 56.0121C21.3641 55.7053 21.8438 55.3428 22.2909 54.9942C23.1758 54.3063 24.0374 53.5998 24.885 52.8561C26.5756 51.3874 28.1964 49.835 29.7892 48.2593L30.3434 47.7062C30.4086 47.8039 30.4692 47.9015 30.5344 47.9944C30.6834 48.2036 30.8464 48.4127 31.0001 48.6126C31.2889 48.9844 31.6009 49.3423 31.9316 49.6909C32.6209 50.4578 33.3288 51.1829 34.1066 51.8801C34.8843 52.5773 35.7506 53.3442 36.6122 54.0274C37.4738 54.7107 38.4332 55.4218 39.4066 56.0493C41.1722 57.2543 43.0868 58.2261 45.1025 58.9403C46.0095 59.2441 46.9462 59.4514 47.8969 59.5584C48.6537 59.6493 49.4199 59.6258 50.1697 59.4887C50.747 59.3779 51.2963 59.1536 51.7858 58.8287C52.2572 58.5034 52.654 58.082 52.9501 57.5924C53.2398 57.1036 53.4489 56.5716 53.5696 56.0167C53.7075 55.3938 53.7809 54.7583 53.7885 54.1204C53.7972 53.4386 53.7614 52.757 53.6813 52.0799C53.5928 51.3177 53.4671 50.5554 53.3134 49.8071C53.006 48.2779 52.5869 46.772 52.1304 45.28C51.7066 43.8857 51.2362 42.4913 50.7752 41.1248C50.4352 40.1069 50.0812 39.089 49.8437 38.0479C50.3886 37.7829 50.9521 37.5505 51.5064 37.3181L51.4551 37.3414C54.3567 36.119 57.2768 34.9338 60.0619 33.4604C61.416 32.7729 62.6971 31.9507 63.8856 31.0063C64.3624 30.6242 64.791 30.1856 65.1617 29.7002C65.4682 29.3148 65.6832 28.8651 65.7904 28.3848C65.8409 28.1544 65.8519 27.9171 65.823 27.683C65.7883 27.5592 65.7447 27.4381 65.6926 27.3205ZM64.9009 28.1153C64.8726 28.266 64.8305 28.4138 64.7751 28.5568C64.6592 28.8036 64.5171 29.0374 64.3513 29.254C63.9396 29.7505 63.4706 30.1966 62.9541 30.5833C61.73 31.4844 60.4286 32.276 59.0652 32.9491C57.5842 33.716 56.0659 34.3993 54.5429 35.0639C53.4811 35.5287 52.4145 35.9935 51.348 36.4257C50.6028 36.7418 49.8577 37.0532 49.1358 37.4204C49.0372 37.4785 48.9656 37.5733 48.9368 37.6839C48.908 37.7945 48.9243 37.912 48.9821 38.0107C48.9918 38.0269 49.0027 38.0425 49.0147 38.0572C49.1171 38.4941 49.2382 38.9263 49.3686 39.3539C49.5363 39.921 49.7133 40.4834 49.8903 41.0458C50.3281 42.4402 50.7658 43.7834 51.1757 45.1638C51.4831 46.2143 51.7718 47.2693 52.0233 48.3337C52.2748 49.3981 52.4891 50.4113 52.6241 51.4664C52.8033 52.6557 52.8315 53.8629 52.708 55.0593C52.6403 55.5734 52.5105 56.0775 52.3214 56.5605C52.1974 56.8469 52.0412 57.1182 51.8557 57.3693C51.6978 57.564 51.5198 57.7416 51.3247 57.8991C51.114 58.0538 50.8876 58.1862 50.6494 58.2942C50.3055 58.4267 49.9477 58.5202 49.5829 58.5731C48.9641 58.6471 48.3387 58.6471 47.7199 58.5731C46.5987 58.4 45.5035 58.0877 44.4598 57.6435C42.2163 56.6492 40.1083 55.3748 38.1864 53.8508L38.2376 53.888L38.1817 53.8461C36.8041 52.7702 35.4886 51.6172 34.2416 50.3927C33.6501 49.8164 33.0773 49.2215 32.5184 48.6172L31.7639 47.7946C31.5217 47.5296 31.2702 47.2693 31.0327 46.9951L31.07 47.0416L31.0001 46.9579C30.942 46.8958 30.8679 46.8508 30.7859 46.8278C30.6722 46.7987 30.5519 46.8102 30.4459 46.8603C30.3913 46.8697 30.3408 46.8957 30.3015 46.9347C28.718 48.5289 27.1252 50.1139 25.4579 51.6244C23.8011 53.1393 22.0595 54.5592 20.2417 55.8773C20.074 55.9935 19.911 56.1143 19.7387 56.2305L19.8039 56.1841L18.7513 56.9277C18.4206 57.1648 18.0946 57.3925 17.7593 57.6389C16.9126 58.261 15.991 58.7748 15.0161 59.168C14.654 59.302 14.2772 59.3924 13.8937 59.4376C13.6402 59.4701 13.3835 59.4701 13.1299 59.4376C12.9201 59.3991 12.7154 59.3367 12.5198 59.2517C12.3289 59.1575 12.1492 59.0421 11.9842 58.9077C11.7994 58.7458 11.6338 58.5634 11.4905 58.3639C11.3367 58.1289 11.2086 57.878 11.1086 57.6156C10.95 57.1492 10.8484 56.6654 10.8059 56.1748C10.7224 54.8259 10.8101 53.4719 11.0667 52.145C11.2297 51.1829 11.43 50.2301 11.6256 49.2772C11.7094 48.8775 11.7886 48.4824 11.8585 48.0827C11.905 47.7899 11.9469 47.4924 11.9935 47.1996C12.0494 46.8138 12.11 46.4281 12.1752 46.0469C12.408 44.6526 12.6688 43.2582 12.9436 41.8638C13.088 41.1527 13.2277 40.4369 13.3721 39.7211C13.5165 39.0053 13.6469 38.3267 13.7633 37.6156C13.7688 37.5734 13.7766 37.5315 13.7866 37.4901C13.8125 37.3877 13.8026 37.2795 13.7586 37.1834C13.7338 37.1347 13.699 37.0917 13.6565 37.0573C13.614 37.0229 13.5647 36.9977 13.5118 36.9835C13.4733 36.9768 13.4339 36.9768 13.3954 36.9835H13.3302C12.7402 36.497 12.1783 36.0198 11.6442 35.5519C10.0497 34.2178 8.54378 32.7817 7.13592 31.2526C6.43266 30.4857 5.73872 29.6956 5.09135 28.8822C4.59301 28.264 4.09002 27.6365 3.59634 27.023C3.24704 26.5582 2.9024 26.1213 2.57639 25.6286C1.93835 24.7499 1.41121 23.7961 1.00686 22.7887C0.821992 22.2928 0.698436 21.7761 0.638933 21.2503C0.609972 20.9 0.620909 20.5476 0.671534 20.1999C0.719796 19.8669 0.807341 19.5409 0.932345 19.2284C1.08709 18.8967 1.28097 18.5847 1.50985 18.2989C1.75106 18.0287 2.02663 17.7912 2.32955 17.5924C2.65384 17.3771 3.00244 17.2009 3.36813 17.0672C4.09312 16.832 4.84357 16.6838 5.60365 16.6256C6.46526 16.5466 7.33153 16.5001 8.19779 16.4676C9.26898 16.4257 10.3448 16.4257 11.4207 16.4676C12.4965 16.5094 13.577 16.5466 14.6529 16.621L16.2224 16.7465C16.7393 16.7883 17.2517 16.8487 17.764 16.9277C18.6954 17.0858 19.5943 17.2996 20.5118 17.4901C20.9775 17.5924 21.4898 17.6853 21.9882 17.7551C22.4651 17.8339 22.9487 17.8666 23.4319 17.8527C23.4896 17.8525 23.5464 17.8385 23.5975 17.8118C23.6485 17.7851 23.6924 17.7465 23.7253 17.6993C23.7777 17.6657 23.8222 17.6214 23.8558 17.5691C24.396 16.8394 24.9456 16.119 25.4998 15.3986C26.8039 13.716 28.1498 12.0567 29.5004 10.4113C30.078 9.7095 30.6601 9.01696 31.219 8.28724L32.8211 6.19568L32.7652 6.27004C33.4266 5.41483 34.1019 4.57355 34.8284 3.76482C35.498 3.00595 36.2319 2.30616 37.022 1.67325C37.3969 1.37262 37.8047 1.11534 38.2376 0.906344C38.3886 0.849009 38.5445 0.80545 38.7033 0.776203C38.804 0.766911 38.9054 0.766911 39.0061 0.776203C39.0886 0.790771 39.1696 0.812545 39.2482 0.841273C39.3382 0.884422 39.4239 0.935767 39.5044 0.994655C39.6172 1.08945 39.7202 1.19534 39.8118 1.31071C40.0167 1.60134 40.19 1.91297 40.3288 2.2403C40.6455 3.0072 40.8643 3.80665 41.1158 4.59214C41.3021 5.16384 41.4931 5.73088 41.6608 6.30723C41.8284 6.88357 42.0194 7.58076 42.1824 8.22217C42.513 9.505 42.7925 10.7971 43.0766 12.0939C43.3607 13.3907 43.6448 14.6781 43.9708 15.9656C44.199 16.8534 44.4365 17.7365 44.7439 18.6056C44.7373 18.6954 44.762 18.7846 44.8138 18.8583C44.8655 18.932 44.9412 18.9856 45.028 19.01C47.8198 19.6754 50.5643 20.5247 53.2435 21.5524C53.7093 21.729 54.2076 21.9103 54.692 22.0776C55.0227 22.1938 55.358 22.3007 55.6886 22.4076C56.4944 22.6679 57.3001 22.9189 58.0965 23.1885C58.8929 23.458 59.6148 23.7044 60.36 24.0344C61.4367 24.4645 62.4566 25.0249 63.3965 25.703C63.7546 25.9758 64.0811 26.2875 64.3699 26.6326C64.5338 26.8488 64.6728 27.0827 64.7844 27.3298C64.8373 27.4601 64.8763 27.5957 64.9009 27.7341C64.9112 27.861 64.9112 27.9884 64.9009 28.1153ZM2.32955 14.5387C2.41808 14.5365 2.50269 14.5018 2.56707 14.4411C2.66967 14.3677 2.7788 14.304 2.89308 14.2505C3.04441 14.1954 3.20024 14.1534 3.35882 14.125C3.47525 14.125 3.58703 14.125 3.6988 14.125C3.81058 14.125 3.98756 14.125 4.13194 14.125C4.21563 14.1239 4.29614 14.0929 4.35883 14.0375C4.42152 13.9822 4.46221 13.9062 4.47349 13.8235C4.48478 13.7407 4.4659 13.6566 4.42031 13.5866C4.37472 13.5165 4.30544 13.4651 4.22508 13.4418C4.0715 13.4132 3.91557 13.3992 3.75935 13.4C3.52273 13.4004 3.28689 13.4269 3.05609 13.479C2.68132 13.564 2.33386 13.7414 2.04545 13.9949C1.98512 14.0573 1.9514 14.1406 1.9514 14.2273C1.9514 14.314 1.98512 14.3973 2.04545 14.4597C2.08304 14.4945 2.12845 14.5199 2.17788 14.5336C2.2273 14.5474 2.27931 14.5491 2.32955 14.5387ZM3.59168 13.0142L3.76401 12.9259C3.86194 12.8882 3.96333 12.8602 4.06673 12.8422C4.15965 12.8329 4.25326 12.8329 4.34617 12.8422C4.42825 12.8605 4.50912 12.8838 4.58835 12.9119H4.63027C4.73024 12.9649 4.84613 12.9798 4.95628 12.9538C5.00988 12.9399 5.06016 12.9155 5.10415 12.882C5.14815 12.8485 5.18496 12.8065 5.21244 12.7585C5.26853 12.661 5.28385 12.5453 5.25509 12.4366C5.22632 12.3278 5.15578 12.2348 5.05874 12.1775C4.77604 12.014 4.45401 11.9304 4.12728 11.9359C3.77671 11.9496 3.43538 12.052 3.13527 12.2333C3.03839 12.2964 2.96852 12.3932 2.93924 12.5049C2.90997 12.6166 2.9234 12.7352 2.97692 12.8376C3.0374 12.9398 3.13479 13.015 3.24911 13.0479C3.36342 13.0807 3.48599 13.0687 3.59168 13.0142ZM66.0373 13.479C65.9919 13.3947 65.9338 13.3178 65.8649 13.2512C65.8027 13.1884 65.7303 13.1365 65.6507 13.0978C65.5501 13.0477 65.4412 13.0163 65.3293 13.0049C65.1495 12.993 64.9691 13.0167 64.7984 13.0746C64.5949 13.1425 64.3996 13.2329 64.2162 13.3442C63.8367 13.5804 63.4811 13.8528 63.1544 14.1576C63.1544 14.0925 63.1544 14.0321 63.187 13.967C63.2304 13.7385 63.2554 13.5069 63.2615 13.2745C63.2695 13.0688 63.2443 12.8632 63.187 12.6656C63.1311 12.4685 63.0116 12.2953 62.847 12.1729C62.6836 12.0631 62.4896 12.0077 62.2928 12.0149H62.2648C61.8233 12.0358 61.4074 12.2275 61.1051 12.5494C60.8144 12.8637 60.5938 13.236 60.4578 13.6416C60.3025 14.0941 60.1948 14.5614 60.1364 15.036C60.0146 15.9992 59.9741 16.971 60.0153 17.941C60.0153 18.2198 60.0153 18.4941 60.0572 18.7729C60.0576 18.8232 60.0739 18.872 60.1038 18.9124C60.1166 18.9359 60.1323 18.9577 60.1504 18.9775C60.1973 19.0226 60.2599 19.0478 60.325 19.0478C60.3902 19.0478 60.4528 19.0226 60.4997 18.9775C60.6015 18.8696 60.7104 18.7687 60.8257 18.6753C60.9282 18.587 61.0353 18.5034 61.1424 18.4197C62.1717 17.6435 63.3826 17.1508 64.4025 16.3793C64.8557 16.0492 65.2684 15.6669 65.6321 15.2405C65.72 15.1316 65.8024 15.0184 65.8789 14.9012C65.9536 14.7816 66.0175 14.6556 66.0699 14.5247C66.1662 14.2974 66.1922 14.0465 66.1444 13.8043C66.1225 13.6918 66.0865 13.5825 66.0373 13.479ZM65.5995 14.0832C65.5848 14.1645 65.5614 14.244 65.5296 14.3202C65.453 14.4845 65.3594 14.6403 65.2502 14.785C64.9182 15.183 64.5416 15.5417 64.1277 15.8541C63.9182 16.0121 63.7039 16.1655 63.4804 16.3188C63.0985 16.5652 62.6979 16.7836 62.3021 17.0021C61.9151 17.2024 61.5389 17.4227 61.175 17.6621C60.9878 17.7938 60.8075 17.935 60.6347 18.0851L60.4764 18.2338C60.4197 17.2106 60.4493 16.1844 60.5649 15.1662C60.6289 14.6262 60.7619 14.0967 60.9608 13.5905C61.0432 13.3895 61.1495 13.1992 61.2775 13.0235C61.3607 12.9226 61.4526 12.8293 61.5522 12.7446C61.6339 12.6889 61.7195 12.6392 61.8084 12.5959C61.9137 12.5551 62.0229 12.5255 62.1344 12.5076C62.2103 12.5006 62.2867 12.5006 62.3626 12.5076L62.4837 12.5401L62.5536 12.5819C62.576 12.5997 62.5963 12.6199 62.6141 12.6423C62.637 12.6748 62.6573 12.7089 62.6747 12.7446C62.702 12.8232 62.7223 12.9041 62.7352 12.9863C62.7608 13.2009 62.7608 13.4178 62.7352 13.6323C62.6979 13.874 62.6467 14.0971 62.5862 14.3574C62.5256 14.6177 62.4697 14.7943 62.3952 15.0035C62.3805 15.0613 62.3848 15.1223 62.4075 15.1775C62.4301 15.2327 62.4699 15.2793 62.521 15.3102C62.5726 15.3393 62.6322 15.3509 62.6909 15.3433C62.7497 15.3358 62.8044 15.3095 62.847 15.2684C63.1951 14.8644 63.5837 14.4968 64.0067 14.1715C64.2615 13.9723 64.5381 13.8024 64.831 13.6649C64.9376 13.6211 65.0484 13.5884 65.1617 13.5673H65.3107L65.3899 13.5905L65.4504 13.6231C65.4729 13.6408 65.4932 13.6611 65.511 13.6835C65.5397 13.722 65.5632 13.7642 65.5808 13.809C65.596 13.8531 65.6085 13.8981 65.6181 13.9438C65.6176 13.9954 65.6114 14.0469 65.5995 14.0971V14.0832ZM63.1776 9.20753C63.2653 9.20753 63.3495 9.17276 63.4115 9.11087C63.4735 9.04899 63.5083 8.96505 63.5083 8.87753C63.5083 8.51034 63.4804 8.1478 63.4804 7.78062C63.4804 7.6931 63.4455 7.60916 63.3835 7.54727C63.3215 7.48538 63.2374 7.45062 63.1497 7.45062C63.062 7.45062 62.9779 7.48538 62.9159 7.54727C62.8539 7.60916 62.819 7.6931 62.819 7.78062C62.819 8.1478 62.819 8.51034 62.8423 8.87753C62.8411 8.92225 62.8488 8.96677 62.8651 9.00845C62.8814 9.05013 62.9059 9.08813 62.9372 9.12019C62.9684 9.15226 63.0058 9.17774 63.0471 9.19514C63.0884 9.21253 63.1328 9.22149 63.1776 9.22147V9.20753ZM66.1351 8.36625H66.0699C66.0286 8.36487 65.9879 8.37623 65.9534 8.39879C65.6885 8.59273 65.4491 8.81915 65.2409 9.07274C65.0443 9.31833 64.8756 9.58488 64.7379 9.86753C64.7103 9.91582 64.7027 9.97289 64.7166 10.0267C64.7305 10.0805 64.7649 10.1267 64.8124 10.1557C64.8362 10.1699 64.8626 10.1793 64.89 10.1832C64.9175 10.1872 64.9455 10.1856 64.9723 10.1787C64.9992 10.1718 65.0244 10.1596 65.0465 10.1429C65.0686 10.1262 65.0872 10.1053 65.1011 10.0813C65.2036 9.88353 65.3236 9.69531 65.4597 9.51894C65.6923 9.22561 65.9615 8.96319 66.2608 8.73809C66.2895 8.70981 66.3104 8.67458 66.3214 8.63583C66.3302 8.60565 66.3327 8.57397 66.3287 8.54277C66.3247 8.51157 66.3143 8.48154 66.2981 8.45457C66.2784 8.42949 66.2538 8.40871 66.2258 8.39351C66.1977 8.37832 66.1668 8.36905 66.1351 8.36625ZM69.7119 10.4578C69.6991 10.41 69.6768 10.3652 69.6464 10.3261C69.616 10.287 69.5781 10.2544 69.5349 10.2301C69.474 10.1948 69.4051 10.1756 69.3346 10.1743H69.2368C68.9737 10.2746 68.7184 10.3942 68.473 10.5322C68.2311 10.6779 68.0034 10.8459 67.7931 11.0342C67.7258 11.102 67.6882 11.1937 67.6886 11.2891C67.6891 11.3846 67.7275 11.4759 67.7954 11.5431C67.8633 11.6103 67.9552 11.6478 68.0509 11.6474C68.1465 11.6469 68.2381 11.6086 68.3054 11.5408L68.4265 11.4385C68.6492 11.2741 68.8898 11.1354 69.1437 11.0249L69.4464 10.918C69.4959 10.9046 69.5421 10.8815 69.5825 10.8501C69.6229 10.8186 69.6567 10.7795 69.6818 10.735C69.707 10.6904 69.723 10.6414 69.7289 10.5906C69.7349 10.5398 69.7307 10.4884 69.7166 10.4392L69.7119 10.4578ZM67.9188 28.0734C67.8926 28.0686 67.8658 28.0686 67.8396 28.0734C67.7585 28.0963 67.6896 28.15 67.6478 28.223C67.606 28.296 67.5946 28.3825 67.6161 28.4639C67.6161 28.5336 67.644 28.5986 67.6534 28.6684C67.672 28.8414 67.672 29.0159 67.6534 29.1889C67.6269 29.3592 67.5816 29.526 67.5183 29.6863C67.4361 29.8695 67.3329 30.0426 67.2109 30.2022C67.1143 30.3233 67.0101 30.4382 66.8989 30.5461C66.8335 30.6115 66.7967 30.7001 66.7967 30.7925C66.7967 30.8848 66.8335 30.9734 66.8989 31.0388C66.9649 31.103 67.0535 31.1389 67.1457 31.1389C67.2379 31.1389 67.3265 31.103 67.3925 31.0388C67.7535 30.6955 68.028 30.2718 68.1936 29.8025C68.3487 29.3139 68.36 28.7913 68.2262 28.2965C68.2112 28.2277 68.173 28.1661 68.1178 28.1221C68.0627 28.078 67.9941 28.0543 67.9235 28.0548L67.9188 28.0734ZM69.2555 29.8211H69.2042C69.1505 29.8352 69.1046 29.8701 69.0767 29.9181C69.0487 29.966 69.041 30.0231 69.0552 30.0767C69.0552 30.1371 69.0878 30.2022 69.1018 30.2626C69.1088 30.3508 69.1088 30.4394 69.1018 30.5275C69.0878 30.6185 69.0628 30.7075 69.0273 30.7925C68.9853 30.8868 68.9321 30.9757 68.8689 31.0574C68.7862 31.1632 68.6908 31.2584 68.5848 31.3409C68.5387 31.3692 68.5053 31.4142 68.4917 31.4664C68.48 31.4911 68.474 31.5181 68.474 31.5454C68.474 31.5727 68.48 31.5997 68.4917 31.6244C68.5048 31.6484 68.5228 31.6695 68.5444 31.6863C68.566 31.7031 68.5909 31.7152 68.6174 31.7221C68.6425 31.7325 68.6694 31.7379 68.6966 31.7379C68.7238 31.7379 68.7507 31.7325 68.7758 31.7221C69.1177 31.4913 69.3694 31.1498 69.4883 30.7553C69.5095 30.6682 69.5235 30.5796 69.5303 30.4904C69.545 30.313 69.5244 30.1345 69.4697 29.9651C69.4582 29.9185 69.4312 29.877 69.3932 29.8475C69.3552 29.818 69.3083 29.8021 69.2601 29.8025L69.2555 29.8211Z" fill="#161616"/>
</g>
<defs>
<clipPath id="clip0_343_3518">
<rect width="69.7297" height="60" fill="white"/>
</clipPath>
</defs>
</svg>
