<svg width="69" height="74" viewBox="0 0 69 74" fill="none" xmlns="http://www.w3.org/2000/svg">
<g clip-path="url(#clip0_343_3532)">
<path d="M46.0622 18.3642C45.1897 18.0794 44.2861 17.9004 43.3709 17.831C43.124 17.8114 42.8763 17.8043 42.6287 17.8097C42.322 17.8253 42.0164 17.8574 41.7132 17.906C41.1925 17.9715 40.6866 18.1247 40.217 18.3589C40.124 18.4107 40.046 18.4856 39.9905 18.5765C39.9351 18.6673 39.904 18.7709 39.9004 18.8773C39.0445 19.0429 38.2323 19.3839 37.5148 19.8789C36.7058 20.4437 35.9906 21.132 35.3954 21.9189C34.1638 23.5992 33.1844 25.4505 32.4885 27.4142C31.7524 29.4387 31.1541 31.5107 30.6979 33.6161C30.6209 33.9476 30.544 34.279 30.4707 34.6117C29.8706 37.2169 29.2531 39.9116 28.2082 42.4225C27.921 43.0933 27.6111 43.7368 27.2865 44.3279C27.034 44.7966 26.7464 45.2455 26.4262 45.6709C26.0727 46.1157 25.665 46.5146 25.2125 46.8583C24.7934 47.1596 24.3401 47.4101 23.862 47.6047C23.2851 47.8202 22.6856 47.9694 22.0751 48.0495C20.8822 48.168 19.6791 48.1372 18.4938 47.9578C17.2779 47.7852 16.0544 47.5269 14.8679 47.2768L14.4589 47.1942C13.8471 47.0651 13.134 46.9186 12.433 46.7958C12.1182 46.7402 11.8011 46.6918 11.4864 46.6481L10.9834 46.5863L10.5531 46.5325C10.3171 46.5027 10.0834 46.4658 9.845 46.4312C9.05821 46.316 8.2452 46.1962 7.43854 46.1538C6.90175 46.117 6.36254 46.1396 5.83076 46.2214C5.6264 46.2513 5.42634 46.3055 5.23479 46.3828C5.11229 46.4285 4.9935 46.4837 4.87947 46.5477C4.72953 46.6334 4.59048 46.7368 4.46533 46.8558C4.26064 47.0434 4.09008 47.2651 3.96124 47.511C3.81589 47.7811 3.70912 48.0703 3.64403 48.3701C3.52148 48.9497 3.50037 49.5461 3.58162 50.133C3.60684 50.405 3.65082 50.675 3.71323 50.941C3.79425 51.2207 3.8907 51.4958 4.00216 51.7649C4.19404 52.2974 4.43102 52.8126 4.71051 53.3048C5.69503 55.0423 7.25633 56.5923 9.49968 58.0448C11.4127 59.2369 13.434 60.2456 15.5367 61.0576C16.8474 61.5941 18.14 62.0891 19.374 62.5331C19.9288 62.715 20.4409 62.9065 20.9456 63.0719C21.8584 63.3711 22.7042 63.6205 23.5356 63.8415C26.143 64.5616 28.8387 64.9114 31.5435 64.8805C31.6759 64.924 31.8285 64.9422 31.9799 64.9641C32.5555 65.0585 33.1377 65.1062 33.721 65.1067C34.3152 65.1052 34.9085 65.0613 35.4964 64.9752C36.0593 64.8947 36.6156 64.7738 37.161 64.6131C37.7375 64.4406 38.3012 64.2281 38.8481 63.9771C39.3649 63.7428 39.8636 63.4705 40.34 63.1622C40.8305 62.8453 41.2936 62.488 41.7247 62.0941C42.1995 61.6519 42.6339 61.1683 43.0228 60.649C43.829 59.5734 44.4894 58.3959 44.987 57.1473C45.4036 56.1662 45.7724 55.1497 46.1283 54.1606C46.2221 53.8743 46.3159 53.588 46.436 53.3063C46.556 53.0247 46.5931 52.8268 46.6992 52.6C46.8388 52.1741 47.0188 51.7457 47.1715 51.3162C47.3697 50.7113 47.5843 50.0564 47.8219 49.2466C48.125 48.1887 48.3924 47.131 48.6527 46.1066L49.1527 44.8715L49.5797 43.8225C50.7542 41.0524 51.7623 38.2146 52.5986 35.3243C52.9919 33.8865 53.2884 32.424 53.4862 30.9466C53.579 30.2399 53.6408 29.5072 53.6715 28.7603C53.7037 28.1165 53.6872 27.4713 53.6222 26.83C53.5511 26.2009 53.4259 25.5792 53.2482 24.9716C53.0635 24.3672 52.8245 23.7809 52.534 23.2197C52.2413 22.6524 51.8832 22.1213 51.4669 21.6374C51.0549 21.1868 50.5942 20.7833 50.0932 20.4343C49.6325 20.1044 49.1537 19.8006 48.6591 19.5244C48.1 19.2097 47.5212 18.9313 46.9263 18.691C46.6374 18.5686 46.3414 18.4557 46.0515 18.3607L46.0622 18.3642ZM15.6421 60.2401L15.6063 60.2283L15.7817 60.2858L15.6564 60.2448L15.6421 60.2401Z" fill="#FAD82F"/>
<path d="M44.5919 17.8785C43.592 17.767 42.5824 17.774 41.5842 17.8995C40.6158 18.0181 39.6686 18.2706 38.7696 18.6495C37.8976 19.0198 37.0948 19.5353 36.3951 20.1739C36.222 20.3335 36.0571 20.5016 35.9009 20.6777C35.6451 20.9625 35.3977 21.2579 35.1681 21.5591C34.7213 22.1452 34.3164 22.7621 33.9566 23.4052C33.2274 24.7209 32.6189 26.0999 32.1386 27.5255C31.6408 28.9476 31.2361 30.4002 30.8458 31.8575C30.6588 32.5611 30.4765 33.2623 30.2907 33.9623C30.1049 34.6623 29.9641 35.2978 29.8151 35.9702C29.5067 37.3831 29.2245 38.8005 28.8278 40.1924C28.5516 41.2231 28.1865 42.2279 27.7366 43.1955C27.3575 43.9772 26.8844 44.7099 26.3279 45.3772C25.9326 45.8313 25.4844 46.2366 24.9928 46.5843C24.5459 46.877 24.0677 47.1191 23.5671 47.306C22.8254 47.5547 22.0562 47.7125 21.2764 47.776C19.6081 47.8637 17.9354 47.7351 16.3 47.3935L16.3788 47.4193C15.3223 47.2197 14.2764 46.976 13.2292 46.724L12.9357 46.6278C12.2699 46.4096 11.6005 46.1902 10.9136 46.0364C10.2286 45.8626 9.53269 45.7351 8.83057 45.655C8.14165 45.5818 7.44663 45.5881 6.75917 45.6736C6.079 45.748 5.41761 45.9433 4.80617 46.2503C4.30131 46.5127 3.87411 46.9029 3.56718 47.3819C3.28595 47.8409 3.11604 48.3593 3.07108 48.8957C3.04596 49.1507 3.0441 49.4074 3.0655 49.6627C3.09416 49.9615 3.14264 50.2581 3.21062 50.5505C3.34286 51.1329 3.53252 51.7009 3.77681 52.246C4.00993 52.776 4.28543 53.2864 4.60063 53.7722C5.36574 54.9351 6.27985 55.9927 7.31964 56.9183C9.50266 58.8152 11.9775 60.3475 14.6486 61.4562C15.9476 62.0286 17.2736 62.5305 18.6113 62.9966C19.9491 63.4628 21.2316 63.8553 22.5665 64.2333C25.3325 65.0259 28.1795 65.5016 31.0528 65.6511C32.4617 65.712 33.8733 65.644 35.2698 65.4479C36.5938 65.2644 37.887 64.903 39.1142 64.3735C40.2008 63.8992 41.2022 63.2501 42.0788 62.452C42.928 61.6758 43.6672 60.7875 44.2761 59.8114C44.9174 58.7683 45.4665 57.6713 45.9174 56.5329C46.2021 55.8335 46.4511 55.1463 46.7036 54.4483C47.0043 53.6275 47.2967 52.8078 47.5867 51.9834C48.7403 48.689 49.8192 45.3688 50.8233 42.0227C51.3281 40.3493 51.8066 38.6712 52.2709 36.9885C52.4931 36.1894 52.7082 35.388 52.9232 34.5866C53.0986 33.9307 53.275 33.2712 53.436 32.6106C53.7969 31.2482 54.0393 29.8572 54.1603 28.453C54.28 27.0858 54.1366 25.7084 53.7381 24.3951C53.5908 23.931 53.3995 23.4821 53.1665 23.0545C52.9363 22.6324 52.67 22.2308 52.3706 21.8545C51.7599 21.103 51.0388 20.4485 50.2319 19.9131C49.3997 19.3585 48.5009 18.9108 47.5568 18.5807L47.2454 18.4786C46.3819 18.1995 45.4926 18.0077 44.5908 17.9059L44.5919 17.8785ZM48.4751 19.7218C49.2725 20.1103 50.0187 20.5958 50.697 21.1673C51.2333 21.6348 51.7101 22.1664 52.1167 22.7501C52.4577 23.2574 52.7365 23.8038 52.947 24.3776C53.1745 25.0654 53.3189 25.778 53.3772 26.5001C53.4523 27.8053 53.3589 29.1147 53.0994 30.3959C52.8466 31.7239 52.4912 33.0262 52.1357 34.3285C51.6879 35.9731 51.2377 37.601 50.7578 39.2469C49.7863 42.5984 48.7397 45.9292 47.6179 49.2393C47.0956 50.833 46.5443 52.4146 45.9639 53.984C45.5264 55.2565 45.0255 56.5063 44.4631 57.7287C43.9136 58.887 43.2199 59.9712 42.3987 60.9558C41.8069 61.63 41.1352 62.2296 40.3983 62.7415C39.6368 63.2424 38.8179 63.6499 37.959 63.9553C36.6214 64.3965 35.2346 64.6714 33.8297 64.7738L33.9357 64.765C31.374 64.9409 28.8002 64.7784 26.2809 64.2815L26.3812 64.3144C24.1607 63.8903 21.9709 63.3184 19.8267 62.6023C17.6911 61.9232 15.6019 61.1062 13.5722 60.1563C11.6002 59.2298 9.75731 58.0504 8.09015 56.6477C7.05482 55.7526 6.13485 54.7322 5.35145 53.6101C4.87734 52.9088 4.49025 52.1525 4.1987 51.3578C4.00453 50.822 3.87568 50.2649 3.81494 49.6983C3.78935 49.3576 3.80317 49.015 3.85615 48.6775C3.9032 48.4493 3.97599 48.2271 4.07313 48.0154C4.16474 47.8323 4.27696 47.6604 4.4076 47.5028C4.55366 47.3435 4.71624 47.2001 4.8926 47.0752C5.13701 46.9121 5.3983 46.7758 5.67194 46.6688C6.12104 46.5208 6.58516 46.423 7.05582 46.3772C7.78854 46.3371 8.52345 46.385 9.24479 46.5199C10.1546 46.6952 11.0422 46.9623 11.9322 47.2223C12.3832 47.3701 12.8472 47.4786 13.3146 47.5763C13.5591 47.6286 13.8095 47.675 14.0634 47.7107C14.3173 47.7463 14.539 47.7714 14.7797 47.7988C14.8328 47.8033 14.8857 47.7882 14.9284 47.7564L15.1872 47.8135C16.3033 48.0632 17.432 48.2531 18.5684 48.3825C19.7146 48.5144 20.8722 48.5134 22.0181 48.3796C23.0845 48.2561 24.1152 47.9201 25.0494 47.3915C26.1339 46.7291 27.046 45.8193 27.7112 44.7367C28.0905 44.1396 28.4173 43.5108 28.6878 42.8572C28.9666 42.196 29.2069 41.5192 29.4076 40.8302C29.8234 39.4407 30.1115 38.0172 30.3984 36.5974C30.5462 35.9166 30.694 35.2358 30.8632 34.5621C31.0325 33.8883 31.2242 33.1823 31.4053 32.4966C32.0924 29.8921 32.8222 27.2779 33.989 24.8425C34.5944 23.5712 35.3597 22.3823 36.2663 21.3048C36.4875 21.051 36.7237 20.8108 36.9737 20.5854C37.2034 20.3864 37.4442 20.2007 37.6951 20.0292C38.2858 19.6432 38.921 19.3297 39.5867 19.0956C40.4138 18.8108 41.2725 18.6278 42.1438 18.5505C43.222 18.473 44.3056 18.5312 45.3693 18.7238C46.437 18.927 47.4741 19.2669 48.4549 19.735L48.4751 19.7218ZM45.4503 18.7305L45.3895 18.7106L45.4503 18.7305ZM48.4787 19.723L48.5431 19.7441L48.4787 19.723ZM36.2747 21.3154L36.2653 21.344L36.2747 21.3154ZM44.5104 57.6451L44.4916 57.7023L44.5104 57.6451Z" fill="#161616"/>
<path d="M46.5604 17.9926C46.5708 17.7772 46.5633 17.5613 46.538 17.3472C46.4832 16.9072 46.3456 16.4816 46.1325 16.0927C45.9182 15.7093 45.6368 15.3674 45.3018 15.0833C44.9707 14.8071 44.5981 14.5847 44.1977 14.4243L43.9293 14.3363C43.595 14.2287 43.2499 14.1582 42.9002 14.1259C42.6664 14.1052 42.4315 14.1024 42.1973 14.1175C41.9709 14.1288 41.7457 14.157 41.5235 14.2018C41.0525 14.3036 40.6095 14.5075 40.2258 14.799C39.8546 15.0807 39.539 15.4287 39.2948 15.8255C38.7898 16.6434 38.5442 17.595 38.5905 18.5551C38.6066 18.7995 38.6481 19.0416 38.7146 19.2774C38.7873 19.5377 38.8818 19.7914 38.9972 20.0358C39.2207 20.536 39.5421 20.9864 39.9427 21.3602C40.131 21.5307 40.3442 21.6714 40.575 21.7775C40.678 21.8277 40.7845 21.8706 40.8937 21.9057C41.0082 21.9433 41.1335 21.9843 41.3016 22.0156C41.5304 22.0716 41.7632 22.1094 41.9979 22.1289C42.2363 22.1443 42.4756 22.1419 42.7137 22.1217C43.6138 22.0399 44.4648 21.675 45.1444 21.0794C45.3497 20.903 45.5374 20.707 45.7048 20.4943C45.8741 20.2768 46.0232 20.0445 46.1503 19.8001C46.4194 19.282 46.5905 18.7187 46.6552 18.1386C46.6577 18.1072 46.6497 18.0759 46.6325 18.0495C46.6154 18.0231 46.59 18.0031 46.5604 17.9926ZM56.3866 23.0873C56.4514 22.8277 56.4931 22.5628 56.5111 22.2959C56.5313 22.0291 56.5235 21.7609 56.488 21.4957C56.4508 21.2431 56.3811 20.9965 56.2805 20.7619C56.2311 20.6438 56.1732 20.5294 56.1072 20.4198C56.0362 20.2855 55.9498 20.1502 55.8454 20.009C55.5578 19.5606 55.1827 19.1748 54.7425 18.8747C54.5225 18.7283 54.2879 18.6049 54.0426 18.5066L53.8743 18.4515C53.671 18.3866 53.4629 18.3382 53.2518 18.3069C52.958 18.2679 52.6611 18.2582 52.3654 18.278C52.1153 18.2901 51.8667 18.324 51.6226 18.3794C51.1301 18.4913 50.6619 18.6909 50.2402 18.9687C49.8335 19.2343 49.4827 19.5772 49.2079 19.9778C48.9287 20.3822 48.7378 20.8409 48.6478 21.324C48.6084 21.5321 48.5895 21.7436 48.5915 21.9555C48.568 22.027 48.5434 22.1022 48.5199 22.1738L48.5129 22.1952C48.4872 22.323 48.4791 22.4537 48.4887 22.5836C48.5042 22.8364 48.556 23.0856 48.6426 23.3236C48.7245 23.5581 48.8299 23.7838 48.9569 23.9973C49.0932 24.2305 49.2469 24.4531 49.4166 24.6632C49.5792 24.8646 49.7553 25.0547 49.9437 25.2322C50.0973 25.3762 50.2652 25.5042 50.4447 25.6144C50.7288 25.7895 51.0326 25.9303 51.3498 26.0338C51.534 26.0954 51.7226 26.1426 51.914 26.1751C52.1597 26.2185 52.4094 26.2353 52.6587 26.225C52.8877 26.2167 53.1153 26.1864 53.3385 26.1347C53.8211 26.0209 54.278 25.817 54.685 25.5337C54.8823 25.3924 55.0669 25.2341 55.2365 25.0605C55.421 24.8759 55.5878 24.6746 55.7349 24.459C56.0267 24.0413 56.2414 23.5748 56.3687 23.0814L56.3866 23.0873Z" fill="#FEFEFE"/>
<path d="M51.0858 30.7347C50.2184 30.4413 49.3207 30.2468 48.4097 30.155C47.9785 30.1094 47.5436 30.1104 47.1125 30.1579C46.7246 30.1977 46.3452 30.298 45.9884 30.4553C45.5728 30.6439 45.2116 30.9345 44.9385 31.3001C44.7138 31.6102 44.5473 31.9584 44.447 32.328C44.4114 32.3688 44.3871 32.4182 44.3763 32.4712C44.3225 32.6355 44.3047 32.8095 44.3241 32.9812C44.3609 33.2 44.4371 33.4102 44.5489 33.6018C44.6443 33.7827 44.7586 33.9529 44.8898 34.1098C45.0232 34.2688 45.1655 34.42 45.3162 34.5627C45.7034 34.9121 46.1481 35.1919 46.6308 35.3898C46.8528 35.4863 47.0963 35.578 47.4006 35.6777L47.9196 35.8478L48.317 35.978L49.0329 36.2127L49.4911 36.3628L50.2929 36.6256L50.8155 36.7969C51.7713 37.1101 52.6517 37.3629 53.5022 37.5862C54.3527 37.8094 55.2483 38.0157 56.1653 38.1934L56.6554 38.2945C56.9261 38.3515 57.2075 38.4121 57.4853 38.4595C58.03 38.564 58.5852 38.6036 59.1393 38.5775C59.395 38.5601 59.6474 38.5096 59.8902 38.4273C60.1202 38.347 60.3295 38.2166 60.5029 38.0455C60.5859 37.9563 60.6582 37.8576 60.7182 37.7514C60.8037 37.6044 60.8573 37.441 60.8753 37.2719C60.8933 36.9413 60.8048 36.6137 60.6227 36.3371C60.5432 36.2056 60.4508 36.0824 60.3469 35.9692C60.2428 35.8548 60.1308 35.748 60.0117 35.6494C59.8957 35.5559 59.7725 35.4719 59.6554 35.3939L59.5777 35.3407L58.9478 34.9282C58.4112 34.5819 57.8544 34.2488 57.3155 33.9216C56.7765 33.5944 56.1696 33.233 55.6078 32.8666L55.5827 32.8584C54.9912 32.4774 54.3781 32.1309 53.7465 31.8207C52.92 31.4165 52.0683 31.0659 51.1967 30.7711L51.0858 30.7347Z" fill="#EC5042"/>
<path d="M61.1525 37.236C61.1513 37.2163 61.1484 37.1968 61.1438 37.1777L61.1544 37.1455C61.1367 36.8348 61.0587 36.5306 60.9246 36.2498C60.8175 36.0225 60.6841 35.8085 60.5271 35.6123C60.3716 35.4107 60.2001 35.222 60.0143 35.0479C59.5958 34.6618 59.1431 34.3145 58.6618 34.0102C58.1861 33.7077 57.6963 33.4362 57.1959 33.1731C56.7503 32.9359 56.3001 32.7131 55.8379 32.4784C55.2849 32.1941 54.7438 31.8979 54.1884 31.6208C53.1802 31.0975 52.1338 30.6513 51.0582 30.2859C50.6931 30.1662 50.3233 30.0609 49.9488 29.9698C49.5803 29.8847 49.2059 29.8175 48.8268 29.7646C48.4989 29.7211 48.1685 29.6988 47.8378 29.6981C47.5626 29.7051 47.2883 29.7331 47.0175 29.782C46.7471 29.8351 46.4814 29.9097 46.2229 30.0051C45.7428 30.1754 45.2984 30.4328 44.9117 30.7643C44.5409 31.0727 44.2531 31.4688 44.0742 31.9166C43.9061 32.3644 43.8844 32.8541 44.0123 33.3151C44.1787 33.8796 44.4893 34.3911 44.9134 34.7993C45.0331 34.9185 45.1664 35.0234 45.3105 35.1117C45.4885 35.2216 45.6701 35.3207 45.8576 35.4139C46.3938 35.6887 46.9513 35.9229 47.5124 36.1464C48.2142 36.424 48.9028 36.6694 49.6032 36.9029C51.1934 37.4361 52.8123 37.8793 54.4523 38.2305C55.2382 38.3969 56.0286 38.5371 56.8355 38.6152C57.4933 38.6985 58.1567 38.729 58.8193 38.7065C59.3384 38.7007 59.8522 38.6005 60.3354 38.4108C60.516 38.3389 60.6784 38.2278 60.8108 38.0854C60.9431 37.943 61.0422 37.773 61.1007 37.5876C61.1345 37.4734 61.152 37.3551 61.1525 37.236ZM60.4839 37.8729C60.4678 37.8857 60.4507 37.8974 60.4329 37.9077C60.3248 37.9769 60.2092 38.0334 60.0883 38.0762C59.8144 38.1622 59.5311 38.2144 59.2445 38.2316C58.7275 38.266 58.2085 38.255 57.6934 38.1989C57.0689 38.1448 56.443 38.0467 55.8218 37.9343C55.023 37.7834 54.2275 37.598 53.4426 37.3923C52.6577 37.1866 51.806 36.9432 51.0018 36.6876C50.1976 36.432 49.4876 36.1913 48.744 35.908C48.1115 35.673 47.4872 35.4248 46.8771 35.1456L46.5332 34.9853C46.3146 34.878 46.0984 34.7636 45.8882 34.6432C45.7433 34.5621 45.6054 34.4692 45.4758 34.3654C45.4327 34.3275 45.398 34.2883 45.3596 34.248C45.233 34.1157 45.1164 33.9742 45.0108 33.8246C44.9019 33.6576 44.8099 33.4801 44.7365 33.2948C44.6879 33.1549 44.6529 33.0107 44.6318 32.8642C44.6245 32.7337 44.6303 32.6028 44.6489 32.4735C44.6806 32.3284 44.727 32.1869 44.7873 32.0512C44.8715 31.8901 44.973 31.7387 45.0899 31.5995C45.2549 31.4166 45.4412 31.2541 45.6449 31.1156C45.9031 30.9476 46.1788 30.808 46.4671 30.6994C46.8182 30.5799 47.1819 30.501 47.5511 30.4641C48.1187 30.4402 48.6872 30.4841 49.2444 30.595C50.8212 30.9432 52.3461 31.4949 53.7806 32.2362C54.2559 32.4672 54.7277 32.709 55.2006 32.9472C55.5649 33.13 55.9327 33.3021 56.2957 33.4765L56.2133 33.4495C56.7889 33.7254 57.3574 34.0107 57.9082 34.326C58.4689 34.6368 58.9989 35.0003 59.4909 35.4114C59.777 35.6541 60.0324 35.9308 60.2515 36.2353C60.3838 36.4287 60.4925 36.6373 60.5752 36.8566C60.6038 36.9515 60.625 37.0486 60.6386 37.1469C60.6413 37.2472 60.6363 37.3475 60.6235 37.447C60.6074 37.5078 60.5878 37.5675 60.5648 37.626C60.5439 37.7101 60.5168 37.7927 60.4839 37.8729ZM47.0129 18.0022C46.9713 17.0111 46.5981 16.0627 45.9532 15.3088C45.7361 15.0556 45.492 14.8268 45.2254 14.6264C44.6904 14.2281 44.0714 13.9572 43.4157 13.8344C42.7601 13.7115 42.085 13.74 41.4421 13.9176C40.848 14.0821 40.2943 14.3675 39.8156 14.7558L39.78 14.7798C39.6602 14.8793 39.5416 14.9752 39.4314 15.0817C39.3038 15.2054 39.1839 15.3369 39.0725 15.4753C38.8579 15.739 38.6777 16.0288 38.5361 16.3379C38.2489 16.9437 38.1047 17.6074 38.1145 18.2778C38.1244 18.9482 38.288 19.6074 38.5929 20.2046C39.0656 21.1157 39.8367 21.8371 40.7773 22.2481C41.6976 22.6396 42.721 22.7174 43.6898 22.4694C44.3336 22.2989 44.9314 21.9871 45.4397 21.5568C45.6956 21.3392 45.9254 21.0926 46.1245 20.8221C46.3304 20.5427 46.5027 20.24 46.638 19.9204C46.769 19.6117 46.8629 19.2886 46.9178 18.9578C46.9782 18.646 47.0025 18.3282 46.9903 18.0107L47.0129 18.0022ZM46.0501 19.7911C45.751 20.4007 45.3 20.923 44.7404 21.3078C44.4607 21.4902 44.1614 21.6407 43.8481 21.7564C43.5454 21.8586 43.232 21.9261 42.9141 21.9576C42.5753 21.9831 42.2346 21.966 41.9001 21.9067C41.5662 21.8409 41.2416 21.7345 40.9336 21.5899C40.3315 21.301 39.8161 20.8587 39.4392 20.3076C39.2461 20.0207 39.0893 19.7111 38.9722 19.3857C38.865 19.0669 38.7949 18.7368 38.7635 18.4019C38.7425 18.0683 38.7592 17.7334 38.8132 17.4036C38.8797 17.0674 38.9868 16.7405 39.1322 16.4302C39.2922 16.1118 39.4885 15.8131 39.7172 15.54C39.8462 15.3945 39.984 15.257 40.1297 15.1282L40.1367 15.1068C40.2074 15.0463 40.2815 14.9899 40.3586 14.9377C40.9075 14.5606 41.545 14.3326 42.2087 14.2759C42.3827 14.2627 42.5572 14.259 42.7316 14.2649C42.9106 14.2767 43.0888 14.2981 43.2656 14.3289C43.6066 14.3971 43.9383 14.5058 44.2535 14.6527C44.8523 14.9446 45.3658 15.3859 45.7444 15.9339C46.1207 16.487 46.3477 17.1279 46.4031 17.7945C46.46 18.4793 46.3332 19.1669 46.0358 19.7864L46.0501 19.7911ZM48.324 23.2431C48.471 23.82 48.7314 24.362 49.0898 24.8375C49.2541 25.0603 49.4403 25.266 49.6456 25.4516C49.8663 25.6508 50.1054 25.8286 50.3595 25.9828C50.6212 26.1353 50.8966 26.2627 51.1822 26.3634C51.4714 26.4603 51.77 26.5263 52.073 26.5603C52.3681 26.5945 52.666 26.5978 52.9617 26.5701C53.5334 26.5206 54.0898 26.3596 54.5996 26.0963C54.8593 25.9615 55.1055 25.8019 55.3345 25.6198C55.5654 25.4361 55.7767 25.2291 55.965 25.0021C56.3471 24.5576 56.6321 24.0381 56.8018 23.4771C56.9725 22.9157 57.031 22.3262 56.9739 21.7422C56.9146 21.1714 56.7447 20.6177 56.4736 20.1119C56.3374 19.8567 56.1778 19.6147 55.9969 19.389C55.819 19.1673 55.6205 18.9629 55.4042 18.7786C54.9795 18.4214 54.4894 18.1504 53.9611 17.9807L53.8823 17.9549C53.3158 17.7784 52.7196 17.7177 52.1292 17.7766C51.5559 17.8399 51.0009 18.0163 50.4963 18.2957C50.2383 18.4396 49.9946 18.6079 49.7687 18.7983C49.5465 18.9939 49.343 19.2099 49.1609 19.4433C48.5189 20.281 48.1881 21.3158 48.2254 22.3706C48.2215 22.666 48.247 22.9611 48.3014 23.2515L48.324 23.2431ZM49.0686 20.499C49.2255 20.1894 49.4166 19.8984 49.6384 19.6315C49.8664 19.3787 50.1227 19.1529 50.402 18.9583C50.6714 18.7763 50.9603 18.6251 51.2633 18.5074C51.5764 18.4069 51.8997 18.3414 52.2272 18.3121C52.9288 18.2555 53.6328 18.3877 54.2661 18.6949C54.5741 18.8516 54.8622 19.0444 55.1244 19.2694C55.3632 19.4833 55.577 19.7236 55.7618 19.9856C55.9425 20.257 56.0904 20.5489 56.2022 20.8552C56.3066 21.162 56.3754 21.4797 56.4072 21.8022C56.432 22.1222 56.4196 22.4439 56.3704 22.7611C56.3587 22.7969 56.347 22.8327 56.3353 22.8684C56.2672 23.2029 56.1606 23.5284 56.0174 23.8383C55.8673 24.1425 55.6808 24.4274 55.4619 24.6866C55.2371 24.9377 54.984 25.1619 54.7077 25.3549C54.4398 25.5309 54.1528 25.6761 53.8523 25.788C53.5376 25.8975 53.2108 25.9687 52.879 26C52.5261 26.0241 52.1716 26.0051 51.8233 25.9434C51.4844 25.872 51.1543 25.7638 50.8389 25.6208C50.5392 25.4698 50.258 25.2846 50.001 25.0688C49.7441 24.8418 49.5156 24.5846 49.3205 24.3028C49.1436 24.0342 48.9986 23.746 48.8884 23.4439C48.7821 23.1429 48.7129 22.8301 48.6823 22.5124C48.6548 22.164 48.6698 21.8136 48.727 21.4689C48.7626 21.2859 48.8074 21.1048 48.8612 20.9264C48.926 20.7891 48.9813 20.6447 49.0461 20.5074L49.0686 20.499ZM42.635 17.4989C42.6046 17.3933 42.5621 17.2916 42.5084 17.1958C42.4595 17.1081 42.4033 17.0247 42.3403 16.9465C42.2711 16.8619 42.1924 16.7856 42.1057 16.719C42.0199 16.6493 41.9265 16.5894 41.8272 16.5406C41.7599 16.5125 41.6905 16.4897 41.6196 16.4725L41.5015 16.4338C41.4007 16.4091 41.2976 16.3952 41.1939 16.3925C41.081 16.387 40.9679 16.3952 40.857 16.4168C40.7003 16.4463 40.5491 16.4997 40.4087 16.575C40.2724 16.6472 40.1483 16.7402 40.0408 16.8508C39.9269 16.9697 39.8327 17.1061 39.7618 17.2547C39.733 17.3244 39.7095 17.3962 39.6914 17.4695C39.6598 17.5435 39.6346 17.6201 39.6164 17.6985C39.6035 17.7286 39.5933 17.7597 39.5859 17.7915C39.5804 17.8501 39.5783 17.909 39.5796 17.9678C39.5784 18.0761 39.591 18.1841 39.617 18.2892C39.6398 18.3826 39.671 18.4737 39.7101 18.5615C39.7533 18.6627 39.8103 18.7574 39.8795 18.8429C39.9062 18.8808 39.9354 18.9169 39.967 18.9508L39.9885 18.9579L40.1058 19.0716C40.2601 19.2127 40.4431 19.3186 40.6423 19.3822C40.7621 19.4231 40.8861 19.4505 41.012 19.4637L41.0657 19.4813L41.1122 19.4965C41.3329 19.5043 41.5525 19.4625 41.7548 19.3742C41.8516 19.335 41.9429 19.2837 42.0268 19.2216C42.0716 19.1926 42.1141 19.1602 42.1538 19.1245C42.2033 19.0855 42.2493 19.0422 42.2913 18.9952C42.436 18.8348 42.5455 18.6459 42.6127 18.4407C42.68 18.2354 42.7035 18.0184 42.6819 17.8035C42.6689 17.7027 42.6457 17.6034 42.6124 17.5073L42.635 17.4989ZM49.9332 21.3807C49.9168 21.4308 49.9254 21.4891 49.9233 21.5439C49.9212 21.5987 49.9163 21.5654 49.9128 21.5761C49.9042 21.5851 49.8978 21.5958 49.8939 21.6076C49.8901 21.6194 49.8889 21.6318 49.8905 21.6441L49.902 21.7905C49.906 21.8444 49.915 21.8978 49.929 21.95C49.9541 22.0603 49.9922 22.1673 50.0426 22.2686C50.0872 22.357 50.1391 22.4416 50.1976 22.5215C50.263 22.612 50.3381 22.6951 50.4216 22.7693C50.5869 22.9193 50.7825 23.032 50.9951 23.0999C51.0973 23.1295 51.2018 23.1505 51.3075 23.1627C51.4167 23.1756 51.527 23.1759 51.6363 23.1634C51.8495 23.141 52.0554 23.0734 52.2404 22.9651C52.5281 22.8036 52.7566 22.5543 52.8922 22.2535C53.0279 21.9528 53.0636 21.6165 52.9942 21.294C52.9711 21.1921 52.9386 21.0926 52.8974 20.9967C52.8497 20.897 52.7935 20.8016 52.7291 20.7117C52.6019 20.5311 52.4384 20.379 52.2492 20.2651C52.1562 20.2108 52.0578 20.1666 51.9554 20.1332C51.8519 20.0996 51.7452 20.0766 51.637 20.0645C51.4303 20.0404 51.2208 20.061 51.0227 20.1248C50.8189 20.1859 50.63 20.2886 50.4679 20.4265C50.3934 20.4882 50.3255 20.5576 50.2653 20.6335C50.188 20.7235 50.1232 20.8236 50.0727 20.931C50.0302 21.0305 49.9964 21.1335 49.9718 21.2388C49.9256 21.295 49.9187 21.3403 49.9106 21.3892L49.9332 21.3807ZM42.9548 9.72505C42.9861 9.74512 43.0239 9.75226 43.0603 9.74496C43.0967 9.73767 43.1289 9.71652 43.15 9.68596C43.1901 9.62194 43.2352 9.56118 43.2848 9.50426C43.4817 9.2747 43.7355 9.10093 44.0208 9.00039C44.1601 8.95199 44.304 8.91815 44.4503 8.8994C44.5949 8.89149 44.7399 8.89916 44.8828 8.92226C45.0059 8.94874 45.1259 8.98806 45.2408 9.03957C45.3378 9.08825 45.4285 9.14858 45.5109 9.21924C45.5748 9.27643 45.6323 9.34043 45.6822 9.41012C45.7282 9.4811 45.7672 9.55628 45.7989 9.63464C45.8271 9.72913 45.8471 9.82585 45.8588 9.92374C45.8651 10.0784 45.8555 10.2333 45.8302 10.386C45.821 10.4199 45.8101 10.4534 45.7974 10.4862C45.7793 10.5481 45.7843 10.6145 45.8114 10.6731C45.8239 10.7075 45.8436 10.7389 45.8692 10.7651C45.8948 10.7912 45.9258 10.8116 45.9599 10.8248C46.022 10.8451 46.0895 10.8403 46.148 10.8112C46.2065 10.7822 46.2511 10.7313 46.2724 10.6696C46.4001 10.3159 46.4082 9.93014 46.2954 9.57142C46.2685 9.4921 46.2354 9.41502 46.1965 9.34087C46.1534 9.26441 46.1044 9.19139 46.05 9.12246C45.9523 9.00569 45.8368 8.90498 45.7078 8.82404C45.5918 8.75089 45.4671 8.6927 45.3365 8.65084C45.1704 8.59755 44.998 8.56635 44.8238 8.5581C44.5002 8.54485 44.1775 8.60129 43.8776 8.7236C43.4759 8.89083 43.1354 9.17781 42.9027 9.54546C42.8876 9.57653 42.8845 9.61212 42.8941 9.6453C42.9038 9.67848 42.9254 9.70691 42.9548 9.72505ZM54.4115 14.0661C54.4513 14.0904 54.4988 14.0988 54.5445 14.0895C54.5902 14.0802 54.6307 14.054 54.6578 14.0161L54.7371 13.9192C54.8503 13.7932 54.9777 13.6807 55.1166 13.5838C55.2307 13.5112 55.3517 13.4499 55.4778 13.401C55.5942 13.3631 55.7142 13.3374 55.8359 13.3242C55.957 13.3175 56.0785 13.3241 56.1982 13.3438C56.3069 13.3656 56.4126 13.4003 56.5132 13.4471C56.5998 13.4952 56.6826 13.5502 56.7606 13.6114C56.9104 13.7487 57.0228 13.9219 57.0872 14.1147C57.1248 14.2306 57.1494 14.3503 57.1605 14.4716C57.1702 14.6574 57.1584 14.8437 57.1252 15.0268C57.1053 15.0876 57.0853 15.1485 57.0845 15.2116C57.0726 15.2482 57.0707 15.2872 57.0791 15.3248C57.0913 15.381 57.1249 15.4304 57.1727 15.4624C57.221 15.4931 57.2792 15.504 57.3353 15.4928C57.3913 15.4817 57.4409 15.4494 57.4738 15.4026C57.5245 15.2957 57.5685 15.1857 57.6055 15.0732C57.6424 14.952 57.6673 14.8274 57.6798 14.7013C57.6991 14.5032 57.6827 14.3032 57.6315 14.1108C57.6068 14.0172 57.5745 13.9257 57.5348 13.8374C57.4894 13.7485 57.438 13.6628 57.381 13.5809C57.2791 13.4404 57.1544 13.3179 57.0123 13.2183C56.8727 13.1221 56.7198 13.0466 56.5585 12.9943C56.3905 12.9401 56.2152 12.9121 56.0387 12.9111C55.6574 12.9172 55.286 13.0337 54.9695 13.2463C54.8612 13.3195 54.7588 13.4013 54.6634 13.4908C54.5554 13.5939 54.4564 13.7059 54.3674 13.8258C54.3424 13.8638 54.3331 13.91 54.3413 13.9548C54.3495 13.9995 54.3746 14.0394 54.4115 14.0661Z" fill="#161616"/>
</g>
<defs>
<clipPath id="clip0_343_3532">
<rect width="51.7241" height="60" fill="white" transform="translate(19) rotate(18.1448)"/>
</clipPath>
</defs>
</svg>
