<svg width="25" height="25" viewBox="0 0 25 25" fill="none" xmlns="http://www.w3.org/2000/svg">
<circle cx="12.5" cy="12.5" r="12.5" transform="rotate(-180 12.5 12.5)" fill="#0ECB81"/>
<path d="M12.1823 8.18194C12.0651 8.29915 11.9992 8.45812 11.9992 8.62388L11.9992 15.8651L9.31671 13.1814C9.19935 13.064 9.04018 12.9981 8.87421 12.9981C8.70824 12.9981 8.54907 13.064 8.43171 13.1814C8.31435 13.2987 8.24842 13.4579 8.24842 13.6239C8.24842 13.7899 8.31435 13.949 8.43171 14.0664L12.1817 17.8164C12.2398 17.8746 12.3087 17.9208 12.3847 17.9523C12.4606 17.9838 12.542 18 12.6242 18C12.7064 18 12.7878 17.9838 12.8638 17.9523C12.9397 17.9208 13.0087 17.8746 13.0667 17.8164L16.8167 14.0664C16.9341 13.949 17 13.7899 17 13.6239C17 13.4579 16.9341 13.2987 16.8167 13.1814C16.6994 13.064 16.5402 12.9981 16.3742 12.9981C16.2082 12.9981 16.0491 13.064 15.9317 13.1814L13.2492 15.8651L13.2492 8.62388C13.2492 8.45812 13.1834 8.29915 13.0662 8.18194C12.9489 8.06473 12.79 7.99888 12.6242 7.99888C12.4585 7.99888 12.2995 8.06473 12.1823 8.18194Z" fill="white"/>
</svg>
