<svg width="16" height="16" viewBox="0 0 16 16" fill="none" xmlns="http://www.w3.org/2000/svg">
<path d="M8.00017 1.33301C6.68162 1.33301 5.39269 1.724 4.29636 2.45654C3.20004 3.18909 2.34555 4.23028 1.84097 5.44845C1.33638 6.66663 1.20436 8.00707 1.4616 9.30028C1.71883 10.5935 2.35377 11.7814 3.28612 12.7137C4.21847 13.6461 5.40636 14.281 6.69956 14.5382C7.99277 14.7955 9.33321 14.6635 10.5514 14.1589C11.7696 13.6543 12.8108 12.7998 13.5433 11.7035C14.2758 10.6071 14.6668 9.31822 14.6668 7.99967C14.6668 7.1242 14.4944 6.25729 14.1594 5.44845C13.8243 4.63961 13.3333 3.90469 12.7142 3.28563C12.0952 2.66657 11.3602 2.17551 10.5514 1.84048C9.74255 1.50545 8.87564 1.33301 8.00017 1.33301ZM8.00017 13.333C6.94533 13.333 5.91419 13.0202 5.03712 12.4342C4.16006 11.8481 3.47648 11.0152 3.07281 10.0407C2.66914 9.06611 2.56352 7.99376 2.76931 6.95919C2.9751 5.92463 3.48305 4.97432 4.22893 4.22844C4.97481 3.48256 5.92512 2.97461 6.95968 2.76882C7.99425 2.56303 9.0666 2.66865 10.0411 3.07232C11.0157 3.47598 11.8486 4.15957 12.4347 5.03663C13.0207 5.9137 13.3335 6.94484 13.3335 7.99967C13.3335 9.41416 12.7716 10.7707 11.7714 11.7709C10.7712 12.7711 9.41465 13.333 8.00017 13.333Z" fill="white"/>
<path d="M7.99984 4.00004C7.381 4.00004 6.78751 4.24588 6.34992 4.68346C5.91234 5.12105 5.6665 5.71454 5.6665 6.33338C5.6665 6.51019 5.73674 6.67976 5.86177 6.80478C5.98679 6.92981 6.15636 7.00004 6.33317 7.00004C6.50998 7.00004 6.67955 6.92981 6.80457 6.80478C6.9296 6.67976 6.99984 6.51019 6.99984 6.33338C6.99984 6.1356 7.05849 5.94226 7.16837 5.77781C7.27825 5.61336 7.43443 5.48519 7.61715 5.4095C7.79988 5.33381 8.00095 5.31401 8.19493 5.35259C8.38891 5.39118 8.56709 5.48642 8.70694 5.62627C8.8468 5.76612 8.94204 5.94431 8.98062 6.13829C9.01921 6.33227 8.9994 6.53334 8.92372 6.71606C8.84803 6.89879 8.71986 7.05497 8.55541 7.16485C8.39096 7.27473 8.19762 7.33338 7.99984 7.33338C7.82303 7.33338 7.65346 7.40362 7.52843 7.52864C7.40341 7.65366 7.33317 7.82323 7.33317 8.00004V9.33338C7.33317 9.51019 7.40341 9.67976 7.52843 9.80478C7.65346 9.92981 7.82303 10 7.99984 10C8.17665 10 8.34622 9.92981 8.47124 9.80478C8.59627 9.67976 8.6665 9.51019 8.6665 9.33338V8.56004C9.20524 8.40271 9.66895 8.05595 9.97216 7.58367C10.2754 7.11139 10.3977 6.54542 10.3165 5.99009C10.2353 5.43475 9.95609 4.92748 9.53036 4.56177C9.10464 4.19606 8.56106 3.99656 7.99984 4.00004Z" fill="white"/>
<path d="M8.00016 12.0003C8.36835 12.0003 8.66683 11.7018 8.66683 11.3337C8.66683 10.9655 8.36835 10.667 8.00016 10.667C7.63197 10.667 7.3335 10.9655 7.3335 11.3337C7.3335 11.7018 7.63197 12.0003 8.00016 12.0003Z" fill="white"/>
</svg>
