<svg width="69" height="63" viewBox="0 0 69 63" fill="none" xmlns="http://www.w3.org/2000/svg">
<g clip-path="url(#clip0_97_593)">
<path d="M17.0195 15.2924C17.0377 15.2533 17.0484 15.2112 17.0508 15.1683C17.2106 15.0079 17.36 14.8377 17.4981 14.6587L17.5786 14.5568C17.8291 14.2466 18.0572 13.9763 18.2764 13.7193C18.4956 13.4622 18.7237 13.2008 18.9518 12.9659C19.1799 12.7311 19.3991 12.4874 19.6764 12.2348L20.4726 11.4504C21.0586 10.8699 21.6669 10.2673 22.2618 9.6779L22.2171 9.71778C23.5535 8.40927 25.0467 7.26783 26.6632 6.31896C27.4162 5.90953 28.2169 5.59257 29.0473 5.37509C29.0999 5.35587 29.1479 5.32634 29.1887 5.28827C29.2294 5.25019 29.2619 5.20436 29.2844 5.15352C29.3079 5.09887 29.32 5.0401 29.3202 4.9807C29.3206 4.92783 29.3115 4.87531 29.2933 4.82561C29.2485 4.72402 29.1694 4.64101 29.0697 4.59075L29.0697 4.48882L29.0697 4.43565C29.0414 4.29982 28.9979 4.16754 28.94 4.04126C28.8819 3.9069 28.8146 3.77661 28.7387 3.65131C28.606 3.42493 28.4565 3.20868 28.2914 3.00434C28.1348 2.80936 27.9604 2.61438 27.7278 2.37066C27.5432 2.19067 27.3491 2.02056 27.1463 1.86106C26.9431 1.70178 26.731 1.55384 26.5112 1.41793C26.2926 1.28641 26.0672 1.1666 25.8357 1.05899C25.6219 0.960425 25.4023 0.8746 25.1782 0.801974C25.1562 0.767997 25.1266 0.739515 25.0917 0.718758C25.0568 0.698001 25.0175 0.685532 24.9769 0.682326C24.8919 0.682326 24.8114 0.682326 24.7264 0.682326L24.3328 0.589266C24.2933 0.583326 24.253 0.590007 24.2176 0.608334C24.1822 0.626661 24.1536 0.655685 24.136 0.691191C23.9228 0.704664 23.7107 0.7313 23.5008 0.770951C22.9967 0.864344 22.5047 1.01297 22.0337 1.21408C21.5556 1.42508 21.0962 1.67559 20.6605 1.96298C20.4995 2.06933 20.3384 2.17125 20.1774 2.27317L20.0388 2.35736L19.7391 2.55234C19.6344 2.62426 19.5357 2.70427 19.4438 2.79163C19.4015 2.83384 19.3733 2.88803 19.3633 2.94673C19.171 3.05308 18.9742 3.1683 18.7863 3.28794C18.0629 3.7394 17.3751 4.24453 16.7288 4.79901L16.1383 5.29975L15.7134 5.65426C15.3421 5.96888 14.9933 6.33225 14.6846 6.65131C14.3846 6.96755 14.1066 7.30363 13.8526 7.65722C13.705 7.85663 13.5708 8.06933 13.4366 8.28203C13.3248 8.46237 13.2233 8.64878 13.1325 8.84038C12.9776 9.18016 12.8591 9.53514 12.7791 9.89946C12.7466 10.0457 12.7227 10.1936 12.7075 10.3426L12.7075 10.5331C12.6495 10.5609 12.5977 10.6001 12.5555 10.6484C12.4931 10.7254 12.4571 10.82 12.4526 10.9187L12.4526 10.9763L12.5376 11.3263C12.5725 11.4451 12.6174 11.5607 12.6718 11.672C12.7854 11.9209 12.9154 12.1622 13.0609 12.3943C13.3408 12.8332 13.6629 13.2442 14.0226 13.6218C14.731 14.395 15.581 15.028 16.5275 15.4874C16.5692 15.505 16.6141 15.5141 16.6594 15.5141C16.7048 15.5141 16.7497 15.505 16.7914 15.4874C16.8413 15.473 16.8875 15.4481 16.9269 15.4145C16.9662 15.3808 16.9978 15.3392 17.0195 15.2924ZM56.3503 44.6941C56.726 44.6941 57.1018 44.6941 57.473 44.6941C57.9203 44.6941 58.4124 44.6941 58.882 44.6941C60.6712 44.6941 62.2904 44.6941 63.856 44.6321C63.9867 44.6181 64.1069 44.5546 64.1914 44.4549C64.2636 44.3638 64.303 44.2515 64.3033 44.1358L64.3033 44.0826C64.2953 44.0013 64.266 43.9234 64.2183 43.8566C64.3797 43.6389 64.5291 43.4125 64.6656 43.1786L64.6924 43.1343C64.8803 42.8286 65.0592 42.5139 65.2426 42.2037L65.332 42.0487C65.4796 41.7961 65.6317 41.5346 65.7793 41.2732C65.9327 40.9654 66.0671 40.6487 66.1819 40.3249C66.207 40.2597 66.2206 40.1908 66.2222 40.121C66.2226 40.0663 66.212 40.0121 66.1908 39.9615C66.1526 39.8653 66.0834 39.7843 65.994 39.7311L65.994 39.7045C65.9942 39.6426 65.9836 39.5811 65.9627 39.5228C65.8782 39.269 65.7751 39.0216 65.6541 38.7828C65.5333 38.5302 65.4036 38.282 65.2962 38.0738C65.0144 37.5376 64.7013 37.0147 64.4285 36.5671L64.1825 36.1683C63.7352 35.4238 63.2655 34.6572 62.8406 33.8862C62.1991 32.7477 61.6458 31.5626 61.1856 30.3411C61.1647 30.2813 61.1311 30.2267 61.0872 30.1808C61.0432 30.135 60.9898 30.099 60.9306 30.0752C60.8059 30.0248 60.6662 30.0248 60.5415 30.0752C60.5193 30.0829 60.4983 30.0933 60.4789 30.1063C60.4835 30.0814 60.4835 30.0558 60.4789 30.0309C60.4788 29.9795 60.4697 29.9286 60.452 29.8803C60.4316 29.8298 60.4014 29.7839 60.363 29.7451C60.3246 29.7064 60.2789 29.6755 60.2284 29.6543C60.1773 29.6333 60.1226 29.6225 60.0673 29.6225C60.0121 29.6225 59.9574 29.6333 59.9063 29.6543C59.4009 29.8492 58.882 30.0354 58.3766 30.217C58.1037 30.319 57.8264 30.4165 57.5535 30.5184C57.161 30.6584 56.7772 30.8212 56.404 31.0058C56.2161 31.1033 56.0283 31.2097 55.8449 31.3249C55.6426 31.4387 55.4636 31.589 55.3171 31.768C55.2525 31.8506 55.2164 31.9516 55.2142 32.056C55.2133 32.1108 55.224 32.1651 55.2455 32.2156L55.2455 32.2599L55.2723 32.3352C55.6615 33.186 56.073 34.0191 56.489 34.8035C56.8334 35.4504 57.236 36.1993 57.6833 36.9172C57.1241 37.1653 56.5516 37.3869 55.9656 37.6085C55.4691 37.7946 55.0263 37.9674 54.5835 38.1713C54.3427 38.2802 54.1109 38.4076 53.8902 38.5523C53.7754 38.6316 53.669 38.7222 53.5726 38.8227L53.4429 38.96L53.4026 38.96C53.308 39.0009 53.2306 39.0729 53.1835 39.1639C53.1645 39.2135 53.1539 39.2659 53.1521 39.319C53.1531 39.3703 53.1622 39.4211 53.179 39.4696L53.2819 39.8374C53.3798 40.2472 53.4486 40.6633 53.4876 41.0826C53.52 41.4199 53.5349 41.7586 53.5323 42.0974L53.5323 42.4386L53.5323 42.8552L53.5323 43.121L53.5323 43.1653L53.5323 43.5198C53.5313 43.668 53.5403 43.816 53.5592 43.963L53.5815 44.0472C53.5685 44.0754 53.5595 44.1052 53.5547 44.1358L53.5547 44.1978C53.5528 44.3021 53.5881 44.4038 53.6543 44.4848C53.7206 44.5659 53.8136 44.6212 53.917 44.641C54.2838 44.6853 54.6595 44.6941 55.0218 44.703L55.071 44.703C55.487 44.6986 55.8985 44.6941 56.3503 44.6941Z" fill="#FEFEFE"/>
<path d="M59.6964 29.1713C59.6959 29.129 59.6883 29.0871 59.674 29.0472C59.6661 29.0183 59.6524 28.9912 59.6338 28.9675L59.6338 28.9187C59.6201 28.799 59.5647 28.6878 59.4772 28.6041C58.5667 27.7021 57.5535 26.908 56.458 26.2378C55.9659 25.9232 55.4337 25.6085 54.8253 25.2718C54.217 24.935 53.6624 24.647 53.139 24.3855C52.1102 23.8892 51.0725 23.4328 49.829 22.901L49.3236 22.6839C48.3977 22.2895 47.4405 21.8818 46.4922 21.5007C45.0116 20.9113 43.786 20.4727 42.632 20.1181C41.423 19.7298 40.1801 19.4538 38.9195 19.2939L38.499 18.5184L38.4319 18.3944C38.1188 17.8272 37.8012 17.2777 37.4971 16.7592C36.929 15.802 36.2849 14.7917 35.4708 13.5908C34.6567 12.3899 33.9858 11.4505 33.2791 10.5376C32.4516 9.46084 31.6733 8.5081 30.8994 7.60855C30.5371 7.19643 30.1748 6.79318 29.7364 6.31903L29.7364 6.27915C29.7337 6.23514 29.7215 6.19222 29.7007 6.15325C29.6798 6.11428 29.6509 6.08015 29.6157 6.05315C29.5835 6.0252 29.5458 6.0041 29.505 5.99114C29.4643 5.97818 29.4212 5.97365 29.3786 5.97782C27.2137 6.19052 25.3529 7.51548 24.1766 8.49037C23.3133 9.19052 22.5126 9.96157 21.9088 10.5509L21.1976 11.2599L20.9113 11.5391L20.3522 12.093L19.8199 12.6115C19.3726 13.0546 18.97 13.4579 18.554 13.8921C18.3483 14.1093 18.1425 14.3353 17.9457 14.5524C17.7153 14.8034 17.5087 15.0749 17.3284 15.3633C17.296 15.4185 17.279 15.4812 17.2792 15.545C17.2787 15.6087 17.292 15.6717 17.3182 15.7298C17.3445 15.788 17.383 15.8398 17.4313 15.8818C17.5204 15.9578 17.6361 15.996 17.7534 15.9882C18.014 16.4036 18.3135 16.7938 18.648 17.1536C18.8135 17.3397 18.9969 17.5391 19.2071 17.7518C18.2984 17.7983 17.3981 17.9469 16.5233 18.195C15.3743 18.5294 14.2612 18.9746 13.1999 19.5244C11.0937 20.6089 9.14768 21.9747 7.41635 23.5834C5.64137 25.2069 4.15361 27.1137 3.01494 29.2245C1.87152 31.3408 1.1144 33.6405 0.778456 36.0177C0.63436 37.0336 0.562624 38.0583 0.563761 39.0842C0.565955 40.5152 0.696177 41.9433 0.95291 43.3515C1.17068 44.6024 1.48469 45.835 1.89222 47.0384C2.31047 48.2481 2.83121 49.4207 3.44883 50.5436C3.98486 51.5384 4.61064 52.4832 5.31853 53.3663C5.69729 53.8372 6.10037 54.2883 6.52621 54.7178C6.82165 55.0226 7.13374 55.3111 7.46107 55.582C7.63104 55.7947 7.80996 56.0251 7.99336 56.2112C8.44065 56.7075 8.88795 57.1639 9.33524 57.5893C9.7949 58.0249 10.2901 58.4221 10.8158 58.7769C11.379 59.1708 11.9677 59.5275 12.5781 59.8449C13.7661 60.4295 15.0117 60.8913 16.2952 61.223C17.5567 61.5415 18.8414 61.7622 20.1375 61.8833C21.4659 62.0208 22.8007 62.0889 24.1363 62.0871C24.9057 62.0871 25.5497 62.0871 26.1581 62.0384C26.7664 61.9896 27.5 61.9232 28.2067 61.8168C29.5637 61.612 30.8991 61.2857 32.1966 60.8419C33.4843 60.3979 34.726 59.8326 35.9047 59.1536C37.0799 58.48 38.1842 57.6917 39.2013 56.8006C40.2627 55.8883 41.2211 54.8646 42.0595 53.7474C43.7139 51.4788 44.8816 48.8984 45.4903 46.1654C45.8473 44.6083 46.0259 43.0163 46.0225 41.4195L46.0225 41.291C46.8769 41.6322 47.7088 41.9911 48.4916 42.3633C48.9747 42.5938 49.4622 42.8419 49.9453 43.0989L50.6476 43.4756L50.7012 43.5066C50.8175 43.5642 50.9339 43.6263 51.0501 43.6883C51.1885 43.7674 51.34 43.8215 51.4974 43.8478C51.552 43.8575 51.608 43.855 51.6614 43.8404C51.7148 43.8258 51.7642 43.7996 51.8061 43.7636C51.9313 43.8877 52.061 44.0118 52.1908 44.1314C52.2243 44.1621 52.2638 44.1858 52.3069 44.201C52.3499 44.2163 52.3956 44.2227 52.4412 44.2201C52.54 44.2147 52.6329 44.1719 52.7007 44.1004C52.7548 44.0355 52.7848 43.9542 52.7857 43.87C52.7856 43.796 52.7639 43.7237 52.723 43.6617C52.723 43.3781 52.723 43.1122 52.6962 42.8685C52.7667 42.8182 52.8236 42.7515 52.8619 42.6742C52.9001 42.5969 52.9185 42.5114 52.9154 42.4254L52.9154 42.3855L52.8572 41.6765C52.817 41.2732 52.7812 40.8611 52.7678 40.449C52.7657 40.3753 52.746 40.303 52.7102 40.2383C52.6745 40.1736 52.6236 40.1182 52.562 40.0768C52.562 39.6691 52.5352 39.257 52.5083 38.8493C52.9109 38.6898 53.3224 38.5347 53.7652 38.3574C54.9506 37.8877 56.0822 37.3648 56.9366 36.966C57.0317 36.9282 57.1097 36.8573 57.1557 36.7666C57.1841 36.7133 57.1994 36.6541 57.2005 36.5938C57.2 36.55 57.1924 36.5067 57.1781 36.4653L57.1423 36.3944C57.142 36.3483 57.1313 36.3029 57.111 36.2614C56.9172 35.8597 56.7006 35.4691 56.4624 35.0916C56.2969 34.8124 56.127 34.5376 55.957 34.2629L55.7378 33.9128C55.2189 33.062 54.8432 32.4018 54.5033 31.7636L54.7672 31.6041C55.3039 31.2851 55.7557 31.0325 56.1896 30.8153C57.2297 30.2808 58.3223 29.8531 59.4504 29.5391C59.5277 29.5135 59.5947 29.4639 59.6414 29.3977C59.6881 29.3314 59.7121 29.2521 59.7098 29.1713L59.6964 29.1713ZM17.3329 42.7755L17.3329 42.4874C17.3633 42.0103 17.4519 41.5387 17.5968 41.0827C17.7576 40.637 17.9708 40.2116 18.232 39.8153C18.543 39.3722 18.9047 38.9663 19.31 38.6056C19.8697 38.1346 20.482 37.7287 21.1349 37.3958C22.1205 36.9205 23.1617 36.5677 24.2347 36.3456C25.4102 36.0994 26.6131 36.0055 27.8131 36.0665C28.1978 36.0665 28.5779 36.1329 28.9492 36.1905C29.0789 36.5636 29.1864 36.9439 29.2713 37.3294C29.4491 38.1881 29.5376 39.0627 29.5352 39.9394C29.5352 40.1876 29.5352 40.4446 29.5352 40.7016C29.4696 41.6867 29.2818 42.6601 28.976 43.5997C28.7359 44.2948 28.4115 44.9584 28.0099 45.576C27.6746 46.0629 27.2828 46.5091 26.8424 46.9054C26.4554 47.2349 26.0323 47.5203 25.5811 47.7563C25.182 47.947 24.7637 48.0955 24.3331 48.1994C23.8892 48.2662 23.4393 48.2855 22.9912 48.257C22.705 48.257 22.3695 48.2171 22.0385 48.1772C21.9617 48.1621 21.8827 48.1622 21.8059 48.1774C21.7292 48.1926 21.6562 48.2227 21.5912 48.2659L21.5509 48.2924C21.1035 48.1066 20.6738 47.8811 20.2672 47.6189C19.7151 47.263 19.2062 46.8452 18.7508 46.3737C18.4027 45.9816 18.1025 45.5503 17.8562 45.0886C17.6632 44.715 17.5131 44.3211 17.4089 43.9143C17.3361 43.539 17.3002 43.1576 17.3016 42.7755L17.3329 42.7755Z" fill="#0DA1C5"/>
<path d="M59.7007 29.2424C59.7009 29.1899 59.6894 29.1381 59.667 29.0906C59.6446 29.0431 59.6118 29.0011 59.571 28.9676C58.1986 27.8538 56.7634 26.8182 55.2725 25.8657C53.7775 24.9139 52.2354 24.0369 50.6519 23.2379C47.6015 21.7095 44.4133 20.4677 41.1289 19.5289C40.3417 19.2985 39.5455 19.0858 38.7627 18.8952C38.5637 18.3627 38.3276 17.8444 38.056 17.3443C37.7921 16.8258 37.4834 16.2719 37.0854 15.5983C36.5039 14.6013 35.8285 13.5688 35.0233 12.4388C34.2898 11.4019 33.507 10.4004 32.7018 9.46097C31.8967 8.52153 30.9663 7.52006 30.0181 6.6072C29.866 6.46097 29.7184 6.31031 29.5708 6.16407C29.5372 6.13075 29.4963 6.10546 29.4514 6.09011C29.4064 6.07475 29.3585 6.06974 29.3113 6.07545C29.2813 5.9982 29.2217 5.93581 29.1455 5.9018C29.0693 5.86778 28.9826 5.8649 28.9043 5.89376C28.1354 6.12752 27.3873 6.42395 26.6678 6.78003C26.2474 6.98387 25.9119 7.15669 25.5809 7.3428C25.2088 7.54371 24.8542 7.77493 24.5208 8.03409C24.4862 8.06199 24.4561 8.09485 24.4313 8.13158C24.3713 8.11654 24.3081 8.11899 24.2493 8.13864C24.1906 8.15829 24.1389 8.1943 24.1003 8.24236C24.052 8.29784 24.0251 8.36849 24.0243 8.44177C24.025 8.49063 24.036 8.5388 24.0568 8.58311C24.0777 8.62741 24.1077 8.66684 24.1451 8.69879C24.3866 8.90706 24.6281 9.14192 24.8786 9.39893C25.1291 9.65595 25.4467 10.0326 25.7017 10.3561C25.9566 10.6796 26.225 11.0784 26.4486 11.424C26.9541 12.2128 27.4282 12.9972 27.8621 13.7549L28.2468 14.4418C28.6002 15.071 28.8954 15.5895 29.2129 16.1124C29.3784 16.3871 29.5574 16.6707 29.7184 16.9233L29.7452 16.9676L29.8973 17.2025L30.0583 17.4639L30.1075 17.5481C28.5509 17.4196 27.1151 17.3576 25.724 17.3576C24.6997 17.3576 23.6933 17.3975 22.7271 17.4772C22.5362 17.1195 22.3194 16.776 22.0785 16.4492C21.7923 16.0503 21.4926 15.6737 21.26 15.3901C20.9692 15.0311 20.6651 14.6899 20.3654 14.3709L20.0568 14.0297L20.0299 14.0031C19.8465 13.7992 19.6542 13.591 19.4753 13.3827C19.4446 13.339 19.4053 13.3019 19.3598 13.2736C19.3143 13.2453 19.2634 13.2265 19.2103 13.2182C19.1573 13.2099 19.1031 13.2124 19.051 13.2254C18.9989 13.2385 18.95 13.2618 18.9072 13.2941C18.8777 13.3129 18.8519 13.3369 18.8312 13.365C18.7851 13.3652 18.7396 13.3742 18.697 13.3916C18.5926 13.4332 18.508 13.5124 18.4599 13.6131L18.29 13.91C18.1916 14.0563 18.0887 14.1981 17.9724 14.3531L17.9321 14.4063L17.8382 14.5348C17.6726 14.7652 17.5232 15.0065 17.3909 15.2571C17.3722 15.2951 17.3586 15.3353 17.3506 15.3768C17.3033 15.4494 17.2784 15.5341 17.2791 15.6205C17.2776 15.7057 17.3061 15.7887 17.3596 15.8554C17.6011 16.1478 17.8382 16.4625 18.0484 16.7416L18.2229 16.9765C18.366 17.1626 18.5091 17.3531 18.6701 17.5348C18.7958 17.6913 18.9318 17.8393 19.0772 17.978C17.8548 18.2227 16.6503 18.5484 15.472 18.9528C14.0201 19.4479 12.6172 20.0739 11.2808 20.8229C10.0695 21.5144 8.93462 22.3298 7.89478 23.2557C6.85327 24.1951 5.90785 25.2342 5.07231 26.3576C4.67422 26.8893 4.27613 27.4831 3.8512 28.1744C3.40848 28.89 3.00676 29.6297 2.64797 30.3901C1.91694 31.9408 1.39365 33.5795 1.09138 35.2645C0.880339 36.4346 0.775546 37.621 0.778269 38.8096C0.778269 39.2527 0.778281 39.7357 0.818537 40.2099C0.940375 41.9238 1.2249 43.6226 1.66839 45.2837C1.85703 46.0264 2.08548 46.7586 2.35276 47.4772C2.61322 48.1752 2.91186 48.8587 3.24736 49.5245C3.92235 50.8642 4.73795 52.1296 5.68065 53.3C6.61948 54.4725 7.6777 55.5461 8.83857 56.5038C10.0119 57.4609 11.285 58.2913 12.6361 58.9809C14.1789 59.7742 15.7914 60.4268 17.4535 60.9307C19.1037 61.4398 20.8042 61.7726 22.5258 61.9233C23.1521 61.9765 23.7917 62.0031 24.4224 62.0031L24.4224 62.0563C24.4214 62.1297 24.445 62.2014 24.4895 62.2601C24.5145 62.2977 24.5474 62.3295 24.586 62.3532C24.6246 62.3769 24.668 62.392 24.7131 62.3975C25.071 62.3975 25.4869 62.4418 25.9029 62.4418C26.3189 62.4418 26.641 62.4418 27.057 62.4063C27.842 62.353 28.6222 62.2449 29.3919 62.0829C30.9892 61.7512 32.5427 61.2382 34.0214 60.554C35.3816 59.9199 36.6734 59.1508 37.8771 58.2586C38.5551 57.843 39.1957 57.37 39.7915 56.845C40.3391 56.3684 40.8448 55.8465 41.3034 55.2852C41.7814 54.6815 42.2107 54.0414 42.5871 53.3709C43.4243 51.954 44.1439 50.472 44.7386 48.9396C45.5124 46.9447 45.9184 44.8284 45.9374 42.6914C45.9374 42.3059 45.9374 41.9115 45.8926 41.5215C45.881 41.4497 45.8516 41.3817 45.8071 41.3238C45.7627 41.2658 45.7045 41.2196 45.6377 41.1892C45.6394 41.1397 45.6299 41.0905 45.6098 41.0453C45.5896 41 45.5594 40.9598 45.5214 40.9277C45.3807 40.8168 45.2311 40.7175 45.0741 40.6308C47.0268 41.4138 48.9378 42.2953 50.7995 43.2719C51.3139 43.5422 51.8417 43.8391 52.365 44.1582C52.4325 44.2374 52.5259 44.2907 52.6289 44.3088C52.7389 44.3199 52.8491 44.2903 52.9383 44.2256C53.0275 44.161 53.0894 44.0659 53.112 43.9588C53.1425 43.78 53.1604 43.5994 53.1657 43.4181L53.1657 42.7402C53.1554 42.3444 53.1241 41.9495 53.0718 41.557C52.9769 40.8423 52.8105 40.1387 52.5752 39.4566C52.6084 39.43 52.6333 39.3947 52.6468 39.3546C52.6682 39.3136 52.679 39.2679 52.6781 39.2217C52.6867 39.1808 52.6867 39.1385 52.6781 39.0976C52.6448 39.0187 52.5824 38.9554 52.5037 38.9204C50.118 37.5073 47.6233 36.2834 45.0428 35.2601C43.8485 34.7771 42.5826 34.2941 41.1692 33.7845C39.9973 33.3413 38.9327 32.9868 37.8413 32.65C35.4113 31.8601 32.9268 31.2455 30.4072 30.8111C29.1552 30.5995 27.8916 30.4619 26.6231 30.3989C25.3849 30.3309 24.143 30.365 22.9105 30.5009C21.7588 30.632 20.6259 30.8922 19.5334 31.2763C18.5188 31.6462 17.5578 32.1468 16.6752 32.7653C14.9444 33.9505 13.5863 35.5955 12.7569 37.5112C12.2449 38.7499 11.9849 40.0767 11.992 41.4152C11.9912 42.2432 12.0873 43.0685 12.2783 43.8746C12.5256 44.9575 12.923 46.0014 13.4591 46.9765C13.7256 47.4695 14.0244 47.9447 14.3537 48.3989C14.6895 48.8512 15.0556 49.2805 15.4496 49.684C16.2162 50.4779 17.0891 51.1637 18.0439 51.7224C19.0056 52.285 20.0455 52.7045 21.1303 52.9676C22.2836 53.2511 23.4837 53.2948 24.655 53.0961C25.2308 52.9905 25.7953 52.8318 26.3413 52.622C26.8861 52.4068 27.4114 52.1459 27.9113 51.8421C28.906 51.2314 29.8094 50.4856 30.5951 49.6264C31.394 48.7624 32.0821 47.8039 32.6437 46.7726C33.6265 44.9282 34.1336 42.8716 34.1198 40.7859C34.1198 40.489 34.1198 40.1744 34.0885 39.8554C34.0182 38.9647 33.841 38.0856 33.5606 37.2365C33.5159 37.0902 33.4623 36.9396 33.4086 36.7933C33.7843 36.8465 34.169 36.9085 34.5268 36.9662C35.0636 37.0548 35.6317 37.1434 36.2131 37.2232C36.2354 37.2911 36.272 37.3535 36.3206 37.4063C36.3692 37.459 36.4287 37.5008 36.4949 37.5289L36.7141 37.5998C37.1614 37.7461 37.801 37.9455 38.3825 38.1449C38.964 38.3443 39.5365 38.5526 40.2433 38.8184L40.373 38.8628L40.5027 38.9115C40.4758 38.9259 40.4551 38.9495 40.4446 38.978C40.4378 39.0101 40.4378 39.0433 40.4446 39.0755C40.4448 39.1213 40.4588 39.1661 40.4848 39.204C40.4872 39.2374 40.4947 39.2703 40.5072 39.3014L40.5072 39.2837L40.6816 39.8554C40.7174 39.9883 40.7621 40.1168 40.8024 40.2453L40.8695 40.4359C40.9858 40.817 41.0887 41.1582 41.1692 41.4817C41.2825 41.9459 41.3676 42.4165 41.4241 42.8908C41.472 43.3146 41.4959 43.7406 41.4957 44.167L41.4957 44.393C41.468 45.1151 41.3918 45.8346 41.2676 46.5467C41.1579 47.2428 41.0086 47.9322 40.8203 48.6116C40.4431 49.8392 39.9095 51.0141 39.2324 52.108C38.5374 53.2049 37.7064 54.2112 36.7588 55.1035C35.8217 55.9739 34.7825 56.7297 33.6635 57.3546C32.5755 57.9341 31.4205 58.3805 30.2238 58.684C28.7816 59.0162 27.3026 59.1651 25.8224 59.1272C24.9124 59.0986 24.0054 59.0097 23.1073 58.8613C22.2172 58.7097 21.3374 58.504 20.4728 58.2453L20.4325 58.2453C18.48 57.6705 16.6088 56.8531 14.8636 55.8125L14.8413 55.8125C13.4363 54.9358 12.1432 53.8943 10.9901 52.7106C9.8721 51.538 8.90733 50.2309 8.11843 48.8199C7.44421 47.5749 6.92454 46.2536 6.57077 44.8849C6.22802 43.4624 6.05684 42.0047 6.06085 40.5422L6.06085 40.201C6.0848 39.29 6.16546 38.3813 6.30238 37.4802C6.42463 36.5928 6.60848 35.7148 6.85257 34.8524L6.85257 34.8125C7.30086 33.3892 7.9243 32.0259 8.70884 30.7534L8.70884 30.7269C9.53355 29.4296 10.5177 28.2388 11.6387 27.1818C12.1913 26.6715 12.7721 26.1922 13.3786 25.7461C14.0095 25.2735 14.6731 24.8456 15.3646 24.4654C16.683 23.773 18.0834 23.246 19.5334 22.8967L19.4216 22.8967C21.5777 22.4127 23.7871 22.2013 25.9969 22.2675L26.1132 22.2675C27.9068 22.3342 29.6933 22.5297 31.4584 22.8524C33.3666 23.1811 35.2542 23.6176 37.1122 24.1596L37.1122 24.1375L37.1122 24.1596L37.1525 24.1596C38.5614 24.5806 39.9704 25.0681 41.3436 25.6043C42.7168 26.1404 44.0274 26.7209 45.4946 27.4477C46.0805 27.7357 46.6665 28.0238 47.2479 28.3339L47.3419 28.3827L47.4269 28.4226C48.062 28.7416 48.8537 29.136 49.6141 29.5038C51.1394 30.2438 52.5037 30.8332 53.7785 31.2763C53.9976 31.3561 54.2258 31.4359 54.4449 31.5112C54.5044 31.5371 54.5717 31.5391 54.6326 31.5168C54.6936 31.4944 54.7433 31.4495 54.7715 31.3916C54.7858 31.3594 54.7934 31.3248 54.7938 31.2896C54.7947 31.2347 54.7756 31.1812 54.7402 31.139C54.7894 31.1274 54.8373 31.1111 54.8833 31.0902C55.0309 31.0282 55.1741 30.9573 55.3306 30.8908C55.4872 30.8243 55.7108 30.7003 55.8987 30.6072L55.9568 30.5762L56.2744 30.4122C56.8741 30.1018 57.5054 29.8553 58.1575 29.6766C58.505 29.587 58.863 29.5437 59.2221 29.5481C59.2897 29.5663 59.3612 29.5647 59.4278 29.5434C59.4945 29.5222 59.5536 29.4823 59.5978 29.4285C59.651 29.3668 59.6797 29.288 59.6783 29.2069L59.7007 29.2424ZM27.6832 35.5215C28.05 35.5215 28.4033 35.5614 28.7388 35.6013L28.7746 35.6589C28.9849 35.9288 29.1734 36.2148 29.3382 36.5142C29.6127 37.0224 29.8216 37.5628 29.9599 38.1227C30.1188 38.7846 30.1969 39.463 30.1925 40.1434L30.1925 40.2852C30.1675 41.1284 30.0353 41.9652 29.7989 42.7756C29.5677 43.5429 29.2369 44.2773 28.8148 44.9602C28.4509 45.5354 28.0184 46.0651 27.5266 46.5378C27.0877 46.9363 26.6045 47.2842 26.0863 47.5747C25.539 47.8667 24.9576 48.0914 24.3553 48.2438C23.7693 48.3818 23.1685 48.4488 22.5661 48.4433C22.0272 48.4238 21.4926 48.3405 20.9737 48.1951C20.5036 48.0522 20.053 47.8528 19.6318 47.6013C19.2706 47.3729 18.9374 47.1038 18.6388 46.7992C18.3364 46.4718 18.0737 46.1104 17.8561 45.7224C17.6188 45.2803 17.4356 44.8117 17.3104 44.3266C17.1868 43.8231 17.1237 43.307 17.1225 42.7889L17.1225 42.7357C17.1375 42.2362 17.2157 41.7404 17.3551 41.2601C17.5206 40.735 17.7504 40.232 18.0395 39.7623C18.2938 39.3672 18.5827 38.9951 18.9028 38.6501C18.9935 38.6564 19.0832 38.6278 19.1532 38.5703C19.3143 38.4373 19.4842 38.3 19.6542 38.167C19.8242 38.0341 20.0165 37.9056 20.1731 37.7948C20.5268 37.5523 20.8925 37.3275 21.2689 37.1212C21.772 36.8539 22.2902 36.6157 22.8211 36.4078C23.3573 36.1911 23.9071 36.0091 24.4671 35.8628C24.9718 35.7376 25.4844 35.6458 26.0013 35.588C26.5508 35.5281 27.1038 35.5059 27.6564 35.5215L27.6832 35.5215Z" fill="#FAD82F"/>
<path d="M27.6565 62.8227C30.4857 62.4662 33.2251 61.5996 35.7392 60.2658C38.2159 58.9587 40.4162 57.1926 42.2205 55.0634C43.7156 53.2959 44.8791 51.2773 45.6558 49.1033C46.3011 47.2688 46.6249 45.3385 46.613 43.3958C46.613 42.8951 46.613 42.3633 46.5638 41.7695C48.4558 42.7045 50.4374 43.7547 52.7857 45.0664L52.8214 45.1063C52.906 45.1862 53.0177 45.2321 53.1346 45.2348C55.7048 45.4783 58.2895 45.5375 60.8683 45.412C61.9418 45.3766 63.0288 45.3234 64.0844 45.2747C65.565 45.2038 67.0992 45.1329 68.611 45.1063C69.1791 45.1063 68.9868 44.4505 68.8839 44.1225C68.4823 42.9168 67.9812 41.7459 67.3855 40.6218C66.7771 39.4386 66.1464 38.251 65.5113 37.0767C64.2454 34.7769 62.8633 32.4726 61.4095 30.2259C61.1912 29.8173 60.9003 29.451 60.5507 29.1447C60.1527 28.8478 59.768 28.5332 59.3744 28.2318C58.6139 27.6336 57.8222 27.0309 57.0395 26.4859C55.8452 25.6572 54.5614 24.864 53.1122 24.0575C50.3185 22.52 47.4011 21.2142 44.3899 20.1536C42.6678 19.5332 40.8831 18.9837 39.0895 18.5228L39.0626 18.4652C38.6153 17.6366 38.168 16.7813 37.7207 15.9482C37.09 14.8138 36.5086 13.8389 35.9315 12.9571C34.7194 11.0084 33.3203 9.18017 31.7538 7.49771C31.378 7.10333 30.9889 6.72666 30.6266 6.38545C30.4432 6.21263 30.2553 6.04424 30.0719 5.88472C30.0004 5.81825 29.9243 5.75621 29.8483 5.6986L29.8483 5.66758C29.8551 5.57169 29.8551 5.47544 29.8483 5.37955C29.8292 4.86177 29.6899 4.3553 29.4413 3.89948C29.0864 3.2452 28.634 2.64765 28.0994 2.12696C27.5701 1.57169 26.9684 1.08885 26.3102 0.691214C25.7589 0.32444 25.1299 0.0879399 24.4718 -7.05755e-05C24.1255 -0.018423 23.7784 0.00688976 23.4385 0.0752609C23.0434 0.146929 22.6546 0.249164 22.2756 0.381023C21.4685 0.667983 20.696 1.04249 19.972 1.49771C19.2012 1.96777 18.4643 2.49046 17.7668 3.06196C17.1048 3.59815 16.4249 4.20525 15.7629 4.86551C15.0056 5.60863 14.2903 6.3927 13.6204 7.21411C13.2368 7.684 12.8828 8.1768 12.5603 8.68974C12.3786 8.98293 12.2201 9.2896 12.0862 9.60702C11.7865 10.3205 11.5852 10.9364 11.8983 11.6853C12.0755 12.0668 12.2897 12.4304 12.5379 12.771C12.9119 13.325 13.3323 13.8468 13.7948 14.3308C14.2532 14.8207 14.7647 15.2591 15.3201 15.638C15.5872 15.8038 15.8651 15.9519 16.1521 16.0812C16.4216 16.2024 16.7035 16.2945 16.993 16.3559C17.0511 16.3745 17.1138 16.3745 17.1719 16.3559C17.5074 16.7193 17.8026 17.0649 18.0665 17.415C17.8518 17.4593 17.6416 17.5125 17.4313 17.5657C14.8049 18.2432 12.3002 19.3195 10.0062 20.7562C7.77804 22.1485 5.81059 23.9132 4.19135 25.9719C3.38431 27.0009 2.67743 28.1033 2.08012 29.2643C1.4807 30.4437 0.999777 31.6786 0.644293 32.9512C0.286734 34.2744 0.063475 35.6298 -0.0221803 36.997C-0.044542 37.3825 -0.0579698 37.7813 -0.0579698 38.1846C-0.0531557 39.2117 0.0185529 40.2375 0.156721 41.2555C0.332937 42.6271 0.598906 43.9859 0.952925 45.3234C1.30011 46.5929 1.73653 47.8367 2.25902 49.0457C3.2425 51.3261 4.58632 53.4367 6.23998 55.2983C7.86805 57.1204 9.79457 58.6574 11.9385 59.8448C14.1951 61.0904 16.6385 61.9701 19.1758 62.4504C20.5514 62.7173 21.9446 62.8861 23.3446 62.9556C24.783 63.0437 26.2265 62.9992 27.6565 62.8227ZM46.3804 40.7902C44.0298 39.5937 41.605 38.5458 39.1208 37.6528C36.6604 36.7625 34.1114 36.1341 31.5167 35.7784C30.2343 35.6075 28.9416 35.5231 27.6476 35.5258C26.5979 35.52 25.5499 35.609 24.5165 35.7917C23.5951 35.9615 22.6952 36.2305 21.8327 36.5937C20.9963 36.9451 20.2134 37.4105 19.5068 37.9763C18.8251 38.526 18.2596 39.2037 17.8429 39.9704C17.4059 40.8042 17.1657 41.7255 17.1406 42.6646L17.1406 42.8729C17.142 43.3298 17.1884 43.7854 17.2793 44.2333C17.385 44.7339 17.5502 45.2202 17.7713 45.6824C17.9864 46.1248 18.2569 46.5387 18.5764 46.9143C19.2092 47.6621 20.0234 48.2385 20.9426 48.5893C21.3995 48.7639 21.8778 48.8772 22.365 48.9261C23.4023 49.0334 24.4497 48.8684 25.4022 48.4475C26.1973 48.101 26.9195 47.6094 27.5313 46.9985C27.855 46.6689 28.154 46.3164 28.4259 45.9438C28.6933 45.5841 28.9355 45.2065 29.1505 44.8138C29.3819 44.3847 29.5837 43.9406 29.7544 43.4844C29.9191 43.0604 30.0522 42.625 30.1524 42.1816C30.3192 41.4831 30.4047 40.7679 30.4074 40.0502C30.4074 39.8419 30.4074 39.6336 30.4074 39.4298C30.3643 38.8169 30.2411 38.2121 30.0406 37.6307C29.9378 37.3357 29.8106 37.0497 29.6604 36.7754C29.6157 36.6912 29.5665 36.6114 29.5173 36.5317C30.1614 36.576 30.8324 36.6425 31.5078 36.7267C31.9148 36.7843 32.3218 36.8463 32.711 36.9128L32.8586 37.2318C33.1499 37.9222 33.3542 38.6456 33.4669 39.3855C33.5338 39.8626 33.5667 40.3439 33.5653 40.8256C33.5669 41.2699 33.5415 41.7138 33.4893 42.155C33.3376 43.3152 33.037 44.4514 32.5947 45.5361C32.1094 46.6981 31.4766 47.7941 30.7116 48.7976C30.1017 49.58 29.3989 50.2867 28.6182 50.9024C27.9293 51.4329 27.1784 51.8793 26.3817 52.2318C25.7025 52.5114 24.9924 52.7107 24.266 52.8256C23.5453 52.9238 22.8148 52.9313 22.0922 52.8478C21.325 52.7481 20.5736 52.553 19.8557 52.2673C18.998 51.9124 18.1893 51.4508 17.4492 50.8936C16.6129 50.2408 15.8616 49.4876 15.2127 48.6513C14.5385 47.7768 13.9737 46.8245 13.5309 45.8153C13.1225 44.8598 12.8341 43.8582 12.6721 42.833C12.5996 42.3102 12.5622 41.7832 12.5603 41.2555C12.5607 40.8407 12.5861 40.4264 12.6363 40.0147C12.7452 39.186 12.9601 38.3745 13.2759 37.5996C13.5989 36.8382 14.0183 36.1205 14.5239 35.4637C15.0901 34.7514 15.7403 34.1087 16.4607 33.5494C17.2527 32.9499 18.1166 32.4497 19.0327 32.0605C20.1631 31.6047 21.3451 31.2862 22.5529 31.1122C24.7373 30.844 26.9476 30.8589 29.1281 31.1565C31.1989 31.4275 33.2523 31.8151 35.2785 32.3175C36.3654 32.5745 37.515 32.8626 38.7003 33.2038C39.8856 33.545 41.1828 33.997 42.5247 34.5332L43.3075 34.8389C46.3284 36.1057 49.2801 37.5286 52.1505 39.1019C52.1767 39.1454 52.2083 39.1856 52.2444 39.2215L52.2892 39.2614C52.4236 39.7202 52.5237 40.1883 52.5889 40.6617C52.6539 41.2014 52.6868 41.7444 52.6873 42.288L52.6873 42.6868C52.6873 42.997 52.656 43.3293 52.6247 43.7414L52.6247 43.9143L52.6247 44.1934C50.6744 43.0679 48.5453 41.8759 46.3804 40.7902ZM39.5412 50.0959C39.0533 51.2617 38.4191 52.3619 37.6536 53.3707C36.934 54.2933 36.1017 55.1238 35.1756 55.8434C34.2333 56.5543 33.2074 57.1495 32.1206 57.6159C30.9271 58.107 29.6772 58.4508 28.399 58.6395C26.9157 58.8393 25.4128 58.8527 23.9261 58.6794C21.9454 58.4321 20.0057 57.9301 18.1559 57.186C16.4576 56.4939 14.8553 55.59 13.3878 54.4962L13.3609 54.4962C12.1114 53.5381 10.9861 52.4308 10.0107 51.1993C9.13804 50.0693 8.4094 48.837 7.84128 47.5302C7.28619 46.206 6.89859 44.8188 6.68727 43.4002C6.57768 42.5909 6.5224 41.7752 6.52178 40.9586C6.52333 40.181 6.57113 39.4042 6.66492 38.6321C6.88526 36.8668 7.33634 35.1374 8.0068 33.4874C8.58202 32.0835 9.33343 30.7569 10.2433 29.5391C11.0999 28.4512 12.0884 27.4719 13.1865 26.6233C14.3014 25.7911 15.5115 25.092 16.7917 24.5405L16.8141 24.5405C18.3636 23.904 19.9859 23.4575 21.6449 23.2112L21.7075 23.2112C24.3693 22.8628 27.0658 22.8628 29.7275 23.2112C31.6328 23.4129 33.5239 23.7296 35.3903 24.1595C37.5594 24.7031 39.6853 25.4036 41.7508 26.2555L41.7866 26.2555L41.818 26.2555C43.9918 27.1417 46.1523 28.1476 48.2456 29.1225C49.4578 29.6897 50.6744 30.2569 51.9 30.802C52.5498 31.026 53.181 31.3001 53.7876 31.6218C54.1827 31.9463 54.5305 32.3236 54.8209 32.7429C55.313 33.3993 55.7527 34.0926 56.1359 34.8168L56.4267 35.3618C56.6727 35.8271 56.9232 36.3057 57.2095 36.7577C57.0037 36.8685 56.7935 36.9748 56.5832 37.0679C55.924 37.3238 55.2486 37.537 54.5614 37.706C54.2081 37.7946 53.8547 37.8788 53.5013 37.963L53.3627 37.9985C53.063 38.0694 52.7499 38.1403 52.4681 38.2377C52.3518 38.2733 52.2499 38.3447 52.1774 38.4416C50.1511 37.3559 47.7894 36.1019 45.3784 35.0073C42.9349 33.8843 40.4058 32.9538 37.8146 32.2245C36.7411 31.9276 35.6631 31.6661 34.6836 31.4312C33.5787 31.1742 32.5723 30.9615 31.6062 30.7798C29.4909 30.3616 27.3399 30.1464 25.183 30.1373C23.0965 30.1155 21.0237 30.4745 19.0684 31.1964C18.1027 31.567 17.1888 32.0584 16.3489 32.6587C15.5122 33.257 14.76 33.9634 14.1124 34.7592C13.5732 35.4263 13.1223 36.159 12.7705 36.9394C12.431 37.685 12.1861 38.4694 12.0414 39.2747C11.9295 39.8948 11.8741 40.5236 11.8759 41.1536C11.8792 42.1354 12.0039 43.1131 12.2472 44.0649C12.4348 44.8565 12.6953 45.6293 13.0255 46.3736C14.0352 48.5648 15.622 50.4461 17.6192 51.8197C18.8972 52.6941 20.3624 53.263 21.8998 53.4815C22.6821 53.5856 23.4748 53.5856 24.2571 53.4815C24.6706 53.4248 25.0799 53.342 25.4827 53.2333C25.9003 53.1117 26.3097 52.9637 26.7083 52.7902C27.5594 52.4194 28.3603 51.9445 29.0924 51.3766C29.8794 50.7652 30.587 50.0597 31.1991 49.2762C32.5251 47.5993 33.4695 45.6584 33.9679 43.5863C34.1838 42.6846 34.2949 41.7613 34.2989 40.8345C34.2989 40.4844 34.2989 40.1343 34.2497 39.7976C34.1888 39.1843 34.066 38.5786 33.8829 37.9896C33.791 37.6877 33.6805 37.3918 33.5519 37.1033L33.5161 37.0191L33.5161 36.997C35.6103 37.4221 37.6692 38.0028 39.6754 38.734C39.7693 38.9157 39.8499 39.0841 39.9214 39.2437C40.2761 40.0967 40.524 40.9896 40.6595 41.9024C40.7462 42.5354 40.7895 43.1735 40.7892 43.8123C40.789 44.4432 40.7517 45.0735 40.6774 45.7001C40.4927 47.2123 40.1108 48.6944 39.5412 50.1092L39.5412 50.0959ZM28.4125 36.4741C28.4662 36.607 28.5288 36.74 28.5914 36.8685C28.654 36.997 28.6853 37.059 28.7256 37.1609C28.9529 37.7146 29.1121 38.2934 29.1997 38.8847C29.2409 39.2303 29.2618 39.578 29.2623 39.9261C29.2611 40.3143 29.2357 40.702 29.1863 41.0871C29.059 41.9508 28.8262 42.796 28.493 43.6041C28.1884 44.3098 27.801 44.9776 27.339 45.5937C26.9616 46.073 26.5293 46.5072 26.0507 46.8877C25.6912 47.1556 25.3026 47.383 24.8923 47.5657C24.4612 47.7393 24.0107 47.8613 23.5504 47.929C23.1328 47.9778 22.711 47.9778 22.2934 47.929C21.8841 47.8692 21.4833 47.7621 21.0992 47.61C20.7292 47.4475 20.3782 47.2454 20.0525 47.0073C19.7328 46.7526 19.4418 46.4644 19.1847 46.1476C18.9246 45.8054 18.704 45.4353 18.5272 45.0442C18.3528 44.6166 18.2282 44.1705 18.1559 43.7148C18.1241 43.4412 18.1077 43.1661 18.1067 42.8906C18.1058 42.6388 18.1207 42.3872 18.1515 42.1373C18.2174 41.6908 18.336 41.2536 18.5048 40.8345C18.688 40.4283 18.9161 40.0433 19.1847 39.6868C19.5231 39.272 19.9072 38.8959 20.3298 38.5657C20.9302 38.1261 21.5801 37.7573 22.2666 37.4667C23.2704 37.0585 24.3225 36.7785 25.3977 36.6336C26.3242 36.5298 27.2567 36.4883 28.1888 36.5095C28.2649 36.4697 28.3409 36.4741 28.4125 36.4741ZM64.0933 36.4386C64.6882 37.5908 65.2563 38.7429 65.8825 40.0236L66.133 40.542C65.5248 41.0202 64.9846 41.5777 64.5272 42.1993C64.2877 42.5389 64.098 42.9104 63.9636 43.3027C63.8931 43.5098 63.8451 43.7237 63.8205 43.9408C63.814 44.0323 63.814 44.1241 63.8205 44.2156L63.8205 44.4239C62.7336 44.4593 61.8121 44.4903 60.8773 44.5169C59.4728 44.5524 58.2203 44.5612 57.0484 44.5435C55.8765 44.5258 54.6956 44.4682 53.4969 44.3751C53.4969 44.2732 53.5282 44.1713 53.5416 44.0827C53.564 43.8292 53.5729 43.5748 53.5684 43.3205C53.5506 41.9475 53.3659 40.5817 53.0183 39.2525C53.3706 39.2032 53.72 39.1352 54.0649 39.0487C54.5206 38.9272 54.9687 38.7793 55.4068 38.6055C56.3055 38.2579 57.1658 37.8198 57.9743 37.2983C58.0314 37.2626 58.0795 37.2145 58.1151 37.1577C58.1508 37.1009 58.173 37.0369 58.1801 36.9704C58.2035 36.9142 58.2156 36.854 58.2159 36.7931C58.2146 36.7129 58.1947 36.6341 58.1577 36.5627C57.6299 35.6233 57.0395 34.737 56.5296 33.9925C56.0697 33.3102 55.5646 32.6588 55.0177 32.0428C55.2548 31.9586 55.465 31.8611 55.6797 31.7725C56.0196 31.6218 56.3461 31.4534 56.6235 31.3072L57.0171 31.0989C57.4644 30.8507 57.9654 30.5937 58.4619 30.381C58.9264 30.1841 59.4129 30.0428 59.9111 29.9601C60.0453 29.9601 60.1705 29.9335 60.2913 29.929C60.318 29.9333 60.3451 29.9333 60.3718 29.929C61.5616 31.7503 62.7067 33.7577 64.0933 36.4386ZM16.2997 15.3234C15.7665 15.0156 15.275 14.6418 14.837 14.2112C14.0593 13.4305 13.3832 12.5567 12.8242 11.61L12.7973 11.5701C12.7013 11.3866 12.6511 11.183 12.6511 10.9763C12.6511 10.7696 12.7013 10.566 12.7973 10.3825C12.9049 10.0094 13.055 9.64961 13.2446 9.31012C13.6523 8.62718 14.1193 7.98071 14.6402 7.37807C15.0875 6.83301 15.6064 6.27467 16.1431 5.72519C17.5371 4.26583 19.1193 2.99491 20.8487 1.94528C21.5956 1.5035 22.3949 1.15519 23.2283 0.908344C23.6047 0.803012 23.9918 0.739114 24.3823 0.7178C24.5665 0.722589 24.7495 0.747857 24.928 0.793132C25.2862 0.891661 25.6315 1.03146 25.9568 1.20968C26.5397 1.54528 27.0803 1.9484 27.5671 2.41056C28.0433 2.86656 28.4596 3.38022 28.8061 3.93937C28.9817 4.23513 29.1214 4.55048 29.2221 4.87881C29.2607 5.02397 29.2862 5.17227 29.2981 5.32194C29.2371 5.30561 29.1732 5.30231 29.1107 5.31224C29.0483 5.32217 28.9887 5.34511 28.9358 5.37955C28.8799 5.36636 28.8217 5.36636 28.7658 5.37955C27.9559 5.67211 27.1732 6.03388 26.4265 6.46078C25.5699 6.94606 24.7425 7.4802 23.9484 8.06049C22.2961 9.26448 20.7585 10.6158 19.3547 12.0974C18.9074 12.5804 18.4601 13.0767 18.0576 13.5686C17.8339 13.8389 17.6505 14.0826 17.4895 14.3131C17.3911 14.4593 17.3106 14.5745 17.2435 14.6897C17.1764 14.805 17.0824 14.9733 17.0109 15.1329C16.9436 15.1452 16.8805 15.1742 16.8275 15.2171C16.745 15.2814 16.688 15.3723 16.6665 15.4741C16.5412 15.4431 16.4204 15.3854 16.2997 15.3234ZM22.6066 16.7414C22.6027 16.6976 22.589 16.6552 22.5663 16.6174C22.3114 16.2584 22.043 15.9128 21.8417 15.6513C21.6404 15.3899 21.3586 15.0398 21.0992 14.7341C20.8397 14.4283 20.5579 14.1181 20.303 13.8478C20.048 13.5775 19.7618 13.3249 19.4934 13.0989C19.7931 12.7665 20.1151 12.4253 20.4416 12.0841C21.3682 11.1436 22.3479 10.2559 23.3759 9.42533C23.5817 9.2658 23.783 9.10628 23.9887 8.95118C24.7184 9.60124 25.3849 10.3178 25.9792 11.0915C26.735 12.0888 27.4381 13.1242 28.0859 14.1934L28.5332 14.9246L29.07 15.8109C29.2623 16.1166 29.4234 16.3648 29.5754 16.5908C29.6425 16.6927 29.7141 16.799 29.7901 16.8965C28.4885 16.7725 27.1735 16.6971 25.8897 16.6705C24.6865 16.6528 23.6085 16.6838 22.6066 16.7414ZM18.3259 16.4002C18.0886 16.0705 17.8333 15.7539 17.5611 15.4519L17.5924 15.4253C17.7626 15.2481 17.9209 15.0601 18.0665 14.8626L18.2454 14.6366L18.4557 14.3707L18.9029 13.8079L19.225 13.4312C19.7671 13.9247 20.2626 14.4661 20.7055 15.0487C20.9381 15.3456 21.1528 15.6513 21.372 15.9349L21.5644 16.2052L21.9624 16.7725C21.8506 16.7725 21.7388 16.7725 21.627 16.8035C20.7324 16.8965 19.8109 17.0383 18.9164 17.22C18.724 16.9763 18.5317 16.6838 18.3259 16.4002ZM30.5327 16.9719C30.3852 16.6669 30.2194 16.3709 30.0362 16.0856L29.4457 15.1506C28.9984 14.4726 28.6003 13.8566 28.1978 13.2673C27.3692 12.0161 26.4435 10.8309 25.429 9.72223C25.0935 9.36772 24.7357 9.02651 24.3689 8.70746C25.0765 8.18406 25.8111 7.69744 26.5696 7.24956C27.3072 6.81278 28.0826 6.44204 28.8866 6.14173C29.0253 6.30569 29.1729 6.46521 29.3339 6.62031L29.3786 6.66905L29.6649 6.97039L29.9825 7.3116C30.3985 7.75473 30.801 8.19786 31.1365 8.57009C31.9014 9.41647 32.6573 10.2939 33.373 11.1801C34.1602 12.1595 34.8446 13.0502 35.4663 13.9098C36.0881 14.7695 36.7188 15.7089 37.3808 16.7503L37.8773 17.5612C38.0383 17.8315 38.1948 18.1019 38.3469 18.3766C37.2868 18.1151 36.2044 17.8803 35.1219 17.6764C33.5788 17.3663 32.0401 17.127 30.5327 16.9719ZM21.1618 61.7281C18.9715 61.4354 16.828 60.8665 14.7833 60.0354C13.0597 59.3087 11.4339 58.3724 9.94358 57.2481C8.52696 56.1512 7.25158 54.8862 6.14604 53.4815C4.95282 51.9256 3.95965 50.2286 3.18941 48.4298C2.24819 46.1577 1.6077 43.7746 1.28392 41.3397C1.15573 40.3948 1.08255 39.4435 1.06475 38.4903L1.06475 38.2377C1.06611 37.3798 1.12289 36.5228 1.23472 35.672C1.47198 34.0161 1.92296 32.3972 2.57661 30.8552C3.23727 29.3409 4.08464 27.9135 5.09938 26.6055C6.21567 25.1946 7.50144 23.9238 8.92824 22.8212L8.88349 22.8522L8.93268 22.8212L8.97295 22.7902C10.6151 21.5543 12.4061 20.5257 14.3047 19.7281C16.4278 18.8607 18.654 18.2651 20.9292 17.9556C22.7232 17.7426 24.5313 17.6685 26.337 17.734C28.2824 17.7881 30.2234 17.9449 32.1519 18.2038C34.8275 18.567 37.4777 19.0954 40.0869 19.7858C42.7335 20.4838 45.3293 21.3588 47.8565 22.4047L47.8117 22.3825C49.7485 23.1939 51.6363 24.1157 53.4656 25.1432C55.249 26.1498 56.9616 27.275 58.5916 28.511C58.8868 28.7414 59.182 28.9763 59.4862 29.2112C58.7179 29.3447 57.9675 29.5647 57.2497 29.867C56.7756 30.0575 56.288 30.2791 55.7468 30.5494C55.3263 30.7577 54.8522 30.9925 54.3289 31.2806C52.3473 30.4519 50.3747 29.5081 48.4648 28.6218L46.7964 27.8374C44.2278 26.6018 41.5939 25.5042 38.906 24.5494C36.3885 23.6993 33.8007 23.0691 31.1723 22.6661C28.7936 22.2735 26.3803 22.125 23.9708 22.223C21.6163 22.299 19.2893 22.7478 17.078 23.5524C15.9764 23.9651 14.9186 24.4846 13.9201 25.1033C12.8797 25.7576 11.9126 26.5196 11.035 27.3766C10.1362 28.2495 9.34357 29.2237 8.67327 30.2791C7.99584 31.3493 7.43365 32.487 6.99591 33.6735C6.15572 35.9248 5.72412 38.3057 5.7211 40.706L5.7211 41.0915C5.75379 42.2848 5.90359 43.472 6.16839 44.6366C6.90725 47.8908 8.57299 50.8667 10.9679 53.2112C12.5397 54.7614 14.3518 56.0524 16.3355 57.0354C18.3679 58.0433 20.5377 58.7523 22.7765 59.1403C23.9073 59.3413 25.054 59.4421 26.2028 59.4416C27.304 59.4394 28.4022 59.3295 29.4815 59.1137C31.5424 58.7087 33.4935 57.8766 35.2069 56.672C36.0603 56.0735 36.8422 55.3808 37.5373 54.607C38.2532 53.815 38.8788 52.9471 39.4025 52.0191C39.9607 51.0358 40.4106 49.9958 40.7444 48.9172C41.1408 47.6359 41.3899 46.3144 41.487 44.9778C41.5183 44.6144 41.5317 44.2466 41.5317 43.8832C41.5321 43.0917 41.4648 42.3016 41.3304 41.5214C41.235 40.9712 41.0974 40.429 40.9189 39.8995C40.8384 39.6558 40.74 39.4032 40.6147 39.1151L40.6147 39.0841C41.062 39.2658 41.5585 39.4564 42.0684 39.6691L42.0953 39.6691L42.1266 39.6691C43.2851 40.1565 44.4883 40.7016 45.705 41.2821C45.705 41.6011 45.705 41.9202 45.705 42.2392L45.705 43.0324C45.705 43.706 45.6379 44.3219 45.5618 44.9246C45.4432 45.7504 45.2759 46.5687 45.0609 47.3751C44.8351 48.1923 44.5572 48.9945 44.2289 49.7769C43.5977 51.2216 42.7911 52.5847 41.8269 53.836C40.7684 55.1718 39.5504 56.3756 38.1993 57.4209C36.7227 58.5417 35.1122 59.4779 33.4043 60.2082C31.6157 60.9576 29.7361 61.473 27.8131 61.7414C25.6052 62.0269 23.3689 62.024 21.1618 61.7326L21.1618 61.7281Z" fill="#161616"/>
</g>
<defs>
<clipPath id="clip0_97_593">
<rect width="63" height="69" fill="white" transform="translate(69) rotate(90)"/>
</clipPath>
</defs>
</svg>
