<svg width="79" height="16" viewBox="0 0 79 16" fill="none" xmlns="http://www.w3.org/2000/svg">
<path d="M0 15.1897V0.835449H6.68447C8.3436 0.835449 9.59822 1.25924 10.4483 2.10683C11.1065 2.76302 11.4356 3.5901 11.4356 4.58807C11.4356 5.94147 10.8049 6.97361 9.54338 7.68449C10.4346 8.02625 11.1065 8.47739 11.559 9.03789C12.0115 9.58472 12.2377 10.3229 12.2377 11.2525C12.2377 12.5376 11.7578 13.5151 10.798 14.1849C9.83818 14.8548 8.52185 15.1897 6.84902 15.1897H0ZM3.08514 6.63868H6.00574C7.52775 6.63868 8.28875 6.11919 8.28875 5.08021C8.28875 4.60174 8.1105 4.23946 7.75399 3.99339C7.39749 3.73365 6.8833 3.60377 6.21142 3.60377H3.08514V6.63868ZM3.08514 12.4214H6.84902C8.3436 12.4214 9.09089 11.8882 9.09089 10.8219C9.09089 9.78294 8.30932 9.26346 6.74618 9.26346H3.08514V12.4214Z" fill="white"/>
<path d="M16.0156 15.1897V0.835449H19.183V15.1897H16.0156Z" fill="white"/>
<path d="M23.8094 15.1897V0.835449H26.73L33.4762 9.67358V0.835449H36.6025V15.1897H33.9081L26.9357 6.06451V15.1897H23.8094Z" fill="white"/>
<path d="M47.0928 15.4153C45.132 15.4153 43.6031 14.8753 42.5062 13.7953C41.4092 12.7016 40.8608 11.1158 40.8608 9.03789V0.835449H44.0282V8.95586C44.0282 10.1042 44.2956 10.986 44.8303 11.6012C45.3788 12.2027 46.1467 12.5034 47.1339 12.5034C48.1211 12.5034 48.8821 12.2095 49.4169 11.6217C49.9654 11.0338 50.2396 10.1794 50.2396 9.05839V0.835449H53.407V8.93536C53.407 11.068 52.8448 12.6811 51.7205 13.7748C50.6098 14.8685 49.0673 15.4153 47.0928 15.4153Z" fill="white"/>
<path d="M57.6616 15.1897V0.835449H60.5822L67.3284 9.67358V0.835449H70.4547V15.1897H67.7603L60.7879 6.06451V15.1897H57.6616Z" fill="white"/>
<path d="M75.0832 15.1897V0.835449H78.2506V15.1897H75.0832Z" fill="white"/>
</svg>
