<svg width="117" height="29" viewBox="0 0 117 29" fill="none" xmlns="http://www.w3.org/2000/svg">
<path d="M38.7494 21.1896V6.83536H45.4339C47.093 6.83536 48.3476 7.25916 49.1977 8.10674C49.8559 8.76294 50.185 9.59002 50.185 10.588C50.185 11.9414 49.5542 12.9735 48.2928 13.6844C49.184 14.0262 49.8559 14.4773 50.3084 15.0378C50.7609 15.5846 50.9871 16.3229 50.9871 17.2525C50.9871 18.5375 50.5072 19.515 49.5474 20.1848C48.5876 20.8547 47.2712 21.1896 45.5984 21.1896H38.7494ZM41.8345 12.6386H44.7551C46.2771 12.6386 47.0381 12.1191 47.0381 11.0801C47.0381 10.6017 46.8599 10.2394 46.5034 9.9933C46.1469 9.73356 45.6327 9.60369 44.9608 9.60369H41.8345V12.6386ZM41.8345 18.4213H45.5984C47.093 18.4213 47.8403 17.8881 47.8403 16.8218C47.8403 15.7829 47.0587 15.2634 45.4956 15.2634H41.8345V18.4213Z" fill="#F0B90B"/>
<path d="M54.765 21.1896V6.83536H57.9324V21.1896H54.765Z" fill="#F0B90B"/>
<path d="M62.5588 21.1896V6.83536H65.4794L72.2256 15.6735V6.83536H75.3519V21.1896H72.6575L65.6851 12.0644V21.1896H62.5588Z" fill="#F0B90B"/>
<path d="M85.8421 21.4152C83.8814 21.4152 82.3525 20.8752 81.2556 19.7952C80.1586 18.7016 79.6102 17.1158 79.6102 15.0378V6.83536H82.7776V14.9558C82.7776 16.1041 83.045 16.9859 83.5797 17.6011C84.1282 18.2026 84.896 18.5033 85.8833 18.5033C86.8705 18.5033 87.6315 18.2094 88.1663 17.6216C88.7148 17.0337 88.989 16.1793 88.989 15.0583V6.83536H92.1564V14.9353C92.1564 17.0679 91.5942 18.6811 90.4699 19.7747C89.3592 20.8684 87.8166 21.4152 85.8421 21.4152Z" fill="white"/>
<path d="M96.411 21.1896V6.83536H99.3316L106.078 15.6735V6.83536H109.204V21.1896H106.51L99.5373 12.0644V21.1896H96.411Z" fill="white"/>
<path d="M113.833 21.1896V6.83536H117V21.1896H113.833Z" fill="white"/>
<path d="M11.4884 14.3543L14.3973 11.454L17.3063 14.3543L14.3973 17.2545L11.4884 14.3543Z" fill="#F0B90B"/>
<path fill-rule="evenodd" clip-rule="evenodd" d="M28.7947 14.5L14.3973 0L0 14.5L14.3973 29L28.7947 14.5ZM7.54146 14.3543C7.54146 18.1294 10.6108 21.1896 14.3973 21.1896C18.1838 21.1896 21.2532 18.1294 21.2532 14.3543C21.2532 10.5791 18.1838 7.5189 14.3973 7.5189C10.6108 7.5189 7.54146 10.5791 7.54146 14.3543Z" fill="#F0B90B"/>
</svg>
