<svg width="301" height="202" viewBox="0 0 301 202" fill="none" xmlns="http://www.w3.org/2000/svg">
<path d="M37.8118 95.6928L60.5337 85.4355L50.2568 62.7225L27.5492 72.9852L37.8118 95.6928Z" fill="#1B1F22"/>
<path d="M133.225 99.4325L115.644 60.505L76.7251 78.106L66.4624 55.3984L128.083 27.549L155.933 89.1699L133.225 99.4325Z" fill="#1B1F22"/>
<path d="M140.563 115.644L163.271 105.381L173.519 128.083L150.826 138.351L140.563 115.644Z" fill="#1B1F22"/>
<path d="M67.8381 101.65L85.4249 140.563L124.338 122.977L134.606 145.67L72.9853 173.519L45.1359 111.898L67.8381 101.65Z" fill="#1B1F22"/>
<path d="M117.019 106.757L94.3118 117.019L84.0492 94.3117L106.757 84.049L117.019 106.757Z" fill="#1B1F22"/>
<path d="M232.166 105.879L241.721 101.566L237.4 92.0147L227.851 96.3303L232.166 105.879Z" fill="#1B1F22"/>
<path d="M272.289 107.452L264.896 91.0822L248.53 98.4837L244.214 88.9348L270.127 77.2236L281.838 103.136L272.289 107.452Z" fill="#1B1F22"/>
<path d="M275.375 114.269L284.924 109.953L289.234 119.5L279.691 123.818L275.375 114.269Z" fill="#1B1F22"/>
<path d="M244.793 108.384L252.189 124.748L268.552 117.353L272.87 126.896L246.957 138.607L235.246 112.694L244.793 108.384Z" fill="#1B1F22"/>
<path d="M265.475 110.532L255.926 114.848L251.61 105.299L261.159 100.983L265.475 110.532Z" fill="#1B1F22"/>
<path d="M169.549 70.1669L175.288 67.5764L172.692 61.8404L166.958 64.4321L169.549 70.1669Z" fill="#1B1F22"/>
<path d="M193.646 71.1113L189.206 61.2803L179.377 65.7254L176.785 59.9907L192.347 52.9574L199.38 68.5195L193.646 71.1113Z" fill="#1B1F22"/>
<path d="M195.499 75.2054L201.234 72.6136L203.822 78.347L198.091 80.9401L195.499 75.2054Z" fill="#1B1F22"/>
<path d="M177.132 71.6714L181.574 81.4988L191.401 77.0573L193.995 82.7884L178.432 89.8217L171.399 74.2596L177.132 71.6714Z" fill="#1B1F22"/>
<path d="M189.553 72.961L183.818 75.5528L181.227 69.8181L186.961 67.2263L189.553 72.961Z" fill="#1B1F22"/>
<path d="M193.918 158.538L201.345 155.185L197.986 147.762L190.564 151.116L193.918 158.538Z" fill="#1B1F22"/>
<path d="M225.103 159.76L219.357 147.037L206.637 152.79L203.283 145.368L223.423 136.266L232.525 156.406L225.103 159.76Z" fill="#1B1F22"/>
<path d="M227.502 165.059L234.924 161.704L238.273 169.124L230.856 172.48L227.502 165.059Z" fill="#1B1F22"/>
<path d="M203.732 160.485L209.48 173.204L222.199 167.455L225.555 174.873L205.415 183.975L196.312 163.835L203.732 160.485Z" fill="#1B1F22"/>
<path d="M219.807 162.154L212.385 165.508L209.031 158.087L216.452 154.732L219.807 162.154Z" fill="#1B1F22"/>
</svg>
