<svg width="50" height="34" viewBox="0 0 50 34" fill="none" xmlns="http://www.w3.org/2000/svg">
<rect width="50" height="34" rx="4" fill="#0ECB81"/>
<path fill-rule="evenodd" clip-rule="evenodd" d="M18.9116 25.4462V26.592V27.7378H18.4023V27.4596C18.2407 27.6659 17.9956 27.7954 17.6624 27.7954C17.0056 27.7954 16.4907 27.2922 16.4907 26.592C16.4907 25.8923 17.0056 25.3886 17.6624 25.3886C17.9956 25.3886 18.2407 25.5181 18.4023 25.7244V25.4462H18.9116ZM17.7258 25.8583C17.2849 25.8583 17.0151 26.1892 17.0151 26.592C17.0151 26.9948 17.2849 27.3257 17.7258 27.3257C18.1471 27.3257 18.4315 27.0091 18.4315 26.592C18.4315 26.1749 18.1471 25.8583 17.7258 25.8583ZM36.1229 26.592C36.1229 26.1892 36.3927 25.8583 36.8336 25.8583C37.2554 25.8583 37.5392 26.1749 37.5392 26.592C37.5392 27.0091 37.2554 27.3257 36.8336 27.3257C36.3927 27.3257 36.1229 26.9948 36.1229 26.592ZM38.0199 24.5259V26.592V27.7378H37.51V27.4596C37.3485 27.6659 37.1034 27.7954 36.7702 27.7954C36.1133 27.7954 35.5984 27.2922 35.5984 26.592C35.5984 25.8923 36.1133 25.3886 36.7702 25.3886C37.1034 25.3886 37.3485 25.5181 37.51 25.7244V24.5259H38.0199ZM25.2337 25.8347C25.5618 25.8347 25.7728 26.0361 25.8266 26.3906H24.6111C24.6655 26.0597 24.8708 25.8347 25.2337 25.8347ZM24.0771 26.592C24.0771 25.8775 24.5572 25.3886 25.2438 25.3886C25.9001 25.3886 26.3511 25.8775 26.3561 26.592C26.3561 26.6589 26.3511 26.7215 26.346 26.7835H24.6066C24.6801 27.1962 24.979 27.3449 25.3072 27.3449C25.5422 27.3449 25.7924 27.2582 25.9887 27.1051L26.2383 27.4744C25.9539 27.7093 25.6308 27.7954 25.278 27.7954C24.5769 27.7954 24.0771 27.3207 24.0771 26.592ZM31.3937 26.5919C31.3937 26.1891 31.6635 25.8582 32.1043 25.8582C32.5256 25.8582 32.81 26.1749 32.81 26.5919C32.81 27.009 32.5256 27.3256 32.1043 27.3256C31.6635 27.3256 31.3937 26.9947 31.3937 26.5919ZM33.2903 25.4462V26.592V27.7378H32.781V27.4596C32.6189 27.6659 32.3743 27.7954 32.0411 27.7954C31.3843 27.7954 30.8694 27.2922 30.8694 26.592C30.8694 25.8923 31.3843 25.3886 32.0411 25.3886C32.3743 25.3886 32.6189 25.5181 32.781 25.7244V25.4462H33.2903ZM28.5176 26.592C28.5176 27.2873 29.0124 27.7954 29.7674 27.7954C30.1202 27.7954 30.3552 27.7186 30.6099 27.5221L30.3653 27.1193C30.174 27.2538 29.9732 27.3257 29.7522 27.3257C29.3456 27.3207 29.0466 27.0332 29.0466 26.592C29.0466 26.1508 29.3456 25.8632 29.7522 25.8583C29.9732 25.8583 30.174 25.9302 30.3653 26.0646L30.6099 25.6619C30.3552 25.4654 30.1202 25.3886 29.7674 25.3886C29.0124 25.3886 28.5176 25.8967 28.5176 26.592ZM34.4665 25.7244C34.5989 25.523 34.7902 25.3886 35.0841 25.3886C35.1873 25.3886 35.3343 25.4078 35.447 25.4511L35.29 25.9209C35.1823 25.8775 35.0746 25.8633 34.9714 25.8633C34.6382 25.8633 34.4716 26.074 34.4716 26.4532V27.7378H33.9617V25.4462H34.4665V25.7244ZM21.4308 25.6284C21.1856 25.4703 20.848 25.3886 20.4755 25.3886C19.882 25.3886 19.5001 25.6668 19.5001 26.1223C19.5001 26.496 19.7844 26.7264 20.3084 26.7983L20.549 26.8318C20.8283 26.8702 20.9601 26.9421 20.9601 27.0716C20.9601 27.2489 20.7739 27.3498 20.4261 27.3498C20.0733 27.3498 19.8187 27.2395 19.647 27.11L19.4069 27.498C19.6863 27.6994 20.0391 27.7954 20.4211 27.7954C21.0976 27.7954 21.4897 27.4837 21.4897 27.0475C21.4897 26.6447 21.1811 26.434 20.6713 26.3621L20.4312 26.328C20.2107 26.2995 20.0341 26.2567 20.0341 26.1031C20.0341 25.9351 20.2007 25.8347 20.48 25.8347C20.779 25.8347 21.0684 25.945 21.2103 26.0312L21.4308 25.6284ZM27.3854 25.7244C27.5172 25.523 27.7085 25.3886 28.0024 25.3886C28.1056 25.3886 28.2526 25.4078 28.3653 25.4511L28.2083 25.9209C28.1006 25.8775 27.9929 25.8633 27.8897 25.8633C27.5565 25.8633 27.3899 26.074 27.3899 26.4532V27.7378L26.8806 27.7378V25.4462H27.3854V25.7244ZM23.6557 25.4462H22.8227V24.7509H22.3078V25.4462H21.8327V25.9017H22.3078V26.947C22.3078 27.4788 22.5187 27.7954 23.1211 27.7954C23.3421 27.7954 23.5968 27.7285 23.7583 27.6182L23.6114 27.1912C23.4594 27.2774 23.2928 27.3207 23.1604 27.3207C22.9057 27.3207 22.8227 27.1671 22.8227 26.9372V25.9017H23.6557V25.4462ZM16.0402 26.2995V27.7378H15.5253V26.4625C15.5253 26.074 15.3587 25.8583 15.0109 25.8583C14.6727 25.8583 14.4376 26.0696 14.4376 26.4674V27.7378H13.9227V26.4625C13.9227 26.074 13.7516 25.8583 13.4134 25.8583C13.0651 25.8583 12.8396 26.0696 12.8396 26.4674V27.7378H12.3252V25.4462H12.8351V25.7288C13.0263 25.4605 13.2709 25.3886 13.5211 25.3886C13.8789 25.3886 14.1336 25.5422 14.2952 25.7963C14.5111 25.4747 14.8196 25.3836 15.1186 25.3886C15.6874 25.3935 16.0402 25.7579 16.0402 26.2995Z" fill="white"/>
<path d="M28.9811 21.5522H21.2617V7.98047H28.9811V21.5522Z" fill="white"/>
<path d="M21.7515 14.7666C21.7515 12.0135 23.0691 9.56114 25.121 7.98073C23.6205 6.82506 21.7268 6.13527 19.6688 6.13527C14.7966 6.13527 10.8472 9.99959 10.8472 14.7666C10.8472 19.5336 14.7966 23.3979 19.6688 23.3979C21.7268 23.3979 23.6205 22.7082 25.121 21.5525C23.0691 19.9721 21.7515 17.5197 21.7515 14.7666Z" fill="white"/>
<path d="M21.7515 14.7666C21.7515 12.0135 23.0691 9.56114 25.121 7.98073C23.6205 6.82506 21.7268 6.13527 19.6688 6.13527C14.7966 6.13527 10.8472 9.99959 10.8472 14.7666C10.8472 19.5336 14.7966 23.3979 19.6688 23.3979C21.7268 23.3979 23.6205 22.7082 25.121 21.5525C23.0691 19.9721 21.7515 17.5197 21.7515 14.7666" stroke="#0ECB81" stroke-width="0.91274"/>
<path d="M39.395 14.7666C39.395 19.5336 35.4455 23.3979 30.5733 23.3979C28.5153 23.3979 26.6216 22.7082 25.1206 21.5525C27.173 19.9721 28.4906 17.5197 28.4906 14.7666C28.4906 12.0135 27.173 9.56114 25.1206 7.98073C26.6216 6.82506 28.5153 6.13527 30.5733 6.13527C35.4455 6.13527 39.395 9.99959 39.395 14.7666Z" fill="white"/>
<path d="M39.395 14.7666C39.395 19.5336 35.4455 23.3979 30.5733 23.3979C28.5153 23.3979 26.6216 22.7082 25.1206 21.5525C27.173 19.9721 28.4906 17.5197 28.4906 14.7666C28.4906 12.0135 27.173 9.56114 25.1206 7.98073C26.6216 6.82506 28.5153 6.13527 30.5733 6.13527C35.4455 6.13527 39.395 9.99959 39.395 14.7666" stroke="#0ECB81" stroke-width="0.91274"/>
</svg>
