<svg width="50" height="34" viewBox="0 0 50 34" fill="none" xmlns="http://www.w3.org/2000/svg">
<rect width="50" height="34" rx="4" fill="#0ECB81"/>
<path fill-rule="evenodd" clip-rule="evenodd" d="M9.6382 12.3259C9.65449 12.3259 9.67234 12.3256 9.6916 12.3252C10.0705 12.3189 10.9963 12.3033 11.3998 13.6459C11.6853 14.5962 12.1402 16.1529 12.7645 18.3159H13.0187C13.6881 16.0355 14.148 14.4788 14.3983 13.6459C14.801 12.3057 15.7717 12.3188 16.2424 12.3252C16.2724 12.3256 16.3003 12.326 16.3259 12.326L19.6308 12.326V22.4627H16.2624V16.489H16.0365L14.1588 22.4627H11.6244L9.74668 16.4845H9.5208V22.4627H6.15234V12.326L9.6382 12.3259ZM24.4679 12.3259V18.3041H24.7366L27.0207 13.3883C27.4641 12.41 28.4091 12.3259 28.4091 12.3259H31.6688V22.4626H28.23V16.4845H27.9613L25.7219 21.4003C25.2786 22.3741 24.2888 22.4626 24.2888 22.4626H21.0291V12.3259H24.4679ZM39.9009 19.4432C41.5687 19.4432 43.0751 18.4833 43.5547 17.143H33.0246V22.4627H36.2947V19.4432H39.9009Z" fill="white"/>
<path d="M40.0585 12.3262H32.853C33.0245 14.5829 34.9955 16.5149 37.036 16.5149H43.7819C44.1711 14.6393 42.831 12.3262 40.0585 12.3262Z" fill="white"/>
</svg>
