<svg width="12" height="11" viewBox="0 0 12 11" fill="none" xmlns="http://www.w3.org/2000/svg">
<path fill-rule="evenodd" clip-rule="evenodd" d="M12 5.5C12 5.70835 11.921 5.90816 11.7804 6.05548C11.6397 6.20281 11.449 6.28557 11.2501 6.28557H2.56155L5.7817 9.65725C5.85142 9.73029 5.90673 9.817 5.94446 9.91243C5.9822 10.0079 6.00162 10.1101 6.00162 10.2134C6.00162 10.3167 5.9822 10.419 5.94446 10.5144C5.90673 10.6099 5.85142 10.6966 5.7817 10.7696C5.71197 10.8427 5.6292 10.9006 5.5381 10.9401C5.447 10.9797 5.34936 11 5.25075 11C5.15215 11 5.05451 10.9797 4.96341 10.9401C4.87231 10.9006 4.78954 10.8427 4.71981 10.7696L0.220316 6.05619C0.150479 5.98321 0.0950707 5.89652 0.0572652 5.80108C0.0194598 5.70564 0 5.60333 0 5.5C0 5.39667 0.0194598 5.29436 0.0572652 5.19892C0.0950707 5.10348 0.150479 5.01679 0.220316 4.94381L4.71981 0.23038C4.86063 0.0828702 5.05161 0 5.25075 0C5.4499 0 5.64088 0.0828702 5.7817 0.23038C5.92251 0.377889 6.00162 0.577955 6.00162 0.786565C6.00162 0.995175 5.92251 1.19524 5.7817 1.34275L2.56155 4.71443H11.2501C11.449 4.71443 11.6397 4.79719 11.7804 4.94452C11.921 5.09184 12 5.29165 12 5.5Z" fill="#909090"/>
</svg>
