<svg width="50" height="50" viewBox="0 0 50 50" fill="none" xmlns="http://www.w3.org/2000/svg">
<g clip-path="url(#clip0_138_25)">
<path d="M25 50C31.6304 50 37.9893 47.3661 42.6777 42.6777C47.3661 37.9893 50 31.6304 50 25C50 18.3696 47.3661 12.0107 42.6777 7.32233C37.9893 2.63392 31.6304 -8.0296e-07 25 -1.09278e-06C18.3696 -1.38261e-06 12.0107 2.63392 7.32233 7.32233C2.63392 12.0107 -8.0296e-07 18.3696 -1.09278e-06 25C-1.38261e-06 31.6304 2.63392 37.9893 7.32233 42.6777C12.0107 47.3661 18.3696 50 25 50ZM14.0625 26.5625C13.6481 26.5625 13.2507 26.3979 12.9576 26.1049C12.6646 25.8118 12.5 25.4144 12.5 25C12.5 24.5856 12.6646 24.1882 12.9576 23.8951C13.2507 23.6021 13.6481 23.4375 14.0625 23.4375L32.1656 23.4375L25.4562 16.7312C25.1629 16.4379 24.998 16.0399 24.998 15.625C24.998 15.2101 25.1629 14.8121 25.4562 14.5187C25.7496 14.2254 26.1476 14.0605 26.5625 14.0605C26.9774 14.0605 27.3754 14.2254 27.6688 14.5187L37.0437 23.8937C37.1893 24.0389 37.3047 24.2113 37.3835 24.4011C37.4622 24.591 37.5028 24.7945 37.5028 25C37.5028 25.2055 37.4622 25.409 37.3835 25.5989C37.3047 25.7887 37.1893 25.9611 37.0437 26.1063L27.6687 35.4812C27.3754 35.7746 26.9774 35.9395 26.5625 35.9395C26.1476 35.9395 25.7496 35.7746 25.4562 35.4812C25.1629 35.1879 24.998 34.7899 24.998 34.375C24.998 33.9601 25.1629 33.5621 25.4562 33.2687L32.1656 26.5625L14.0625 26.5625Z" fill="#0ECB81"/>
</g>
<defs>
<clipPath id="clip0_138_25">
<rect width="50" height="50" fill="white" transform="translate(50) rotate(90)"/>
</clipPath>
</defs>
</svg>
