<svg width="56" height="42" viewBox="0 0 56 42" fill="none" xmlns="http://www.w3.org/2000/svg">
<g clip-path="url(#clip0_133_156)">
<path d="M3.07504 36.6005H0V34.7202H8.38918V36.6042H5.31414V41.7962H3.07504V36.6005Z" fill="#222220"/>
<path d="M9.18018 41.7773V34.731H11.4193V41.7773H9.18018Z" fill="#222220"/>
<path d="M18.7002 38.5883V34.7202H20.7601V41.7666H18.8494L15.0131 37.8762V41.7777H12.9531V34.7313H14.9534L18.7002 38.5883Z" fill="#222220"/>
<path d="M24.4882 41.7773H22.3237V34.731H24.4882V37.3863H25.0853L27.6976 34.731H30.4144L26.9512 38.1132L30.5487 41.7921H27.664L25.0816 39.1219H24.4845L24.4882 41.7773Z" fill="#222220"/>
<path d="M39.6958 38.2617C39.6958 40.3682 37.9492 42 35.0533 42C32.1574 42 30.396 40.3682 30.396 38.2617C30.396 36.1552 32.1425 34.5234 35.0533 34.5234C37.9642 34.5234 39.6958 36.1552 39.6958 38.2617ZM37.4268 38.2617C37.4268 37.1046 36.4864 36.2591 35.0533 36.2591C33.6203 36.2591 32.6799 37.1046 32.6799 38.2617C32.6799 39.4188 33.6054 40.2792 35.0533 40.2792C36.5013 40.2792 37.4268 39.4188 37.4268 38.2617Z" fill="#222220"/>
<path d="M42.9164 36.5111V37.7868H47.6932V39.2703H42.9164V41.7773H40.752V34.731H47.8723V36.5259L42.9164 36.5111Z" fill="#222220"/>
<path d="M51.0442 36.5111V37.7868H55.821V39.2703H51.0442V41.7773H48.8872V34.731H56.0076V36.5259L51.0442 36.5111Z" fill="#222220"/>
<path d="M42.6886 12.5277L43.0618 11.2816L41.7668 11.3224C41.1693 11.299 40.5919 11.1017 40.1062 10.755C40.1659 10.755 40.2219 10.755 40.2816 10.755C40.6702 10.754 41.0508 10.6451 41.3804 10.4406C41.7101 10.2362 41.9758 9.94432 42.1475 9.59788L42.7035 8.37033C42.2557 8.37411 41.8081 8.34809 41.3638 8.29245C40.9403 8.19264 40.5591 7.963 40.2741 7.63603C40.0826 7.43283 39.8516 7.2705 39.5949 7.15892C39.3383 7.04735 39.0615 6.98886 38.7814 6.98702C38.5596 6.988 38.3393 7.02303 38.1283 7.09086C38.1598 6.99122 38.1848 6.88964 38.2029 6.78675C38.2905 6.06382 38.0866 5.33583 37.6357 4.76185L36.6654 3.56397L36.0609 4.97324C35.9655 5.17322 35.8188 5.34464 35.6354 5.4702C35.5322 4.96868 35.283 4.50833 34.9189 4.14622C34.6166 3.83831 34.2549 3.5942 33.8554 3.42852C33.4559 3.26283 33.0269 3.17898 32.594 3.18199C32.4416 3.18122 32.2893 3.19238 32.1387 3.21536L30.9744 3.44159C31.0763 3.04893 31.2373 2.67383 31.452 2.32901L32.0939 1.30914L30.4556 1.48344L29.9369 0.370861L28.9293 0.886358L27.9889 0L27.0671 0.912318L26.0558 0.396821L25.5371 1.48344L23.9062 1.29801L24.5556 2.31417C24.7697 2.65887 24.9295 3.03406 25.0295 3.42675L23.91 3.20795H23.8727C23.7171 3.18452 23.5598 3.17336 23.4025 3.17457C22.9695 3.17135 22.5404 3.25511 22.1409 3.4208C21.7414 3.5865 21.3797 3.83072 21.0775 4.13881C20.7122 4.50057 20.4618 4.96092 20.3573 5.46278C20.1763 5.34032 20.0309 5.17279 19.9356 4.97695L19.331 3.56397L18.3421 4.76927C17.8989 5.34389 17.6994 6.06792 17.786 6.78675C17.8045 6.88958 17.8294 6.99115 17.8607 7.09086C17.6498 7.02262 17.4294 6.98758 17.2076 6.98702C16.9275 6.98907 16.6508 7.04766 16.3942 7.15922C16.1376 7.27079 15.9065 7.433 15.7149 7.63603C15.4316 7.95953 15.0551 8.18869 14.6364 8.29245C14.1893 8.35825 13.7372 8.38431 13.2854 8.37033L13.8415 9.59788C14.0135 9.94405 14.2793 10.2357 14.6089 10.4401C14.9385 10.6445 15.3189 10.7535 15.7074 10.755C15.7671 10.755 15.8231 10.755 15.8828 10.755C15.3984 11.1056 14.8208 11.3068 14.2221 11.3335L12.9048 11.2927L13.3041 12.5388C13.4474 13.0181 13.728 13.4455 14.1117 13.7689C14.4954 14.0923 14.9656 14.2976 15.4648 14.3597C15.4129 14.6828 15.2843 14.9889 15.0896 15.2527C14.8949 15.5165 14.6398 15.7303 14.3453 15.8766L13.3638 16.2771L13.9012 17.2042C14.1183 17.5406 14.4178 17.8167 14.7715 18.0067C15.1253 18.1968 15.5217 18.2945 15.9238 18.2909C16.1371 18.2904 16.3497 18.268 16.5583 18.2241C16.6062 18.4569 16.6659 18.6871 16.7374 18.9139C16.9222 19.4008 16.9353 19.9355 16.7747 20.4307L16.2896 21.4395L17.3718 21.7213C17.6158 21.7827 17.8665 21.8139 18.1182 21.814C18.3007 21.8121 18.4824 21.7885 18.6593 21.7436C18.7866 21.7153 18.9114 21.6769 19.0325 21.6286C19.1712 21.877 19.3418 22.1063 19.54 22.311C20.2341 23.0193 21.2193 23.3791 22.462 23.3791H23.3502L21.5141 24.1208L22.9098 24.7921C23.4703 25.0681 24.0445 25.3157 24.6302 25.5338L24.4548 26.0085L24.9362 26.2273C25.7351 26.5408 26.582 26.7164 27.4403 26.7465C27.4403 26.7465 27.8135 26.7465 28.015 26.7465C28.2165 26.7465 28.586 26.7465 28.586 26.7465C29.4391 26.7161 30.2808 26.5418 31.0751 26.231L31.5565 26.0122L31.3811 25.5375C31.9736 25.3112 32.554 25.055 33.1202 24.7698L34.4898 24.1097L32.6574 23.3679H33.5493C34.7958 23.3679 35.7884 22.9971 36.4751 22.2999C36.6736 22.0954 36.8442 21.866 36.9826 21.6175C37.1038 21.6653 37.2286 21.7038 37.3558 21.7324C37.5295 21.7725 37.7074 21.7924 37.8857 21.7918C38.1374 21.7912 38.388 21.76 38.6321 21.6991L39.7218 21.4135L39.2478 20.4233C39.0783 19.9223 39.0889 19.3784 39.2777 18.8842C39.3523 18.658 39.4195 18.4281 39.4718 18.2019C39.6816 18.2458 39.8954 18.2682 40.1099 18.2686C40.5154 18.2716 40.9147 18.1708 41.2696 17.9759C41.6245 17.7811 41.923 17.4987 42.1363 17.156L42.6662 16.24L41.6847 15.8395C41.3899 15.6937 41.1344 15.48 40.9396 15.2161C40.7449 14.9523 40.6165 14.6459 40.5652 14.3226C41.0634 14.2578 41.5323 14.0515 41.9155 13.7286C42.2988 13.4056 42.5801 12.9796 42.7259 12.5017L42.6886 12.5277Z" fill="white"/>
<path d="M27.9891 3.8123C26.9479 3.8123 26.1679 4.15349 26 4.55402L27.9891 5.33283L29.9819 4.55032C29.8139 4.14979 29.034 3.80859 27.9891 3.80859" fill="white"/>
<path d="M28.0149 24.4767H27.9888C27.3419 24.4711 26.698 24.3889 26.0707 24.2319L25.5557 25.5893C27.1503 26.0461 28.8423 26.0461 30.4369 25.5893L29.9331 24.2356C29.3057 24.3924 28.6618 24.4746 28.0149 24.4804" fill="white"/>
<path d="M31.8249 23.1343C31.2787 23.4054 30.7107 23.6312 30.127 23.8092L30.5337 24.9218C31.1848 24.752 31.8173 24.5185 32.422 24.2246L31.5749 23.9465L31.8249 23.1343Z" fill="white"/>
<path d="M24.1674 23.1343L24.4174 23.9465L23.5703 24.2246C24.1739 24.5179 24.8052 24.7515 25.4549 24.9218L25.8654 23.8092C25.2817 23.6311 24.7137 23.4054 24.1674 23.1343Z" fill="white"/>
<path d="M27.9887 2.51825C28.7359 2.51054 29.4734 2.68769 30.1345 3.03375C30.1982 2.82018 30.2755 2.61084 30.3659 2.40699L30.142 2.43295L29.9069 2.45891L29.8061 2.24752L29.5076 1.62077L28.9627 1.90262L28.75 2.01017L28.5895 1.85441L27.9887 1.25732L27.4028 1.85441L27.2424 2.00646L27.0296 1.89891L26.4811 1.61706L26.1862 2.24381L26.0855 2.4552L25.8504 2.42924L25.6265 2.40328C25.7165 2.60728 25.7937 2.8166 25.8578 3.03004C26.515 2.68794 27.2469 2.51216 27.9887 2.51825Z" fill="white"/>
<path d="M39.9754 9.77969C40.075 9.81427 40.1797 9.83182 40.2852 9.83161C40.4946 9.82974 40.6997 9.77196 40.8789 9.6643C41.0581 9.55665 41.205 9.40308 41.304 9.21969C40.6492 9.11268 40.0519 8.78378 39.6134 8.28883C39.5095 8.17336 39.3825 8.08073 39.2405 8.01687C39.0985 7.95301 38.9446 7.91932 38.7887 7.91797C38.5449 7.92251 38.3071 7.99442 38.1021 8.12565C39.1582 8.68565 39.3746 9.58313 39.968 9.7834" fill="white"/>
<path d="M15.7111 9.83141C15.8154 9.83164 15.9189 9.81408 16.0172 9.77949C16.6217 9.57923 16.8382 8.66691 17.8831 8.12174C17.678 7.99051 17.4403 7.9186 17.1964 7.91406C17.0399 7.9149 16.8853 7.94833 16.7426 8.01221C16.5999 8.07609 16.4723 8.16899 16.3679 8.28492C15.9304 8.77913 15.3346 9.10797 14.6812 9.21578C14.7802 9.39918 14.927 9.55274 15.1062 9.6604C15.2855 9.76805 15.4905 9.82584 15.6999 9.8277" fill="white"/>
<path d="M40.259 13.4253H40.3038C41.4233 13.4253 41.7965 12.246 41.7965 12.246H41.7741C41.1908 12.2264 40.6187 12.0805 40.0979 11.8185C39.5771 11.5565 39.1201 11.1848 38.7588 10.7292C37.9938 9.76122 37.3631 8.91195 36.1241 8.57818L36.001 8.55592L35.9749 8.43354C35.9413 8.2444 36.0719 8.06268 36.348 7.87725C38.061 6.76467 36.8966 5.34427 36.8966 5.34427C36.8966 5.34427 36.4078 6.4791 35.3143 6.4791H35.2322C35.107 6.47681 34.9822 6.46441 34.859 6.44202L34.6575 6.40493C34.7397 6.12115 34.7421 5.82041 34.6645 5.53537C34.5868 5.25032 34.4321 4.99184 34.2172 4.78798C34.0023 4.56911 33.745 4.3958 33.4609 4.27851C33.1767 4.16123 32.8716 4.1024 32.564 4.10559C32.4539 4.10431 32.344 4.113 32.2356 4.13155C32.6087 4.62109 32.8886 5.43698 32.452 5.94136C32.0788 6.37526 31.1533 6.39381 31.1533 7.05394C31.1533 7.32838 31.4108 7.64361 31.8698 7.92917C33.2543 8.79698 34.6277 9.94665 35.2024 11.4857C35.9151 13.4068 35.1128 14.6825 33.9634 15.4169C34.2127 15.6258 34.5197 15.755 34.8441 15.7877C34.9523 15.7877 35.0531 15.7877 35.1501 15.7877C35.7505 15.8121 36.3409 15.63 36.822 15.2722C36.7398 15.7763 36.5247 16.2497 36.1988 16.6444C35.9176 16.9691 35.566 17.2263 35.1704 17.3965C34.7748 17.5667 34.3456 17.6456 33.9149 17.6272C33.9148 17.8007 33.952 17.9721 34.0241 18.1301C34.0962 18.2881 34.2015 18.429 34.3328 18.5432C34.6303 18.7417 34.9702 18.8686 35.3255 18.9141C35.3255 18.9141 34.0268 19.1774 33.8813 21.0836C33.8848 21.5683 33.7668 22.0463 33.538 22.4743H33.5604C36.5757 22.4743 36.4973 19.9043 36.4973 19.9043C36.5755 20.1404 36.7132 20.3527 36.8975 20.5209C37.0817 20.6891 37.3063 20.8075 37.5497 20.8648C37.6522 20.8902 37.7575 20.9027 37.8632 20.9019C38.0343 20.9008 38.2046 20.8796 38.3707 20.8388C38.0982 20.1218 38.0982 19.3307 38.3707 18.6137C38.5829 18.0187 38.6853 17.3905 38.673 16.7594C38.8428 16.966 39.0596 17.1296 39.3055 17.2366C39.5514 17.3436 39.8194 17.3911 40.0873 17.375C40.3254 17.3792 40.5607 17.3237 40.7714 17.2135C40.9822 17.1033 41.1615 16.942 41.2927 16.7445C39.2813 15.9138 39.4828 13.2399 39.4828 13.2399C39.7141 13.3805 39.9804 13.4537 40.2515 13.4513L40.259 13.4253ZM39.647 16.2476C38.8297 15.8471 38.311 14.7827 38.1878 14.3933C38.0647 16.4849 37.0235 17.9461 35.8256 19.3554C35.4557 19.7786 35.1684 20.2665 34.9785 20.7943C35.0777 20.2622 35.3057 19.762 35.6427 19.3369C36.7623 17.9869 37.8482 16.3069 37.9266 14.3673C37.9897 13.1887 37.696 12.0184 37.0832 11.0073C37.2743 11.5553 37.3027 12.1463 37.165 12.7098C37.0274 13.2733 36.7295 13.7857 36.307 14.1856C36.307 14.1856 38.3632 11.7194 35.4524 9.19381C34.2955 8.23328 33.0267 7.6399 32.3736 7.21712C34.7284 7.98109 35.8816 7.13924 35.8816 7.13924C35.56 7.387 35.1889 7.56379 34.7932 7.65779C34.3974 7.7518 33.986 7.76087 33.5865 7.6844C33.7507 7.76228 33.9223 7.84758 34.1052 7.944C36.0905 9.01579 37.8781 10.7811 38.1804 13.2251V13.2065C38.6431 15.606 39.6731 16.2216 39.6731 16.2216" fill="white"/>
<path d="M20.6634 18.8917C21.013 18.8514 21.3487 18.7321 21.6448 18.5431C21.7791 18.431 21.8876 18.2915 21.963 18.1341C22.0383 17.9767 22.0787 17.8051 22.0815 17.6308C21.6502 17.6493 21.2204 17.5704 20.8242 17.4002C20.428 17.23 20.0757 16.9728 19.7938 16.648C19.4544 16.2583 19.2252 15.7861 19.1296 15.2796C19.6098 15.639 20.2008 15.8213 20.8014 15.795C20.9022 15.795 21.003 15.795 21.1112 15.795C21.4369 15.7629 21.7452 15.6336 21.9956 15.4242C20.8462 14.6825 20.0401 13.4178 20.7529 11.4931C21.3239 9.95399 22.7009 8.80061 24.0855 7.9365C24.5445 7.65094 24.802 7.332 24.802 7.06127C24.802 6.41598 23.8802 6.39743 23.5033 5.94869C23.0667 5.44432 23.3391 4.63213 23.716 4.13889C23.6076 4.12027 23.4976 4.11158 23.3876 4.11293C23.0799 4.10974 22.7748 4.16856 22.4907 4.28585C22.2065 4.40313 21.9493 4.57645 21.7344 4.79531C21.5191 4.99894 21.3641 5.25741 21.2865 5.54254C21.2088 5.82767 21.2114 6.12851 21.294 6.41227L21.0925 6.45306C20.9693 6.47508 20.8445 6.48748 20.7193 6.49015H20.641C19.5438 6.49015 19.0587 5.35531 19.0587 5.35531C19.0587 5.35531 17.913 6.76458 19.6259 7.88088C19.9207 8.07001 20.0513 8.25174 19.9991 8.43717L19.973 8.55955L19.8498 8.5818C18.6108 8.91558 17.9839 9.76485 17.2151 10.7328C16.8549 11.1842 16.4005 11.5526 15.8831 11.8126C15.3658 12.0725 14.7978 12.2178 14.2185 12.2385H14.1812C14.1812 12.2385 14.5543 13.4178 15.6739 13.4178H15.7261C15.9972 13.4203 16.2636 13.347 16.4949 13.2064C16.4949 13.2064 16.6927 15.8803 14.6812 16.7111C14.8127 16.9083 14.9921 17.0694 15.2028 17.1795C15.4134 17.2897 15.6486 17.3454 15.8866 17.3415C16.1546 17.3576 16.4226 17.3102 16.6685 17.2032C16.9144 17.0961 17.1312 16.9325 17.301 16.7259C17.2888 17.357 17.3912 17.9852 17.6032 18.5802C17.8751 19.2973 17.8751 20.0883 17.6032 20.8054C17.7681 20.8459 17.9372 20.8671 18.107 20.8684C18.2127 20.8694 18.3181 20.8569 18.4205 20.8313C18.6639 20.774 18.8885 20.6556 19.0728 20.4874C19.257 20.3193 19.3948 20.107 19.4729 19.8708C19.4729 19.8708 19.3945 22.4409 22.4099 22.4409H22.4323C22.2054 22.0122 22.0887 21.5345 22.0927 21.0501C21.9508 19.1439 20.6484 18.8806 20.6484 18.8806L20.6634 18.8917ZM20.1633 19.3442C18.9542 17.9349 17.9242 16.4737 17.7786 14.3635C17.6518 14.7344 17.1368 15.8099 16.3195 16.2178C16.3195 16.2178 17.3458 15.6022 17.8122 13.2027V13.2213C18.1182 10.7773 19.9021 9.012 21.8911 7.94021C22.074 7.84008 22.2457 7.75849 22.4099 7.68061C22.0051 7.76206 21.5874 7.75551 21.1855 7.6614C20.7835 7.5673 20.4068 7.38788 20.0812 7.13545C20.0812 7.13545 21.2306 7.9773 23.5891 7.21333C22.9472 7.63982 21.6822 8.23319 20.5253 9.19372C17.6294 11.7193 19.7005 14.1855 19.7005 14.1855C19.278 13.7856 18.9801 13.2733 18.8425 12.7097C18.7049 12.1462 18.7333 11.5552 18.9243 11.0072C18.3105 12.0178 18.0166 13.1885 18.0809 14.3672C18.1593 16.3105 19.2341 17.9868 20.3611 19.3368C20.6995 19.7615 20.9287 20.2618 21.0291 20.7943C20.8371 20.2666 20.5486 19.7788 20.1782 19.3553" fill="white"/>
<path d="M25.75 9.49428C25.7985 9.5462 25.847 9.60554 25.8955 9.66117L25.9291 9.70196L26.0597 9.87997L26.0896 9.92077C26.1381 9.99494 26.1866 10.0765 26.2351 10.1544C26.4015 10.4853 26.6497 10.7689 26.9565 10.9784C27.2633 11.1879 27.6186 11.3166 27.9891 11.3523C28.3586 11.3163 28.7129 11.1879 29.0189 10.9791C29.325 10.7703 29.5728 10.4879 29.7393 10.1581C29.7878 10.0765 29.8364 9.99494 29.8886 9.92077L29.911 9.88739C29.9558 9.82434 30.0006 9.7613 30.0453 9.70196L30.0752 9.66487C30.1237 9.60554 30.1722 9.5462 30.2245 9.49428L30.2469 9.47203C30.4738 9.23521 30.7616 9.06463 31.0791 8.97878L30.9298 8.9009L30.3178 8.53004L29.6908 8.15918L27.9891 9.08633L26.3098 8.17772L25.6828 8.54858L25.0708 8.91944L24.9141 9.00845C25.2293 9.08422 25.5181 9.24309 25.75 9.46832L25.7761 9.49428H25.75ZM27.3248 9.42011H28.7355V9.90593C28.6709 9.84386 28.5931 9.79697 28.5078 9.76873C28.4226 9.74049 28.332 9.73161 28.2429 9.74276V10.44C28.2412 10.6128 28.2822 10.7835 28.3623 10.9369H27.6756C27.7611 10.7862 27.8072 10.6167 27.81 10.4437V9.74646C27.7208 9.73532 27.6303 9.7442 27.545 9.77244C27.4598 9.80068 27.382 9.84757 27.3174 9.90964L27.3248 9.42011Z" fill="white"/>
<path d="M27.8506 8.48172V5.64464L26.0332 5.03271L26.496 7.78821L27.8506 8.48172ZM27.4774 6.34185V6.79801L27.3879 6.75722C27.2509 6.71135 27.1242 6.63957 27.0147 6.54583C26.9172 6.4846 26.8337 6.40383 26.7694 6.30868C26.7051 6.21353 26.6616 6.10609 26.6415 5.99324L27.4774 6.34185Z" fill="white"/>
<path d="M29.4813 7.78812L29.959 5.04004L28.1416 5.65196V8.48905L29.4813 7.78812ZM28.5334 6.34176L29.3582 5.99686C29.3381 6.1097 29.2945 6.21714 29.2303 6.31229C29.166 6.40745 29.0825 6.48822 28.985 6.54944C28.8755 6.64318 28.7488 6.71497 28.6118 6.76083L28.526 6.80163L28.5334 6.34176Z" fill="white"/>
<path d="M25.2793 15.0605C25.4408 15.1127 25.6096 15.139 25.7794 15.1384V15.0865C25.7898 15.0536 25.7986 15.0201 25.8055 14.9863C25.8324 14.8382 25.8473 14.6881 25.8503 14.5376C25.7486 14.4773 25.6658 14.39 25.6115 14.2854C25.5888 14.2233 25.5471 14.1698 25.4922 14.1325C25.4372 14.0953 25.3719 14.0761 25.3055 14.0777C25.1402 14.0915 24.9811 14.1463 24.8427 14.2372C24.8199 14.3999 24.8477 14.5656 24.9224 14.7121C24.9971 14.8586 25.1152 14.9789 25.2607 15.0568" fill="white"/>
<path d="M29.2985 13.5552C28.9627 13.926 28.2984 14.5565 28.2685 14.5862L28.2275 14.627L26.1414 14.5936C26.1396 14.765 26.117 14.9356 26.0742 15.1017V15.1684L28.5559 15.6135C28.8134 15.4354 29.5262 14.9162 29.8023 14.716C29.632 14.4564 29.5692 14.1415 29.6269 13.837C29.5073 13.7626 29.4013 13.6686 29.3135 13.5589" fill="white"/>
<path d="M29.5825 11.0591C29.3819 11.2816 29.1362 11.4594 28.8616 11.5808C28.587 11.7023 28.2896 11.7646 27.989 11.7637C27.9132 11.7676 27.8372 11.7676 27.7614 11.7637C27.686 11.7576 27.6112 11.7465 27.5374 11.7303C27.498 11.8998 27.5123 12.0773 27.5785 12.2384C27.6318 12.3415 27.7055 12.4328 27.7953 12.5067C27.8851 12.5807 27.9891 12.6358 28.101 12.6686L28.1868 12.702V12.7947C28.1971 12.9836 28.2695 13.1639 28.3929 13.3079C28.5162 13.4519 28.6838 13.5518 28.8697 13.5921C28.9779 13.4808 29.075 13.3807 29.1496 13.2991C29.0831 13.1697 29.0599 13.0225 29.0834 12.8791C29.1069 12.7357 29.1759 12.6035 29.2802 12.5017C29.25 12.72 29.2857 12.9422 29.3826 13.1402C29.4796 13.3383 29.6336 13.5033 29.8251 13.6143L29.9296 13.6625L29.8997 13.7738C29.8317 13.9902 29.8508 14.2245 29.9532 14.4272C30.0555 14.6299 30.233 14.7852 30.4483 14.8604L30.5864 14.9123L30.5266 15.0458C30.4368 15.2468 30.4282 15.4744 30.5025 15.6815C30.5768 15.8886 30.7284 16.0593 30.926 16.1584H32.4672V14.9346C32.2562 14.9073 32.0599 14.8126 31.9078 14.6647C31.7557 14.5169 31.656 14.324 31.6238 14.115C31.3908 14.0849 31.1791 13.965 31.0342 13.7812C30.9514 13.6653 30.9038 13.5281 30.8972 13.3861C30.8906 13.2441 30.9252 13.1032 30.9969 12.9801C31.0003 13.2282 31.0915 13.4671 31.2544 13.6551C31.3885 13.794 31.5689 13.8796 31.7619 13.8962H31.8738V14.0111C31.8835 14.1739 31.9469 14.3289 32.0542 14.4522C32.1614 14.5756 32.3066 14.6604 32.4672 14.6935V12.1939C32.4818 11.8039 32.5665 11.4195 32.7172 11.0591H29.5825Z" fill="white"/>
<path d="M25.4139 12.2049L25.3691 13.7959L25.552 13.8219L25.9961 12.2977L25.7722 11.8267L25.4139 12.2049Z" fill="white"/>
<path d="M30.3177 19.4997H30.3625C30.6386 19.5775 30.7095 20.5677 31.1947 20.6567C31.2381 20.6612 31.2818 20.6612 31.3253 20.6567C31.3874 20.657 31.4486 20.6419 31.5033 20.6128C31.558 20.5836 31.6046 20.5414 31.6387 20.4898C31.6387 20.4898 31.3962 20.119 31.2133 19.852C30.9707 19.5145 30.7842 19.1102 30.3289 19.1102H30.2953C30.2099 19.1134 30.1271 19.1404 30.0564 19.1881C29.9055 19.0899 29.7293 19.0371 29.5489 19.0361C29.3414 19.0612 29.1366 19.1047 28.9369 19.1659L27.9293 19.0657C27.7933 19.0336 27.6753 18.9497 27.6009 18.8321V18.8061C27.6009 18.7802 27.6009 18.7505 27.6009 18.7246C27.6074 18.4563 27.5219 18.1938 27.3585 17.9802C27.195 17.7665 26.9634 17.6145 26.7015 17.5489C26.7015 17.5489 26.7276 17.3932 26.6679 17.3338L26.444 17.6008L25.6977 17.23L26.2201 17.8345L25.7499 18.3537C25.7283 18.3744 25.7141 18.4015 25.7094 18.4309C25.7046 18.4604 25.7097 18.4905 25.7238 18.5169L25.9141 18.6838L26.1567 18.5391C26.1762 18.5337 26.1968 18.5337 26.2164 18.5391C26.2836 18.5391 26.3843 18.5391 26.4739 18.5391C26.5634 18.5391 26.6567 18.5169 26.6679 18.4279C26.6381 18.732 26.3545 19.2586 26.5411 19.674L26.6791 19.9892L25.7872 19.8631L25.3767 20.564C25.3151 20.6564 25.2822 20.7647 25.2822 20.8755C25.2822 20.9864 25.3151 21.0947 25.3767 21.1871L25.5335 21.3799C25.642 21.2711 25.7327 21.1459 25.8021 21.0091L25.7312 20.9312C25.7054 20.9066 25.6893 20.8736 25.6859 20.8382C25.6824 20.8028 25.6919 20.7674 25.7126 20.7383L25.9738 20.3081L27.0262 20.5529L27.0822 20.4602C27.1108 20.4105 27.153 20.3699 27.2038 20.343C27.2546 20.3161 27.3121 20.304 27.3695 20.3081C27.4167 20.3046 27.4641 20.3046 27.5113 20.3081C27.7878 20.3637 28.0689 20.3935 28.351 20.3971C28.5097 20.4128 28.67 20.397 28.8225 20.3505C28.975 20.304 29.1166 20.2279 29.2392 20.1264C29.6124 20.6901 30.3923 20.7791 30.3326 21.0647L30.1273 22.0252C30.2617 22.0252 30.3923 22.0252 30.5005 21.9955L30.6946 20.9942C30.717 20.8867 30.7356 20.7383 30.7356 20.7383C30.59 20.6159 30.4642 20.4721 30.3625 20.3118C30.2244 20.0522 30.299 19.915 30.1721 19.5701C30.1846 19.5472 30.2028 19.528 30.2251 19.5143C30.2474 19.5006 30.2728 19.493 30.299 19.4922L30.3177 19.4997ZM26.3582 18.083C26.3461 18.0825 26.3342 18.0796 26.3233 18.0745C26.3123 18.0693 26.3025 18.062 26.2945 18.053C26.2865 18.044 26.2804 18.0334 26.2766 18.022C26.2728 18.0106 26.2713 17.9985 26.2724 17.9865C26.2728 17.9745 26.2757 17.9627 26.2809 17.9518C26.2861 17.941 26.2934 17.9312 26.3025 17.9233C26.3116 17.9153 26.3222 17.9092 26.3337 17.9054C26.3452 17.9017 26.3573 17.9002 26.3694 17.9012C26.3936 17.9012 26.4169 17.9108 26.434 17.9279C26.4512 17.9449 26.4608 17.968 26.4608 17.9921C26.4608 18.0162 26.4512 18.0393 26.434 18.0563C26.4169 18.0734 26.3936 18.083 26.3694 18.083" fill="white"/>
<path d="M24.9401 20.3973C24.9401 20.3973 25.2909 20.2527 25.3133 20.1526L25.2685 20.0376C25.2491 20.0057 25.2418 19.968 25.248 19.9313C25.2541 19.8945 25.2734 19.8612 25.3021 19.8373L25.6753 19.5777L26.306 19.6964C26.235 19.6011 26.1982 19.4849 26.2015 19.3663L25.6007 19.2402L25.0334 19.5814C24.9348 19.6541 24.8635 19.7575 24.8311 19.8752C24.7986 19.9928 24.8068 20.1179 24.8543 20.2304L24.9401 20.3973Z" fill="white"/>
<path d="M29.3921 22.0403H29.7653C29.7653 22.0403 30.0899 21.0983 30.1086 21.0686C29.8674 20.9568 29.632 20.8331 29.4033 20.6978C29.5003 20.8424 29.7317 21.0019 29.6869 21.128L29.3921 22.0403Z" fill="white"/>
<path d="M32.4672 16.459H23.5107V19.7967C23.5107 21.1652 24.5071 22.0219 25.9775 22.0219C27.2053 22.0219 27.5299 22.0701 27.9889 22.5188C28.1319 22.3667 28.3054 22.2461 28.4983 22.165C28.6912 22.0838 28.8991 22.0439 29.1085 22.0479V21.9959L29.4033 21.1392L28.9256 20.5978C28.7335 20.6553 28.5327 20.6792 28.3323 20.6683C28.034 20.6646 27.7367 20.6335 27.4441 20.5755C27.4131 20.572 27.3818 20.572 27.3508 20.5755C27.3098 20.5755 27.3098 20.5755 27.2986 20.5978L27.2426 20.6905L27.1418 20.8574L26.9478 20.8129L26.0894 20.6126L25.97 20.8055V20.8277L26.0745 20.9427L26.0297 21.091C25.9514 21.2727 25.8387 21.4376 25.6976 21.5769L25.4812 21.8068L25.2871 21.562L25.1416 21.3803C25.0648 21.2802 25.0149 21.1623 24.9966 21.0377C24.9783 20.9131 24.9922 20.786 25.0371 20.6683L24.7945 20.7684L24.6863 20.5347L24.6116 20.3679C24.5373 20.1977 24.5238 20.0075 24.5734 19.8287C24.6229 19.6499 24.7326 19.4934 24.8841 19.3851L25.5744 19.0142L26.2313 19.144C26.2313 19.081 26.2723 18.8585 26.291 18.7991H26.2536L25.8805 18.94L25.5073 18.6879C25.489 18.6699 25.4745 18.6486 25.4646 18.625C25.4547 18.6014 25.4496 18.5762 25.4496 18.5506C25.4496 18.5251 25.4547 18.4998 25.4646 18.4763C25.4745 18.4527 25.489 18.4314 25.5073 18.4134L25.8618 17.8794L24.9624 16.7668L26.3432 17.3305L26.4365 17.2192L26.6231 16.9967L26.8358 17.197C26.8913 17.2505 26.9302 17.3187 26.9478 17.3936C27.3209 17.5419 28.0076 17.9758 28.0673 18.6804L27.8546 18.7657C27.8807 18.8009 27.9154 18.829 27.9554 18.8473L28.9406 18.9438L29.0301 18.9178C29.1974 18.8555 29.374 18.8217 29.5526 18.8177C29.731 18.8189 29.9069 18.8594 30.0676 18.9363C30.1384 18.911 30.2126 18.896 30.2878 18.8918H30.3363C30.5508 18.9108 30.7565 18.986 30.9322 19.1098C31.1079 19.2336 31.2474 19.4015 31.3364 19.5965L31.4446 19.7522C31.6275 20.0118 31.8701 20.3864 31.8775 20.4049L31.9857 20.5718L31.8514 20.7239C31.7904 20.8031 31.7119 20.8674 31.622 20.9117C31.532 20.9561 31.4331 20.9794 31.3327 20.9798C31.2731 20.9854 31.2131 20.9854 31.1535 20.9798C31.0896 20.9544 31.0294 20.9208 30.9744 20.8796C30.9744 20.9316 30.9744 20.9946 30.9446 21.0465L30.7729 21.9403C31.2652 21.8434 31.7065 21.575 32.0171 21.1833C32.3278 20.7916 32.4874 20.3025 32.4672 19.8041V16.459Z" fill="#FCE527"/>
<path d="M23.5103 16.1882H30.4851C30.3457 16.0428 30.2485 15.8626 30.2038 15.6667C30.1592 15.4708 30.1687 15.2665 30.2314 15.0756C30.1369 15.0307 30.0491 14.9733 29.9701 14.905C29.6977 15.1053 28.8506 15.7061 28.6491 15.8581L28.6043 15.8878L25.8726 15.3982H25.8166C25.7284 15.4034 25.6399 15.4034 25.5516 15.3982C25.5389 15.4568 25.5064 15.5093 25.4596 15.5471C25.4128 15.5848 25.3544 15.6056 25.2941 15.6059H25.2494C25.1789 15.5941 25.1159 15.5552 25.074 15.4976C25.0321 15.44 25.0147 15.3684 25.0254 15.2981V15.2388C24.8533 15.1146 24.7214 14.9431 24.6458 14.7455C24.5703 14.5479 24.5543 14.3327 24.6 14.1262L24.6299 14.0928L24.6709 14.0631C24.6709 14.0631 24.7232 14.0261 24.7941 13.989L24.5963 13.9593C24.5609 13.953 24.5294 13.9331 24.5085 13.904C24.4876 13.8749 24.4789 13.8389 24.4843 13.8035C24.487 13.7859 24.4933 13.769 24.5027 13.7538C24.5121 13.7386 24.5244 13.7254 24.5391 13.715C24.5537 13.7046 24.5702 13.6973 24.5877 13.6934C24.6053 13.6895 24.6234 13.6891 24.6411 13.6923L25.115 13.7665L25.1598 12.1124L25.8651 11.3707L26.3055 12.2904L25.8241 13.8666L26.242 13.9333C26.2774 13.9397 26.3089 13.9595 26.3298 13.9886C26.3508 14.0177 26.3594 14.0538 26.354 14.0891C26.3486 14.1205 26.3322 14.149 26.3075 14.1694C26.2829 14.1898 26.2517 14.2008 26.2196 14.2004H26.1972L25.8576 14.1447V14.1707C25.8954 14.2369 25.9527 14.29 26.0219 14.3228L28.1042 14.3561L28.6379 13.8332C28.4386 13.7648 28.2628 13.6418 28.1308 13.4784C27.9987 13.315 27.9158 13.1179 27.8915 12.9098C27.6322 12.8118 27.4201 12.6196 27.2981 12.372C27.1969 12.1376 27.1798 11.8758 27.2496 11.6303C26.921 11.5024 26.6243 11.305 26.3801 11.0518H23.2715C23.418 11.4156 23.4988 11.8023 23.5103 12.194V16.1882Z" fill="#FCE527"/>
<path d="M26.3879 17.909C26.3758 17.908 26.3637 17.9094 26.3522 17.9132C26.3407 17.917 26.3301 17.9231 26.321 17.931C26.3119 17.939 26.3046 17.9487 26.2994 17.9596C26.2942 17.9705 26.2913 17.9823 26.2908 17.9943C26.2898 18.0063 26.2913 18.0184 26.2951 18.0298C26.2989 18.0412 26.305 18.0517 26.313 18.0608C26.321 18.0698 26.3308 18.0771 26.3418 18.0822C26.3527 18.0874 26.3646 18.0903 26.3767 18.0907C26.4009 18.0907 26.4242 18.0812 26.4413 18.0641C26.4585 18.0471 26.4681 18.024 26.4681 17.9999C26.4681 17.9758 26.4585 17.9527 26.4413 17.9356C26.4242 17.9186 26.4009 17.909 26.3767 17.909" fill="#222220"/>
<path d="M32.4671 23.9797L31.9521 23.7832L32.0939 23.2529L32.2506 22.6743C31.5467 23.0327 30.8093 23.3221 30.0489 23.5384C29.6757 23.6423 29.407 23.6905 29.407 23.6905V24.0836C28.9491 24.1575 28.4863 24.1972 28.0225 24.2023H27.9889C27.525 24.1973 27.0622 24.1576 26.6044 24.0836V23.6905C26.6044 23.6905 26.3282 23.6423 25.9625 23.5384C25.202 23.3223 24.4646 23.0329 23.7607 22.6743L23.9137 23.2529L24.0592 23.7832L23.5405 23.9797L22.9658 24.1911C23.7385 24.5951 24.5452 24.9314 25.3766 25.1962L25.1788 25.7302C26.0753 26.07 27.0296 26.2337 27.9889 26.2123H28.0113C28.9743 26.2353 29.9326 26.0715 30.8325 25.7302L30.6348 25.1962C31.4637 24.9328 32.2679 24.5977 33.0381 24.1948L32.4671 23.9797ZM23.5741 24.2282L24.4212 23.9501L24.1712 23.1379C24.7175 23.409 25.2854 23.6348 25.8692 23.8129L25.4587 24.9254C24.8091 24.7549 24.1778 24.5214 23.5741 24.2282ZM27.9889 25.9342C27.1661 25.9254 26.3481 25.8094 25.5557 25.5893L26.0595 24.2356C26.6907 24.3921 27.3384 24.473 27.9889 24.4767H28.0299C28.6768 24.4707 29.3207 24.3886 29.9481 24.2319L30.437 25.5893C29.642 25.8089 28.8214 25.9236 27.9963 25.9305L27.9889 25.9342ZM30.534 24.9254L30.1235 23.8129C30.7073 23.6348 31.2752 23.409 31.8215 23.1379L31.5714 23.9501L32.4186 24.2282C31.8138 24.5219 31.1813 24.7554 30.5303 24.9254" fill="#222220"/>
<path d="M27.9888 2.84822C28.8333 2.82294 29.663 3.07302 30.3511 3.56028C30.4629 3.0104 30.6741 2.48519 30.9743 2.01008L30.1272 2.1065L29.6719 1.17193L28.821 1.60584L27.9888 0.797363L27.1678 1.60584L26.3207 1.17193L25.8803 2.1065L25.0332 2.01008C25.3284 2.48612 25.5345 3.01132 25.6415 3.56028C26.3257 3.07661 27.1494 2.82673 27.9888 2.84822ZM25.843 2.43286L26.0781 2.45882L26.1789 2.24743L26.4737 1.62067L27.0223 1.90253L27.235 2.01008L27.4029 1.85432L27.9888 1.25723L28.5896 1.85432L28.7576 2.0212L28.9703 1.91365L29.5151 1.6318L29.8137 2.25856L29.9145 2.46995L30.1496 2.44399L30.3735 2.41803C30.2831 2.62187 30.2058 2.83121 30.1421 3.04478C29.4786 2.70696 28.7437 2.53079 27.9982 2.53079C27.2526 2.53079 26.5177 2.70696 25.8542 3.04478C25.7901 2.83134 25.7128 2.62203 25.6228 2.41803L25.843 2.43286Z" fill="#222220"/>
<path d="M40.3037 13.7886C41.6621 13.7886 42.1174 12.4164 42.136 12.3571L42.289 11.875H41.7815C41.2514 11.8571 40.7316 11.7244 40.2584 11.4861C39.7853 11.2478 39.3703 10.9097 39.0423 10.4954L38.9416 10.3693C38.2474 9.49404 37.5906 8.65961 36.4114 8.27762C36.4581 8.23671 36.508 8.19951 36.5606 8.16636C36.8371 8.01055 37.0764 7.7974 37.2626 7.54142C37.4487 7.28544 37.5771 6.99264 37.6392 6.68292C37.7024 6.1173 37.5418 5.5494 37.1913 5.09934L36.8181 4.63576L36.5718 5.19205C36.5718 5.22543 36.1576 6.10808 35.3217 6.10808H35.2582H35.094C35.1151 5.81864 35.0726 5.52811 34.9695 5.2566C34.8664 4.98509 34.7052 4.73909 34.4969 4.53563C34.2476 4.28285 33.9496 4.08262 33.6207 3.94689C33.2917 3.81117 32.9387 3.74274 32.5825 3.7457C32.4488 3.7451 32.3153 3.75502 32.1832 3.77537L31.6122 3.88662L31.963 4.34649C32.2392 4.71735 32.4892 5.35894 32.1944 5.70013C32.0532 5.82229 31.8915 5.91893 31.7167 5.9857C31.3435 6.16 30.8062 6.40848 30.8062 7.03153C30.8062 7.43576 31.1234 7.85855 31.6943 8.21457C33.3849 9.27153 34.426 10.373 34.8776 11.5894C35.5754 13.4437 34.6649 14.5303 33.7804 15.0903L33.3849 15.3425L33.7319 15.6578C34.0415 15.9199 34.4243 16.0817 34.8291 16.1213C34.9485 16.1213 35.0604 16.1213 35.1687 16.1213C35.515 16.1227 35.8597 16.0727 36.1912 15.973C36.1086 16.1165 36.0124 16.2519 35.9038 16.3772C35.6556 16.6641 35.3447 16.8908 34.9947 17.0399C34.6448 17.1891 34.2652 17.2567 33.8849 17.2376H33.5528L33.5267 17.5677C33.5252 17.7962 33.5743 18.0223 33.6703 18.2299C33.7664 18.4375 33.9072 18.6216 34.0827 18.7693C34.1758 18.8504 34.2801 18.9179 34.3925 18.9695C33.841 19.5035 33.5256 20.2331 33.5155 20.9981C33.5248 21.431 33.4328 21.8601 33.2468 22.2517L32.8736 22.808H33.5379C34.6325 22.808 35.471 22.51 36.0531 21.9142C36.3553 21.5985 36.5801 21.2178 36.7099 20.8016C36.9256 20.9822 37.1814 21.1094 37.4563 21.1725C37.5872 21.2025 37.7212 21.2175 37.8556 21.217C38.0567 21.2164 38.2571 21.1927 38.4527 21.1465L38.8744 21.0352L38.6878 20.6421C38.454 20.0152 38.454 19.3258 38.6878 18.6988C38.8262 18.2892 38.9225 17.8668 38.9752 17.4379C39.3112 17.6081 39.6839 17.6947 40.0611 17.6901C40.3641 17.6946 40.6633 17.6228 40.9308 17.4815C41.1984 17.3401 41.4255 17.1337 41.5912 16.8816L41.7964 16.5107L41.4232 16.355C40.1731 15.8395 39.8969 14.4562 39.8447 13.707C39.9677 13.7318 40.0925 13.7467 40.2179 13.7515L40.3037 13.7886ZM41.2926 16.7184C41.1614 16.9158 40.982 17.0771 40.7713 17.1873C40.5606 17.2976 40.3253 17.3531 40.0872 17.3489C39.8193 17.3647 39.5514 17.3171 39.3056 17.2101C39.0597 17.1031 38.8429 16.9397 38.6729 16.7332C38.684 17.3646 38.5803 17.9928 38.3669 18.5876C38.0943 19.3046 38.0943 20.0957 38.3669 20.8127C38.2008 20.8535 38.0304 20.8747 37.8593 20.8758C37.7537 20.8765 37.6484 20.8641 37.5459 20.8387C37.3024 20.7814 37.0779 20.663 36.8936 20.4948C36.7094 20.3266 36.5716 20.1143 36.4935 19.8781C36.4935 19.8781 36.5718 22.4482 33.5565 22.4482H33.5341C33.7629 22.0201 33.8808 21.5422 33.8775 21.0575C34.0193 19.1513 35.3179 18.888 35.3179 18.888C34.9673 18.8494 34.6303 18.7314 34.3327 18.5431C34.1984 18.4309 34.0899 18.2915 34.0146 18.1341C33.9393 17.9767 33.8989 17.805 33.8961 17.6307C34.3302 17.6518 34.7634 17.5739 35.1625 17.4029C35.5616 17.2319 35.9161 16.9724 36.1987 16.6442C36.5402 16.2555 36.7708 15.783 36.8667 15.2758C36.3865 15.6352 35.7954 15.8175 35.1948 15.7913C35.0978 15.7913 34.9933 15.7913 34.8888 15.7913C34.5643 15.7586 34.2574 15.6293 34.0081 15.4204C35.1575 14.6787 35.9598 13.414 35.247 11.4893C34.6761 9.9502 33.299 8.79682 31.9145 7.93272C31.4555 7.64715 31.198 7.32821 31.198 7.05749C31.198 6.41219 32.1198 6.39364 32.4967 5.9449C32.9333 5.44053 32.6609 4.62835 32.2802 4.1351C32.3887 4.11654 32.4986 4.10786 32.6086 4.10914C32.9163 4.10595 33.2214 4.16478 33.5056 4.28206C33.7897 4.39935 34.047 4.57266 34.2618 4.79153C34.4768 4.99539 34.6315 5.25387 34.7091 5.53892C34.7868 5.82396 34.7844 6.12469 34.7022 6.40848L34.9037 6.44927C35.0269 6.47149 35.1517 6.48389 35.2769 6.48636H35.359C36.4524 6.48636 36.9413 5.35153 36.9413 5.35153C36.9413 5.35153 38.1019 6.77192 36.3927 7.88451C36.0979 8.07364 35.9673 8.25537 36.0195 8.4408L36.0457 8.56318L36.1688 8.58543C37.4078 8.91921 38.0347 9.76848 38.8035 10.7364C39.1614 11.1837 39.6118 11.5494 40.1244 11.8085C40.6369 12.0676 41.1995 12.2143 41.774 12.2384H41.7964C41.7964 12.2384 41.4232 13.4178 40.3037 13.4178H40.2514C39.9803 13.4202 39.714 13.347 39.4827 13.2064C39.4827 13.2064 39.2849 15.8803 41.2926 16.711" fill="#222220"/>
<path d="M37.9269 8.44095C38.3442 8.67726 38.7056 8.99974 38.9868 9.38665C39.1985 9.71357 39.5021 9.97148 39.86 10.1284C39.9959 10.1736 40.1384 10.1961 40.2817 10.1951C40.5613 10.1943 40.8352 10.1171 41.0735 9.97189C41.3118 9.82667 41.5052 9.61906 41.6326 9.37181L41.8491 8.8934L41.3229 8.86373C40.7586 8.76206 40.2463 8.47152 39.8712 8.04042C39.7328 7.89106 39.565 7.77154 39.3782 7.68924C39.1914 7.60695 38.9896 7.56365 38.7853 7.56201C38.4671 7.56746 38.1569 7.66124 37.8896 7.83274L37.4082 8.17022L37.9269 8.44095ZM38.7853 7.91433C38.9411 7.91568 39.095 7.94937 39.237 8.01323C39.379 8.07709 39.5061 8.16972 39.61 8.28519C40.0484 8.78014 40.6458 9.10904 41.3005 9.21605C41.2012 9.39919 41.0543 9.55254 40.8751 9.66015C40.696 9.76777 40.4911 9.82571 40.2817 9.82797C40.1763 9.82819 40.0715 9.81063 39.972 9.77605C39.3712 9.57579 39.1547 8.66347 38.1061 8.1183C38.311 7.98689 38.5488 7.91496 38.7927 7.91062" fill="#222220"/>
<path d="M38.1654 13.2064C37.8594 10.7625 36.0756 8.99716 34.0903 7.92537C33.9074 7.82895 33.7357 7.74365 33.5715 7.66577C33.9769 7.74753 34.3952 7.74113 34.7978 7.64703C35.2004 7.55292 35.5778 7.37334 35.9039 7.12061C35.9039 7.12061 34.7545 7.96246 32.396 7.19849C33.0491 7.61756 34.3142 8.21094 35.4748 9.17517C38.3669 11.7007 36.2995 14.167 36.2995 14.167C36.7221 13.767 37.0199 13.2547 37.1575 12.6912C37.2952 12.1276 37.2668 11.5366 37.0757 10.9887C37.6883 11.9998 37.982 13.1701 37.9191 14.3487C37.8407 16.292 36.766 17.9683 35.6352 19.3182C35.2982 19.7433 35.0702 20.2435 34.971 20.7757C35.1652 20.2539 35.455 19.7723 35.8256 19.3553C37.0347 17.946 38.0647 16.4848 38.2065 14.3746C38.3334 14.7455 38.8483 15.821 39.6656 16.2289C39.6656 16.2289 38.6356 15.6133 38.1729 13.2139" fill="#222220"/>
<path d="M22.7642 22.2519C22.5831 21.8727 22.4876 21.4588 22.4843 21.0392C22.4742 20.2742 22.1587 19.5445 21.6073 19.0106C21.7198 18.9591 21.8242 18.8917 21.917 18.8103C22.093 18.663 22.234 18.4789 22.3301 18.2712C22.4262 18.0635 22.4751 17.8373 22.4731 17.6087L22.4507 17.2786H22.1148C21.7352 17.2971 21.3563 17.2292 21.0071 17.0801C20.6578 16.931 20.3475 16.7046 20.0996 16.4182C19.9792 16.2893 19.8717 16.1489 19.7787 15.9992C20.109 16.0987 20.4524 16.1487 20.7975 16.1475C20.9057 16.1475 21.0177 16.1475 21.1371 16.1475C21.5421 16.1064 21.9249 15.9433 22.2343 15.6802L22.5813 15.365L22.1857 15.1128C21.3013 14.5491 20.3945 13.481 21.0886 11.6119C21.5401 10.3955 22.5813 9.294 24.2718 8.23705C24.8428 7.86618 25.1563 7.45453 25.1563 7.054C25.1563 6.43095 24.6338 6.18619 24.2494 6.00817C24.0746 5.94162 23.9129 5.84495 23.7718 5.72261C23.4732 5.38142 23.7233 4.72499 23.9994 4.36897L24.3539 3.9091L23.7792 3.79784C23.6484 3.77759 23.5161 3.76767 23.3837 3.76817C23.0275 3.765 22.6743 3.83333 22.3454 3.96907C22.0164 4.10481 21.7184 4.30516 21.4692 4.55811C21.2684 4.76189 21.1135 5.0059 21.0151 5.27386C20.9166 5.54181 20.8768 5.82755 20.8983 6.11201H20.7341H20.6743C19.8347 6.11201 19.4391 5.22936 19.4242 5.19599L19.1891 4.6434L18.8159 5.10698C18.4678 5.55812 18.3087 6.12553 18.3718 6.69056C18.4336 7.00036 18.562 7.29327 18.7481 7.54928C18.9342 7.80529 19.1737 8.01838 19.4503 8.174C19.5031 8.20689 19.553 8.24411 19.5996 8.28526C18.4203 8.65612 17.7635 9.50168 17.0694 10.3769L16.9686 10.503C16.6403 10.9178 16.2246 11.2562 15.7508 11.4945C15.277 11.7328 14.7565 11.8653 14.2257 11.8826L13.6958 11.8678L13.8525 12.3499C13.8525 12.4092 14.3227 13.7814 15.6811 13.7814H15.7483C15.8737 13.7764 15.9985 13.7615 16.1215 13.7369C16.0655 14.4786 15.7894 15.8694 14.5392 16.3849L14.166 16.5406L14.3713 16.9115C14.5368 17.1648 14.7644 17.3723 15.0327 17.5143C15.3009 17.6564 15.6011 17.7284 15.905 17.7237C16.281 17.7275 16.6523 17.641 16.9873 17.4715C17.0397 17.9004 17.136 18.3229 17.2746 18.7324C17.5084 19.3594 17.5084 20.0488 17.2746 20.6757L17.088 21.0688L17.5135 21.1801C17.7091 21.2263 17.9095 21.25 18.1106 21.2506C18.245 21.2512 18.379 21.2363 18.5099 21.2061C18.7848 21.1432 19.0407 21.0161 19.2562 20.8352C19.385 21.251 19.6085 21.6317 19.9093 21.9478C20.4915 22.5436 21.3299 22.8416 22.4246 22.8416H23.0888L22.7642 22.2519ZM22.4432 22.4559C19.4279 22.4559 19.5063 19.8858 19.5063 19.8858C19.4281 20.122 19.2904 20.3343 19.1061 20.5024C18.9219 20.6706 18.6973 20.789 18.4539 20.8463C18.3514 20.8719 18.2461 20.8844 18.1404 20.8834C17.9706 20.8822 17.8015 20.861 17.6366 20.8204C17.9085 20.1032 17.9085 19.3123 17.6366 18.5952C17.4246 18.0001 17.3222 17.372 17.3343 16.7409C17.1645 16.9475 16.9477 17.1111 16.7018 17.2181C16.4559 17.3252 16.1879 17.3726 15.92 17.3565C15.682 17.3604 15.4468 17.3047 15.2361 17.1945C15.0255 17.0843 14.8461 16.9232 14.7146 16.7261C16.7223 15.8953 16.5283 13.2214 16.5283 13.2214C16.297 13.362 16.0306 13.4353 15.7595 13.4328H15.6737C14.5541 13.4328 14.1809 12.2535 14.1809 12.2535H14.2033C14.7861 12.2336 15.3575 12.0876 15.8777 11.8256C16.3978 11.5636 16.8542 11.192 17.2149 10.7366C17.98 9.7687 18.6106 8.91943 19.8496 8.58566L19.9728 8.5634L19.9989 8.44102C20.0325 8.25188 19.9019 8.07016 19.6257 7.88473C17.9165 6.77215 19.0771 5.35175 19.0771 5.35175C19.0771 5.35175 19.5623 6.48658 20.6594 6.48658H20.7378C20.863 6.4839 20.9877 6.4715 21.111 6.4495L21.3125 6.4087C21.2299 6.12495 21.2273 5.8241 21.3049 5.53897C21.3826 5.25384 21.5375 4.99537 21.7528 4.79175C21.9677 4.57288 22.225 4.39957 22.5091 4.28228C22.7933 4.165 23.0984 4.10617 23.406 4.10936C23.5161 4.108 23.626 4.11669 23.7344 4.13532C23.3613 4.62486 23.0851 5.44076 23.5217 5.94513C23.8949 6.37903 24.8204 6.39758 24.8204 7.05771C24.8204 7.33215 24.5629 7.64738 24.1039 7.93294C22.7194 8.80075 21.3461 9.95042 20.7714 11.4895C20.0586 13.4106 20.8647 14.6863 22.0141 15.4206C21.7636 15.63 21.4553 15.7593 21.1296 15.7915C21.0214 15.7915 20.9206 15.7915 20.8199 15.7915C20.2193 15.8177 19.6282 15.6354 19.148 15.276C19.2436 15.7825 19.4729 16.2548 19.8123 16.6445C20.0942 16.9693 20.4465 17.2264 20.8426 17.3966C21.2388 17.5669 21.6687 17.6457 22.0999 17.6272C22.0954 17.8036 22.0523 17.9769 21.9737 18.1351C21.8951 18.2932 21.7828 18.4325 21.6446 18.5433C21.346 18.7423 21.0049 18.8692 20.6482 18.9141C20.6482 18.9141 21.9469 19.1774 22.0924 21.0837C22.0885 21.568 22.2052 22.0457 22.432 22.4744L22.4432 22.4559Z" fill="#222220"/>
<path d="M15.7109 10.1874C15.8542 10.1884 15.9967 10.1659 16.1326 10.1207C16.4907 9.96395 16.7944 9.70599 17.0059 9.37893C17.2871 8.99202 17.6485 8.66954 18.0657 8.43323L18.5882 8.15509L18.103 7.8176C17.8358 7.64592 17.5255 7.55213 17.2074 7.54688C17.0031 7.54851 16.8013 7.59181 16.6145 7.67411C16.4277 7.7564 16.2599 7.87593 16.1214 8.02529C15.7463 8.45638 15.234 8.74692 14.6697 8.8486L14.1436 8.90052L14.36 9.37893C14.4879 9.62548 14.6816 9.83234 14.9199 9.97688C15.1581 10.1214 15.4318 10.1981 15.7109 10.1985V10.1874ZM16.3789 8.29601C16.4833 8.18008 16.6109 8.08718 16.7536 8.0233C16.8963 7.95942 17.0509 7.92599 17.2074 7.92515C17.4565 7.92288 17.7011 7.99105 17.9127 8.12171C16.8566 8.68171 16.6402 9.57919 16.0468 9.77946C15.9485 9.81404 15.845 9.83161 15.7408 9.83138C15.5314 9.82951 15.3263 9.77173 15.1471 9.66407C14.9678 9.55642 14.821 9.40285 14.722 9.21946C15.3754 9.11164 15.9713 8.78281 16.4088 8.2886" fill="#222220"/>
<path d="M18.0808 14.3672C18.0165 13.1885 18.3104 12.0178 18.9242 11.0072C18.7331 11.5552 18.7047 12.1462 18.8424 12.7097C18.98 13.2733 19.2779 13.7856 19.7004 14.1855C19.7004 14.1855 17.6292 11.7193 20.5252 9.19373C21.682 8.2332 22.9471 7.63982 23.6002 7.21704C21.2454 7.98101 20.0923 7.13916 20.0923 7.13916C20.4179 7.39159 20.7946 7.57102 21.1965 7.66512C21.5985 7.75922 22.0162 7.76577 22.4209 7.68433C22.2567 7.76221 22.0851 7.8475 21.9022 7.94393C19.9131 9.01572 18.1293 10.781 17.8233 13.225V13.2064C17.3606 15.6059 16.3306 16.2215 16.3306 16.2215C17.1478 15.821 17.6628 14.7566 17.7897 14.3672C17.9278 16.4774 18.9615 17.9386 20.1744 19.3479C20.5448 19.7713 20.8333 20.2592 21.0252 20.7868C20.9249 20.2543 20.6956 19.7541 20.3572 19.3294C19.2377 17.9794 18.1554 16.2994 18.0771 14.3598" fill="#222220"/>
<path d="M27.3169 9.42334V9.90917C27.3815 9.84709 27.4593 9.80021 27.5445 9.77196C27.6298 9.74372 27.7203 9.73485 27.8095 9.74599V10.4432C27.8068 10.6162 27.7606 10.7857 27.6752 10.9365H28.3618C28.2771 10.7854 28.231 10.6161 28.2275 10.4432V9.74599C28.3166 9.73485 28.4072 9.74372 28.4924 9.77196C28.5777 9.80021 28.6555 9.84709 28.7201 9.90917V9.42334H27.3169Z" fill="#222220"/>
<path d="M27.0148 6.54916C27.1243 6.64291 27.251 6.71469 27.388 6.76056L27.4776 6.80135V6.34148L26.6528 5.99658C26.6729 6.10943 26.7165 6.21686 26.7807 6.31201C26.845 6.40717 26.9285 6.48794 27.026 6.54916" fill="#222220"/>
<path d="M28.9779 6.54916C29.0755 6.48811 29.1592 6.40739 29.2235 6.31221C29.2878 6.21703 29.3312 6.1095 29.3511 5.99658L28.5264 6.34148V6.79764L28.6122 6.75685C28.7494 6.71151 28.8762 6.63967 28.9854 6.54546" fill="#222220"/>
<path d="M30.4667 4.69156C30.4667 3.99805 29.295 3.375 28 3.375C26.7051 3.375 25.5333 3.99805 25.5333 4.69156L25.5594 4.86215L26.0781 7.82904L25.5594 8.12944L24.2047 8.90083C24.2047 8.90083 23.9024 9.05659 23.7606 9.1493C23.2494 9.52017 23.1411 10.0171 23.436 10.2285C23.4716 9.98386 23.5968 9.76085 23.7875 9.60213C23.9782 9.4434 24.2211 9.36009 24.4697 9.36811C24.6815 9.37379 24.8889 9.42917 25.075 9.52971C25.2612 9.63026 25.4207 9.77313 25.5407 9.94666C25.6138 10.0363 25.6811 10.1304 25.7422 10.2285C25.8206 10.3546 25.899 10.4659 25.9736 10.5734H22.5254C22.8161 11.0717 22.986 11.6303 23.0217 12.2052V19.8041C23.0217 21.6584 24.4473 22.5263 26.0072 22.5263C27.1977 22.5263 27.3581 22.4706 28.0187 23.1233C28.6717 22.4706 28.8322 22.5263 30.0264 22.5263C31.5676 22.5263 32.9932 21.6473 32.9932 19.8041V12.1941C33.0289 11.6192 33.1988 11.0605 33.4895 10.5623H30.0077C30.0861 10.4547 30.1645 10.3435 30.2391 10.2174C30.3011 10.1199 30.3684 10.0258 30.4406 9.93553C30.5608 9.76222 30.7204 9.6195 30.9065 9.51898C31.0926 9.41846 31.2999 9.36296 31.5117 9.35699C31.7601 9.34978 32.0025 9.43339 32.1931 9.59197C32.3836 9.75055 32.5089 9.97308 32.5454 10.2174C32.8439 10.006 32.7357 9.47566 32.2207 9.13818C32.0938 9.04175 31.7841 8.90083 31.7841 8.90083L30.4406 8.12202L29.9219 7.82162L30.4406 4.85474L30.4667 4.69156ZM26.0333 5.03275L27.8507 5.64467V8.48176L26.4961 7.78825L26.0333 5.03275ZM26.4065 11.0592C26.6506 11.3126 26.9473 11.51 27.276 11.6378C27.2062 11.8832 27.2233 12.1451 27.3245 12.3795C27.4462 12.6273 27.6584 12.8196 27.9179 12.9173C27.9422 13.1254 28.0251 13.3225 28.1572 13.4859C28.2892 13.6492 28.465 13.7722 28.6643 13.8407L28.1194 14.3525L26.0371 14.3191C25.9679 14.2864 25.9106 14.2333 25.8729 14.1671V14.1411L26.2124 14.1967H26.2348C26.2669 14.1972 26.2981 14.1862 26.3227 14.1658C26.3474 14.1454 26.3638 14.1169 26.3692 14.0855C26.3746 14.0501 26.366 14.0141 26.3451 13.985C26.3241 13.9559 26.2926 13.9361 26.2572 13.9297L25.8393 13.8629L26.302 12.272L25.8617 11.3522L25.1563 12.0939L25.1116 13.748L24.6301 13.6738C24.6125 13.6706 24.5943 13.671 24.5768 13.6749C24.5593 13.6788 24.5427 13.6862 24.5281 13.6965C24.5135 13.7069 24.5012 13.7201 24.4918 13.7353C24.4824 13.7505 24.4761 13.7674 24.4734 13.7851C24.468 13.8204 24.4766 13.8565 24.4975 13.8856C24.5185 13.9146 24.55 13.9345 24.5854 13.9408L24.7832 13.9705C24.7123 14.0113 24.6637 14.041 24.66 14.0484L24.6301 14.0929V14.1411C24.5845 14.3476 24.6004 14.5628 24.676 14.7604C24.7515 14.958 24.8834 15.1295 25.0556 15.2537V15.313C25.0448 15.3833 25.0622 15.4549 25.1041 15.5125C25.146 15.5701 25.209 15.609 25.2795 15.6208H25.3243C25.3846 15.6205 25.4429 15.5997 25.4898 15.562C25.5366 15.5242 25.569 15.4717 25.5818 15.4131C25.67 15.4183 25.7585 15.4183 25.8467 15.4131H25.9027L28.6344 15.9027L28.6792 15.873C28.8956 15.721 29.7278 15.1313 30.0003 14.9199C30.0792 14.9882 30.1671 15.0456 30.2615 15.0905C30.1988 15.2814 30.1893 15.4857 30.234 15.6816C30.2786 15.8775 30.3758 16.0577 30.5153 16.2031H23.5106V12.1941C23.4951 11.8041 23.4105 11.4199 23.2606 11.0592H26.4065ZM29.7652 14.7122C29.489 14.9162 28.7762 15.4317 28.5187 15.6097L26.0371 15.1647V15.0979C26.0798 14.9318 26.1023 14.7613 26.1042 14.5898L28.1903 14.6232L28.2314 14.5824C28.2612 14.5527 28.9255 13.9149 29.2614 13.5514C29.3494 13.661 29.4554 13.755 29.5748 13.8296C29.5171 14.1341 29.5799 14.449 29.7502 14.7085L29.7652 14.7122ZM25.6303 14.2857C25.6846 14.3903 25.7674 14.4777 25.8691 14.5379C25.866 14.6884 25.851 14.8385 25.8243 14.9867C25.8243 15.02 25.8243 15.0534 25.7982 15.0868V15.1387C25.6284 15.1393 25.4596 15.113 25.2981 15.0608C25.1526 14.9829 25.0346 14.8626 24.9599 14.7161C24.8852 14.5696 24.8574 14.4039 24.8802 14.2412C25.0141 14.1571 25.1664 14.1063 25.3243 14.0929C25.3902 14.0915 25.455 14.1108 25.5092 14.1481C25.5635 14.1854 25.6046 14.2387 25.6265 14.3006L25.6303 14.2857ZM25.3765 13.7925L25.4176 12.2015L25.7908 11.8306L26.0147 12.2979L25.5706 13.8222L25.3765 13.7925ZM29.7652 22.033H29.392L29.6868 21.1392C29.7316 21.0131 29.5002 20.85 29.4032 20.7053C29.6317 20.8408 29.8672 20.9646 30.1085 21.0762C30.1085 21.1059 29.7652 22.0478 29.7652 22.0478V22.033ZM30.6944 21.0094L30.5003 22.0108C30.3772 22.0108 30.2466 22.0367 30.1272 22.0404L30.3324 21.0799C30.3921 20.7943 29.6196 20.709 29.239 20.1416C29.1165 20.2432 28.9749 20.3195 28.8224 20.366C28.6698 20.4125 28.5095 20.4283 28.3508 20.4124C28.0687 20.4086 27.7876 20.3788 27.5111 20.3233C27.4639 20.3196 27.4165 20.3196 27.3693 20.3233C27.3119 20.3193 27.2544 20.3314 27.2036 20.3582C27.1528 20.3851 27.1106 20.4258 27.082 20.4754L27.026 20.5681L25.9736 20.3233L25.7124 20.7535C25.6924 20.7828 25.6834 20.8181 25.6868 20.8533C25.6902 20.8885 25.7059 20.9214 25.731 20.9464L25.8019 21.0243C25.7325 21.1611 25.6418 21.2863 25.5333 21.3951L25.3765 21.1875C25.3149 21.0951 25.282 20.9867 25.282 20.8759C25.282 20.7651 25.3149 20.6568 25.3765 20.5644L25.7945 19.8635L26.6864 19.9896L26.5483 19.6743C26.3617 19.259 26.6453 18.7324 26.6752 18.4282C26.6752 18.521 26.5782 18.5395 26.4811 18.5395C26.3841 18.5395 26.2908 18.5395 26.2236 18.5395C26.2041 18.5339 26.1834 18.5339 26.1639 18.5395L25.9214 18.6841L25.7497 18.5173C25.7356 18.4909 25.7306 18.4608 25.7353 18.4313C25.74 18.4019 25.7542 18.3748 25.7758 18.3541L26.2162 17.8608L25.6937 17.2563L26.4401 17.6272L26.664 17.3602C26.7237 17.4195 26.6976 17.5753 26.6976 17.5753C26.9594 17.6408 27.1911 17.7929 27.3545 18.0065C27.518 18.2201 27.6034 18.4826 27.597 18.7509C27.597 18.7769 27.597 18.8028 27.597 18.8325V18.8584C27.6714 18.9761 27.7893 19.06 27.9254 19.0921L28.933 19.1922C29.1327 19.1311 29.3375 19.0876 29.545 19.0624C29.7254 19.0633 29.9017 19.1161 30.0525 19.2145C30.1231 19.1666 30.2059 19.1396 30.2914 19.1366H30.3249C30.7765 19.1366 30.9668 19.5445 31.2094 19.8783C31.3922 20.1342 31.6348 20.5162 31.6348 20.5162C31.6007 20.5677 31.5541 20.61 31.4994 20.6391C31.4446 20.6683 31.3834 20.6834 31.3213 20.6831C31.2779 20.6874 31.2342 20.6874 31.1907 20.6831C30.7056 20.5941 30.6347 19.6039 30.3585 19.526H30.3137C30.2876 19.5268 30.2621 19.5344 30.2398 19.5481C30.2175 19.5617 30.1993 19.581 30.1869 19.6039C30.3137 19.9414 30.2391 20.0786 30.3772 20.3456C30.4789 20.5059 30.6048 20.6497 30.7504 20.7721C30.7504 20.7721 30.7317 20.9167 30.7093 21.028L30.6944 21.0094ZM25.272 20.0489L25.3168 20.1639C25.287 20.264 24.9436 20.4086 24.9436 20.4086L24.869 20.2455C24.8215 20.133 24.8133 20.0079 24.8458 19.8902C24.8782 19.7726 24.9495 19.6691 25.0481 19.5965L25.6154 19.2553L26.2162 19.3814C26.2129 19.4999 26.2497 19.6161 26.3207 19.7114L25.69 19.5928L25.3168 19.8524C25.288 19.8762 25.2688 19.9096 25.2627 19.9463C25.2565 19.983 25.2638 20.0208 25.2832 20.0526L25.272 20.0489ZM30.7989 21.944L30.9743 21.0465C30.9743 20.9946 30.9929 20.9316 31.0004 20.8796C31.0508 20.9012 31.1033 20.9174 31.1571 20.9278C31.2167 20.9334 31.2767 20.9334 31.3363 20.9278C31.4367 20.9274 31.5356 20.9041 31.6255 20.8598C31.7155 20.8154 31.794 20.7512 31.855 20.672L31.9893 20.5199L31.8811 20.353C31.8811 20.353 31.6311 19.9599 31.4482 19.7003L31.3437 19.5445C31.2547 19.3496 31.1152 19.1817 30.9395 19.0579C30.7638 18.9341 30.5581 18.8589 30.3436 18.8399H30.2951C30.2199 18.8439 30.1457 18.8589 30.0749 18.8844C29.9142 18.8073 29.7383 18.7668 29.5599 18.7657C29.3814 18.7698 29.2047 18.8037 29.0375 18.8659L28.9479 18.8918L27.9627 18.7954C27.9224 18.7759 27.8877 18.7465 27.8619 18.7101L28.0746 18.6248C28.0149 17.9202 27.3283 17.4863 26.9551 17.3379C26.9382 17.2618 26.8993 17.1921 26.8431 17.1376L26.6304 16.9374L26.4438 17.1599L26.3505 17.2712L24.9697 16.7074L25.8654 17.82L25.5109 18.3541C25.4926 18.372 25.4781 18.3934 25.4682 18.4169C25.4583 18.4405 25.4532 18.4658 25.4532 18.4913C25.4532 18.5168 25.4583 18.5421 25.4682 18.5656C25.4781 18.5892 25.4926 18.6106 25.5109 18.6285L25.884 18.8807L26.2572 18.7398H26.2945C26.2945 18.7954 26.2535 19.0216 26.2348 19.0847L25.578 18.9549L24.8876 19.3257C24.7273 19.4382 24.6131 19.6043 24.5658 19.7936C24.5185 19.9829 24.5413 20.1828 24.6301 20.3567L24.7085 20.5236L24.8167 20.7573L25.0593 20.6571C25.0145 20.7749 25.0006 20.902 25.0188 21.0266C25.0371 21.1512 25.087 21.269 25.1638 21.3692L25.3093 21.5509L25.5034 21.7957L25.7198 21.5657C25.8612 21.4267 25.974 21.2617 26.052 21.0799L26.0968 20.9316L25.9923 20.8166V20.7943L26.1117 20.6015L26.97 20.8018L27.1641 20.8463L27.2686 20.6757L27.3245 20.5829C27.3245 20.5644 27.3245 20.5607 27.3768 20.5607H27.4701C27.7626 20.6187 28.06 20.6497 28.3583 20.6534C28.5587 20.6643 28.7595 20.6405 28.9516 20.5829L29.4032 21.1392L29.1084 22.0033V22.0553C28.8989 22.0513 28.691 22.0912 28.4981 22.1724C28.3053 22.2535 28.1317 22.3741 27.9888 22.5263C27.5298 22.0738 27.2089 22.0293 25.9773 22.0293C24.507 22.0293 23.5106 21.1726 23.5106 19.8041V16.4664H32.467V19.8041C32.4876 20.3014 32.329 20.7897 32.0198 21.1812C31.7107 21.5727 31.2711 21.8419 30.7802 21.9403L30.7989 21.944ZM32.717 11.0592C32.5662 11.4196 32.4815 11.804 32.467 12.1941V14.69C32.3083 14.6565 32.1648 14.5725 32.0584 14.4507C31.952 14.3289 31.8885 14.1759 31.8774 14.015V13.9H31.7654C31.5724 13.8835 31.3921 13.7978 31.2579 13.659C31.0929 13.4705 31.0003 13.2301 30.9967 12.9803C30.9184 13.1074 30.8804 13.255 30.8877 13.4038C30.8951 13.5526 30.9473 13.6958 31.0377 13.8147C31.1826 13.9985 31.3944 14.1184 31.6274 14.1485C31.6594 14.357 31.7585 14.5495 31.9098 14.6973C32.0612 14.845 32.2567 14.9401 32.467 14.9681V16.192H30.9258C30.7283 16.0929 30.5766 15.9221 30.5023 15.715C30.428 15.5079 30.4366 15.2803 30.5265 15.0794L30.5862 14.9459L30.4481 14.8939C30.2328 14.8187 30.0553 14.6634 29.953 14.4607C29.8506 14.258 29.8315 14.0238 29.8995 13.8073L29.9294 13.6961L29.8249 13.6478C29.6334 13.5368 29.4795 13.3718 29.3825 13.1738C29.2855 12.9757 29.2498 12.7535 29.28 12.5353C29.1757 12.637 29.1067 12.7693 29.0832 12.9127C29.0597 13.0561 29.0829 13.2032 29.1494 13.3326C29.0748 13.4142 28.9777 13.518 28.8695 13.6256C28.683 13.5851 28.515 13.4847 28.3916 13.34C28.2682 13.1952 28.1961 13.0141 28.1866 12.8245V12.7207L28.1008 12.6873C27.9874 12.6521 27.8824 12.5942 27.7926 12.517C27.7027 12.4398 27.6297 12.345 27.5783 12.2386C27.5061 12.0671 27.4929 11.8767 27.541 11.6971C27.6147 11.7135 27.6896 11.7246 27.7649 11.7305C27.8407 11.7344 27.9167 11.7344 27.9925 11.7305C28.2912 11.7298 28.5865 11.6667 28.8591 11.5453C29.1317 11.424 29.3755 11.247 29.5748 11.0259L32.717 11.0592ZM30.31 8.52997L30.922 8.90083L31.075 8.98983C30.7576 9.07586 30.4699 9.24641 30.2428 9.48308L30.2279 9.49421C30.1757 9.54983 30.1272 9.60546 30.0786 9.6648L30.0488 9.70189C30.0015 9.76123 29.9567 9.82304 29.9144 9.88732L29.892 9.9207C29.8398 9.99487 29.7913 10.0765 29.7428 10.158C29.5759 10.4883 29.3275 10.771 29.0207 10.9799C28.714 11.1887 28.3589 11.3169 27.9888 11.3522C27.62 11.3156 27.2665 11.187 26.9611 10.9782C26.6558 10.7694 26.4085 10.4873 26.2423 10.158C26.1938 10.0765 26.1453 9.99858 26.0968 9.9244L26.0669 9.88361L25.9363 9.7056L25.9027 9.6648C25.8542 9.60546 25.8057 9.54983 25.7572 9.49791L25.7497 9.46825C25.5224 9.23278 25.2346 9.06351 24.9175 8.97871L25.0742 8.8897L25.6863 8.51884L26.3132 8.14798L27.9888 9.08626L29.6681 8.17765L30.31 8.52997ZM29.4815 7.78825L28.1418 8.48917V5.64467L29.9592 5.03275L29.4815 7.78825ZM27.9888 5.34056L25.9997 4.55805C26.1677 4.16123 26.9514 3.81632 27.9888 3.81632C29.0263 3.81632 29.8099 4.15752 29.9816 4.55805L27.9888 5.34056Z" fill="#222220"/>
</g>
<defs>
<clipPath id="clip0_133_156">
<rect width="56" height="42" fill="white"/>
</clipPath>
</defs>
</svg>
