<svg width="27" height="27" viewBox="0 0 27 27" fill="none" xmlns="http://www.w3.org/2000/svg">
<path fill-rule="evenodd" clip-rule="evenodd" d="M6.75 2.7C4.51325 2.7 2.7 4.51325 2.7 6.75V20.25C2.7 22.4868 4.51325 24.3 6.75 24.3H20.25C22.4868 24.3 24.3 22.4868 24.3 20.25V6.75C24.3 4.51325 22.4868 2.7 20.25 2.7H6.75ZM0 6.75C0 3.02208 3.02208 0 6.75 0H20.25C23.9779 0 27 3.02208 27 6.75V20.25C27 23.9779 23.9779 27 20.25 27H6.75C3.02208 27 0 23.9779 0 20.25V6.75Z" fill="#0ECB81"/>
<path fill-rule="evenodd" clip-rule="evenodd" d="M18.4734 9.81508C19.0174 10.325 19.0449 11.1793 18.535 11.7233L13.4725 17.1233C12.9721 17.657 12.1376 17.695 11.5907 17.209L8.55322 14.509C7.99596 14.0136 7.94577 13.1603 8.44111 12.6031C8.93645 12.0458 9.78975 11.9956 10.347 12.491L12.4019 14.3175L16.5652 9.87664C17.0752 9.3327 17.9295 9.30514 18.4734 9.81508Z" fill="#0ECB81"/>
</svg>
