<svg width="60" height="60" viewBox="0 0 60 60" fill="none" xmlns="http://www.w3.org/2000/svg">
<path d="M0 0H60V60H0V0Z" fill="#0ECB81"/>
<path d="M31.2889 39.2485C31.5246 39.0235 31.657 38.7183 31.657 38.4V24.4984L37.0517 29.6506C37.2877 29.8759 37.6078 30.0025 37.9416 30.0025C38.2754 30.0025 38.5955 29.8759 38.8315 29.6506C39.0675 29.4253 39.2001 29.1197 39.2001 28.8011C39.2001 28.4825 39.0675 28.1769 38.8315 27.9516L31.29 20.7524C31.1732 20.6407 31.0345 20.552 30.8818 20.4915C30.7291 20.431 30.5654 20.3999 30.4001 20.3999C30.2348 20.3999 30.0711 20.431 29.9184 20.4915C29.7657 20.552 29.627 20.6407 29.5102 20.7524L21.9687 27.9516C21.7327 28.1769 21.6001 28.4825 21.6001 28.8011C21.6001 29.1197 21.7327 29.4253 21.9687 29.6506C22.2047 29.8759 22.5248 30.0025 22.8586 30.0025C23.1924 30.0025 23.5125 29.8759 23.7485 29.6506L29.1432 24.4984V38.4C29.1432 38.7183 29.2756 39.0235 29.5113 39.2485C29.747 39.4735 30.0667 39.5999 30.4001 39.5999C30.7335 39.5999 31.0532 39.4735 31.2889 39.2485Z" fill="white"/>
</svg>
