<svg width="16" height="16" viewBox="0 0 16 16" fill="none" xmlns="http://www.w3.org/2000/svg">
<path d="M14.6667 0H1.33333C0.979711 0 0.640573 0.140476 0.390524 0.390524C0.140476 0.640573 0 0.979711 0 1.33333V14.6667C0 15.0203 0.140476 15.3594 0.390524 15.6095C0.640573 15.8595 0.979711 16 1.33333 16H14.6667C15.0203 16 15.3594 15.8595 15.6095 15.6095C15.8595 15.3594 16 15.0203 16 14.6667V1.33333C16 0.979711 15.8595 0.640573 15.6095 0.390524C15.3594 0.140476 15.0203 0 14.6667 0ZM12.125 6.48333L7.24167 11.15C7.11542 11.2688 6.94832 11.3344 6.775 11.3333C6.60423 11.334 6.43988 11.2682 6.31667 11.15L3.875 8.81667C3.80728 8.75758 3.7522 8.68541 3.71308 8.6045C3.67396 8.52358 3.6516 8.4356 3.64736 8.34582C3.64311 8.25605 3.65706 8.16634 3.68836 8.0821C3.71967 7.99785 3.76769 7.9208 3.82953 7.85559C3.89137 7.79037 3.96576 7.73834 4.04823 7.7026C4.13069 7.66687 4.21953 7.64818 4.30941 7.64766C4.39928 7.64714 4.48833 7.66479 4.57121 7.69957C4.65408 7.73434 4.72907 7.78551 4.79167 7.85L6.775 9.74167L11.2083 5.51667C11.338 5.40357 11.5063 5.34497 11.6781 5.3531C11.85 5.36123 12.012 5.43546 12.1304 5.56029C12.2487 5.68512 12.3143 5.85087 12.3133 6.02289C12.3123 6.19491 12.2448 6.35989 12.125 6.48333Z" fill="#0ECB81"/>
</svg>
