<svg width="72" height="72" viewBox="0 0 72 72" fill="none" xmlns="http://www.w3.org/2000/svg">
<path d="M36 6C30.0666 6 24.2664 7.75947 19.3329 11.0559C14.3994 14.3524 10.5543 19.0377 8.28363 24.5195C6.013 30.0013 5.4189 36.0333 6.57646 41.8527C7.73401 47.6721 10.5912 53.0176 14.7868 57.2132C18.9824 61.4088 24.3279 64.266 30.1473 65.4236C35.9667 66.5811 41.9987 65.987 47.4805 63.7164C52.9623 61.4458 57.6477 57.6006 60.9441 52.6671C64.2405 47.7336 66 41.9334 66 36C66 32.0603 65.224 28.1593 63.7164 24.5195C62.2088 20.8797 59.999 17.5726 57.2132 14.7868C54.4275 12.001 51.1203 9.79126 47.4805 8.28361C43.8408 6.77597 39.9397 6 36 6ZM36 54C35.4067 54 34.8267 53.8241 34.3333 53.4944C33.84 53.1648 33.4554 52.6962 33.2284 52.148C33.0013 51.5999 32.9419 50.9967 33.0577 50.4147C33.1734 49.8328 33.4591 49.2982 33.8787 48.8787C34.2983 48.4591 34.8328 48.1734 35.4147 48.0576C35.9967 47.9419 36.5999 48.0013 37.1481 48.2284C37.6962 48.4554 38.1648 48.8399 38.4944 49.3333C38.8241 49.8266 39 50.4067 39 51C39 51.7957 38.6839 52.5587 38.1213 53.1213C37.5587 53.6839 36.7957 54 36 54ZM39 38.52V42C39 42.7957 38.6839 43.5587 38.1213 44.1213C37.5587 44.6839 36.7957 45 36 45C35.2044 45 34.4413 44.6839 33.8787 44.1213C33.3161 43.5587 33 42.7957 33 42V36C33 35.2044 33.3161 34.4413 33.8787 33.8787C34.4413 33.3161 35.2044 33 36 33C36.89 33 37.7601 32.7361 38.5001 32.2416C39.2401 31.7471 39.8169 31.0443 40.1575 30.2221C40.4981 29.3998 40.5872 28.495 40.4136 27.6221C40.2399 26.7492 39.8113 25.9474 39.182 25.318C38.5527 24.6887 37.7508 24.2601 36.8779 24.0865C36.005 23.9128 35.1002 24.0019 34.2779 24.3425C33.4557 24.6831 32.7529 25.2599 32.2584 25.9999C31.7639 26.74 31.5 27.61 31.5 28.5C31.5 29.2956 31.1839 30.0587 30.6213 30.6213C30.0587 31.1839 29.2957 31.5 28.5 31.5C27.7044 31.5 26.9413 31.1839 26.3787 30.6213C25.8161 30.0587 25.5 29.2956 25.5 28.5C25.4922 26.5509 26.027 24.6381 27.0446 22.9757C28.0622 21.3134 29.5225 19.967 31.2619 19.0875C33.0013 18.208 34.9511 17.83 36.8932 17.9958C38.8352 18.1616 40.6928 18.8647 42.2579 20.0263C43.823 21.188 45.0339 22.7624 45.755 24.5732C46.476 26.384 46.6789 28.3598 46.3407 30.2794C46.0026 32.1989 45.1368 33.9865 43.8403 35.4419C42.5439 36.8973 40.8679 37.9631 39 38.52Z" fill="#0ECB81"/>
</svg>
