<svg width="52" height="34" viewBox="0 0 52 34" fill="none" xmlns="http://www.w3.org/2000/svg">
<rect width="52" height="34" rx="4" fill="#0ECB81"/>
<path d="M26.252 18.2214H26.6405V19.0648H26.9212L27.4249 18.2214H27.8496L27.245 19.2113V19.2182L27.8856 20.2984H27.4466L26.9283 19.3922H26.6478V20.2984H26.2591V18.2212H26.252V18.2214ZM28.7563 18.7721C29.2238 18.7721 29.6054 19.0997 29.6054 19.5527C29.6054 20.0129 29.2312 20.3335 28.7635 20.3335C28.2956 20.3335 27.9214 20.0129 27.9214 19.5527C27.9142 19.0928 28.2884 18.7721 28.7563 18.7721ZM29.9075 18.8068H30.2746V19.978H30.7568V18.807H31.1236V19.978H31.6058V18.807H31.9729V20.2984H29.9219V18.8068H29.9075ZM33.0597 18.7721C33.4985 18.7721 33.7432 19.0858 33.7432 19.4762C33.742 19.5253 33.7372 19.5741 33.7289 19.6225H32.6709C32.6926 19.8803 32.9013 20.0198 33.1317 20.0198C33.2898 20.0198 33.4482 19.9501 33.5705 19.8595L33.7217 20.1245C33.5634 20.2566 33.3258 20.3405 33.1028 20.3405C32.5918 20.3405 32.2753 19.9849 32.2753 19.5597C32.2753 19.0928 32.5989 18.7721 33.0597 18.7721ZM33.923 19.9849C34.1102 19.957 34.2469 19.8038 34.2469 19.2739V18.807H35.3697V20.2984H34.9881V19.1064H34.6139V19.2737C34.6139 19.9219 34.4341 20.2984 33.923 20.3123V19.9847V19.9849ZM36.4634 18.7721C36.9022 18.7721 37.1469 19.0858 37.1469 19.4762C37.1457 19.5253 37.1409 19.5741 37.1326 19.6225H36.0747C36.0964 19.8803 36.3051 20.0198 36.5354 20.0198C36.6936 20.0198 36.8519 19.9501 36.9743 19.8595L37.1255 20.1245C36.9671 20.2566 36.7296 20.3405 36.5066 20.3405C35.9957 20.3405 35.679 19.9849 35.679 19.5597C35.679 19.0928 36.0029 18.7721 36.4634 18.7721ZM37.4636 18.8068H37.845V19.3785H38.0322L38.4064 18.807H38.8309L38.3415 19.5178V19.525L38.8884 20.2984H38.4424L38.0394 19.6922H37.8381V20.2984H37.4563V18.8068H37.4634H37.4636ZM28.7563 20.0129C29.0082 20.0129 29.2169 19.8246 29.2169 19.5458C29.2169 19.2739 29.0082 19.0787 28.7561 19.0787C28.5045 19.0787 28.303 19.2672 28.303 19.5458C28.303 19.8246 28.5043 20.0129 28.7563 20.0129ZM33.3547 19.3647C33.3547 19.1695 33.2178 19.051 33.0451 19.051C32.851 19.051 32.7069 19.1764 32.6709 19.3647H33.3547ZM36.7584 19.3647C36.7584 19.1695 36.6218 19.051 36.4491 19.051C36.2545 19.051 36.1107 19.1764 36.0747 19.3647H36.7584Z" fill="white"/>
<path d="M31.6273 13.6975V17.2177C31.6276 17.2305 31.6252 17.2433 31.6203 17.2553C31.6153 17.2673 31.6079 17.2781 31.5985 17.2873C31.5891 17.2964 31.5779 17.3035 31.5655 17.3083C31.5532 17.3131 31.5399 17.3154 31.5266 17.3151H30.7854C30.7721 17.3154 30.7589 17.3131 30.7465 17.3083C30.7342 17.3035 30.723 17.2964 30.7136 17.2873C30.7042 17.2781 30.6968 17.2673 30.6918 17.2553C30.6869 17.2433 30.6845 17.2305 30.6848 17.2177V13.6975C30.6845 13.6846 30.6869 13.6718 30.6918 13.6599C30.6968 13.6479 30.7042 13.637 30.7136 13.6279C30.723 13.6188 30.7342 13.6116 30.7465 13.6069C30.7589 13.6021 30.7721 13.5997 30.7854 13.6H31.5266C31.5399 13.5997 31.5532 13.6021 31.5655 13.6069C31.5779 13.6116 31.5891 13.6188 31.5985 13.6279C31.6079 13.637 31.6153 13.6479 31.6203 13.6599C31.6252 13.6718 31.6276 13.6846 31.6273 13.6975ZM37.4131 13.6C37.4419 13.6 37.4779 13.6139 37.5137 13.6418C37.5354 13.6626 37.5354 13.6975 37.5283 13.7255L36.3048 17.2525C36.2974 17.2708 36.2845 17.2865 36.2679 17.2977C36.2513 17.3089 36.2316 17.315 36.2113 17.3154H35.5493C35.5061 17.3154 35.4701 17.2943 35.4558 17.2525L34.743 15.1963L34.0306 17.2523C34.0232 17.2706 34.0103 17.2863 33.9937 17.2975C33.977 17.3086 33.9573 17.3148 33.9371 17.3151H33.275C33.2319 17.3151 33.1959 17.2943 33.1815 17.2523L31.9581 13.7253C31.9509 13.6975 31.9509 13.6696 31.9724 13.6418C31.9869 13.6139 32.023 13.6 32.0516 13.6H32.8791C32.9223 13.6 32.9583 13.6278 32.9729 13.6696L33.6275 15.7538L34.3473 13.6696C34.3547 13.6513 34.3676 13.6356 34.3842 13.6244C34.4008 13.6133 34.4205 13.6071 34.4408 13.6067H35.0237C35.0668 13.6067 35.1028 13.6278 35.1171 13.6696L35.8369 15.7538L36.4918 13.6696C36.4977 13.6498 36.5099 13.6324 36.5267 13.6199C36.5436 13.6074 36.5641 13.6004 36.5853 13.6H37.4128H37.4131ZM38.6652 13.6C38.7155 13.6 38.7586 13.6418 38.7658 13.6975V17.2177C38.7661 17.2305 38.7637 17.2433 38.7588 17.2553C38.7538 17.2673 38.7464 17.2781 38.737 17.2873C38.7276 17.2964 38.7164 17.3035 38.704 17.3083C38.6917 17.3131 38.6785 17.3154 38.6652 17.3151H37.9239C37.9106 17.3154 37.8974 17.3131 37.885 17.3083C37.8727 17.3035 37.8615 17.2964 37.8521 17.2873C37.8427 17.2781 37.8353 17.2673 37.8303 17.2553C37.8254 17.2433 37.823 17.2305 37.8233 17.2177V13.6975C37.823 13.6846 37.8254 13.6718 37.8303 13.6599C37.8353 13.6479 37.8427 13.637 37.8521 13.6279C37.8615 13.6188 37.8727 13.6116 37.885 13.6069C37.8974 13.6021 37.9106 13.5997 37.9239 13.6H38.6652ZM30.2529 17.1899C30.296 17.2387 30.26 17.3082 30.1952 17.3082H29.2884C29.2706 17.3087 29.2528 17.3052 29.2366 17.2979C29.2204 17.2906 29.2061 17.2799 29.1949 17.2664L29.044 17.0853C28.7272 17.2803 28.3528 17.399 27.9572 17.399C26.8491 17.399 25.9495 16.5276 25.9495 15.4541C25.9495 14.3806 26.8491 13.5093 27.9572 13.5093C29.0654 13.5093 29.965 14.3806 29.965 15.4541C29.965 15.8376 29.8498 16.2001 29.6483 16.5066L30.2529 17.1897V17.1899ZM22.6751 18.8976C22.8623 18.9673 22.9343 19.239 22.9486 19.3575C22.9775 19.5737 22.9128 19.6574 22.8408 19.6574C22.7688 19.6574 22.6679 19.5737 22.5601 19.4065C22.4521 19.239 22.4089 19.0509 22.4666 18.9532C22.5024 18.8904 22.5816 18.8627 22.6753 18.8976H22.6751ZM21.5814 19.6853C21.6965 19.6853 21.826 19.734 21.9412 19.8315C22.1642 20.0129 22.2291 20.2219 22.1139 20.3753C22.049 20.452 21.9412 20.5008 21.8189 20.5008C21.6965 20.5008 21.567 20.459 21.4807 20.3823C21.2792 20.215 21.2217 19.936 21.351 19.7828C21.4015 19.72 21.4807 19.6853 21.5814 19.6853ZM19.0629 21.6997C16.3281 21.6997 14.1118 19.5527 14.1118 16.9039C14.1118 14.2552 16.3283 12.1084 19.0627 12.1084C21.7972 12.1084 24.0137 14.2554 24.0137 16.9039C24.0137 17.803 23.7547 18.6467 23.3159 19.3647C23.3013 19.3855 23.2653 19.3785 23.2582 19.3506C23.0855 18.1726 22.3443 17.5242 21.2649 17.3292C21.1711 17.3151 21.1568 17.2595 21.2792 17.2456C21.6102 17.2177 22.0779 17.2246 22.3226 17.2664C22.3369 17.1479 22.3443 17.0225 22.3443 16.897C22.3443 15.1473 20.8761 13.7253 19.0698 13.7253C17.2637 13.7253 15.7956 15.1473 15.7956 16.897C15.7956 18.6467 17.2637 20.0688 19.07 20.0688H19.221C19.1697 19.7858 19.148 19.4985 19.1561 19.2113C19.1635 19.0161 19.2067 18.9881 19.293 19.1415C19.7464 19.9013 20.3941 20.5844 21.6605 20.8563C22.6968 21.0794 23.733 21.3373 24.8484 22.7104C24.9491 22.8289 24.7981 22.9543 24.6829 22.8568C23.546 21.8808 22.5098 21.5602 21.567 21.5602C20.5091 21.5673 19.7896 21.6997 19.0627 21.6997H19.0629ZM28.4537 16.4091L28.0578 15.942C28.0149 15.8933 28.0509 15.8166 28.1155 15.8166H28.9502C28.9934 15.705 29.0151 15.5796 29.0151 15.4541C29.0151 14.8757 28.5689 14.3737 27.9572 14.3737C27.3457 14.3737 26.8992 14.8757 26.8992 15.4541C26.8992 16.0326 27.3457 16.5276 27.9572 16.5276C28.1298 16.5346 28.3027 16.4858 28.4537 16.4091Z" fill="white"/>
</svg>
