<svg width="70" height="70" viewBox="0 0 70 70" fill="none" xmlns="http://www.w3.org/2000/svg">
<g opacity="0.6">
<path d="M35 70C15.6471 70 0 54.3529 0 35C0 15.6471 15.6471 0 35 0C54.3529 0 70 15.6471 70 35C70 54.3529 54.3529 70 35 70ZM35 4.11765C17.9118 4.11765 4.11765 17.9118 4.11765 35C4.11765 52.0882 17.9118 65.8824 35 65.8824C52.0882 65.8824 65.8824 52.0882 65.8824 35C65.8824 17.9118 52.0882 4.11765 35 4.11765Z" fill="#0ECB81"/>
<path d="M24.7059 52.9118V17.0882L55.5882 35L24.7059 52.9118ZM28.8235 24.0882V45.7059L47.3529 34.7941L28.8235 24.0882Z" fill="#0ECB81"/>
</g>
</svg>
