<svg width="50" height="50" viewBox="0 0 50 50" fill="none" xmlns="http://www.w3.org/2000/svg">
<g clip-path="url(#clip0_138_23)">
<path d="M25 -1.09278e-06C18.3696 -8.0296e-07 12.0107 2.63392 7.32233 7.32233C2.63392 12.0107 -1.38261e-06 18.3696 -1.09278e-06 25C-8.0296e-07 31.6304 2.63392 37.9893 7.32233 42.6777C12.0107 47.3661 18.3696 50 25 50C31.6304 50 37.9893 47.3661 42.6777 42.6777C47.3661 37.9893 50 31.6304 50 25C50 18.3696 47.3661 12.0107 42.6777 7.32233C37.9893 2.63392 31.6304 -1.38261e-06 25 -1.09278e-06ZM35.9375 23.4375C36.3519 23.4375 36.7493 23.6021 37.0424 23.8951C37.3354 24.1882 37.5 24.5856 37.5 25C37.5 25.4144 37.3354 25.8118 37.0424 26.1049C36.7493 26.3979 36.3519 26.5625 35.9375 26.5625L17.8344 26.5625L24.5438 33.2687C24.8371 33.5621 25.002 33.9601 25.002 34.375C25.002 34.7899 24.8371 35.1879 24.5438 35.4812C24.2504 35.7746 23.8524 35.9395 23.4375 35.9395C23.0226 35.9395 22.6246 35.7746 22.3312 35.4812L12.9562 26.1063C12.8107 25.9611 12.6953 25.7887 12.6165 25.5989C12.5378 25.409 12.4972 25.2055 12.4972 25C12.4972 24.7945 12.5378 24.591 12.6165 24.4011C12.6953 24.2113 12.8107 24.0389 12.9562 23.8937L22.3312 14.5187C22.6246 14.2254 23.0226 14.0605 23.4375 14.0605C23.8524 14.0605 24.2504 14.2254 24.5437 14.5187C24.8371 14.8121 25.002 15.2101 25.002 15.625C25.002 16.0399 24.8371 16.4379 24.5437 16.7312L17.8344 23.4375L35.9375 23.4375Z" fill="#0ECB81"/>
</g>
<defs>
<clipPath id="clip0_138_23">
<rect width="50" height="50" fill="white" transform="translate(0 50) rotate(-90)"/>
</clipPath>
</defs>
</svg>
