<svg width="193" height="196" viewBox="0 0 193 196" fill="none" xmlns="http://www.w3.org/2000/svg">
<g clip-path="url(#clip0_96_515)">
<path d="M139.528 66.1944C137.768 64.7685 135.844 63.5589 133.796 62.5917C133.244 62.3287 132.679 62.0938 132.104 61.8879C131.383 61.6533 130.651 61.4578 129.909 61.3022C128.651 60.9941 127.35 60.9008 126.061 61.0263C125.801 61.0637 125.555 61.1677 125.347 61.3281C125.139 61.4885 124.976 61.7 124.874 61.942C122.756 61.5687 120.583 61.6383 118.492 62.1462C116.13 62.7342 113.874 63.69 111.809 64.9784C107.488 67.7647 103.598 71.1678 100.262 75.0797C96.7796 79.0964 93.5731 83.3443 90.6645 87.7941C90.1949 88.4902 89.7253 89.1863 89.2628 89.8883C85.5819 95.3634 81.782 101.029 77.159 105.895C75.9055 107.187 74.6235 108.397 73.3541 109.473C72.3586 110.331 71.2998 111.112 70.1868 111.81C68.9797 112.523 67.6881 113.083 66.3421 113.476C65.1105 113.801 63.8447 113.978 62.5712 114.005C61.0516 113.993 59.5384 113.808 58.0605 113.454C55.2066 112.675 52.4611 111.543 49.8876 110.084C47.2374 108.613 44.6454 106.939 42.1314 105.316L41.2615 104.765C39.9655 103.928 38.4512 102.961 36.9437 102.06C36.2673 101.654 35.5792 101.263 34.8924 100.884L33.7876 100.298L32.8434 99.7947C32.3257 99.5179 31.8197 99.2266 31.3007 98.9367C29.5889 97.9773 27.8208 96.9841 25.9991 96.1748C24.7945 95.6164 23.5317 95.193 22.234 94.9124C21.7366 94.8012 21.2277 94.7496 20.7181 94.7587C20.3954 94.7561 20.073 94.7784 19.7537 94.8254C19.3326 94.8906 18.9208 95.0064 18.5274 95.1703C17.8903 95.422 17.3016 95.7825 16.7878 96.2356C16.2145 96.73 15.7134 97.3023 15.299 97.9358C14.5053 99.1635 13.9305 100.52 13.6002 101.944C13.4183 102.593 13.2816 103.254 13.1908 103.922C13.1308 104.638 13.1105 105.357 13.13 106.076C13.1025 107.472 13.1943 108.869 13.4043 110.25C14.1408 115.123 16.3721 120.072 20.2613 125.398C23.6187 129.833 27.3876 133.941 31.5176 137.667C34.0652 140.06 36.6078 142.341 39.0602 144.452C40.1785 145.361 41.1896 146.254 42.207 147.08C44.0469 148.575 45.7764 149.896 47.4977 151.138C52.8719 155.098 58.7762 158.282 65.0372 160.596C65.3041 160.813 65.6396 160.99 65.9693 161.174C67.2126 161.899 68.5125 162.523 69.8562 163.038C71.227 163.559 72.6332 163.981 74.0641 164.301C75.4324 164.612 76.8213 164.824 78.22 164.935C79.7008 165.046 81.1875 165.053 82.6692 164.957C84.0671 164.873 85.4567 164.685 86.8266 164.395C88.2364 164.097 89.619 163.682 90.9599 163.155C92.4442 162.554 93.872 161.823 95.2264 160.969C98.0331 159.201 100.594 157.07 102.842 154.631C104.668 152.737 106.414 150.72 108.107 148.754C108.575 148.177 109.044 147.6 109.569 147.057C110.095 146.513 110.355 146.09 110.799 145.661C111.496 144.802 112.289 143.974 113.02 143.118C114.01 141.899 115.082 140.579 116.344 138.922C117.976 136.752 119.525 134.55 121.029 132.418L123.27 130.013L125.18 127.972C130.33 122.623 135.157 116.972 139.633 111.048C141.808 108.082 143.781 104.972 145.54 101.742C146.378 100.195 147.166 98.5606 147.896 96.8663C148.538 95.411 149.069 93.9093 149.485 92.374C149.876 90.8615 150.136 89.3181 150.262 87.7609C150.369 86.2052 150.336 84.643 150.161 83.0933C149.987 81.5277 149.63 79.9879 149.097 78.5054C148.545 77.1034 147.839 75.7671 146.993 74.5208C146.222 73.3542 145.386 72.2318 144.49 71.1587C143.479 69.9403 142.39 68.7883 141.231 67.7097C140.674 67.1728 140.091 66.6516 139.506 66.1769L139.528 66.1944ZM32.4816 135.876L32.4095 135.817L32.763 136.104L32.5105 135.899L32.4816 135.876Z" fill="#FAD82F"/>
<path d="M136.568 63.7783C134.362 62.6393 132.029 61.765 129.618 61.1737C127.282 60.5931 124.876 60.3394 122.47 60.4199C120.133 60.5043 117.828 60.984 115.652 61.8387C115.113 62.0539 114.584 62.296 114.069 62.5641C113.228 62.9947 112.398 63.4573 111.603 63.9491C110.056 64.9057 108.579 65.9704 107.182 67.1353C104.341 69.5243 101.722 72.166 99.3579 75.0278C96.9564 77.8664 94.7424 80.8573 92.5573 83.8717C91.5058 85.3284 90.4673 86.7838 89.4216 88.2332C88.376 89.6827 87.4908 91.0231 86.5542 92.4414C84.5973 95.4256 82.6967 98.4436 80.5548 101.302C79.0091 103.433 77.2814 105.427 75.3911 107.26C73.8277 108.728 72.0912 109.999 70.22 111.046C68.9084 111.744 67.5179 112.283 66.0782 112.651C64.7899 112.931 63.4743 113.067 62.1557 113.057C60.2269 112.976 58.315 112.661 56.4619 112.119C52.5394 110.85 48.7976 109.078 45.3299 106.848L45.4886 106.977C43.2298 105.585 41.0341 104.101 38.843 102.597L38.2513 102.116C36.9092 101.026 35.56 99.93 34.1124 98.9696C32.6871 97.9647 31.1956 97.0572 29.6481 96.2533C28.1248 95.477 26.5175 94.8784 24.8576 94.4692C23.2244 94.0407 21.5278 93.9074 19.8478 94.0756C18.4528 94.2351 17.1241 94.7576 15.9941 95.5909C14.9411 96.4006 14.0923 97.4457 13.5155 98.6423C13.2327 99.2078 13.002 99.7977 12.8261 100.405C12.6287 101.119 12.4788 101.845 12.3776 102.579C12.1686 104.038 12.1048 105.514 12.187 106.986C12.2568 108.413 12.4415 109.833 12.7395 111.23C13.4772 114.585 14.6511 117.829 16.2312 120.88C19.5894 127.177 23.9415 132.891 29.12 137.803C31.6089 140.268 34.2223 142.594 36.8943 144.848C39.5663 147.102 42.176 149.138 44.9192 151.187C50.5949 155.453 56.737 159.061 63.2273 161.94C66.4209 163.323 69.7341 164.411 73.1257 165.191C76.3391 165.936 79.6382 166.244 82.9338 166.106C85.8563 165.971 88.7369 165.358 91.4612 164.292C94.1029 163.252 96.5903 161.857 98.8545 160.144C101.252 158.306 103.486 156.262 105.529 154.036C106.802 152.675 107.982 151.311 109.18 149.925C110.597 148.298 111.994 146.667 113.389 145.023C118.954 138.448 124.369 131.747 129.634 124.921C132.274 121.509 134.857 118.064 137.411 114.595C138.628 112.949 139.83 111.292 141.033 109.635C142.016 108.278 143.004 106.913 143.958 105.533C145.991 102.711 147.777 99.719 149.294 96.5895C150.776 93.5441 151.661 90.243 151.9 86.8646C151.97 85.6652 151.925 84.4618 151.765 83.2709C151.607 82.0948 151.348 80.9345 150.99 79.803C150.245 77.5325 149.16 75.3879 147.773 73.4423C146.344 71.43 144.667 69.6054 142.783 68.0118L142.155 67.5019C140.411 66.0971 138.53 64.8705 136.542 63.8405L136.568 63.7783ZM143.893 71.4518C145.388 73.0505 146.679 74.8276 147.738 76.743C148.562 78.2935 149.192 79.9393 149.614 81.6433C149.953 83.1132 150.113 84.6184 150.093 86.1266C150.01 87.9125 149.714 89.6822 149.212 91.3979C148.234 94.4722 146.864 97.4076 145.135 100.132C143.381 102.969 141.413 105.657 139.446 108.345C136.963 111.741 134.489 115.095 131.932 118.466C126.737 125.333 121.386 132.086 115.881 138.726C113.272 141.938 110.606 145.097 107.884 148.202C105.754 150.749 103.497 153.188 101.123 155.509C98.8343 157.694 96.2793 159.581 93.5182 161.126C91.5595 162.158 89.4824 162.947 87.3328 163.477C85.1359 163.96 82.8889 164.177 80.6401 164.123C77.1682 163.96 73.7294 163.37 70.4013 162.367L70.6533 162.44C64.5941 160.586 58.8056 157.942 53.4375 154.574L53.6395 154.739C48.8958 151.803 44.3536 148.553 40.0433 145.011C35.7203 141.563 31.6258 137.837 27.7858 133.857C24.0579 129.983 20.8508 125.639 18.2457 120.935C16.649 117.959 15.4288 114.796 14.613 111.519C14.1388 109.484 13.9138 107.4 13.9428 105.311C13.9678 103.905 14.1623 102.507 14.522 101.148C14.7636 100.34 15.0976 99.5629 15.5174 98.8316C15.8272 98.3472 16.1908 97.8995 16.6015 97.4971C16.9741 97.156 17.3844 96.8586 17.8245 96.6107C18.3016 96.3724 18.8028 96.1854 19.3194 96.053C20.0266 95.8927 20.749 95.8091 21.4741 95.8037C22.6397 95.8588 23.7956 96.0428 24.9207 96.3524C26.6448 96.9063 28.2964 97.6649 29.8399 98.6121C31.7821 99.8186 33.5922 101.217 35.4141 102.601C36.3233 103.34 37.2968 103.999 38.288 104.636C38.8053 104.973 39.3414 105.3 39.8952 105.607C40.4489 105.913 40.9377 106.166 41.4685 106.442C41.5869 106.499 41.7221 106.511 41.8486 106.475L42.3946 106.835C44.7468 108.395 47.1805 109.828 49.6855 111.129C52.2109 112.443 54.8797 113.462 57.6387 114.165C60.2053 114.821 62.8773 114.955 65.4966 114.561C68.5803 113.991 71.4851 112.699 73.9731 110.79C75.374 109.749 76.6817 108.588 77.8817 107.32C79.1074 106.042 80.2583 104.694 81.3285 103.283C83.5123 100.447 85.4319 97.4207 87.3455 94.4013C88.2866 92.9627 89.2277 91.524 90.212 90.1205C91.1964 88.717 92.261 87.2589 93.2833 85.8383C97.164 80.4416 101.152 75.0603 105.989 70.4765C108.506 68.0803 111.318 66.0153 114.358 64.3315C115.092 63.9418 115.848 63.5966 116.623 63.2977C117.328 63.0415 118.047 62.8259 118.776 62.652C120.478 62.2833 122.218 62.1211 123.959 62.1688C126.117 62.2418 128.257 62.5773 130.334 63.1679C132.887 63.9402 135.333 65.0301 137.615 66.4122C139.896 67.8224 141.987 69.5204 143.834 71.4644L143.893 71.4518ZM137.796 66.4992L137.673 66.3996L137.796 66.4992ZM143.9 71.4577L144.03 71.5632L143.9 71.4577ZM114.368 64.3634L114.321 64.4212L114.368 64.3634ZM101.305 155.358L101.211 155.474L101.305 155.358Z" fill="#161616"/>
<path d="M141.004 65.7774C141.218 65.2902 141.392 64.7861 141.522 64.2702C141.784 63.2079 141.842 62.1056 141.694 61.0214C141.538 59.9488 141.191 58.9126 140.67 57.9624C140.15 57.0335 139.488 56.1923 138.706 55.4696L138.165 55.03C137.49 54.4872 136.757 54.0202 135.979 53.6374C135.459 53.3835 134.92 53.1698 134.367 52.998C133.835 52.8243 133.291 52.6907 132.739 52.5982C131.564 52.4173 130.363 52.4964 129.222 52.8299C128.118 53.1516 127.083 53.6753 126.171 54.3745C124.285 55.814 122.88 57.7907 122.14 60.0443C121.961 60.6218 121.843 61.2165 121.789 61.8185C121.726 62.4825 121.721 63.1507 121.771 63.8157C121.845 65.1657 122.189 66.4871 122.782 67.7021C123.066 68.2609 123.433 68.7733 123.871 69.2214C124.064 69.4281 124.272 69.6208 124.493 69.7981C124.723 69.9856 124.976 70.1908 125.336 70.4112C125.814 70.7419 126.317 71.0345 126.841 71.2863C127.377 71.5322 127.93 71.7378 128.497 71.9013C130.643 72.5066 132.927 72.4162 135.018 71.643C135.647 71.4173 136.253 71.1312 136.826 70.7886C137.408 70.4368 137.956 70.0328 138.465 69.5817C139.542 68.6249 140.433 67.4777 141.094 66.1976C141.128 66.1275 141.137 66.0483 141.121 65.9723C141.104 65.8963 141.063 65.8279 141.004 65.7774ZM159.158 86.1866C159.536 85.6455 159.866 85.0718 160.143 84.4724C160.425 83.8753 160.643 83.2503 160.795 82.6077C160.932 81.9929 160.989 81.363 160.964 80.7335C160.955 80.4178 160.922 80.1032 160.867 79.7922C160.821 79.4202 160.741 79.032 160.626 78.6145C160.358 77.3274 159.834 76.1074 159.084 75.0276C158.706 74.4959 158.274 74.0048 157.795 73.5619L157.456 73.2864C157.045 72.9574 156.608 72.6623 156.149 72.4041C155.506 72.055 154.831 71.7708 154.132 71.5556C153.545 71.3628 152.942 71.2217 152.33 71.134C151.097 70.9576 149.841 71.0046 148.625 71.2729C147.453 71.5264 146.342 72.0072 145.355 72.6881C144.355 73.3739 143.511 74.2627 142.877 75.2967C142.603 75.7417 142.373 76.2125 142.19 76.7024C142.073 76.8467 141.95 76.9982 141.833 77.1425L141.798 77.1858C141.626 77.4576 141.492 77.7515 141.399 78.0595C141.212 78.6557 141.112 79.2759 141.101 79.9008C141.083 80.5136 141.127 81.1267 141.231 81.7308C141.34 82.3884 141.498 83.0369 141.704 83.6708C141.901 84.2784 142.139 84.8719 142.416 85.4471C142.644 85.9145 142.918 86.3577 143.234 86.7699C143.734 87.4241 144.31 88.0166 144.95 88.535C145.32 88.8393 145.713 89.1145 146.126 89.3583C146.654 89.6751 147.215 89.9339 147.798 90.1301C148.333 90.3128 148.885 90.4439 149.445 90.5215C150.657 90.6849 151.89 90.6179 153.078 90.324C153.657 90.1725 154.222 89.9703 154.766 89.7199C155.354 89.4572 155.917 89.1403 156.446 88.7731C157.487 88.0679 158.393 87.182 159.121 86.1573L159.158 86.1866Z" fill="#FEFEFE"/>
<path d="M140.196 99.1364C138.455 97.695 136.558 96.455 134.539 95.4399C133.585 94.9546 132.582 94.5732 131.547 94.3024C130.618 94.0519 129.655 93.9486 128.694 93.9962C127.57 94.0645 126.481 94.4157 125.529 95.0174C124.738 95.5338 124.047 96.1896 123.49 96.9529C123.372 97.0156 123.272 97.1078 123.2 97.2207C122.931 97.5519 122.737 97.9371 122.63 98.3501C122.522 98.8866 122.512 99.4384 122.601 99.9785C122.661 100.48 122.774 100.973 122.938 101.45C123.106 101.934 123.3 102.408 123.522 102.87C124.106 104.017 124.884 105.054 125.822 105.936C126.249 106.354 126.729 106.78 127.342 107.278L128.388 108.128L129.189 108.779L130.632 109.951L131.556 110.701L133.172 112.014L134.226 112.87C136.152 114.435 137.958 115.794 139.722 117.059C141.485 118.323 143.367 119.589 145.324 120.807L146.364 121.472C146.938 121.843 147.533 122.23 148.131 122.585C149.295 123.306 150.539 123.887 151.839 124.316C152.444 124.501 153.07 124.607 153.702 124.632C154.303 124.65 154.901 124.534 155.451 124.292C155.721 124.16 155.975 123.996 156.207 123.804C156.534 123.541 156.801 123.212 156.992 122.838C157.325 122.092 157.41 121.258 157.234 120.46C157.167 120.087 157.063 119.722 156.923 119.369C156.784 119.014 156.62 118.669 156.433 118.336C156.248 118.019 156.038 117.716 155.837 117.433L155.705 117.242L154.617 115.736C153.685 114.464 152.696 113.206 151.742 111.976C150.789 110.747 149.709 109.378 148.737 108.038L148.687 107.997C147.659 106.598 146.552 105.258 145.37 103.986C143.822 102.326 142.168 100.766 140.419 99.3181L140.196 99.1364Z" fill="#EC5042"/>
<path d="M157.663 122.999C157.677 122.953 157.688 122.906 157.694 122.857L157.747 122.793C157.98 122.061 158.069 121.291 158.007 120.526C157.961 119.907 157.842 119.296 157.654 118.706C157.473 118.104 157.244 117.518 156.97 116.953C156.345 115.694 155.608 114.494 154.768 113.368C153.938 112.251 153.049 111.193 152.127 110.146C151.31 109.206 150.469 108.295 149.61 107.347C148.587 106.204 147.601 105.044 146.565 103.915C144.703 101.82 142.685 99.8686 140.528 98.0778C139.792 97.4799 139.033 96.911 138.25 96.3708C137.476 95.8497 136.672 95.3645 135.845 94.9083C135.128 94.5186 134.386 94.176 133.624 93.8826C132.984 93.6559 132.327 93.4787 131.66 93.3524C130.99 93.2364 130.312 93.1739 129.632 93.1657C128.375 93.1349 127.124 93.336 125.94 93.759C124.814 94.1427 123.801 94.8017 122.994 95.6761C122.211 96.5599 121.729 97.6693 121.618 98.8446C121.503 100.292 121.768 101.745 122.385 103.06C122.556 103.44 122.771 103.8 123.025 104.13C123.338 104.541 123.669 104.929 124.019 105.309C125.013 106.416 126.091 107.447 127.187 108.457C128.56 109.716 129.93 110.889 131.338 112.045C134.533 114.676 137.873 117.126 141.343 119.382C143.008 120.458 144.706 121.479 146.497 122.371C147.939 123.143 149.441 123.798 150.988 124.331C152.19 124.775 153.462 124.997 154.743 124.986C155.223 124.98 155.695 124.867 156.126 124.656C156.557 124.444 156.935 124.14 157.233 123.764C157.412 123.531 157.557 123.273 157.663 122.999ZM155.56 123.878C155.512 123.893 155.462 123.905 155.412 123.913C155.102 123.977 154.785 124.005 154.469 123.997C153.762 123.954 153.063 123.824 152.387 123.611C151.165 123.234 149.979 122.751 148.841 122.168C147.45 121.492 146.094 120.714 144.761 119.907C143.053 118.855 141.383 117.726 139.756 116.559C138.128 115.393 136.38 114.081 134.752 112.782C133.124 111.484 131.7 110.303 130.236 108.994C128.985 107.895 127.765 106.772 126.605 105.59L125.954 104.918C125.545 104.478 125.148 104.023 124.769 103.56C124.507 103.245 124.271 102.91 124.064 102.556C123.998 102.431 123.953 102.31 123.9 102.183C123.725 101.767 123.581 101.338 123.469 100.9C123.365 100.419 123.31 99.9285 123.304 99.4366C123.316 99.0714 123.362 98.7082 123.443 98.3518C123.541 98.0447 123.67 97.7481 123.827 97.4664C124.028 97.1599 124.26 96.8748 124.518 96.6152C124.855 96.3183 125.222 96.0587 125.614 95.8411C126.156 95.5651 126.729 95.355 127.32 95.2153C128.063 95.0558 128.822 94.9773 129.582 94.9813C130.497 95.0156 131.405 95.1545 132.288 95.3952C133.617 95.8407 134.889 96.4434 136.075 97.1905C139.402 99.3837 142.43 102 145.083 104.974C145.974 105.926 146.848 106.899 147.728 107.865C148.406 108.608 149.102 109.329 149.785 110.051L149.619 109.916C150.702 111.06 151.761 112.219 152.752 113.431C153.77 114.642 154.671 115.947 155.443 117.329C155.888 118.14 156.232 119.003 156.469 119.899C156.603 120.461 156.67 121.038 156.667 121.616C156.649 121.86 156.612 122.102 156.557 122.341C156.475 122.574 156.375 122.801 156.257 123.019C156.167 123.145 156.069 123.266 155.964 123.38C155.842 123.555 155.707 123.722 155.56 123.878ZM142.04 66.199C142.818 63.8781 142.794 61.363 141.973 59.0567C141.696 58.2817 141.335 57.5391 140.897 56.8421C140.016 55.4521 138.828 54.2818 137.425 53.4204C136.022 52.5589 134.441 52.0291 132.803 51.8714C131.289 51.7266 129.761 51.8959 128.315 52.3687L128.212 52.3926C127.848 52.5162 127.49 52.6325 127.142 52.7808C126.739 52.9534 126.347 53.1507 125.968 53.3714C125.241 53.7899 124.57 54.2989 123.971 54.8862C122.774 56.0292 121.857 57.4317 121.288 58.9854C120.719 60.5392 120.515 62.2029 120.691 63.8482C120.977 66.365 122.118 68.7077 123.923 70.4848C125.699 72.1986 127.989 73.2806 130.44 73.5637C132.075 73.7385 133.727 73.5472 135.279 73.0037C136.06 72.7279 136.807 72.3624 137.505 71.9145C138.226 71.4521 138.89 70.9065 139.484 70.2892C140.058 69.6933 140.559 69.0315 140.977 68.3176C141.392 67.652 141.728 66.9411 141.98 66.1986L142.04 66.199ZM138.243 69.4726C137.016 70.6139 135.515 71.4199 133.886 71.813C133.081 71.9867 132.258 72.0696 131.434 72.0601C130.646 72.0286 129.865 71.9077 129.104 71.6998C128.301 71.4598 127.531 71.1199 126.812 70.6881C126.1 70.2419 125.446 69.7105 124.864 69.1056C123.731 67.9087 122.933 66.4348 122.551 64.832C122.359 64.0006 122.27 63.1486 122.288 62.2955C122.322 61.4661 122.451 60.6434 122.674 59.8438C122.92 59.0565 123.254 58.2994 123.669 57.5868C124.119 56.8707 124.654 56.2119 125.263 55.6247C125.913 55.0322 126.629 54.5169 127.397 54.0891C127.822 53.8676 128.261 53.6722 128.71 53.5039L128.746 53.4607C128.962 53.3837 129.182 53.319 129.406 53.2668C131.004 52.8819 132.674 52.9186 134.254 53.3732C134.666 53.4964 135.072 53.6419 135.469 53.8092C135.871 53.9942 136.263 54.2008 136.643 54.4278C137.369 54.8857 138.037 55.4288 138.634 56.0454C139.757 57.2463 140.551 58.7162 140.94 60.3132C141.32 61.9198 141.277 63.5971 140.817 65.1823C140.344 66.8109 139.446 68.2838 138.214 69.4492L138.243 69.4726ZM140.439 79.4342C140.269 80.8936 140.391 82.3724 140.797 83.7845C140.979 84.4428 141.227 85.0812 141.537 85.6902C141.87 86.3438 142.264 86.9645 142.713 87.5441C143.182 88.1262 143.704 88.6629 144.274 89.1469C144.855 89.6252 145.485 90.0407 146.153 90.3863C146.803 90.7256 147.487 90.9959 148.193 91.1928C149.554 91.5829 150.978 91.7027 152.386 91.5454C153.103 91.464 153.811 91.3133 154.5 91.0955C155.194 90.8758 155.863 90.5851 156.498 90.228C157.77 89.5404 158.885 88.5947 159.771 87.4513C160.66 86.308 161.315 85.0009 161.698 83.6046C162.065 82.2369 162.162 80.8107 161.983 79.4058C161.894 78.6976 161.74 77.9991 161.522 77.3193C161.308 76.6515 161.03 76.0054 160.694 75.3897C160.031 74.192 159.14 73.1351 158.072 72.2779L157.914 72.1489C156.764 71.2425 155.443 70.5769 154.03 70.1918C152.653 69.832 151.218 69.7491 149.809 69.9479C149.087 70.052 148.377 70.225 147.689 70.4645C147.004 70.7193 146.345 71.0375 145.719 71.4149C143.5 72.7792 141.825 74.8726 140.981 77.3364C140.711 78.0139 140.51 78.7164 140.379 79.4337L140.439 79.4342ZM144.575 73.7666C145.21 73.1915 145.907 72.6894 146.653 72.2697C147.402 71.8885 148.192 71.5939 149.007 71.3919C149.789 71.2101 150.588 71.1164 151.39 71.1124C152.2 71.1569 153.003 71.291 153.784 71.5124C155.451 72.0008 156.957 72.9264 158.145 74.1931C158.717 74.8257 159.211 75.5244 159.617 76.2742C159.978 76.9778 160.259 77.7202 160.454 78.487C160.631 79.272 160.714 80.0751 160.702 80.8797C160.672 81.6788 160.55 82.4718 160.339 83.243C160.114 84.0024 159.802 84.7331 159.409 85.4206C159.35 85.4928 159.292 85.5649 159.233 85.637C158.781 86.348 158.248 87.004 157.645 87.5919C157.031 88.1608 156.35 88.6528 155.616 89.0572C154.877 89.4375 154.096 89.7311 153.289 89.9323C152.516 90.1014 151.726 90.1831 150.935 90.1757C150.113 90.1507 149.297 90.0265 148.505 89.806C147.67 89.5502 146.87 89.1936 146.122 88.7443C145.404 88.2807 144.738 87.7403 144.138 87.1325C143.58 86.5202 143.095 85.8452 142.693 85.1212C142.301 84.3716 142.002 83.5772 141.801 82.7556C141.63 81.9806 141.55 81.1884 141.562 80.3949C141.583 79.6075 141.699 78.8255 141.909 78.0663C142.153 77.2391 142.496 76.4447 142.932 75.7007C143.176 75.3103 143.439 74.9325 143.72 74.5686C143.991 74.3094 144.245 74.0254 144.516 73.7661L144.575 73.7666ZM132.394 61.1775C132.417 60.9074 132.408 60.6355 132.369 60.3672C132.334 60.1221 132.278 59.8803 132.202 59.6445C132.117 59.3885 132.003 59.1432 131.861 58.9133C131.725 58.6768 131.563 58.4564 131.377 58.2564C131.247 58.1323 131.107 58.0186 130.959 57.9164L130.72 57.723C130.51 57.5771 130.285 57.4542 130.048 57.3565C129.793 57.2443 129.525 57.1633 129.25 57.1153C128.863 57.0452 128.467 57.0348 128.077 57.0846C127.7 57.1307 127.331 57.2356 126.986 57.3957C126.619 57.5693 126.281 57.8005 125.987 58.0805C125.859 58.2158 125.741 58.3605 125.635 58.5133C125.497 58.656 125.372 58.8105 125.26 58.975C125.204 59.033 125.153 59.0958 125.108 59.1625C125.044 59.2928 124.987 59.4266 124.938 59.5634C124.84 59.8119 124.774 60.0718 124.741 60.337C124.711 60.5723 124.702 60.8098 124.715 61.0467C124.726 61.318 124.773 61.5865 124.857 61.8447C124.885 61.9556 124.921 62.0645 124.964 62.1707L125.007 62.2058L125.177 62.5715C125.408 63.0326 125.737 63.4382 126.14 63.7603C126.38 63.9604 126.641 64.1329 126.92 64.2743L127.028 64.3622L127.122 64.4384C127.624 64.651 128.167 64.7484 128.711 64.7234C128.968 64.7182 129.224 64.6806 129.472 64.6116C129.601 64.5842 129.728 64.5469 129.851 64.4998C129.999 64.4534 130.143 64.3943 130.282 64.323C130.756 64.081 131.175 63.7422 131.511 63.3285C131.848 62.9148 132.093 62.4353 132.233 61.9209C132.292 61.6771 132.326 61.4278 132.334 61.177L132.394 61.1775ZM145.79 76.5614C145.708 76.6624 145.677 76.8044 145.623 76.9288C145.57 77.0533 145.588 76.9721 145.571 76.9937C145.543 77.0068 145.519 77.0259 145.499 77.0497C145.48 77.0734 145.467 77.1011 145.459 77.1308L145.357 77.4784C145.318 77.6061 145.292 77.7371 145.278 77.8697C145.239 78.1462 145.232 78.4263 145.259 78.7043C145.284 78.9474 145.329 79.1881 145.393 79.4238C145.464 79.6902 145.564 79.9479 145.691 80.1925C145.94 80.684 146.291 81.1163 146.721 81.4603C146.931 81.6187 147.153 81.7593 147.386 81.8805C147.626 82.0067 147.88 82.1045 148.143 82.1722C148.654 82.3087 149.188 82.3345 149.71 82.248C150.516 82.1296 151.262 81.7564 151.84 81.1829C152.418 80.6095 152.797 79.866 152.921 79.0614C152.958 78.8063 152.971 78.5484 152.96 78.2909C152.939 78.019 152.893 77.7495 152.824 77.4856C152.69 76.9572 152.448 76.4625 152.112 76.033C151.946 75.8258 151.758 75.6371 151.551 75.4699C151.342 75.3011 151.117 75.1539 150.878 75.0308C150.423 74.7928 149.922 74.6554 149.409 74.6277C148.885 74.5887 148.359 74.6589 147.864 74.8337C147.638 74.9103 147.42 75.0103 147.215 75.1322C146.957 75.2714 146.719 75.4449 146.508 75.6479C146.323 75.8397 146.154 76.0473 146.004 76.2683C145.848 76.3572 145.792 76.4554 145.731 76.5609L145.79 76.5614ZM139.987 43.5429C140.042 43.6167 140.123 43.6665 140.213 43.6818C140.303 43.6972 140.396 43.6768 140.472 43.625C140.621 43.5128 140.778 43.4125 140.943 43.3251C141.599 42.9697 142.337 42.7931 143.083 42.813C143.447 42.8243 143.809 42.8732 144.162 42.9591C144.503 43.0683 144.83 43.2139 145.139 43.3932C145.399 43.5628 145.641 43.7593 145.861 43.9793C146.041 44.1771 146.197 44.3962 146.325 44.6317C146.422 44.8199 146.498 45.0181 146.551 45.2228C146.594 45.4268 146.618 45.6346 146.622 45.8431C146.604 46.0857 146.565 46.3263 146.505 46.5622C146.383 46.9243 146.225 47.2728 146.031 47.6024C145.98 47.6725 145.926 47.74 145.867 47.8044C145.771 47.9313 145.724 48.0886 145.735 48.2475C145.733 48.3379 145.751 48.4275 145.787 48.5104C145.823 48.5933 145.876 48.6676 145.943 48.7281C146.068 48.8297 146.228 48.8781 146.389 48.8627C146.549 48.8474 146.697 48.7695 146.8 48.6461C147.407 47.9436 147.766 47.0616 147.822 46.1353C147.83 45.9288 147.822 45.722 147.798 45.5167C147.766 45.3025 147.717 45.091 147.653 44.8842C147.53 44.5288 147.353 44.1949 147.127 43.8945C146.924 43.6236 146.688 43.3795 146.424 43.1678C146.088 42.8985 145.718 42.6746 145.324 42.5019C144.59 42.1859 143.797 42.0314 142.998 42.0488C141.924 42.0798 140.886 42.441 140.026 43.083C139.963 43.1413 139.925 43.2206 139.918 43.3056C139.911 43.3906 139.936 43.4751 139.987 43.5429ZM162.563 63.6531C162.633 63.7443 162.736 63.8054 162.849 63.8243C162.963 63.8432 163.079 63.8185 163.175 63.755L163.443 63.6017C163.815 63.4113 164.208 63.2643 164.614 63.1635C164.941 63.0967 165.273 63.0622 165.607 63.0607C165.909 63.0761 166.208 63.1227 166.5 63.1996C166.785 63.291 167.06 63.4134 167.318 63.5643C167.549 63.7105 167.763 63.8836 167.953 64.0801C168.11 64.2676 168.252 64.4672 168.378 64.677C168.602 65.1257 168.709 65.6241 168.687 66.1251C168.672 66.4254 168.623 66.723 168.541 67.0124C168.4 67.4492 168.208 67.8681 167.97 68.2608C167.871 68.3835 167.771 68.5061 167.713 68.6508C167.654 68.7246 167.615 68.813 167.601 68.9069C167.58 69.0474 167.613 69.1908 167.695 69.3068C167.78 69.42 167.904 69.4964 168.043 69.5202C168.182 69.544 168.325 69.5133 168.442 69.4344C168.653 69.2327 168.852 69.018 169.036 68.7915C169.228 68.5446 169.395 68.2794 169.536 67.9998C169.755 67.5602 169.893 67.0849 169.945 66.5963C169.971 66.3587 169.977 66.1194 169.963 65.8808C169.937 65.636 169.894 65.3931 169.835 65.154C169.724 64.7404 169.545 64.3481 169.305 63.9931C169.068 63.6481 168.782 63.3394 168.457 63.0765C168.117 62.8036 167.738 62.5843 167.332 62.4264C166.448 62.1042 165.489 62.045 164.572 62.2559C164.258 62.3291 163.95 62.4273 163.651 62.5495C163.311 62.6918 162.984 62.8626 162.673 63.0603C162.582 63.1259 162.52 63.2242 162.5 63.3346C162.479 63.445 162.502 63.5591 162.563 63.6531Z" fill="#161616"/>
</g>
<defs>
<clipPath id="clip0_96_515">
<rect width="127.643" height="148.065" fill="white" transform="translate(93.355) rotate(39.0869)"/>
</clipPath>
</defs>
</svg>
