<svg width="167" height="176" viewBox="0 0 167 176" fill="none" xmlns="http://www.w3.org/2000/svg">
<g clip-path="url(#clip0_96_474)">
<path d="M154.805 100.368C153.881 99.4881 152.813 98.7734 151.647 98.2544C150.453 97.7194 149.219 97.2766 147.957 96.9301L146.341 96.4496C145.712 96.2784 145.113 96.1332 144.471 95.9114C141.518 94.964 138.692 93.6557 136.059 92.016C133.093 90.135 130.368 87.8985 127.944 85.3562C126.633 83.9158 125.492 82.4494 124.52 81.1717C123.442 79.7439 122.326 78.1777 121.145 76.3853C118.846 72.9918 116.74 69.5691 114.808 66.3778C114.004 65.0528 113.213 63.7301 112.416 62.3995C109.191 57.0218 105.876 51.4481 102.199 46.2351C99.9574 43.0208 97.5105 39.9546 94.8736 37.0554C92.6344 34.594 90.2226 32.295 87.6567 30.1763C85.9573 28.7555 84.1683 27.4455 82.3007 26.2543C81.2372 25.5683 80.1213 24.9673 78.9632 24.4568C77.9021 23.9813 76.7758 23.6674 75.6217 23.5255C75.3087 23.4923 74.9941 23.4773 74.6793 23.4805C74.595 23.4143 74.5055 23.3548 74.4119 23.3025C74.04 23.0988 73.6404 22.9503 73.2258 22.8617C72.7424 22.7697 72.2448 22.7855 71.7682 22.908C71.4133 22.9993 71.0784 23.1554 70.7801 23.3684C70.3952 23.6489 70.063 23.9953 69.7987 24.3916C69.6173 24.6264 69.5295 24.9201 69.5522 25.2159C69.5677 25.487 69.6844 25.7424 69.8794 25.9314C69.8153 26.0802 69.761 26.233 69.717 26.3888C69.5446 26.9934 69.5345 27.6328 69.6879 28.2425C69.8436 28.8337 70.0957 29.3952 70.4341 29.9043C70.7625 30.433 71.1564 30.9183 71.6063 31.3484C71.7287 31.4497 71.8787 31.5118 72.0369 31.5268C72.1951 31.5418 72.3542 31.5089 72.4934 31.4323C73.4042 32.6799 74.403 33.8608 75.4822 34.9659C76.726 36.2768 78.0543 37.5398 79.3413 38.7609C80.6284 39.9821 82.1354 41.4147 83.4595 42.8226C84.8662 44.285 86.075 45.9257 87.0548 47.7025C87.4454 48.4212 87.7489 49.1838 87.9591 49.9742C88.0315 50.3406 88.0646 50.7137 88.0581 51.0871C88.0313 51.4423 87.9705 51.7941 87.8765 52.1377C87.812 52.3321 87.7374 52.5229 87.6528 52.7094C87.5863 52.8523 87.559 53.0103 87.5737 53.1673L87.5342 53.1952C87.3246 53.1798 87.1172 53.1439 86.9146 53.0881C86.4472 52.922 85.9984 52.7072 85.5758 52.4475C84.4912 51.7223 83.4952 50.8728 82.6079 49.9162C82.2184 49.4813 81.8345 49.0543 81.4529 48.6138L80.9663 48.0581C80.3303 47.3239 79.7073 46.6753 79.0786 46.0187C77.6115 44.4751 76.1281 43.0258 74.6856 41.7014C71.3258 38.5513 67.619 35.7932 63.6364 33.4802C60.8869 31.8815 57.9054 30.7203 54.7989 30.0384C53.2792 29.7298 51.729 29.5968 50.1789 29.6421C48.6304 29.7099 47.0989 29.9938 45.629 30.4856C45.5474 30.5253 45.4727 30.5779 45.4079 30.6415C45.2537 30.6835 45.1042 30.7414 44.9619 30.8141C44.8515 30.8809 44.7459 30.9554 44.646 31.0369C44.5193 31.1082 44.4002 31.1922 44.2905 31.2876C44.1186 31.4827 43.9952 31.7156 43.9303 31.9674C43.868 32.1874 43.8495 32.4175 43.8757 32.6446C43.8892 32.7578 43.9092 32.8701 43.9354 32.981C43.9142 33.1038 43.9184 33.2296 43.9478 33.3507C44.0089 33.7751 44.1262 34.1896 44.2966 34.5831C44.4655 34.9531 44.653 35.3142 44.8586 35.6651C45.2784 36.3564 45.7747 36.9982 46.3381 37.5784C47.5007 38.7572 48.8039 39.7884 50.2184 40.6488C51.7048 41.5993 53.2637 42.4514 54.6155 43.1774C55.9672 43.9035 57.2786 44.6226 58.5904 45.4597C60.2974 46.5384 61.95 47.691 63.4966 48.8947C65.1474 50.1613 66.6942 51.5582 68.1219 53.0718C68.5249 53.509 68.8842 53.9179 69.2255 54.3514C69.228 54.4497 69.2413 54.5474 69.2653 54.6427C69.3084 54.8657 69.3297 55.0923 69.3286 55.3194C69.3204 55.4401 69.302 55.5599 69.2737 55.6775L69.137 55.9868C69.0468 56.1118 68.9497 56.2316 68.8461 56.3457L68.5854 56.5295L67.964 56.3528C66.2477 55.7878 64.5751 55.0977 62.9597 54.2879C61.4059 53.5269 59.7616 52.6879 57.7949 51.6266L57.5855 51.5142C56.087 50.7142 54.5314 49.8835 52.9729 49.1494C51.792 48.6 50.5756 48.1302 49.332 47.7433C46.5416 46.8916 43.6989 46.2218 40.8218 45.7383C37.3557 45.107 33.8325 44.8445 30.3111 44.955C29.0125 45.0034 27.7193 45.1485 26.4423 45.389C25.2254 45.5996 24.0375 45.953 22.9034 46.4419C22.3836 46.6792 21.8818 46.954 21.4019 47.2643L21.2123 47.398C20.828 47.673 20.4649 47.9766 20.126 48.3061C19.5085 48.9209 19.0078 49.6427 18.6481 50.4364C18.574 50.4392 18.5009 50.4547 18.4321 50.4823L18.2504 50.6104C18.0845 50.7189 17.9601 50.8803 17.8973 51.0683C17.8346 51.2564 17.8373 51.4602 17.9049 51.6466C18.0835 52.0463 18.3038 52.4261 18.5621 52.7797C18.8351 53.1339 19.1438 53.4592 19.4832 53.7503C20.2264 54.3606 21.0575 54.855 21.9485 55.2168C22.8792 55.6123 23.8388 55.9358 24.819 56.1846C25.8588 56.4683 26.9373 56.6894 27.8564 56.8691L29.2033 57.1019L30.5502 57.3347C31.421 57.513 32.2927 57.7261 33.1431 57.9424L33.6748 58.0759C36.0095 58.6529 38.7714 59.3661 41.5584 60.2154C44.1315 60.9984 46.6532 61.9416 49.1086 63.0393C51.0769 63.9374 52.9848 64.9622 54.8204 66.1073L54.8538 66.1547C57.1322 67.5479 59.2266 69.2217 61.0878 71.1369C61.9392 72.0583 62.678 73.0777 63.2886 74.1737C63.5963 74.7985 63.8554 75.4461 64.0634 76.1108C63.9983 76.2571 63.9251 76.3995 63.844 76.5376C63.5234 77.008 63.1486 77.4391 62.7273 77.8219C62.1968 78.3045 61.6353 78.7519 61.0463 79.1612C60.2012 79.7572 59.3091 80.3035 58.5356 80.7663L57.3156 81.4848C56.3595 82.0408 55.374 82.6056 54.4523 83.2439L54.397 83.2829C53.7455 83.7734 53.1364 84.3178 52.576 84.9101C51.7064 85.7772 50.8879 86.694 50.1248 87.656C48.5571 89.6582 47.1909 91.8102 46.0458 94.0808C44.8638 96.4213 43.9045 98.8678 43.1806 101.388C42.4914 103.766 42.0372 106.205 41.8246 108.672C41.7186 109.716 41.6692 110.766 41.6765 111.816C41.6928 112.644 41.7566 113.439 41.7953 114.097C41.9301 115.959 42.2726 117.801 42.8163 119.587C43.1548 120.608 43.5984 121.591 44.1402 122.52C44.6494 123.389 45.2906 124.174 46.0408 124.846C46.7924 125.527 47.7166 125.987 48.7124 126.178C49.7082 126.368 50.7372 126.281 51.6869 125.926C51.7668 125.929 51.8466 125.917 51.922 125.891C52.2959 125.777 52.6491 125.604 52.9677 125.378C53.569 124.957 54.0187 124.354 54.2499 123.657C54.5938 122.448 54.6065 121.169 54.2868 119.953C53.7454 117.691 52.9548 115.496 51.9295 113.408C51.9295 113.408 51.885 113.345 51.8627 113.313L51.8793 112.615C52.1605 108.098 53.5606 103.721 55.9534 99.8783C57.0574 98.1218 58.3752 96.5091 59.8765 95.0773C60.4933 94.5114 61.1449 93.9847 61.8275 93.5003C62.4195 93.0839 63.0364 92.7041 63.6748 92.3631C64.862 91.7455 66.1217 91.2782 67.4246 90.9722C68.689 90.7071 69.9801 90.5905 71.2715 90.6245C72.7751 90.7147 74.2632 90.9789 75.706 91.4118C77.3613 91.9394 78.9476 92.663 80.4311 93.5671C81.9348 94.5118 83.3147 95.6403 84.5389 96.9266C85.4892 97.9809 86.3102 99.1449 86.9843 100.394C87.5104 101.429 87.9126 102.523 88.1827 103.653C88.3861 104.649 88.4758 105.665 88.4499 106.681C88.3784 107.822 88.174 108.95 87.8409 110.044C87.2963 111.688 86.5609 113.262 85.6499 114.735C84.1743 117.049 82.4167 119.17 80.4177 121.051C79.383 121.992 78.2911 122.869 77.1481 123.676C76.0616 124.445 74.9283 125.145 73.7547 125.773L72.1635 126.553L71.966 126.692C71.908 126.687 71.8495 126.688 71.7919 126.696L71.2442 126.775C70.691 126.846 70.1085 126.926 69.5386 126.973C68.9687 127.02 68.0591 127.105 67.1455 127.135C66.4465 127.166 65.7038 127.17 64.8882 127.154L64.4051 127.14L63.6727 127.124L63.3401 127.122L62.7929 127.118C62.3605 127.091 61.9328 127.038 61.5129 126.98L60.8325 126.904C60.316 126.842 59.8488 126.817 59.3592 126.76C59.3335 126.715 59.3037 126.673 59.2701 126.633C59.1696 126.486 59.0407 126.359 58.8908 126.262C58.7409 126.165 58.573 126.098 58.3971 126.066C57.6153 125.877 56.795 125.921 56.038 126.193C55.673 126.318 55.3289 126.497 55.0169 126.724C54.6723 126.972 54.3503 127.251 54.0546 127.556C53.8429 127.814 53.7408 128.145 53.7704 128.478C53.7849 128.645 53.8325 128.807 53.9106 128.955C53.9886 129.103 54.0954 129.234 54.2248 129.34C54.484 129.55 54.8142 129.652 55.1466 129.624C55.3336 129.607 55.5143 129.548 55.6758 129.452C56.199 130.425 56.8131 131.346 57.5097 132.204C58.2583 133.125 59.1306 133.939 60.1019 134.621C60.9955 135.254 61.9726 135.758 63.0051 136.122C64.0246 136.471 65.082 136.698 66.1549 136.798C68.4489 136.979 70.757 136.778 72.9853 136.203C75.2887 135.63 77.5383 134.858 79.7091 133.898C82.7561 132.6 85.7707 131.089 88.685 129.637L90.2864 128.839C93.8999 126.897 97.7296 125.387 101.696 124.34C103.601 123.926 105.549 123.743 107.498 123.796C109.526 123.905 111.532 124.257 113.476 124.843C115.436 125.46 117.382 126.24 119.257 126.987C119.797 127.198 120.328 127.415 120.877 127.607C123.516 128.684 126.213 129.613 128.955 130.39C131.606 131.156 134.359 131.508 137.118 131.434C138.471 131.407 139.816 131.221 141.126 130.878C142.413 130.498 143.644 129.948 144.786 129.243C145.086 129.031 145.402 128.808 145.726 128.58C146.293 128.18 146.839 127.751 147.363 127.295C148.338 126.463 149.262 125.571 150.127 124.624C151.936 122.631 153.505 120.432 154.803 118.074C156.098 115.795 157.008 113.319 157.499 110.744C157.974 108.371 157.787 105.913 156.958 103.639C156.697 103.007 156.377 102.402 156.002 101.83C155.65 101.306 155.249 100.816 154.805 100.368Z" fill="#FAD82F"/>
<path d="M42.6374 30.4193C42.3406 30.7389 42.1163 31.1189 41.9801 31.5333C41.8703 31.886 41.8344 32.2576 41.8747 32.6248C41.9378 33.1468 42.0815 33.6559 42.3005 34.134C42.526 34.6187 42.7995 35.0795 43.1169 35.5097C43.6151 36.1996 44.16 36.8545 44.7478 37.47C47.3173 40.048 50.2232 42.2673 53.3866 44.0678C56.1773 45.7778 59.0216 47.3791 61.6548 49.3185C63.5726 50.7249 65.3043 52.3688 66.8084 54.2111C66.8641 54.29 66.9198 54.369 66.9755 54.448C65.7049 53.8539 64.5933 52.982 63.3493 52.2746C62.5139 51.8112 61.6557 51.3993 60.7999 50.9739C59.944 50.5486 58.8908 50.0614 57.9193 49.6229C54.2169 47.9353 50.3887 46.5386 46.4695 45.4453C42.5354 44.3636 38.4986 43.6984 34.4255 43.4606C33.746 43.4195 33.0451 43.3815 32.3563 43.3942C32.0024 43.3955 31.6359 43.4293 31.2773 43.4574C30.3386 43.5518 29.404 43.7024 28.4782 43.8822C26.3846 44.2856 24.3343 44.888 22.3552 45.6813C21.3819 46.0566 20.4421 46.5136 19.5459 47.0475C19.1426 47.2965 18.7548 47.57 18.3849 47.8664C18.0705 48.1215 17.7783 48.4028 17.5113 48.7072C17.2556 49.0009 17.0405 49.3276 16.8718 49.6786C16.7777 49.8687 16.6995 50.0663 16.6379 50.2693C16.58 50.4972 16.5422 50.7297 16.5247 50.9641C16.5045 51.3325 16.5486 51.7016 16.6553 52.0548C16.7838 52.4789 16.9818 52.8788 17.2414 53.238C17.9459 54.1673 18.8266 54.9488 19.8331 55.5378C21.3042 56.431 22.9057 57.0892 24.5797 57.4887C26.2934 57.9005 28.0297 58.2122 29.7796 58.4222C31.5803 58.678 33.3935 58.9012 35.1755 59.2647C36.0598 59.4453 36.919 59.6909 37.7837 59.9444C38.6485 60.1979 39.8271 60.5612 40.8228 60.8997C42.8291 61.5309 44.807 62.2056 46.771 62.9612C48.0745 63.4848 49.36 64.033 50.6305 64.6271C51.9011 65.2212 52.9022 65.7688 54.0074 66.3968C55.604 67.2801 57.1465 68.2577 58.6268 69.3244C59.7224 70.1167 60.7181 71.0387 61.5922 72.0702C61.9277 72.5065 62.216 72.9772 62.4523 73.4743C62.5575 73.7652 62.638 74.0645 62.693 74.369C62.7134 74.5514 62.7164 74.7354 62.702 74.9184C62.6801 75.0908 62.6415 75.2607 62.5867 75.4256C62.4978 75.6214 62.3933 75.8098 62.2743 75.9889C62.0071 76.3165 61.7067 76.6155 61.3779 76.8812C60.7856 77.299 60.1932 77.7167 59.6087 78.129C59.2296 78.3963 58.8188 78.686 58.4871 78.9199C57.9658 79.2876 57.4445 79.6552 56.9464 80.0893C55.1911 81.4571 53.5211 82.9311 51.9459 84.503C49.0005 87.4756 46.5229 90.8778 44.5978 94.5934C43.7151 96.3138 42.9554 98.0945 42.3243 99.9223C41.6799 101.74 41.1987 103.611 40.8863 105.514C40.5601 107.397 40.418 109.307 40.4621 111.218C40.483 112.126 40.5579 113.033 40.6862 113.933C40.7912 114.708 40.9385 115.477 41.1274 116.236C41.4609 117.536 41.9078 118.803 42.4631 120.025C43.0365 121.358 43.7691 122.616 44.645 123.773C45.4747 124.91 46.5427 125.852 47.7744 126.533C48.6506 126.975 49.6204 127.2 50.6018 127.188C51.0061 127.176 51.4086 127.13 51.8049 127.049C52.3988 126.939 52.9686 126.726 53.4884 126.418C53.9884 126.105 54.4102 125.682 54.7216 125.181C54.979 124.752 55.159 124.281 55.2536 123.789C55.357 123.214 55.3885 122.627 55.3472 122.044C55.2338 120.814 54.9953 119.599 54.6353 118.418C54.3162 117.295 53.9386 116.189 53.6622 115.06C53.5814 114.766 53.5172 114.468 53.4699 114.166C53.2963 112.753 53.2849 111.325 53.4359 109.909C53.6742 108.061 54.1297 106.247 54.793 104.505C55.6093 102.448 56.6798 100.501 57.9795 98.7096C59.1526 97.1491 60.5144 95.7399 62.0338 94.5139C62.5194 94.13 63.0257 93.773 63.5503 93.4444C64.1262 93.0936 64.7265 92.7848 65.3468 92.5204C67.5549 91.6029 69.9632 91.2736 72.3366 91.5646C73.7348 91.7434 75.1073 92.0853 76.4259 92.5835C77.8602 93.1715 79.2195 93.928 80.4752 94.837C81.7181 95.7742 82.8393 96.8627 83.8129 98.0772C84.6736 99.1995 85.3961 100.421 85.9652 101.716C86.4101 102.822 86.7343 103.974 86.9321 105.15C87.0578 106.172 87.0723 107.204 86.9754 108.23C86.8137 109.422 86.516 110.593 86.0882 111.717C85.429 113.307 84.5798 114.812 83.5591 116.198C81.6515 118.666 79.4433 120.887 76.9859 122.809C75.7805 123.765 74.4649 124.574 73.067 125.218C72.1128 125.604 71.1179 125.881 70.1014 126.044C68.334 126.221 66.5516 126.188 64.7921 125.944C63.1809 125.756 61.5846 125.522 59.979 125.341C58.5954 125.096 57.1761 125.139 55.8098 125.467C55.5681 125.546 55.3331 125.645 55.1069 125.761C54.9014 125.871 54.7103 126.006 54.5382 126.162C54.3669 126.305 54.2184 126.474 54.0981 126.662C53.7608 127.19 53.6066 127.814 53.6594 128.438C53.6987 128.912 53.8076 129.377 53.9826 129.819C54.4118 130.843 54.9957 131.795 55.7139 132.642C56.4406 133.546 57.2604 134.371 58.1597 135.104C59.0056 135.825 59.9315 136.445 60.9193 136.954C61.5628 137.263 62.2255 137.531 62.9032 137.755C63.616 138.008 64.3463 138.208 65.0883 138.355C67.8402 138.892 70.6768 138.813 73.395 138.126C76.1504 137.415 78.8077 136.367 81.3068 135.006C86.5082 132.319 91.383 128.834 96.7881 126.453L96.8908 126.381C98.9158 125.503 101.041 124.879 103.219 124.52C104.71 124.311 106.221 124.286 107.719 124.445C109.251 124.658 110.763 124.996 112.24 125.455C113.842 125.933 115.421 126.511 116.971 127.133C119.7 128.201 122.398 129.361 125.165 130.366C127.798 131.4 130.528 132.165 133.315 132.649C134.663 132.869 136.028 132.964 137.393 132.931C138.741 132.887 140.08 132.686 141.381 132.33C142.731 131.946 144.022 131.378 145.217 130.642C146.451 129.874 147.594 128.969 148.624 127.943C149.638 126.953 150.582 125.892 151.447 124.769C152.412 123.556 153.3 122.282 154.104 120.956C154.902 119.649 155.616 118.292 156.242 116.894C156.865 115.517 157.384 114.095 157.795 112.64C158.176 111.293 158.418 109.91 158.516 108.513C158.604 107.235 158.496 105.951 158.196 104.706C157.465 101.674 154.839 98.0849 151.819 97.0218C148.138 95.7267 144.362 94.5816 140.721 93.1755C140.763 93.1902 140.804 93.2089 140.843 93.2312L140.721 93.1755L140.591 93.1252L140.715 93.1676C139.677 92.7551 138.663 92.2857 137.678 91.7617C136.525 91.1295 135.42 90.4147 134.371 89.6228C132.694 88.3607 131.108 86.9811 129.627 85.4944C128.143 83.993 126.75 82.4044 125.455 80.7369C119.99 73.675 115.996 65.6467 111.297 58.0794C110.127 56.1847 108.898 54.331 107.612 52.5181C106.412 50.8173 105.196 49.1321 103.964 47.4626C101.45 44.0318 98.8429 40.6545 96.0374 37.4647C93.2668 34.2699 90.2108 31.3343 86.9072 28.6943C85.2577 27.4001 83.5293 26.2096 81.7321 25.1296C80.9775 24.6801 80.2127 24.2497 79.4196 23.8629C78.7773 23.5623 78.1196 23.2958 77.4492 23.0646C76.2423 22.6471 74.9875 22.3836 73.7146 22.2804C72.6624 22.1694 71.5986 22.2684 70.5849 22.5717C70.1356 22.7014 69.717 22.9201 69.3539 23.2148C68.9908 23.5094 68.6906 23.8741 68.4713 24.287C68.0741 25.2734 68.0828 26.3768 68.4955 27.3567C69.0706 28.7614 69.8809 30.0578 70.8915 31.1902C72.1885 32.7519 73.5852 34.2281 75.0727 35.6095C78.0418 38.2611 80.8358 41.1025 83.4371 44.1157C84.2215 45.1404 84.9394 46.2143 85.5863 47.3308C85.9999 48.0433 86.3755 48.7773 86.7113 49.5297C86.9127 50.0166 87.0669 50.5216 87.1719 51.038L87.1819 51.4212L87.1633 51.5289L87.0327 51.5619C86.8897 51.5698 86.7463 51.5682 86.6036 51.557C86.3709 51.5226 86.141 51.4713 85.9158 51.4035C85.7048 51.3088 85.504 51.1928 85.3167 51.0572C84.213 50.1177 83.2142 49.0614 82.338 47.9068C81.9062 47.3952 81.4903 46.8725 81.0427 46.3721C80.4401 45.6853 79.746 45.0868 79.0835 44.466C75.7583 41.2855 72.2423 38.3107 68.5552 35.558C66.7578 34.2384 64.868 33.0495 62.9004 32.0005C62.0246 31.5301 61.0967 31.1201 60.1958 30.7147C59.8271 30.5608 59.4537 30.4338 59.078 30.3203C58.2021 30.051 57.309 29.8412 56.4136 29.6448C55.3026 29.4112 54.1824 29.2314 53.0575 29.0785C50.7844 28.7183 48.4736 28.6618 46.1857 28.9103C45.2368 28.9987 44.3107 29.2517 43.4487 29.6579C43.3193 29.7369 43.1953 29.8244 43.0774 29.9197C42.8918 30.0499 42.718 30.1963 42.558 30.357L42.6374 30.4193ZM44.1269 31.5923C44.3071 31.4654 44.498 31.3545 44.6974 31.2609C45.1933 31.0838 45.7056 30.9563 46.2266 30.8802C48.0591 30.6915 49.9075 30.7177 51.7339 30.9582C53.2167 31.1267 54.6819 31.3707 56.1294 31.6902C57.2132 31.9053 58.2795 32.2009 59.3195 32.5745C59.9102 32.8084 60.486 33.0883 61.0563 33.3602C61.9391 33.7902 62.7935 34.2639 63.6377 34.7566C65.1806 35.6762 66.6747 36.6752 68.114 37.7497C71.7755 40.5453 75.2768 43.5448 78.6013 46.7338C78.8952 46.9996 79.1947 47.2733 79.4704 47.5637C79.7462 47.8541 79.8567 47.9773 80.0475 48.1975C80.5429 48.7825 81.0359 49.3809 81.5233 49.9715C82.4276 51.1487 83.5115 52.1763 84.7353 53.0165C85.315 53.3525 85.9681 53.5416 86.6376 53.5673C86.9536 53.5889 87.271 53.5715 87.5828 53.5157C87.9075 53.4484 88.211 53.3034 88.4673 53.0929C88.6513 52.939 88.8039 52.7511 88.9167 52.5394C89.0476 52.2719 89.1238 51.9809 89.1409 51.6835C89.1774 51.1085 89.1003 50.5319 88.9141 49.9867C88.7139 49.3763 88.4716 48.7806 88.1889 48.2038C87.9025 47.6133 87.5846 47.0451 87.2722 46.4848C86.2156 44.6817 84.9818 42.9885 83.5892 41.4302C81.787 39.3779 79.7543 37.5354 77.7532 35.6706C75.699 33.8215 73.7816 31.8258 72.0162 29.6992C71.3807 28.9138 70.8422 28.0546 70.4125 27.1402C70.2872 26.8218 70.1932 26.492 70.1319 26.1554C70.114 25.9889 70.1105 25.8213 70.1214 25.6542L70.194 25.3546L70.3246 25.1206L70.544 24.895C70.675 24.785 70.815 24.6863 70.9626 24.5997C71.2619 24.4873 71.5713 24.4037 71.8865 24.3503C72.5506 24.2801 73.2201 24.2796 73.8842 24.3488C75.1053 24.5099 76.3026 24.817 77.4505 25.2634C78.5246 25.7275 79.5648 26.2665 80.5633 26.8765C81.8844 27.6597 83.1567 28.5246 84.4006 29.4332C89.731 33.5841 94.4943 38.4156 98.5689 43.8044L98.4742 43.6702C101.03 46.9416 103.449 50.3212 105.852 53.7119C108.437 57.3768 110.742 61.2153 112.986 65.0849C117.476 72.8105 121.891 80.7312 128.245 87.1074C129.9 88.7506 131.679 90.2639 133.566 91.6336C134.459 92.2884 135.387 92.8933 136.346 93.4458C137.22 93.9381 138.12 94.3809 139.044 94.7721C141.334 95.7985 143.679 96.6993 146.068 97.4704C148.446 98.1588 151.021 98.708 153.17 99.995C153.379 100.124 153.578 100.255 153.768 100.39C154.295 100.786 154.775 101.241 155.198 101.746C155.59 102.263 155.922 102.823 156.186 103.415C156.434 104.057 156.614 104.722 156.723 105.402C156.842 106.502 156.831 107.613 156.692 108.711C156.442 110.557 155.971 112.367 155.289 114.101C154.084 117.025 152.521 119.788 150.635 122.326C149.125 124.418 147.355 126.31 145.369 127.956C144.388 128.702 143.325 129.333 142.2 129.836C141.107 130.282 139.965 130.6 138.798 130.781C137.263 130.968 135.712 130.975 134.176 130.8C129.949 130.095 125.825 128.872 121.898 127.159L122.117 127.253C119.37 126.174 116.63 125.056 113.82 124.14C111.237 123.248 108.533 122.762 105.801 122.699C102.993 122.754 100.217 123.31 97.6042 124.34C94.8647 125.414 92.214 126.702 89.6768 128.193C85.6126 130.479 81.6728 133.01 77.3742 134.847C75.3748 135.708 73.2772 136.322 71.1285 136.673C69.7284 136.855 68.3122 136.878 66.9069 136.741C65.4905 136.558 64.1006 136.208 62.7661 135.699C62.2479 135.493 61.7421 135.258 61.2513 134.993C60.8292 134.747 60.4252 134.476 60.0235 134.192C58.8881 133.33 57.8585 132.337 56.956 131.234C56.4859 130.635 56.0865 129.985 55.7654 129.294C55.6548 129.026 55.5729 128.747 55.521 128.461C55.505 128.332 55.4998 128.201 55.5054 128.07L55.5608 127.83L55.6607 127.653L55.8582 127.514C55.9628 127.423 56.0766 127.343 56.1978 127.275C56.4895 127.168 56.791 127.09 57.0981 127.042C58.4311 126.948 59.7705 127.007 61.0901 127.219L60.8723 127.195C62.4779 127.375 64.0742 127.61 65.6743 127.782C67.0809 127.953 68.5013 127.977 69.913 127.856C71.3978 127.714 72.8517 127.343 74.2229 126.756C75.8995 126.003 77.469 125.031 78.8907 123.866C80.1666 122.865 81.3847 121.793 82.5391 120.654C83.6943 119.499 84.7599 118.257 85.7265 116.94C86.6536 115.697 87.4352 114.352 88.0561 112.932C88.3658 112.233 88.6248 111.513 88.8309 110.777C89.0542 109.986 89.2079 109.177 89.2903 108.359C89.4543 106.758 89.3567 105.142 89.0011 103.572C88.8149 102.775 88.5648 101.994 88.2533 101.238C87.9219 100.424 87.532 99.6359 87.0866 98.8789C86.2613 97.4853 85.2588 96.2046 84.104 95.0689C81.8034 92.803 78.9803 91.1383 75.8839 90.2219C74.363 89.7728 72.7895 89.5265 71.2042 89.4893C69.6176 89.4464 68.0335 89.6425 66.5053 90.0712C64.9208 90.5212 63.4183 91.2215 62.0547 92.1455C61.4782 92.5522 60.9016 92.9588 60.3775 93.4231C59.7915 93.9143 59.2315 94.4356 58.6996 94.9849C55.3567 98.4309 53.0292 102.732 51.9734 107.416C51.6394 108.939 51.4707 110.493 51.4703 112.052C51.4632 113.268 51.6104 114.479 51.9081 115.658C52.165 116.66 52.493 117.611 52.7894 118.585C53.1032 119.579 53.3449 120.594 53.5127 121.623C53.5845 122.152 53.6012 122.687 53.5627 123.22C53.531 123.49 53.4687 123.756 53.377 124.013C53.3046 124.181 53.2163 124.343 53.1134 124.494C53.0107 124.623 52.8972 124.742 52.7742 124.852C52.5969 124.977 52.4086 125.086 52.2116 125.178C51.8619 125.304 51.502 125.399 51.1358 125.463C50.7963 125.498 50.4545 125.501 50.1144 125.474C49.7729 125.421 49.4369 125.337 49.1103 125.224C48.6771 125.036 48.2641 124.804 47.8774 124.533C47.2757 124.051 46.7282 123.505 46.2445 122.905C45.34 121.682 44.5892 120.352 44.0088 118.947C43.6831 118.157 43.3988 117.351 43.1571 116.531C42.9169 115.692 42.7333 114.838 42.6073 113.974C42.3319 111.799 42.3164 109.598 42.5613 107.419C42.9148 104.606 43.6152 101.848 44.6465 99.2071L44.5991 99.2405L44.6544 99.2015C44.679 99.1516 44.6974 99.0989 44.7093 99.0445L44.6646 99.1824C45.9361 96.0078 47.6015 93.0056 49.6216 90.2462C50.8422 88.629 52.1729 87.0978 53.6041 85.6635C55.0428 84.2408 56.5659 82.906 58.165 81.6663C58.9548 81.1092 59.689 80.4732 60.4844 79.9241C61.2798 79.3749 61.9293 78.9878 62.6012 78.4312C62.9074 78.1953 63.1955 77.9368 63.4631 77.6578C63.7351 77.3624 63.9747 77.0387 64.1779 76.6924C64.3645 76.3439 64.4992 75.9699 64.5778 75.5825C64.656 75.1829 64.6706 74.7734 64.621 74.3693C64.3882 72.9862 63.7413 71.7063 62.7656 70.6987C61.7075 69.5223 60.5154 68.4736 59.2137 67.5741C58.0436 66.7199 56.8112 65.9451 55.5663 65.2028C54.0116 64.2729 52.4197 63.4244 50.7907 62.6573C46.7159 60.8336 42.5169 59.3012 38.2253 58.0718C37.6387 57.8942 37.0522 57.7164 36.453 57.5713C35.8539 57.4261 35.1852 57.2828 34.5465 57.1655C33.1997 56.9327 31.8133 56.7277 30.4627 56.5567C27.8977 56.2781 25.3708 55.7205 22.9268 54.8935C21.9296 54.4832 20.9821 53.9611 20.1025 53.3372C19.6877 53.0264 19.3072 52.6723 18.9673 52.281C18.8238 52.1107 18.6952 51.9284 18.583 51.736C18.5364 51.615 18.5 51.4904 18.474 51.3634C18.4578 51.2597 18.4551 51.1543 18.4657 51.0499C18.4883 50.9332 18.5175 50.8178 18.5532 50.7044C18.633 50.5329 18.7264 50.3682 18.8326 50.2117C19.086 49.9073 19.3688 49.6286 19.6769 49.3797C20.5844 48.726 21.5655 48.1809 22.6 47.7557C23.884 47.2351 25.2011 46.8001 26.5426 46.4536C27.8008 46.1229 29.0757 45.8595 30.3618 45.6643C31.0117 45.5589 31.6671 45.4915 32.3248 45.4626C33.0136 45.4499 33.7122 45.5012 34.3996 45.5368C35.3108 45.588 36.2193 45.6687 37.125 45.779C42.5694 46.4703 47.9059 47.84 53.0102 49.8564C56.1245 51.1019 59.1738 52.5039 62.1465 54.0572C62.6875 54.338 63.2001 54.6624 63.7128 54.9868C64.2254 55.3112 64.9261 55.7514 65.5456 56.0596C66.107 56.3587 66.704 56.5855 67.3224 56.7343C67.9723 56.8842 68.6492 56.8702 69.2923 56.6933C69.4434 56.6505 69.5829 56.5737 69.6999 56.4689C69.817 56.3641 69.9086 56.2339 69.9679 56.0884C70.0271 55.9429 70.0524 55.7857 70.0419 55.6289C70.0313 55.4722 69.9852 55.3199 69.907 55.1836C68.6951 53.3074 67.2508 51.592 65.6085 50.0781C63.9909 48.59 62.2492 47.2425 60.4025 46.0503C56.9106 43.7822 53.146 41.8484 49.7689 39.3574C47.9534 38.0419 46.3134 36.4998 44.8887 34.7686C44.4917 34.2574 44.15 33.7055 43.8694 33.1221C43.7921 32.9147 43.7292 32.7022 43.6811 32.4862C43.6732 32.3729 43.672 32.2592 43.6775 32.1457C43.6873 32.0731 43.7043 32.0018 43.7282 31.9326L43.8407 31.7231L44.1014 31.5393L44.1269 31.5923ZM46.0241 30.9284L46.1309 30.9122L46.0241 30.9284ZM30.5518 45.6485L30.6071 45.6095L30.5518 45.6485ZM51.7775 30.9866L51.9336 31.0066L51.7775 30.9866ZM22.8325 54.8772L22.9491 54.9251L22.8325 54.8772ZM49.6119 39.3025C49.6565 39.3657 49.7349 39.3931 49.7976 39.4317C49.8603 39.4703 49.6802 39.349 49.6119 39.3025ZM68.2561 37.8506C68.2655 37.8712 68.2788 37.89 68.2951 37.9059C68.2788 37.89 68.2655 37.8712 68.2561 37.8506ZM52.9136 49.8536L53.0055 49.8833L52.9136 49.8536ZM46.8345 63.0346L46.9646 63.0849C46.9228 63.0644 46.8793 63.0476 46.8345 63.0346ZM49.6169 90.2731L49.5063 90.3511L49.6169 90.2731ZM44.0367 118.986L44.1091 119.089L44.0367 118.986ZM53.4548 121.356L53.4993 121.419L53.4548 121.356ZM59.8336 134.006C59.8615 134.046 59.8838 134.077 59.906 134.109L59.8336 134.006ZM62.8056 135.671L62.9356 135.722L62.8056 135.671ZM107.602 124.48L107.718 124.493L107.602 124.48ZM150.575 122.392L150.482 122.529L150.575 122.392Z" fill="#161616"/>
</g>
<defs>
<clipPath id="clip0_96_474">
<rect width="104.509" height="141.197" fill="white" transform="translate(0 60.4185) rotate(-35.1935)"/>
</clipPath>
</defs>
</svg>
