<svg width="50" height="34" viewBox="0 0 50 34" fill="none" xmlns="http://www.w3.org/2000/svg">
<rect width="50" height="34" rx="4" fill="#0ECB81"/>
<path d="M22.3293 23.036H19.1579L21.1415 11.6983H24.3128L22.3293 23.036Z" fill="white"/>
<path d="M33.8256 11.9754C33.2 11.746 32.2079 11.4927 30.9811 11.4927C27.8492 11.4927 25.6438 13.0364 25.6302 15.2436C25.6042 16.872 27.2093 17.7765 28.4097 18.3194C29.6367 18.8743 30.0538 19.2364 30.0538 19.7309C30.0413 20.4905 29.0623 20.8406 28.1492 20.8406C26.8831 20.8406 26.2046 20.6601 25.1736 20.2375L24.756 20.0564L24.3122 22.6014C25.056 22.9147 26.4264 23.1927 27.8492 23.2048C31.1769 23.2048 33.3433 21.6849 33.3689 19.3329C33.3816 18.0423 32.5341 17.0533 30.7069 16.2452C29.5977 15.7264 28.9184 15.3766 28.9184 14.8459C28.9314 14.3633 29.4929 13.8691 30.745 13.8691C31.776 13.8449 32.5336 14.074 33.1074 14.3032L33.3943 14.4236L33.8256 11.9754Z" fill="white"/>
<path fill-rule="evenodd" clip-rule="evenodd" d="M39.5027 11.6983H41.9558L44.5143 23.0358H41.5779C41.5779 23.0358 41.2906 21.7331 41.1995 21.3351H37.1277C37.0099 21.6365 36.4621 23.0358 36.4621 23.0358H33.1344L37.8452 12.639C38.1715 11.9032 38.7463 11.6983 39.5027 11.6983ZM39.3073 15.8472C39.3073 15.8472 38.3023 18.368 38.0411 19.0193H40.6772C40.5468 18.4525 39.9462 15.7386 39.9462 15.7386L39.7246 14.7617C39.6312 15.0133 39.4963 15.3591 39.4052 15.5924C39.3435 15.7505 39.302 15.8569 39.3073 15.8472Z" fill="white"/>
<path d="M5.41646 11.6983H10.5189C11.2106 11.7222 11.7718 11.9272 11.9544 12.6513L13.063 17.8594L13.0637 17.8615L13.4031 19.4295L16.5089 11.6983H19.8624L14.8775 23.0239H11.5239L8.69722 13.1726C7.72191 12.6455 6.60879 12.2216 5.36426 11.9274L5.41646 11.6983Z" fill="white"/>
</svg>
