<svg width="50" height="34" viewBox="0 0 50 34" fill="none" xmlns="http://www.w3.org/2000/svg">
<rect width="50" height="34" rx="4" fill="#0ECB81"/>
<path d="M36.7966 22.1411L35.9277 24.3183C35.9029 24.3436 35.9029 24.3943 35.9029 24.4196L35.878 24.4702L35.8532 24.4196C35.8532 24.3943 35.8284 24.3436 35.8284 24.3183L34.9594 22.1411H33.8423L35.307 25.8626L34.6864 27.2803H35.8036L37.8642 22.1411H36.7966Z" fill="white"/>
<path d="M28.5546 22.3437C28.356 22.1918 28.1078 22.0905 27.8098 22.0652C27.3134 22.0145 26.8417 22.1918 26.519 22.5209V22.1158H25.501V25.8373H26.519V23.888C26.519 23.4576 26.5933 23.331 26.6679 23.2297C26.792 23.0272 27.0154 22.926 27.2886 22.926C27.5616 22.926 27.8098 23.0525 27.9341 23.2551C28.0085 23.407 28.0332 23.6095 28.0332 23.7108C28.0332 24.0399 28.0332 25.8373 28.0332 25.8373H29.0512V23.5842C29.0512 23.0019 28.8774 22.5968 28.5546 22.3437Z" fill="white"/>
<path d="M23.5643 22.1666C23.0678 21.9894 22.5216 22.0147 22.025 22.2425C21.7023 22.3944 21.4045 22.6476 21.2306 22.9767C21.0568 23.2552 20.9824 23.6096 20.9824 23.9894C20.9824 24.3691 21.0568 24.7235 21.2306 25.002C21.4045 25.2805 21.6279 25.5337 21.9257 25.6856C22.2237 25.8375 22.5712 25.9387 22.894 25.9387C23.0678 25.9387 23.2415 25.9134 23.4154 25.8628C23.5643 25.8122 23.7133 25.7615 23.8622 25.6856C24.1602 25.5084 24.4084 25.2805 24.5575 25.002C24.7312 24.7235 24.8057 24.3691 24.8057 23.9894C24.8305 23.1539 24.3588 22.4451 23.5643 22.1666ZM23.8622 24.04C23.8374 24.3691 23.7381 24.6476 23.5395 24.8248C23.3906 24.9514 23.1672 25.0274 22.894 25.0527C22.621 25.0527 22.4223 24.9767 22.2485 24.8248C22.05 24.6476 21.9507 24.3691 21.9257 24.04C21.9009 23.6603 22.05 23.3565 22.323 23.1539C22.4719 23.0527 22.6706 22.9767 22.8692 22.9767C23.0926 22.9767 23.2665 23.0527 23.4402 23.1539C23.7381 23.3311 23.887 23.6603 23.8622 24.04Z" fill="white"/>
<path d="M19.8158 22.3439C19.6171 22.192 19.3689 22.0908 19.071 22.0654C19.0214 22.0654 18.9469 22.0654 18.8973 22.0654C18.5 22.0654 18.1524 22.2426 17.8545 22.5971L17.8049 22.673H17.7056C17.6311 22.5465 17.5317 22.4452 17.4324 22.3692C17.2338 22.2173 16.9856 22.1161 16.6876 22.0908C16.2159 22.0401 15.8436 22.192 15.5208 22.5465V22.1667H14.5029V25.8882H15.5208V23.9389V23.8882C15.5208 23.4832 15.5705 23.3819 15.6449 23.2553C15.7691 23.0528 15.9925 22.9262 16.2407 22.9515C16.4891 22.9515 16.7125 23.0781 16.8367 23.2806C16.936 23.4325 16.936 23.6097 16.936 23.7869V25.8629H17.9538V23.8629C17.9538 23.4832 18.0034 23.3566 18.0779 23.23C18.202 23.0275 18.4255 22.9262 18.6738 22.9262C18.9221 22.9262 19.1207 23.0528 19.2448 23.2553C19.3193 23.3819 19.3441 23.5338 19.3441 23.6351C19.3441 23.6857 19.3441 23.7363 19.3441 23.7616V25.8376H20.362V23.5591C20.362 23.3566 20.3372 23.154 20.2874 22.9768C20.1883 22.7237 20.0392 22.4958 19.8158 22.3439Z" fill="white"/>
<path d="M32.8744 24.724C32.7255 24.8759 32.3778 25.1544 31.9061 25.1797C31.5088 25.205 31.211 25.0784 30.9876 24.8506C30.8883 24.7493 30.8138 24.5974 30.7642 24.4455H33.5695V24.4202C33.5944 24.2683 33.6192 24.1417 33.6192 23.9898C33.6192 23.8633 33.5944 23.686 33.5447 23.4582C33.4206 23.0278 33.1723 22.6987 32.8496 22.4455C32.4771 22.1671 32.1296 22.0911 32.0302 22.0911C31.3104 21.9645 30.491 22.2936 30.0689 22.9772C29.771 23.4582 29.7959 23.9392 29.7959 24.0911C29.7959 24.2683 29.8207 24.8253 30.2676 25.3316C30.789 25.9139 31.5088 25.9392 31.7323 25.9645C32.7255 25.9898 33.3958 25.3569 33.5447 25.2303L32.8744 24.724ZM31.1365 23.1544C31.2854 23.0531 31.4593 22.9772 31.6827 22.9772C31.9061 22.9772 32.08 23.0531 32.2537 23.1544C32.4027 23.281 32.5268 23.4329 32.6012 23.6101H30.8138C30.8385 23.4329 30.9627 23.2557 31.1365 23.1544Z" fill="white"/>
<path d="M27.4469 7.24951C24.1094 7.24951 21.4546 9.93668 21.4546 13.2294C21.4546 16.5599 24.1473 19.2093 27.4469 19.2093C30.7464 19.2093 33.4391 16.5221 33.4391 13.2294C33.4771 9.93668 30.7464 7.24951 27.4469 7.24951ZM27.4469 15.4624C26.2332 15.4624 25.2092 14.4405 25.2092 13.2294C25.2092 12.0183 26.2332 10.9964 27.4469 10.9964C28.6605 10.9964 29.6845 12.0183 29.6845 13.2294C29.6845 14.4405 28.6984 15.4624 27.4469 15.4624Z" fill="white"/>
<path d="M21.4544 8.99023V17.6951H19.2927L16.562 8.99023H21.4544Z" fill="white"/>
</svg>
